<?xml version="1.0" encoding="utf-8" standalone="no"?>
<!DOCTYPE svg PUBLIC "-//W3C//DTD SVG 1.1//EN"
  "http://www.w3.org/Graphics/SVG/1.1/DTD/svg11.dtd">
<svg xmlns:xlink="http://www.w3.org/1999/xlink" width="857.058125pt" height="713.445522pt" viewBox="0 0 857.058125 713.445522" xmlns="http://www.w3.org/2000/svg" version="1.1">
 <metadata>
  <rdf:RDF xmlns:dc="http://purl.org/dc/elements/1.1/" xmlns:cc="http://creativecommons.org/ns#" xmlns:rdf="http://www.w3.org/1999/02/22-rdf-syntax-ns#">
   <cc:Work>
    <dc:type rdf:resource="http://purl.org/dc/dcmitype/StillImage"/>
    <dc:date>2025-08-15T20:15:34.308048</dc:date>
    <dc:format>image/svg+xml</dc:format>
    <dc:creator>
     <cc:Agent>
      <dc:title>Matplotlib v3.10.5, https://matplotlib.org/</dc:title>
     </cc:Agent>
    </dc:creator>
   </cc:Work>
  </rdf:RDF>
 </metadata>
 <defs>
  <style type="text/css">*{stroke-linejoin: round; stroke-linecap: butt}</style>
 </defs>
 <g id="figure_1">
  <g id="patch_1">
   <path d="M 0 713.445522 
L 857.058125 713.445522 
L 857.058125 0 
L 0 0 
z
" style="fill: #ffffff"/>
  </g>
  <g id="axes_1">
   <g id="patch_2">
    <path d="M 37.008125 318.399005 
L 849.858125 318.399005 
L 849.858125 23.345625 
L 37.008125 23.345625 
z
" style="fill: #eaeaf2"/>
   </g>
   <g id="matplotlib.axis_1">
    <g id="xtick_1">
     <g id="line2d_1">
      <path d="M 94.320741 318.399005 
L 94.320741 23.345625 
" clip-path="url(#pbb3f0dbea5)" style="fill: none; stroke: #ffffff; stroke-opacity: 0.3; stroke-width: 0.8; stroke-linecap: round"/>
     </g>
     <g id="line2d_2"/>
     <g id="text_1">
      <!-- 10 -->
      <g style="fill: #262626" transform="translate(92.217099 334.887673) rotate(-45) scale(0.1 -0.1)">
       <defs>
        <path id="LiberationSans-31" d="M 488 0 
L 488 478 
L 1609 478 
L 1609 3866 
L 616 3156 
L 616 3688 
L 1656 4403 
L 2175 4403 
L 2175 478 
L 3247 478 
L 3247 0 
L 488 0 
z
" transform="scale(0.015625)"/>
        <path id="LiberationSans-30" d="M 3309 2203 
Q 3309 1100 2920 518 
Q 2531 -63 1772 -63 
Q 1013 -63 631 515 
Q 250 1094 250 2203 
Q 250 3338 620 3903 
Q 991 4469 1791 4469 
Q 2569 4469 2939 3897 
Q 3309 3325 3309 2203 
z
M 2738 2203 
Q 2738 3156 2517 3584 
Q 2297 4013 1791 4013 
Q 1272 4013 1045 3591 
Q 819 3169 819 2203 
Q 819 1266 1048 831 
Q 1278 397 1778 397 
Q 2275 397 2506 840 
Q 2738 1284 2738 2203 
z
" transform="scale(0.015625)"/>
       </defs>
       <use xlink:href="#LiberationSans-31"/>
       <use xlink:href="#LiberationSans-30" transform="translate(55.615234 0)"/>
      </g>
     </g>
    </g>
    <g id="xtick_2">
     <g id="line2d_3">
      <path d="M 152.506139 318.399005 
L 152.506139 23.345625 
" clip-path="url(#pbb3f0dbea5)" style="fill: none; stroke: #ffffff; stroke-opacity: 0.3; stroke-width: 0.8; stroke-linecap: round"/>
     </g>
     <g id="line2d_4"/>
     <g id="text_2">
      <!-- 20 -->
      <g style="fill: #262626" transform="translate(150.402496 334.887673) rotate(-45) scale(0.1 -0.1)">
       <defs>
        <path id="LiberationSans-32" d="M 322 0 
L 322 397 
Q 481 763 711 1042 
Q 941 1322 1194 1548 
Q 1447 1775 1695 1969 
Q 1944 2163 2144 2356 
Q 2344 2550 2467 2762 
Q 2591 2975 2591 3244 
Q 2591 3606 2378 3806 
Q 2166 4006 1788 4006 
Q 1428 4006 1195 3811 
Q 963 3616 922 3263 
L 347 3316 
Q 409 3844 795 4156 
Q 1181 4469 1788 4469 
Q 2453 4469 2811 4155 
Q 3169 3841 3169 3263 
Q 3169 3006 3051 2753 
Q 2934 2500 2703 2247 
Q 2472 1994 1819 1463 
Q 1459 1169 1246 933 
Q 1034 697 941 478 
L 3238 478 
L 3238 0 
L 322 0 
z
" transform="scale(0.015625)"/>
       </defs>
       <use xlink:href="#LiberationSans-32"/>
       <use xlink:href="#LiberationSans-30" transform="translate(55.615234 0)"/>
      </g>
     </g>
    </g>
    <g id="xtick_3">
     <g id="line2d_5">
      <path d="M 210.691536 318.399005 
L 210.691536 23.345625 
" clip-path="url(#pbb3f0dbea5)" style="fill: none; stroke: #ffffff; stroke-opacity: 0.3; stroke-width: 0.8; stroke-linecap: round"/>
     </g>
     <g id="line2d_6"/>
     <g id="text_3">
      <!-- 50 -->
      <g style="fill: #262626" transform="translate(208.587893 334.887673) rotate(-45) scale(0.1 -0.1)">
       <defs>
        <path id="LiberationSans-35" d="M 3291 1434 
Q 3291 738 2877 337 
Q 2463 -63 1728 -63 
Q 1113 -63 734 206 
Q 356 475 256 984 
L 825 1050 
Q 1003 397 1741 397 
Q 2194 397 2450 670 
Q 2706 944 2706 1422 
Q 2706 1838 2448 2094 
Q 2191 2350 1753 2350 
Q 1525 2350 1328 2278 
Q 1131 2206 934 2034 
L 384 2034 
L 531 4403 
L 3034 4403 
L 3034 3925 
L 1044 3925 
L 959 2528 
Q 1325 2809 1869 2809 
Q 2519 2809 2905 2428 
Q 3291 2047 3291 1434 
z
" transform="scale(0.015625)"/>
       </defs>
       <use xlink:href="#LiberationSans-35"/>
       <use xlink:href="#LiberationSans-30" transform="translate(55.615234 0)"/>
      </g>
     </g>
    </g>
    <g id="xtick_4">
     <g id="line2d_7">
      <path d="M 268.876933 318.399005 
L 268.876933 23.345625 
" clip-path="url(#pbb3f0dbea5)" style="fill: none; stroke: #ffffff; stroke-opacity: 0.3; stroke-width: 0.8; stroke-linecap: round"/>
     </g>
     <g id="line2d_8"/>
     <g id="text_4">
      <!-- 100 -->
      <g style="fill: #262626" transform="translate(264.807202 338.819849) rotate(-45) scale(0.1 -0.1)">
       <use xlink:href="#LiberationSans-31"/>
       <use xlink:href="#LiberationSans-30" transform="translate(55.615234 0)"/>
       <use xlink:href="#LiberationSans-30" transform="translate(111.230469 0)"/>
      </g>
     </g>
    </g>
    <g id="xtick_5">
     <g id="line2d_9">
      <path d="M 327.06233 318.399005 
L 327.06233 23.345625 
" clip-path="url(#pbb3f0dbea5)" style="fill: none; stroke: #ffffff; stroke-opacity: 0.3; stroke-width: 0.8; stroke-linecap: round"/>
     </g>
     <g id="line2d_10"/>
     <g id="text_5">
      <!-- 200 -->
      <g style="fill: #262626" transform="translate(322.992599 338.819849) rotate(-45) scale(0.1 -0.1)">
       <use xlink:href="#LiberationSans-32"/>
       <use xlink:href="#LiberationSans-30" transform="translate(55.615234 0)"/>
       <use xlink:href="#LiberationSans-30" transform="translate(111.230469 0)"/>
      </g>
     </g>
    </g>
    <g id="xtick_6">
     <g id="line2d_11">
      <path d="M 385.247728 318.399005 
L 385.247728 23.345625 
" clip-path="url(#pbb3f0dbea5)" style="fill: none; stroke: #ffffff; stroke-opacity: 0.3; stroke-width: 0.8; stroke-linecap: round"/>
     </g>
     <g id="line2d_12"/>
     <g id="text_6">
      <!-- 300 -->
      <g style="fill: #262626" transform="translate(381.177997 338.819849) rotate(-45) scale(0.1 -0.1)">
       <defs>
        <path id="LiberationSans-33" d="M 3278 1216 
Q 3278 606 2890 271 
Q 2503 -63 1784 -63 
Q 1116 -63 717 239 
Q 319 541 244 1131 
L 825 1184 
Q 938 403 1784 403 
Q 2209 403 2451 612 
Q 2694 822 2694 1234 
Q 2694 1594 2417 1795 
Q 2141 1997 1619 1997 
L 1300 1997 
L 1300 2484 
L 1606 2484 
Q 2069 2484 2323 2686 
Q 2578 2888 2578 3244 
Q 2578 3597 2370 3801 
Q 2163 4006 1753 4006 
Q 1381 4006 1151 3815 
Q 922 3625 884 3278 
L 319 3322 
Q 381 3863 767 4166 
Q 1153 4469 1759 4469 
Q 2422 4469 2789 4161 
Q 3156 3853 3156 3303 
Q 3156 2881 2920 2617 
Q 2684 2353 2234 2259 
L 2234 2247 
Q 2728 2194 3003 1916 
Q 3278 1638 3278 1216 
z
" transform="scale(0.015625)"/>
       </defs>
       <use xlink:href="#LiberationSans-33"/>
       <use xlink:href="#LiberationSans-30" transform="translate(55.615234 0)"/>
       <use xlink:href="#LiberationSans-30" transform="translate(111.230469 0)"/>
      </g>
     </g>
    </g>
    <g id="xtick_7">
     <g id="line2d_13">
      <path d="M 443.433125 318.399005 
L 443.433125 23.345625 
" clip-path="url(#pbb3f0dbea5)" style="fill: none; stroke: #ffffff; stroke-opacity: 0.3; stroke-width: 0.8; stroke-linecap: round"/>
     </g>
     <g id="line2d_14"/>
     <g id="text_7">
      <!-- 400 -->
      <g style="fill: #262626" transform="translate(439.363394 338.819849) rotate(-45) scale(0.1 -0.1)">
       <defs>
        <path id="LiberationSans-34" d="M 2753 997 
L 2753 0 
L 2222 0 
L 2222 997 
L 147 997 
L 147 1434 
L 2163 4403 
L 2753 4403 
L 2753 1441 
L 3372 1441 
L 3372 997 
L 2753 997 
z
M 2222 3769 
Q 2216 3750 2134 3603 
Q 2053 3456 2013 3397 
L 884 1734 
L 716 1503 
L 666 1441 
L 2222 1441 
L 2222 3769 
z
" transform="scale(0.015625)"/>
       </defs>
       <use xlink:href="#LiberationSans-34"/>
       <use xlink:href="#LiberationSans-30" transform="translate(55.615234 0)"/>
       <use xlink:href="#LiberationSans-30" transform="translate(111.230469 0)"/>
      </g>
     </g>
    </g>
    <g id="xtick_8">
     <g id="line2d_15">
      <path d="M 501.618522 318.399005 
L 501.618522 23.345625 
" clip-path="url(#pbb3f0dbea5)" style="fill: none; stroke: #ffffff; stroke-opacity: 0.3; stroke-width: 0.8; stroke-linecap: round"/>
     </g>
     <g id="line2d_16"/>
     <g id="text_8">
      <!-- 500 -->
      <g style="fill: #262626" transform="translate(497.548791 338.819849) rotate(-45) scale(0.1 -0.1)">
       <use xlink:href="#LiberationSans-35"/>
       <use xlink:href="#LiberationSans-30" transform="translate(55.615234 0)"/>
       <use xlink:href="#LiberationSans-30" transform="translate(111.230469 0)"/>
      </g>
     </g>
    </g>
    <g id="xtick_9">
     <g id="line2d_17">
      <path d="M 559.80392 318.399005 
L 559.80392 23.345625 
" clip-path="url(#pbb3f0dbea5)" style="fill: none; stroke: #ffffff; stroke-opacity: 0.3; stroke-width: 0.8; stroke-linecap: round"/>
     </g>
     <g id="line2d_18"/>
     <g id="text_9">
      <!-- 600 -->
      <g style="fill: #262626" transform="translate(555.734189 338.819849) rotate(-45) scale(0.1 -0.1)">
       <defs>
        <path id="LiberationSans-36" d="M 3278 1441 
Q 3278 744 2900 340 
Q 2522 -63 1856 -63 
Q 1113 -63 719 490 
Q 325 1044 325 2100 
Q 325 3244 734 3856 
Q 1144 4469 1900 4469 
Q 2897 4469 3156 3572 
L 2619 3475 
Q 2453 4013 1894 4013 
Q 1413 4013 1148 3564 
Q 884 3116 884 2266 
Q 1038 2550 1316 2698 
Q 1594 2847 1953 2847 
Q 2563 2847 2920 2465 
Q 3278 2084 3278 1441 
z
M 2706 1416 
Q 2706 1894 2472 2153 
Q 2238 2413 1819 2413 
Q 1425 2413 1183 2183 
Q 941 1953 941 1550 
Q 941 1041 1192 716 
Q 1444 391 1838 391 
Q 2244 391 2475 664 
Q 2706 938 2706 1416 
z
" transform="scale(0.015625)"/>
       </defs>
       <use xlink:href="#LiberationSans-36"/>
       <use xlink:href="#LiberationSans-30" transform="translate(55.615234 0)"/>
       <use xlink:href="#LiberationSans-30" transform="translate(111.230469 0)"/>
      </g>
     </g>
    </g>
    <g id="xtick_10">
     <g id="line2d_19">
      <path d="M 617.989317 318.399005 
L 617.989317 23.345625 
" clip-path="url(#pbb3f0dbea5)" style="fill: none; stroke: #ffffff; stroke-opacity: 0.3; stroke-width: 0.8; stroke-linecap: round"/>
     </g>
     <g id="line2d_20"/>
     <g id="text_10">
      <!-- 700 -->
      <g style="fill: #262626" transform="translate(613.919586 338.819849) rotate(-45) scale(0.1 -0.1)">
       <defs>
        <path id="LiberationSans-37" d="M 3238 3947 
Q 2563 2916 2284 2331 
Q 2006 1747 1867 1178 
Q 1728 609 1728 0 
L 1141 0 
Q 1141 844 1498 1776 
Q 1856 2709 2694 3925 
L 328 3925 
L 328 4403 
L 3238 4403 
L 3238 3947 
z
" transform="scale(0.015625)"/>
       </defs>
       <use xlink:href="#LiberationSans-37"/>
       <use xlink:href="#LiberationSans-30" transform="translate(55.615234 0)"/>
       <use xlink:href="#LiberationSans-30" transform="translate(111.230469 0)"/>
      </g>
     </g>
    </g>
    <g id="xtick_11">
     <g id="line2d_21">
      <path d="M 676.174714 318.399005 
L 676.174714 23.345625 
" clip-path="url(#pbb3f0dbea5)" style="fill: none; stroke: #ffffff; stroke-opacity: 0.3; stroke-width: 0.8; stroke-linecap: round"/>
     </g>
     <g id="line2d_22"/>
     <g id="text_11">
      <!-- 800 -->
      <g style="fill: #262626" transform="translate(672.104983 338.819849) rotate(-45) scale(0.1 -0.1)">
       <defs>
        <path id="LiberationSans-38" d="M 3281 1228 
Q 3281 619 2893 278 
Q 2506 -63 1781 -63 
Q 1075 -63 676 271 
Q 278 606 278 1222 
Q 278 1653 525 1947 
Q 772 2241 1156 2303 
L 1156 2316 
Q 797 2400 589 2681 
Q 381 2963 381 3341 
Q 381 3844 757 4156 
Q 1134 4469 1769 4469 
Q 2419 4469 2795 4162 
Q 3172 3856 3172 3334 
Q 3172 2956 2962 2675 
Q 2753 2394 2391 2322 
L 2391 2309 
Q 2813 2241 3047 1952 
Q 3281 1663 3281 1228 
z
M 2588 3303 
Q 2588 4050 1769 4050 
Q 1372 4050 1164 3862 
Q 956 3675 956 3303 
Q 956 2925 1170 2726 
Q 1384 2528 1775 2528 
Q 2172 2528 2380 2711 
Q 2588 2894 2588 3303 
z
M 2697 1281 
Q 2697 1691 2453 1898 
Q 2209 2106 1769 2106 
Q 1341 2106 1100 1882 
Q 859 1659 859 1269 
Q 859 359 1788 359 
Q 2247 359 2472 579 
Q 2697 800 2697 1281 
z
" transform="scale(0.015625)"/>
       </defs>
       <use xlink:href="#LiberationSans-38"/>
       <use xlink:href="#LiberationSans-30" transform="translate(55.615234 0)"/>
       <use xlink:href="#LiberationSans-30" transform="translate(111.230469 0)"/>
      </g>
     </g>
    </g>
    <g id="xtick_12">
     <g id="line2d_23">
      <path d="M 734.360111 318.399005 
L 734.360111 23.345625 
" clip-path="url(#pbb3f0dbea5)" style="fill: none; stroke: #ffffff; stroke-opacity: 0.3; stroke-width: 0.8; stroke-linecap: round"/>
     </g>
     <g id="line2d_24"/>
     <g id="text_12">
      <!-- 900 -->
      <g style="fill: #262626" transform="translate(730.29038 338.819849) rotate(-45) scale(0.1 -0.1)">
       <defs>
        <path id="LiberationSans-39" d="M 3256 2291 
Q 3256 1156 2842 546 
Q 2428 -63 1663 -63 
Q 1147 -63 836 154 
Q 525 372 391 856 
L 928 941 
Q 1097 391 1672 391 
Q 2156 391 2422 841 
Q 2688 1291 2700 2125 
Q 2575 1844 2272 1673 
Q 1969 1503 1606 1503 
Q 1013 1503 656 1909 
Q 300 2316 300 2988 
Q 300 3678 687 4073 
Q 1075 4469 1766 4469 
Q 2500 4469 2878 3925 
Q 3256 3381 3256 2291 
z
M 2644 2834 
Q 2644 3366 2400 3689 
Q 2156 4013 1747 4013 
Q 1341 4013 1106 3736 
Q 872 3459 872 2988 
Q 872 2506 1106 2226 
Q 1341 1947 1741 1947 
Q 1984 1947 2193 2058 
Q 2403 2169 2523 2372 
Q 2644 2575 2644 2834 
z
" transform="scale(0.015625)"/>
       </defs>
       <use xlink:href="#LiberationSans-39"/>
       <use xlink:href="#LiberationSans-30" transform="translate(55.615234 0)"/>
       <use xlink:href="#LiberationSans-30" transform="translate(111.230469 0)"/>
      </g>
     </g>
    </g>
    <g id="xtick_13">
     <g id="line2d_25">
      <path d="M 792.545509 318.399005 
L 792.545509 23.345625 
" clip-path="url(#pbb3f0dbea5)" style="fill: none; stroke: #ffffff; stroke-opacity: 0.3; stroke-width: 0.8; stroke-linecap: round"/>
     </g>
     <g id="line2d_26"/>
     <g id="text_13">
      <!-- 1000 -->
      <g style="fill: #262626" transform="translate(786.509689 342.752026) rotate(-45) scale(0.1 -0.1)">
       <use xlink:href="#LiberationSans-31"/>
       <use xlink:href="#LiberationSans-30" transform="translate(55.615234 0)"/>
       <use xlink:href="#LiberationSans-30" transform="translate(111.230469 0)"/>
       <use xlink:href="#LiberationSans-30" transform="translate(166.845703 0)"/>
      </g>
     </g>
    </g>
   </g>
   <g id="matplotlib.axis_2">
    <g id="ytick_1">
     <g id="line2d_27">
      <path d="M 37.008125 318.399005 
L 849.858125 318.399005 
" clip-path="url(#pbb3f0dbea5)" style="fill: none; stroke: #ffffff; stroke-opacity: 0.3; stroke-width: 0.8; stroke-linecap: round"/>
     </g>
     <g id="line2d_28"/>
     <g id="text_14">
      <!-- 0 -->
      <g style="fill: #262626" transform="translate(27.947188 322.022442) scale(0.1 -0.1)">
       <use xlink:href="#LiberationSans-30"/>
      </g>
     </g>
    </g>
    <g id="ytick_2">
     <g id="line2d_29">
      <path d="M 37.008125 259.424245 
L 849.858125 259.424245 
" clip-path="url(#pbb3f0dbea5)" style="fill: none; stroke: #ffffff; stroke-opacity: 0.3; stroke-width: 0.8; stroke-linecap: round"/>
     </g>
     <g id="line2d_30"/>
     <g id="text_15">
      <!-- 5 -->
      <g style="fill: #262626" transform="translate(27.947188 263.047683) scale(0.1 -0.1)">
       <use xlink:href="#LiberationSans-35"/>
      </g>
     </g>
    </g>
    <g id="ytick_3">
     <g id="line2d_31">
      <path d="M 37.008125 200.449485 
L 849.858125 200.449485 
" clip-path="url(#pbb3f0dbea5)" style="fill: none; stroke: #ffffff; stroke-opacity: 0.3; stroke-width: 0.8; stroke-linecap: round"/>
     </g>
     <g id="line2d_32"/>
     <g id="text_16">
      <!-- 10 -->
      <g style="fill: #262626" transform="translate(22.38625 204.072923) scale(0.1 -0.1)">
       <use xlink:href="#LiberationSans-31"/>
       <use xlink:href="#LiberationSans-30" transform="translate(55.615234 0)"/>
      </g>
     </g>
    </g>
    <g id="ytick_4">
     <g id="line2d_33">
      <path d="M 37.008125 141.474725 
L 849.858125 141.474725 
" clip-path="url(#pbb3f0dbea5)" style="fill: none; stroke: #ffffff; stroke-opacity: 0.3; stroke-width: 0.8; stroke-linecap: round"/>
     </g>
     <g id="line2d_34"/>
     <g id="text_17">
      <!-- 15 -->
      <g style="fill: #262626" transform="translate(22.38625 145.098163) scale(0.1 -0.1)">
       <use xlink:href="#LiberationSans-31"/>
       <use xlink:href="#LiberationSans-35" transform="translate(55.615234 0)"/>
      </g>
     </g>
    </g>
    <g id="ytick_5">
     <g id="line2d_35">
      <path d="M 37.008125 82.499965 
L 849.858125 82.499965 
" clip-path="url(#pbb3f0dbea5)" style="fill: none; stroke: #ffffff; stroke-opacity: 0.3; stroke-width: 0.8; stroke-linecap: round"/>
     </g>
     <g id="line2d_36"/>
     <g id="text_18">
      <!-- 20 -->
      <g style="fill: #262626" transform="translate(22.38625 86.123403) scale(0.1 -0.1)">
       <use xlink:href="#LiberationSans-32"/>
       <use xlink:href="#LiberationSans-30" transform="translate(55.615234 0)"/>
      </g>
     </g>
    </g>
    <g id="ytick_6">
     <g id="line2d_37">
      <path d="M 37.008125 23.525206 
L 849.858125 23.525206 
" clip-path="url(#pbb3f0dbea5)" style="fill: none; stroke: #ffffff; stroke-opacity: 0.3; stroke-width: 0.8; stroke-linecap: round"/>
     </g>
     <g id="line2d_38"/>
     <g id="text_19">
      <!-- 25 -->
      <g style="fill: #262626" transform="translate(22.38625 27.148643) scale(0.1 -0.1)">
       <use xlink:href="#LiberationSans-32"/>
       <use xlink:href="#LiberationSans-35" transform="translate(55.615234 0)"/>
      </g>
     </g>
    </g>
    <g id="text_20">
     <!-- Branch Mispredictions (Millions) -->
     <g style="fill: #262626" transform="translate(15.89625 255.559502) rotate(-90) scale(0.12 -0.12)">
      <defs>
       <path id="LiberationSans-42" d="M 3931 1241 
Q 3931 653 3503 326 
Q 3075 0 2313 0 
L 525 0 
L 525 4403 
L 2125 4403 
Q 3675 4403 3675 3334 
Q 3675 2944 3456 2678 
Q 3238 2413 2838 2322 
Q 3363 2259 3647 1970 
Q 3931 1681 3931 1241 
z
M 3075 3263 
Q 3075 3619 2831 3772 
Q 2588 3925 2125 3925 
L 1122 3925 
L 1122 2531 
L 2125 2531 
Q 2603 2531 2839 2711 
Q 3075 2891 3075 3263 
z
M 3328 1288 
Q 3328 2066 2234 2066 
L 1122 2066 
L 1122 478 
L 2281 478 
Q 2828 478 3078 681 
Q 3328 884 3328 1288 
z
" transform="scale(0.015625)"/>
       <path id="LiberationSans-72" d="M 444 0 
L 444 2594 
Q 444 2950 425 3381 
L 956 3381 
Q 981 2806 981 2691 
L 994 2691 
Q 1128 3125 1303 3284 
Q 1478 3444 1797 3444 
Q 1909 3444 2025 3413 
L 2025 2897 
Q 1913 2928 1725 2928 
Q 1375 2928 1190 2626 
Q 1006 2325 1006 1763 
L 1006 0 
L 444 0 
z
" transform="scale(0.015625)"/>
       <path id="LiberationSans-61" d="M 1294 -63 
Q 784 -63 528 206 
Q 272 475 272 944 
Q 272 1469 617 1750 
Q 963 2031 1731 2050 
L 2491 2063 
L 2491 2247 
Q 2491 2659 2316 2837 
Q 2141 3016 1766 3016 
Q 1388 3016 1216 2887 
Q 1044 2759 1009 2478 
L 422 2531 
Q 566 3444 1778 3444 
Q 2416 3444 2737 3151 
Q 3059 2859 3059 2306 
L 3059 850 
Q 3059 600 3125 473 
Q 3191 347 3375 347 
Q 3456 347 3559 369 
L 3559 19 
Q 3347 -31 3125 -31 
Q 2813 -31 2670 133 
Q 2528 297 2509 647 
L 2491 647 
Q 2275 259 1989 98 
Q 1703 -63 1294 -63 
z
M 1422 359 
Q 1731 359 1972 500 
Q 2213 641 2352 886 
Q 2491 1131 2491 1391 
L 2491 1669 
L 1875 1656 
Q 1478 1650 1273 1575 
Q 1069 1500 959 1344 
Q 850 1188 850 934 
Q 850 659 998 509 
Q 1147 359 1422 359 
z
" transform="scale(0.015625)"/>
       <path id="LiberationSans-6e" d="M 2578 0 
L 2578 2144 
Q 2578 2478 2512 2662 
Q 2447 2847 2303 2928 
Q 2159 3009 1881 3009 
Q 1475 3009 1240 2731 
Q 1006 2453 1006 1959 
L 1006 0 
L 444 0 
L 444 2659 
Q 444 3250 425 3381 
L 956 3381 
Q 959 3366 962 3297 
Q 966 3228 970 3139 
Q 975 3050 981 2803 
L 991 2803 
Q 1184 3153 1439 3298 
Q 1694 3444 2072 3444 
Q 2628 3444 2886 3167 
Q 3144 2891 3144 2253 
L 3144 0 
L 2578 0 
z
" transform="scale(0.015625)"/>
       <path id="LiberationSans-63" d="M 859 1706 
Q 859 1031 1071 706 
Q 1284 381 1713 381 
Q 2013 381 2214 543 
Q 2416 706 2463 1044 
L 3031 1006 
Q 2966 519 2616 228 
Q 2266 -63 1728 -63 
Q 1019 -63 645 385 
Q 272 834 272 1694 
Q 272 2547 647 2995 
Q 1022 3444 1722 3444 
Q 2241 3444 2583 3175 
Q 2925 2906 3013 2434 
L 2434 2391 
Q 2391 2672 2212 2837 
Q 2034 3003 1706 3003 
Q 1259 3003 1059 2706 
Q 859 2409 859 1706 
z
" transform="scale(0.015625)"/>
       <path id="LiberationSans-68" d="M 991 2803 
Q 1172 3134 1426 3289 
Q 1681 3444 2072 3444 
Q 2622 3444 2883 3170 
Q 3144 2897 3144 2253 
L 3144 0 
L 2578 0 
L 2578 2144 
Q 2578 2500 2512 2673 
Q 2447 2847 2297 2928 
Q 2147 3009 1881 3009 
Q 1484 3009 1245 2734 
Q 1006 2459 1006 1994 
L 1006 0 
L 444 0 
L 444 4638 
L 1006 4638 
L 1006 3431 
Q 1006 3241 995 3037 
Q 984 2834 981 2803 
L 991 2803 
z
" transform="scale(0.015625)"/>
       <path id="LiberationSans-20" transform="scale(0.015625)"/>
       <path id="LiberationSans-4d" d="M 4269 0 
L 4269 2938 
Q 4269 3425 4297 3875 
Q 4144 3316 4022 3000 
L 2884 0 
L 2466 0 
L 1313 3000 
L 1138 3531 
L 1034 3875 
L 1044 3528 
L 1056 2938 
L 1056 0 
L 525 0 
L 525 4403 
L 1309 4403 
L 2481 1350 
Q 2544 1166 2601 955 
Q 2659 744 2678 650 
Q 2703 775 2783 1029 
Q 2863 1284 2891 1350 
L 4041 4403 
L 4806 4403 
L 4806 0 
L 4269 0 
z
" transform="scale(0.015625)"/>
       <path id="LiberationSans-69" d="M 428 4100 
L 428 4638 
L 991 4638 
L 991 4100 
L 428 4100 
z
M 428 0 
L 428 3381 
L 991 3381 
L 991 0 
L 428 0 
z
" transform="scale(0.015625)"/>
       <path id="LiberationSans-73" d="M 2969 934 
Q 2969 456 2608 196 
Q 2247 -63 1597 -63 
Q 966 -63 623 145 
Q 281 353 178 794 
L 675 891 
Q 747 619 972 492 
Q 1197 366 1597 366 
Q 2025 366 2223 497 
Q 2422 628 2422 891 
Q 2422 1091 2284 1216 
Q 2147 1341 1841 1422 
L 1438 1528 
Q 953 1653 748 1773 
Q 544 1894 428 2066 
Q 313 2238 313 2488 
Q 313 2950 642 3192 
Q 972 3434 1603 3434 
Q 2163 3434 2492 3237 
Q 2822 3041 2909 2606 
L 2403 2544 
Q 2356 2769 2151 2889 
Q 1947 3009 1603 3009 
Q 1222 3009 1040 2893 
Q 859 2778 859 2544 
Q 859 2400 934 2306 
Q 1009 2213 1156 2147 
Q 1303 2081 1775 1966 
Q 2222 1853 2419 1758 
Q 2616 1663 2730 1547 
Q 2844 1431 2906 1279 
Q 2969 1128 2969 934 
z
" transform="scale(0.015625)"/>
       <path id="LiberationSans-70" d="M 3291 1706 
Q 3291 -63 2047 -63 
Q 1266 -63 997 525 
L 981 525 
Q 994 500 994 -6 
L 994 -1328 
L 431 -1328 
L 431 2691 
Q 431 3213 413 3381 
L 956 3381 
Q 959 3369 965 3292 
Q 972 3216 980 3056 
Q 988 2897 988 2838 
L 1000 2838 
Q 1150 3150 1397 3295 
Q 1644 3441 2047 3441 
Q 2672 3441 2981 3022 
Q 3291 2603 3291 1706 
z
M 2700 1694 
Q 2700 2400 2509 2703 
Q 2319 3006 1903 3006 
Q 1569 3006 1380 2865 
Q 1191 2725 1092 2426 
Q 994 2128 994 1650 
Q 994 984 1206 668 
Q 1419 353 1897 353 
Q 2316 353 2508 661 
Q 2700 969 2700 1694 
z
" transform="scale(0.015625)"/>
       <path id="LiberationSans-65" d="M 863 1572 
Q 863 991 1103 675 
Q 1344 359 1806 359 
Q 2172 359 2392 506 
Q 2613 653 2691 878 
L 3184 738 
Q 2881 -63 1806 -63 
Q 1056 -63 664 384 
Q 272 831 272 1713 
Q 272 2550 664 2997 
Q 1056 3444 1784 3444 
Q 3275 3444 3275 1647 
L 3275 1572 
L 863 1572 
z
M 2694 2003 
Q 2647 2538 2422 2783 
Q 2197 3028 1775 3028 
Q 1366 3028 1127 2754 
Q 888 2481 869 2003 
L 2694 2003 
z
" transform="scale(0.015625)"/>
       <path id="LiberationSans-64" d="M 2566 544 
Q 2409 219 2151 78 
Q 1894 -63 1513 -63 
Q 872 -63 570 368 
Q 269 800 269 1675 
Q 269 3444 1513 3444 
Q 1897 3444 2153 3303 
Q 2409 3163 2566 2856 
L 2572 2856 
L 2566 3234 
L 2566 4638 
L 3128 4638 
L 3128 697 
Q 3128 169 3147 0 
L 2609 0 
Q 2600 50 2589 231 
Q 2578 413 2578 544 
L 2566 544 
z
M 859 1694 
Q 859 984 1046 678 
Q 1234 372 1656 372 
Q 2134 372 2350 703 
Q 2566 1034 2566 1731 
Q 2566 2403 2350 2715 
Q 2134 3028 1663 3028 
Q 1238 3028 1048 2714 
Q 859 2400 859 1694 
z
" transform="scale(0.015625)"/>
       <path id="LiberationSans-74" d="M 1731 25 
Q 1453 -50 1163 -50 
Q 488 -50 488 716 
L 488 2972 
L 97 2972 
L 97 3381 
L 509 3381 
L 675 4138 
L 1050 4138 
L 1050 3381 
L 1675 3381 
L 1675 2972 
L 1050 2972 
L 1050 838 
Q 1050 594 1129 495 
Q 1209 397 1406 397 
Q 1519 397 1731 441 
L 1731 25 
z
" transform="scale(0.015625)"/>
       <path id="LiberationSans-6f" d="M 3291 1694 
Q 3291 806 2900 371 
Q 2509 -63 1766 -63 
Q 1025 -63 647 389 
Q 269 841 269 1694 
Q 269 3444 1784 3444 
Q 2559 3444 2925 3017 
Q 3291 2591 3291 1694 
z
M 2700 1694 
Q 2700 2394 2492 2711 
Q 2284 3028 1794 3028 
Q 1300 3028 1079 2704 
Q 859 2381 859 1694 
Q 859 1025 1076 689 
Q 1294 353 1759 353 
Q 2266 353 2483 678 
Q 2700 1003 2700 1694 
z
" transform="scale(0.015625)"/>
       <path id="LiberationSans-28" d="M 397 1663 
Q 397 2566 680 3284 
Q 963 4003 1550 4638 
L 2094 4638 
Q 1509 3988 1236 3256 
Q 963 2525 963 1656 
Q 963 791 1233 62 
Q 1503 -666 2094 -1325 
L 1550 -1325 
Q 959 -688 678 32 
Q 397 753 397 1650 
L 397 1663 
z
" transform="scale(0.015625)"/>
       <path id="LiberationSans-6c" d="M 431 0 
L 431 4638 
L 994 4638 
L 994 0 
L 431 0 
z
" transform="scale(0.015625)"/>
       <path id="LiberationSans-29" d="M 1734 1650 
Q 1734 747 1451 28 
Q 1169 -691 581 -1325 
L 38 -1325 
Q 625 -669 897 57 
Q 1169 784 1169 1656 
Q 1169 2528 895 3256 
Q 622 3984 38 4638 
L 581 4638 
Q 1172 4000 1453 3279 
Q 1734 2559 1734 1663 
L 1734 1650 
z
" transform="scale(0.015625)"/>
      </defs>
      <use xlink:href="#LiberationSans-42"/>
      <use xlink:href="#LiberationSans-72" transform="translate(66.699219 0)"/>
      <use xlink:href="#LiberationSans-61" transform="translate(100 0)"/>
      <use xlink:href="#LiberationSans-6e" transform="translate(155.615234 0)"/>
      <use xlink:href="#LiberationSans-63" transform="translate(211.230469 0)"/>
      <use xlink:href="#LiberationSans-68" transform="translate(261.230469 0)"/>
      <use xlink:href="#LiberationSans-20" transform="translate(316.845703 0)"/>
      <use xlink:href="#LiberationSans-4d" transform="translate(344.628906 0)"/>
      <use xlink:href="#LiberationSans-69" transform="translate(427.929688 0)"/>
      <use xlink:href="#LiberationSans-73" transform="translate(450.146484 0)"/>
      <use xlink:href="#LiberationSans-70" transform="translate(500.146484 0)"/>
      <use xlink:href="#LiberationSans-72" transform="translate(555.761719 0)"/>
      <use xlink:href="#LiberationSans-65" transform="translate(589.0625 0)"/>
      <use xlink:href="#LiberationSans-64" transform="translate(644.677734 0)"/>
      <use xlink:href="#LiberationSans-69" transform="translate(700.292969 0)"/>
      <use xlink:href="#LiberationSans-63" transform="translate(722.509766 0)"/>
      <use xlink:href="#LiberationSans-74" transform="translate(772.509766 0)"/>
      <use xlink:href="#LiberationSans-69" transform="translate(800.292969 0)"/>
      <use xlink:href="#LiberationSans-6f" transform="translate(822.509766 0)"/>
      <use xlink:href="#LiberationSans-6e" transform="translate(878.125 0)"/>
      <use xlink:href="#LiberationSans-73" transform="translate(933.740234 0)"/>
      <use xlink:href="#LiberationSans-20" transform="translate(983.740234 0)"/>
      <use xlink:href="#LiberationSans-28" transform="translate(1011.523438 0)"/>
      <use xlink:href="#LiberationSans-4d" transform="translate(1044.824219 0)"/>
      <use xlink:href="#LiberationSans-69" transform="translate(1128.125 0)"/>
      <use xlink:href="#LiberationSans-6c" transform="translate(1150.341797 0)"/>
      <use xlink:href="#LiberationSans-6c" transform="translate(1172.558594 0)"/>
      <use xlink:href="#LiberationSans-69" transform="translate(1194.775391 0)"/>
      <use xlink:href="#LiberationSans-6f" transform="translate(1216.992188 0)"/>
      <use xlink:href="#LiberationSans-6e" transform="translate(1272.607422 0)"/>
      <use xlink:href="#LiberationSans-73" transform="translate(1328.222656 0)"/>
      <use xlink:href="#LiberationSans-29" transform="translate(1378.222656 0)"/>
     </g>
    </g>
   </g>
   <g id="patch_3">
    <path d="M 73.955852 318.399005 
L 94.320741 318.399005 
L 94.320741 206.083309 
L 73.955852 206.083309 
z
" clip-path="url(#pbb3f0dbea5)" style="fill: #5d6d7e; opacity: 0.9"/>
   </g>
   <g id="patch_4">
    <path d="M 132.14125 318.399005 
L 152.506139 318.399005 
L 152.506139 201.169956 
L 132.14125 201.169956 
z
" clip-path="url(#pbb3f0dbea5)" style="fill: #5d6d7e; opacity: 0.9"/>
   </g>
   <g id="patch_5">
    <path d="M 190.326647 318.399005 
L 210.691536 318.399005 
L 210.691536 180.808566 
L 190.326647 180.808566 
z
" clip-path="url(#pbb3f0dbea5)" style="fill: #5d6d7e; opacity: 0.9"/>
   </g>
   <g id="patch_6">
    <path d="M 248.512044 318.399005 
L 268.876933 318.399005 
L 268.876933 145.149973 
L 248.512044 145.149973 
z
" clip-path="url(#pbb3f0dbea5)" style="fill: #5d6d7e; opacity: 0.9"/>
   </g>
   <g id="patch_7">
    <path d="M 306.697441 318.399005 
L 327.06233 318.399005 
L 327.06233 120.317365 
L 306.697441 120.317365 
z
" clip-path="url(#pbb3f0dbea5)" style="fill: #5d6d7e; opacity: 0.9"/>
   </g>
   <g id="patch_8">
    <path d="M 364.882839 318.399005 
L 385.247728 318.399005 
L 385.247728 101.087076 
L 364.882839 101.087076 
z
" clip-path="url(#pbb3f0dbea5)" style="fill: #5d6d7e; opacity: 0.9"/>
   </g>
   <g id="patch_9">
    <path d="M 423.068236 318.399005 
L 443.433125 318.399005 
L 443.433125 91.394362 
L 423.068236 91.394362 
z
" clip-path="url(#pbb3f0dbea5)" style="fill: #5d6d7e; opacity: 0.9"/>
   </g>
   <g id="patch_10">
    <path d="M 481.253633 318.399005 
L 501.618522 318.399005 
L 501.618522 97.30506 
L 481.253633 97.30506 
z
" clip-path="url(#pbb3f0dbea5)" style="fill: #5d6d7e; opacity: 0.9"/>
   </g>
   <g id="patch_11">
    <path d="M 539.439031 318.399005 
L 559.80392 318.399005 
L 559.80392 96.155429 
L 539.439031 96.155429 
z
" clip-path="url(#pbb3f0dbea5)" style="fill: #5d6d7e; opacity: 0.9"/>
   </g>
   <g id="patch_12">
    <path d="M 597.624428 318.399005 
L 617.989317 318.399005 
L 617.989317 101.853429 
L 597.624428 101.853429 
z
" clip-path="url(#pbb3f0dbea5)" style="fill: #5d6d7e; opacity: 0.9"/>
   </g>
   <g id="patch_13">
    <path d="M 655.809825 318.399005 
L 676.174714 318.399005 
L 676.174714 87.663182 
L 655.809825 87.663182 
z
" clip-path="url(#pbb3f0dbea5)" style="fill: #5d6d7e; opacity: 0.9"/>
   </g>
   <g id="patch_14">
    <path d="M 713.995222 318.399005 
L 734.360111 318.399005 
L 734.360111 81.965406 
L 713.995222 81.965406 
z
" clip-path="url(#pbb3f0dbea5)" style="fill: #5d6d7e; opacity: 0.9"/>
   </g>
   <g id="patch_15">
    <path d="M 772.18062 318.399005 
L 792.545509 318.399005 
L 792.545509 81.714941 
L 772.18062 81.714941 
z
" clip-path="url(#pbb3f0dbea5)" style="fill: #5d6d7e; opacity: 0.9"/>
   </g>
   <g id="patch_16">
    <path d="M 94.320741 318.399005 
L 114.68563 318.399005 
L 114.68563 160.877174 
L 94.320741 160.877174 
z
" clip-path="url(#pbb3f0dbea5)" style="fill: #85c1e9; opacity: 0.9"/>
   </g>
   <g id="patch_17">
    <path d="M 152.506139 318.399005 
L 172.871028 318.399005 
L 172.871028 146.758144 
L 152.506139 146.758144 
z
" clip-path="url(#pbb3f0dbea5)" style="fill: #85c1e9; opacity: 0.9"/>
   </g>
   <g id="patch_18">
    <path d="M 210.691536 318.399005 
L 231.056425 318.399005 
L 231.056425 110.175039 
L 210.691536 110.175039 
z
" clip-path="url(#pbb3f0dbea5)" style="fill: #85c1e9; opacity: 0.9"/>
   </g>
   <g id="patch_19">
    <path d="M 268.876933 318.399005 
L 289.241822 318.399005 
L 289.241822 72.037442 
L 268.876933 72.037442 
z
" clip-path="url(#pbb3f0dbea5)" style="fill: #85c1e9; opacity: 0.9"/>
   </g>
   <g id="patch_20">
    <path d="M 327.06233 318.399005 
L 347.427219 318.399005 
L 347.427219 37.395786 
L 327.06233 37.395786 
z
" clip-path="url(#pbb3f0dbea5)" style="fill: #85c1e9; opacity: 0.9"/>
   </g>
   <g id="patch_21">
    <path d="M 385.247728 318.399005 
L 405.612617 318.399005 
L 405.612617 42.374789 
L 385.247728 42.374789 
z
" clip-path="url(#pbb3f0dbea5)" style="fill: #85c1e9; opacity: 0.9"/>
   </g>
   <g id="patch_22">
    <path d="M 443.433125 318.399005 
L 463.798014 318.399005 
L 463.798014 40.263457 
L 443.433125 40.263457 
z
" clip-path="url(#pbb3f0dbea5)" style="fill: #85c1e9; opacity: 0.9"/>
   </g>
   <g id="patch_23">
    <path d="M 501.618522 318.399005 
L 521.983411 318.399005 
L 521.983411 63.181851 
L 501.618522 63.181851 
z
" clip-path="url(#pbb3f0dbea5)" style="fill: #85c1e9; opacity: 0.9"/>
   </g>
   <g id="patch_24">
    <path d="M 559.80392 318.399005 
L 580.168809 318.399005 
L 580.168809 72.326866 
L 559.80392 72.326866 
z
" clip-path="url(#pbb3f0dbea5)" style="fill: #85c1e9; opacity: 0.9"/>
   </g>
   <g id="patch_25">
    <path d="M 617.989317 318.399005 
L 638.354206 318.399005 
L 638.354206 82.260646 
L 617.989317 82.260646 
z
" clip-path="url(#pbb3f0dbea5)" style="fill: #85c1e9; opacity: 0.9"/>
   </g>
   <g id="patch_26">
    <path d="M 676.174714 318.399005 
L 696.539603 318.399005 
L 696.539603 74.248665 
L 676.174714 74.248665 
z
" clip-path="url(#pbb3f0dbea5)" style="fill: #85c1e9; opacity: 0.9"/>
   </g>
   <g id="patch_27">
    <path d="M 734.360111 318.399005 
L 754.725 318.399005 
L 754.725 79.209622 
L 734.360111 79.209622 
z
" clip-path="url(#pbb3f0dbea5)" style="fill: #85c1e9; opacity: 0.9"/>
   </g>
   <g id="patch_28">
    <path d="M 792.545509 318.399005 
L 812.910398 318.399005 
L 812.910398 84.836286 
L 792.545509 84.836286 
z
" clip-path="url(#pbb3f0dbea5)" style="fill: #85c1e9; opacity: 0.9"/>
   </g>
   <g id="patch_29">
    <path d="M 37.008125 318.399005 
L 37.008125 23.345625 
" style="fill: none"/>
   </g>
   <g id="patch_30">
    <path d="M 849.858125 318.399005 
L 849.858125 23.345625 
" style="fill: none"/>
   </g>
   <g id="patch_31">
    <path d="M 37.008125 318.399005 
L 849.858125 318.399005 
" style="fill: none"/>
   </g>
   <g id="patch_32">
    <path d="M 37.008125 23.345625 
L 849.858125 23.345625 
" style="fill: none"/>
   </g>
   <g id="text_21">
    <!-- 9.52 -->
    <g style="fill: #5d6d7e" transform="translate(76.353922 203.300152) scale(0.08 -0.08)">
     <defs>
      <path id="LiberationSans-2e" d="M 584 0 
L 584 684 
L 1194 684 
L 1194 0 
L 584 0 
z
" transform="scale(0.015625)"/>
     </defs>
     <use xlink:href="#LiberationSans-39"/>
     <use xlink:href="#LiberationSans-2e" transform="translate(55.615234 0)"/>
     <use xlink:href="#LiberationSans-35" transform="translate(83.398438 0)"/>
     <use xlink:href="#LiberationSans-32" transform="translate(139.013672 0)"/>
    </g>
   </g>
   <g id="text_22">
    <!-- 9.94 -->
    <g style="fill: #5d6d7e" transform="translate(134.539319 198.337666) scale(0.08 -0.08)">
     <use xlink:href="#LiberationSans-39"/>
     <use xlink:href="#LiberationSans-2e" transform="translate(55.615234 0)"/>
     <use xlink:href="#LiberationSans-39" transform="translate(83.398438 0)"/>
     <use xlink:href="#LiberationSans-34" transform="translate(139.013672 0)"/>
    </g>
   </g>
   <g id="text_23">
    <!-- 11.7 -->
    <g style="fill: #5d6d7e" transform="translate(193.019716 177.772662) scale(0.08 -0.08)">
     <use xlink:href="#LiberationSans-31"/>
     <use xlink:href="#LiberationSans-31" transform="translate(48.240234 0)"/>
     <use xlink:href="#LiberationSans-2e" transform="translate(103.855469 0)"/>
     <use xlink:href="#LiberationSans-37" transform="translate(131.638672 0)"/>
    </g>
   </g>
   <g id="text_24">
    <!-- 14.7 -->
    <g style="fill: #5d6d7e" transform="translate(250.910114 141.757483) scale(0.08 -0.08)">
     <use xlink:href="#LiberationSans-31"/>
     <use xlink:href="#LiberationSans-34" transform="translate(55.615234 0)"/>
     <use xlink:href="#LiberationSans-2e" transform="translate(111.230469 0)"/>
     <use xlink:href="#LiberationSans-37" transform="translate(139.013672 0)"/>
    </g>
   </g>
   <g id="text_25">
    <!-- 16.8 -->
    <g style="fill: #5d6d7e" transform="translate(309.095511 116.676549) scale(0.08 -0.08)">
     <use xlink:href="#LiberationSans-31"/>
     <use xlink:href="#LiberationSans-36" transform="translate(55.615234 0)"/>
     <use xlink:href="#LiberationSans-2e" transform="translate(111.230469 0)"/>
     <use xlink:href="#LiberationSans-38" transform="translate(139.013672 0)"/>
    </g>
   </g>
   <g id="text_26">
    <!-- 18.4 -->
    <g style="fill: #5d6d7e" transform="translate(367.280908 97.253957) scale(0.08 -0.08)">
     <use xlink:href="#LiberationSans-31"/>
     <use xlink:href="#LiberationSans-38" transform="translate(55.615234 0)"/>
     <use xlink:href="#LiberationSans-2e" transform="translate(111.230469 0)"/>
     <use xlink:href="#LiberationSans-34" transform="translate(139.013672 0)"/>
    </g>
   </g>
   <g id="text_27">
    <!-- 19.2 -->
    <g style="fill: #5d6d7e" transform="translate(425.466305 87.464315) scale(0.08 -0.08)">
     <use xlink:href="#LiberationSans-31"/>
     <use xlink:href="#LiberationSans-39" transform="translate(55.615234 0)"/>
     <use xlink:href="#LiberationSans-2e" transform="translate(111.230469 0)"/>
     <use xlink:href="#LiberationSans-32" transform="translate(139.013672 0)"/>
    </g>
   </g>
   <g id="text_28">
    <!-- 18.7 -->
    <g style="fill: #5d6d7e" transform="translate(483.651703 93.43412) scale(0.08 -0.08)">
     <use xlink:href="#LiberationSans-31"/>
     <use xlink:href="#LiberationSans-38" transform="translate(55.615234 0)"/>
     <use xlink:href="#LiberationSans-2e" transform="translate(111.230469 0)"/>
     <use xlink:href="#LiberationSans-37" transform="translate(139.013672 0)"/>
    </g>
   </g>
   <g id="text_29">
    <!-- 18.8 -->
    <g style="fill: #5d6d7e" transform="translate(541.8371 92.272994) scale(0.08 -0.08)">
     <use xlink:href="#LiberationSans-31"/>
     <use xlink:href="#LiberationSans-38" transform="translate(55.615234 0)"/>
     <use xlink:href="#LiberationSans-2e" transform="translate(111.230469 0)"/>
     <use xlink:href="#LiberationSans-38" transform="translate(139.013672 0)"/>
    </g>
   </g>
   <g id="text_30">
    <!-- 18.4 -->
    <g style="fill: #5d6d7e" transform="translate(600.022497 98.027973) scale(0.08 -0.08)">
     <use xlink:href="#LiberationSans-31"/>
     <use xlink:href="#LiberationSans-38" transform="translate(55.615234 0)"/>
     <use xlink:href="#LiberationSans-2e" transform="translate(111.230469 0)"/>
     <use xlink:href="#LiberationSans-34" transform="translate(139.013672 0)"/>
    </g>
   </g>
   <g id="text_31">
    <!-- 19.6 -->
    <g style="fill: #5d6d7e" transform="translate(658.207895 83.695824) scale(0.08 -0.08)">
     <use xlink:href="#LiberationSans-31"/>
     <use xlink:href="#LiberationSans-39" transform="translate(55.615234 0)"/>
     <use xlink:href="#LiberationSans-2e" transform="translate(111.230469 0)"/>
     <use xlink:href="#LiberationSans-36" transform="translate(139.013672 0)"/>
    </g>
   </g>
   <g id="text_32">
    <!-- 20.0 -->
    <g style="fill: #5d6d7e" transform="translate(716.393292 77.94107) scale(0.08 -0.08)">
     <use xlink:href="#LiberationSans-32"/>
     <use xlink:href="#LiberationSans-30" transform="translate(55.615234 0)"/>
     <use xlink:href="#LiberationSans-2e" transform="translate(111.230469 0)"/>
     <use xlink:href="#LiberationSans-30" transform="translate(139.013672 0)"/>
    </g>
   </g>
   <g id="text_33">
    <!-- 20.1 -->
    <g style="fill: #5d6d7e" transform="translate(774.578689 77.6881) scale(0.08 -0.08)">
     <use xlink:href="#LiberationSans-32"/>
     <use xlink:href="#LiberationSans-30" transform="translate(55.615234 0)"/>
     <use xlink:href="#LiberationSans-2e" transform="translate(111.230469 0)"/>
     <use xlink:href="#LiberationSans-31" transform="translate(139.013672 0)"/>
    </g>
   </g>
   <g id="text_34">
    <!-- 13.4 -->
    <g style="fill: #85c1e9" transform="translate(96.718811 157.641955) scale(0.08 -0.08)">
     <use xlink:href="#LiberationSans-31"/>
     <use xlink:href="#LiberationSans-33" transform="translate(55.615234 0)"/>
     <use xlink:href="#LiberationSans-2e" transform="translate(111.230469 0)"/>
     <use xlink:href="#LiberationSans-34" transform="translate(139.013672 0)"/>
    </g>
   </g>
   <g id="text_35">
    <!-- 14.6 -->
    <g style="fill: #85c1e9" transform="translate(154.904208 143.381736) scale(0.08 -0.08)">
     <use xlink:href="#LiberationSans-31"/>
     <use xlink:href="#LiberationSans-34" transform="translate(55.615234 0)"/>
     <use xlink:href="#LiberationSans-2e" transform="translate(111.230469 0)"/>
     <use xlink:href="#LiberationSans-36" transform="translate(139.013672 0)"/>
    </g>
   </g>
   <g id="text_36">
    <!-- 17.7 -->
    <g style="fill: #85c1e9" transform="translate(213.089605 106.432799) scale(0.08 -0.08)">
     <use xlink:href="#LiberationSans-31"/>
     <use xlink:href="#LiberationSans-37" transform="translate(55.615234 0)"/>
     <use xlink:href="#LiberationSans-2e" transform="translate(111.230469 0)"/>
     <use xlink:href="#LiberationSans-37" transform="translate(139.013672 0)"/>
    </g>
   </g>
   <g id="text_37">
    <!-- 20.9 -->
    <g style="fill: #85c1e9" transform="translate(271.275003 67.913826) scale(0.08 -0.08)">
     <use xlink:href="#LiberationSans-32"/>
     <use xlink:href="#LiberationSans-30" transform="translate(55.615234 0)"/>
     <use xlink:href="#LiberationSans-2e" transform="translate(111.230469 0)"/>
     <use xlink:href="#LiberationSans-39" transform="translate(139.013672 0)"/>
    </g>
   </g>
   <g id="text_38">
    <!-- 23.8 -->
    <g style="fill: #85c1e9" transform="translate(329.4604 32.925754) scale(0.08 -0.08)">
     <use xlink:href="#LiberationSans-32"/>
     <use xlink:href="#LiberationSans-33" transform="translate(55.615234 0)"/>
     <use xlink:href="#LiberationSans-2e" transform="translate(111.230469 0)"/>
     <use xlink:href="#LiberationSans-38" transform="translate(139.013672 0)"/>
    </g>
   </g>
   <g id="text_39">
    <!-- 23.4 -->
    <g style="fill: #85c1e9" transform="translate(387.645797 37.954547) scale(0.08 -0.08)">
     <use xlink:href="#LiberationSans-32"/>
     <use xlink:href="#LiberationSans-33" transform="translate(55.615234 0)"/>
     <use xlink:href="#LiberationSans-2e" transform="translate(111.230469 0)"/>
     <use xlink:href="#LiberationSans-34" transform="translate(139.013672 0)"/>
    </g>
   </g>
   <g id="text_40">
    <!-- 23.6 -->
    <g style="fill: #85c1e9" transform="translate(445.831195 35.822102) scale(0.08 -0.08)">
     <use xlink:href="#LiberationSans-32"/>
     <use xlink:href="#LiberationSans-33" transform="translate(55.615234 0)"/>
     <use xlink:href="#LiberationSans-2e" transform="translate(111.230469 0)"/>
     <use xlink:href="#LiberationSans-36" transform="translate(139.013672 0)"/>
    </g>
   </g>
   <g id="text_41">
    <!-- 21.6 -->
    <g style="fill: #85c1e9" transform="translate(504.016592 58.969679) scale(0.08 -0.08)">
     <use xlink:href="#LiberationSans-32"/>
     <use xlink:href="#LiberationSans-31" transform="translate(55.615234 0)"/>
     <use xlink:href="#LiberationSans-2e" transform="translate(111.230469 0)"/>
     <use xlink:href="#LiberationSans-36" transform="translate(139.013672 0)"/>
    </g>
   </g>
   <g id="text_42">
    <!-- 20.9 -->
    <g style="fill: #85c1e9" transform="translate(562.201989 68.206145) scale(0.08 -0.08)">
     <use xlink:href="#LiberationSans-32"/>
     <use xlink:href="#LiberationSans-30" transform="translate(55.615234 0)"/>
     <use xlink:href="#LiberationSans-2e" transform="translate(111.230469 0)"/>
     <use xlink:href="#LiberationSans-39" transform="translate(139.013672 0)"/>
    </g>
   </g>
   <g id="text_43">
    <!-- 20.0 -->
    <g style="fill: #85c1e9" transform="translate(620.387386 78.239262) scale(0.08 -0.08)">
     <use xlink:href="#LiberationSans-32"/>
     <use xlink:href="#LiberationSans-30" transform="translate(55.615234 0)"/>
     <use xlink:href="#LiberationSans-2e" transform="translate(111.230469 0)"/>
     <use xlink:href="#LiberationSans-30" transform="translate(139.013672 0)"/>
    </g>
   </g>
   <g id="text_44">
    <!-- 20.7 -->
    <g style="fill: #85c1e9" transform="translate(678.572784 70.147162) scale(0.08 -0.08)">
     <use xlink:href="#LiberationSans-32"/>
     <use xlink:href="#LiberationSans-30" transform="translate(55.615234 0)"/>
     <use xlink:href="#LiberationSans-2e" transform="translate(111.230469 0)"/>
     <use xlink:href="#LiberationSans-37" transform="translate(139.013672 0)"/>
    </g>
   </g>
   <g id="text_45">
    <!-- 20.3 -->
    <g style="fill: #85c1e9" transform="translate(736.758181 75.157728) scale(0.08 -0.08)">
     <use xlink:href="#LiberationSans-32"/>
     <use xlink:href="#LiberationSans-30" transform="translate(55.615234 0)"/>
     <use xlink:href="#LiberationSans-2e" transform="translate(111.230469 0)"/>
     <use xlink:href="#LiberationSans-33" transform="translate(139.013672 0)"/>
    </g>
   </g>
   <g id="text_46">
    <!-- 19.8 -->
    <g style="fill: #85c1e9" transform="translate(794.943578 80.840659) scale(0.08 -0.08)">
     <use xlink:href="#LiberationSans-31"/>
     <use xlink:href="#LiberationSans-39" transform="translate(55.615234 0)"/>
     <use xlink:href="#LiberationSans-2e" transform="translate(111.230469 0)"/>
     <use xlink:href="#LiberationSans-38" transform="translate(139.013672 0)"/>
    </g>
   </g>
   <g id="text_47">
    <!-- Branch Mispredictions (Total) vs Throughput -->
    <g style="fill: #262626" transform="translate(294.236875 17.345625) scale(0.14 -0.14)">
     <defs>
      <path id="LiberationSans-Bold-42" d="M 4331 1256 
Q 4331 656 3881 328 
Q 3431 0 2631 0 
L 428 0 
L 428 4403 
L 2444 4403 
Q 3250 4403 3664 4123 
Q 4078 3844 4078 3297 
Q 4078 2922 3870 2664 
Q 3663 2406 3238 2316 
Q 3772 2253 4051 1979 
Q 4331 1706 4331 1256 
z
M 3150 3172 
Q 3150 3469 2961 3594 
Q 2772 3719 2400 3719 
L 1350 3719 
L 1350 2628 
L 2406 2628 
Q 2797 2628 2973 2764 
Q 3150 2900 3150 3172 
z
M 3406 1328 
Q 3406 1947 2519 1947 
L 1350 1947 
L 1350 684 
L 2553 684 
Q 2997 684 3201 845 
Q 3406 1006 3406 1328 
z
" transform="scale(0.015625)"/>
      <path id="LiberationSans-Bold-72" d="M 447 0 
L 447 2588 
Q 447 2866 439 3052 
Q 431 3238 422 3381 
L 1259 3381 
Q 1269 3325 1284 3039 
Q 1300 2753 1300 2659 
L 1313 2659 
Q 1441 3016 1541 3161 
Q 1641 3306 1778 3376 
Q 1916 3447 2122 3447 
Q 2291 3447 2394 3400 
L 2394 2666 
Q 2181 2713 2019 2713 
Q 1691 2713 1508 2447 
Q 1325 2181 1325 1659 
L 1325 0 
L 447 0 
z
" transform="scale(0.015625)"/>
      <path id="LiberationSans-Bold-61" d="M 1228 -63 
Q 738 -63 463 204 
Q 188 472 188 956 
Q 188 1481 530 1756 
Q 872 2031 1522 2038 
L 2250 2050 
L 2250 2222 
Q 2250 2553 2134 2714 
Q 2019 2875 1756 2875 
Q 1513 2875 1398 2764 
Q 1284 2653 1256 2397 
L 341 2441 
Q 425 2934 792 3189 
Q 1159 3444 1794 3444 
Q 2434 3444 2781 3128 
Q 3128 2813 3128 2231 
L 3128 1000 
Q 3128 716 3192 608 
Q 3256 500 3406 500 
Q 3506 500 3600 519 
L 3600 44 
Q 3522 25 3459 9 
Q 3397 -6 3334 -15 
Q 3272 -25 3201 -31 
Q 3131 -38 3038 -38 
Q 2706 -38 2548 125 
Q 2391 288 2359 603 
L 2341 603 
Q 1972 -63 1228 -63 
z
M 2250 1566 
L 1800 1559 
Q 1494 1547 1366 1492 
Q 1238 1438 1170 1325 
Q 1103 1213 1103 1025 
Q 1103 784 1214 667 
Q 1325 550 1509 550 
Q 1716 550 1886 662 
Q 2056 775 2153 973 
Q 2250 1172 2250 1394 
L 2250 1566 
z
" transform="scale(0.015625)"/>
      <path id="LiberationSans-Bold-6e" d="M 2638 0 
L 2638 1897 
Q 2638 2788 2034 2788 
Q 1716 2788 1520 2514 
Q 1325 2241 1325 1813 
L 1325 0 
L 447 0 
L 447 2625 
Q 447 2897 439 3070 
Q 431 3244 422 3381 
L 1259 3381 
Q 1269 3322 1284 3064 
Q 1300 2806 1300 2709 
L 1313 2709 
Q 1491 3097 1759 3272 
Q 2028 3447 2400 3447 
Q 2938 3447 3225 3115 
Q 3513 2784 3513 2147 
L 3513 0 
L 2638 0 
z
" transform="scale(0.015625)"/>
      <path id="LiberationSans-Bold-63" d="M 1856 -63 
Q 1088 -63 669 395 
Q 250 853 250 1672 
Q 250 2509 672 2976 
Q 1094 3444 1869 3444 
Q 2466 3444 2856 3144 
Q 3247 2844 3347 2316 
L 2463 2272 
Q 2425 2531 2275 2686 
Q 2125 2841 1850 2841 
Q 1172 2841 1172 1706 
Q 1172 538 1863 538 
Q 2113 538 2281 695 
Q 2450 853 2491 1166 
L 3372 1125 
Q 3325 778 3123 506 
Q 2922 234 2594 85 
Q 2266 -63 1856 -63 
z
" transform="scale(0.015625)"/>
      <path id="LiberationSans-Bold-68" d="M 1313 2706 
Q 1491 3094 1759 3269 
Q 2028 3444 2400 3444 
Q 2938 3444 3225 3112 
Q 3513 2781 3513 2144 
L 3513 0 
L 2638 0 
L 2638 1894 
Q 2638 2784 2034 2784 
Q 1716 2784 1520 2511 
Q 1325 2238 1325 1809 
L 1325 0 
L 447 0 
L 447 4638 
L 1325 4638 
L 1325 3372 
Q 1325 3031 1300 2706 
L 1313 2706 
z
" transform="scale(0.015625)"/>
      <path id="LiberationSans-Bold-20" transform="scale(0.015625)"/>
      <path id="LiberationSans-Bold-4d" d="M 4084 0 
L 4084 2669 
Q 4084 2759 4086 2850 
Q 4088 2941 4116 3628 
Q 3894 2788 3788 2456 
L 2994 0 
L 2338 0 
L 1544 2456 
L 1209 3628 
Q 1247 2903 1247 2669 
L 1247 0 
L 428 0 
L 428 4403 
L 1663 4403 
L 2450 1941 
L 2519 1703 
L 2669 1113 
L 2866 1819 
L 3675 4403 
L 4903 4403 
L 4903 0 
L 4084 0 
z
" transform="scale(0.015625)"/>
      <path id="LiberationSans-Bold-69" d="M 447 3991 
L 447 4638 
L 1325 4638 
L 1325 3991 
L 447 3991 
z
M 447 0 
L 447 3381 
L 1325 3381 
L 1325 0 
L 447 0 
z
" transform="scale(0.015625)"/>
      <path id="LiberationSans-Bold-73" d="M 3297 988 
Q 3297 497 2895 217 
Q 2494 -63 1784 -63 
Q 1088 -63 717 157 
Q 347 378 225 844 
L 997 959 
Q 1063 719 1223 619 
Q 1384 519 1784 519 
Q 2153 519 2322 612 
Q 2491 706 2491 906 
Q 2491 1069 2355 1164 
Q 2219 1259 1894 1325 
Q 1150 1472 890 1598 
Q 631 1725 495 1926 
Q 359 2128 359 2422 
Q 359 2906 732 3176 
Q 1106 3447 1791 3447 
Q 2394 3447 2761 3212 
Q 3128 2978 3219 2534 
L 2441 2453 
Q 2403 2659 2256 2761 
Q 2109 2863 1791 2863 
Q 1478 2863 1322 2783 
Q 1166 2703 1166 2516 
Q 1166 2369 1286 2283 
Q 1406 2197 1691 2141 
Q 2088 2059 2395 1973 
Q 2703 1888 2889 1769 
Q 3075 1650 3186 1464 
Q 3297 1278 3297 988 
z
" transform="scale(0.015625)"/>
      <path id="LiberationSans-Bold-70" d="M 3647 1706 
Q 3647 859 3308 398 
Q 2969 -63 2350 -63 
Q 1994 -63 1730 92 
Q 1466 247 1325 538 
L 1306 538 
Q 1325 444 1325 -31 
L 1325 -1328 
L 447 -1328 
L 447 2603 
Q 447 3081 422 3381 
L 1275 3381 
Q 1291 3325 1302 3159 
Q 1313 2994 1313 2831 
L 1325 2831 
Q 1622 3453 2406 3453 
Q 2997 3453 3322 2998 
Q 3647 2544 3647 1706 
z
M 2731 1706 
Q 2731 2844 2034 2844 
Q 1684 2844 1498 2537 
Q 1313 2231 1313 1681 
Q 1313 1134 1498 836 
Q 1684 538 2028 538 
Q 2731 538 2731 1706 
z
" transform="scale(0.015625)"/>
      <path id="LiberationSans-Bold-65" d="M 1831 -63 
Q 1069 -63 659 389 
Q 250 841 250 1706 
Q 250 2544 665 2994 
Q 1081 3444 1844 3444 
Q 2572 3444 2956 2961 
Q 3341 2478 3341 1547 
L 3341 1522 
L 1172 1522 
Q 1172 1028 1355 776 
Q 1538 525 1875 525 
Q 2341 525 2463 928 
L 3291 856 
Q 2931 -63 1831 -63 
z
M 1831 2891 
Q 1522 2891 1355 2675 
Q 1188 2459 1178 2072 
L 2491 2072 
Q 2466 2481 2294 2686 
Q 2122 2891 1831 2891 
z
" transform="scale(0.015625)"/>
      <path id="LiberationSans-Bold-64" d="M 2638 0 
Q 2625 47 2608 236 
Q 2591 425 2591 550 
L 2578 550 
Q 2294 -63 1497 -63 
Q 906 -63 584 398 
Q 263 859 263 1688 
Q 263 2528 602 2986 
Q 941 3444 1563 3444 
Q 1922 3444 2183 3294 
Q 2444 3144 2584 2847 
L 2591 2847 
L 2584 3403 
L 2584 4638 
L 3463 4638 
L 3463 738 
Q 3463 425 3488 0 
L 2638 0 
z
M 2597 1709 
Q 2597 2256 2414 2551 
Q 2231 2847 1875 2847 
Q 1522 2847 1350 2561 
Q 1178 2275 1178 1688 
Q 1178 538 1869 538 
Q 2216 538 2406 842 
Q 2597 1147 2597 1709 
z
" transform="scale(0.015625)"/>
      <path id="LiberationSans-Bold-74" d="M 1313 -56 
Q 925 -56 715 155 
Q 506 366 506 794 
L 506 2788 
L 78 2788 
L 78 3381 
L 550 3381 
L 825 4175 
L 1375 4175 
L 1375 3381 
L 2016 3381 
L 2016 2788 
L 1375 2788 
L 1375 1031 
Q 1375 784 1469 667 
Q 1563 550 1759 550 
Q 1863 550 2053 594 
L 2053 50 
Q 1728 -56 1313 -56 
z
" transform="scale(0.015625)"/>
      <path id="LiberationSans-Bold-6f" d="M 3659 1694 
Q 3659 872 3203 404 
Q 2747 -63 1941 -63 
Q 1150 -63 700 406 
Q 250 875 250 1694 
Q 250 2509 700 2976 
Q 1150 3444 1959 3444 
Q 2788 3444 3223 2992 
Q 3659 2541 3659 1694 
z
M 2741 1694 
Q 2741 2297 2544 2569 
Q 2347 2841 1972 2841 
Q 1172 2841 1172 1694 
Q 1172 1128 1367 833 
Q 1563 538 1931 538 
Q 2741 538 2741 1694 
z
" transform="scale(0.015625)"/>
      <path id="LiberationSans-Bold-28" d="M 1247 -1328 
Q 756 -622 537 81 
Q 319 784 319 1659 
Q 319 2531 537 3232 
Q 756 3934 1247 4638 
L 2125 4638 
Q 1631 3925 1407 3219 
Q 1184 2513 1184 1656 
Q 1184 803 1406 101 
Q 1628 -600 2125 -1328 
L 1247 -1328 
z
" transform="scale(0.015625)"/>
      <path id="LiberationSans-Bold-54" d="M 2416 3691 
L 2416 0 
L 1494 0 
L 1494 3691 
L 72 3691 
L 72 4403 
L 3841 4403 
L 3841 3691 
L 2416 3691 
z
" transform="scale(0.015625)"/>
      <path id="LiberationSans-Bold-6c" d="M 447 0 
L 447 4638 
L 1325 4638 
L 1325 0 
L 447 0 
z
" transform="scale(0.015625)"/>
      <path id="LiberationSans-Bold-29" d="M 6 -1328 
Q 506 -597 726 101 
Q 947 800 947 1656 
Q 947 2516 722 3223 
Q 497 3931 6 4638 
L 884 4638 
Q 1378 3928 1595 3225 
Q 1813 2522 1813 1659 
Q 1813 791 1595 87 
Q 1378 -616 884 -1328 
L 6 -1328 
z
" transform="scale(0.015625)"/>
      <path id="LiberationSans-Bold-76" d="M 2284 0 
L 1234 0 
L 25 3381 
L 953 3381 
L 1544 1491 
Q 1591 1334 1766 709 
Q 1797 838 1894 1159 
Q 1991 1481 2613 3381 
L 3531 3381 
L 2284 0 
z
" transform="scale(0.015625)"/>
      <path id="LiberationSans-Bold-75" d="M 1275 3381 
L 1275 1484 
Q 1275 594 1875 594 
Q 2194 594 2389 867 
Q 2584 1141 2584 1569 
L 2584 3381 
L 3463 3381 
L 3463 756 
Q 3463 325 3488 0 
L 2650 0 
Q 2613 450 2613 672 
L 2597 672 
Q 2422 288 2151 112 
Q 1881 -63 1509 -63 
Q 972 -63 684 267 
Q 397 597 397 1234 
L 397 3381 
L 1275 3381 
z
" transform="scale(0.015625)"/>
      <path id="LiberationSans-Bold-67" d="M 1863 -1356 
Q 1244 -1356 867 -1120 
Q 491 -884 403 -447 
L 1281 -344 
Q 1328 -547 1483 -662 
Q 1638 -778 1888 -778 
Q 2253 -778 2422 -553 
Q 2591 -328 2591 116 
L 2591 294 
L 2597 628 
L 2591 628 
Q 2300 6 1503 6 
Q 913 6 588 450 
Q 263 894 263 1719 
Q 263 2547 597 2997 
Q 931 3447 1569 3447 
Q 2306 3447 2591 2838 
L 2606 2838 
Q 2606 2947 2620 3134 
Q 2634 3322 2650 3381 
L 3481 3381 
Q 3463 3044 3463 2600 
L 3463 103 
Q 3463 -619 3053 -987 
Q 2644 -1356 1863 -1356 
z
M 2597 1738 
Q 2597 2259 2411 2551 
Q 2225 2844 1881 2844 
Q 1178 2844 1178 1719 
Q 1178 616 1875 616 
Q 2225 616 2411 908 
Q 2597 1200 2597 1738 
z
" transform="scale(0.015625)"/>
     </defs>
     <use xlink:href="#LiberationSans-Bold-42"/>
     <use xlink:href="#LiberationSans-Bold-72" transform="translate(72.216797 0)"/>
     <use xlink:href="#LiberationSans-Bold-61" transform="translate(111.132812 0)"/>
     <use xlink:href="#LiberationSans-Bold-6e" transform="translate(166.748047 0)"/>
     <use xlink:href="#LiberationSans-Bold-63" transform="translate(227.832031 0)"/>
     <use xlink:href="#LiberationSans-Bold-68" transform="translate(283.447266 0)"/>
     <use xlink:href="#LiberationSans-Bold-20" transform="translate(344.53125 0)"/>
     <use xlink:href="#LiberationSans-Bold-4d" transform="translate(372.314453 0)"/>
     <use xlink:href="#LiberationSans-Bold-69" transform="translate(455.615234 0)"/>
     <use xlink:href="#LiberationSans-Bold-73" transform="translate(483.398438 0)"/>
     <use xlink:href="#LiberationSans-Bold-70" transform="translate(539.013672 0)"/>
     <use xlink:href="#LiberationSans-Bold-72" transform="translate(600.097656 0)"/>
     <use xlink:href="#LiberationSans-Bold-65" transform="translate(639.013672 0)"/>
     <use xlink:href="#LiberationSans-Bold-64" transform="translate(694.628906 0)"/>
     <use xlink:href="#LiberationSans-Bold-69" transform="translate(755.712891 0)"/>
     <use xlink:href="#LiberationSans-Bold-63" transform="translate(783.496094 0)"/>
     <use xlink:href="#LiberationSans-Bold-74" transform="translate(839.111328 0)"/>
     <use xlink:href="#LiberationSans-Bold-69" transform="translate(872.412109 0)"/>
     <use xlink:href="#LiberationSans-Bold-6f" transform="translate(900.195312 0)"/>
     <use xlink:href="#LiberationSans-Bold-6e" transform="translate(961.279297 0)"/>
     <use xlink:href="#LiberationSans-Bold-73" transform="translate(1022.363281 0)"/>
     <use xlink:href="#LiberationSans-Bold-20" transform="translate(1077.978516 0)"/>
     <use xlink:href="#LiberationSans-Bold-28" transform="translate(1105.761719 0)"/>
     <use xlink:href="#LiberationSans-Bold-54" transform="translate(1139.0625 0)"/>
     <use xlink:href="#LiberationSans-Bold-6f" transform="translate(1192.771484 0)"/>
     <use xlink:href="#LiberationSans-Bold-74" transform="translate(1253.855469 0)"/>
     <use xlink:href="#LiberationSans-Bold-61" transform="translate(1287.15625 0)"/>
     <use xlink:href="#LiberationSans-Bold-6c" transform="translate(1342.771484 0)"/>
     <use xlink:href="#LiberationSans-Bold-29" transform="translate(1370.554688 0)"/>
     <use xlink:href="#LiberationSans-Bold-20" transform="translate(1403.855469 0)"/>
     <use xlink:href="#LiberationSans-Bold-76" transform="translate(1431.638672 0)"/>
     <use xlink:href="#LiberationSans-Bold-73" transform="translate(1487.253906 0)"/>
     <use xlink:href="#LiberationSans-Bold-20" transform="translate(1542.869141 0)"/>
     <use xlink:href="#LiberationSans-Bold-54" transform="translate(1570.652344 0)"/>
     <use xlink:href="#LiberationSans-Bold-68" transform="translate(1631.736328 0)"/>
     <use xlink:href="#LiberationSans-Bold-72" transform="translate(1692.820312 0)"/>
     <use xlink:href="#LiberationSans-Bold-6f" transform="translate(1731.736328 0)"/>
     <use xlink:href="#LiberationSans-Bold-75" transform="translate(1792.820312 0)"/>
     <use xlink:href="#LiberationSans-Bold-67" transform="translate(1853.904297 0)"/>
     <use xlink:href="#LiberationSans-Bold-68" transform="translate(1914.988281 0)"/>
     <use xlink:href="#LiberationSans-Bold-70" transform="translate(1976.072266 0)"/>
     <use xlink:href="#LiberationSans-Bold-75" transform="translate(2037.15625 0)"/>
     <use xlink:href="#LiberationSans-Bold-74" transform="translate(2098.240234 0)"/>
    </g>
   </g>
   <g id="legend_1">
    <g id="patch_33">
     <path d="M 778.602188 41.217187 
L 800.602188 41.217187 
L 800.602188 33.517187 
L 778.602188 33.517187 
z
" style="fill: #5d6d7e; opacity: 0.9"/>
    </g>
    <g id="text_48">
     <!-- C SIM -->
     <g style="fill: #262626" transform="translate(809.402187 41.217187) scale(0.11 -0.11)">
      <defs>
       <path id="LiberationSans-43" d="M 2475 3981 
Q 1744 3981 1337 3511 
Q 931 3041 931 2222 
Q 931 1413 1354 920 
Q 1778 428 2500 428 
Q 3425 428 3891 1344 
L 4378 1100 
Q 4106 531 3614 234 
Q 3122 -63 2472 -63 
Q 1806 -63 1320 214 
Q 834 491 579 1005 
Q 325 1519 325 2222 
Q 325 3275 894 3872 
Q 1463 4469 2469 4469 
Q 3172 4469 3644 4194 
Q 4116 3919 4338 3378 
L 3772 3191 
Q 3619 3575 3280 3778 
Q 2941 3981 2475 3981 
z
" transform="scale(0.015625)"/>
       <path id="LiberationSans-53" d="M 3975 1216 
Q 3975 606 3498 271 
Q 3022 -63 2156 -63 
Q 547 -63 291 1056 
L 869 1172 
Q 969 775 1294 589 
Q 1619 403 2178 403 
Q 2756 403 3070 601 
Q 3384 800 3384 1184 
Q 3384 1400 3286 1534 
Q 3188 1669 3009 1756 
Q 2831 1844 2584 1903 
Q 2338 1963 2038 2031 
Q 1516 2147 1245 2262 
Q 975 2378 819 2520 
Q 663 2663 580 2853 
Q 497 3044 497 3291 
Q 497 3856 930 4162 
Q 1363 4469 2169 4469 
Q 2919 4469 3316 4239 
Q 3713 4009 3872 3456 
L 3284 3353 
Q 3188 3703 2916 3861 
Q 2644 4019 2163 4019 
Q 1634 4019 1356 3844 
Q 1078 3669 1078 3322 
Q 1078 3119 1186 2986 
Q 1294 2853 1497 2761 
Q 1700 2669 2306 2534 
Q 2509 2488 2711 2439 
Q 2913 2391 3097 2323 
Q 3281 2256 3442 2165 
Q 3603 2075 3722 1944 
Q 3841 1813 3908 1634 
Q 3975 1456 3975 1216 
z
" transform="scale(0.015625)"/>
       <path id="LiberationSans-49" d="M 591 0 
L 591 4403 
L 1188 4403 
L 1188 0 
L 591 0 
z
" transform="scale(0.015625)"/>
      </defs>
      <use xlink:href="#LiberationSans-43"/>
      <use xlink:href="#LiberationSans-20" transform="translate(72.216797 0)"/>
      <use xlink:href="#LiberationSans-53" transform="translate(100 0)"/>
      <use xlink:href="#LiberationSans-49" transform="translate(166.699219 0)"/>
      <use xlink:href="#LiberationSans-4d" transform="translate(194.482422 0)"/>
     </g>
    </g>
    <g id="patch_34">
     <path d="M 778.602188 56.97125 
L 800.602188 56.97125 
L 800.602188 49.27125 
L 778.602188 49.27125 
z
" style="fill: #85c1e9; opacity: 0.9"/>
    </g>
    <g id="text_49">
     <!-- PNK -->
     <g style="fill: #262626" transform="translate(809.402187 56.97125) scale(0.11 -0.11)">
      <defs>
       <path id="LiberationSans-50" d="M 3931 3078 
Q 3931 2453 3523 2084 
Q 3116 1716 2416 1716 
L 1122 1716 
L 1122 0 
L 525 0 
L 525 4403 
L 2378 4403 
Q 3119 4403 3525 4056 
Q 3931 3709 3931 3078 
z
M 3331 3072 
Q 3331 3925 2306 3925 
L 1122 3925 
L 1122 2188 
L 2331 2188 
Q 3331 2188 3331 3072 
z
" transform="scale(0.015625)"/>
       <path id="LiberationSans-4e" d="M 3381 0 
L 1025 3750 
L 1041 3447 
L 1056 2925 
L 1056 0 
L 525 0 
L 525 4403 
L 1219 4403 
L 3600 628 
Q 3563 1241 3563 1516 
L 3563 4403 
L 4100 4403 
L 4100 0 
L 3381 0 
z
" transform="scale(0.015625)"/>
       <path id="LiberationSans-4b" d="M 3456 0 
L 1697 2125 
L 1122 1688 
L 1122 0 
L 525 0 
L 525 4403 
L 1122 4403 
L 1122 2197 
L 3244 4403 
L 3947 4403 
L 2072 2491 
L 4197 0 
L 3456 0 
z
" transform="scale(0.015625)"/>
      </defs>
      <use xlink:href="#LiberationSans-50"/>
      <use xlink:href="#LiberationSans-4e" transform="translate(66.699219 0)"/>
      <use xlink:href="#LiberationSans-4b" transform="translate(138.916016 0)"/>
     </g>
    </g>
   </g>
  </g>
  <g id="axes_2">
   <g id="patch_35">
    <path d="M 37.008125 665.239005 
L 849.858125 665.239005 
L 849.858125 370.185625 
L 37.008125 370.185625 
z
" style="fill: #eaeaf2"/>
   </g>
   <g id="matplotlib.axis_3">
    <g id="xtick_14">
     <g id="line2d_39">
      <path d="M 97.048182 665.239005 
L 97.048182 370.185625 
" clip-path="url(#pdc911cd1c1)" style="fill: none; stroke: #ffffff; stroke-width: 0.8; stroke-linecap: round"/>
     </g>
     <g id="line2d_40"/>
     <g id="text_50">
      <!-- 10 -->
      <g style="fill: #262626" transform="translate(94.944539 681.727673) rotate(-45) scale(0.1 -0.1)">
       <use xlink:href="#LiberationSans-31"/>
       <use xlink:href="#LiberationSans-30" transform="translate(55.615234 0)"/>
      </g>
     </g>
    </g>
    <g id="xtick_15">
     <g id="line2d_41">
      <path d="M 154.779006 665.239005 
L 154.779006 370.185625 
" clip-path="url(#pdc911cd1c1)" style="fill: none; stroke: #ffffff; stroke-width: 0.8; stroke-linecap: round"/>
     </g>
     <g id="line2d_42"/>
     <g id="text_51">
      <!-- 20 -->
      <g style="fill: #262626" transform="translate(152.675363 681.727673) rotate(-45) scale(0.1 -0.1)">
       <use xlink:href="#LiberationSans-32"/>
       <use xlink:href="#LiberationSans-30" transform="translate(55.615234 0)"/>
      </g>
     </g>
    </g>
    <g id="xtick_16">
     <g id="line2d_43">
      <path d="M 212.50983 665.239005 
L 212.50983 370.185625 
" clip-path="url(#pdc911cd1c1)" style="fill: none; stroke: #ffffff; stroke-width: 0.8; stroke-linecap: round"/>
     </g>
     <g id="line2d_44"/>
     <g id="text_52">
      <!-- 50 -->
      <g style="fill: #262626" transform="translate(210.406187 681.727673) rotate(-45) scale(0.1 -0.1)">
       <use xlink:href="#LiberationSans-35"/>
       <use xlink:href="#LiberationSans-30" transform="translate(55.615234 0)"/>
      </g>
     </g>
    </g>
    <g id="xtick_17">
     <g id="line2d_45">
      <path d="M 270.240653 665.239005 
L 270.240653 370.185625 
" clip-path="url(#pdc911cd1c1)" style="fill: none; stroke: #ffffff; stroke-width: 0.8; stroke-linecap: round"/>
     </g>
     <g id="line2d_46"/>
     <g id="text_53">
      <!-- 100 -->
      <g style="fill: #262626" transform="translate(266.170922 685.659849) rotate(-45) scale(0.1 -0.1)">
       <use xlink:href="#LiberationSans-31"/>
       <use xlink:href="#LiberationSans-30" transform="translate(55.615234 0)"/>
       <use xlink:href="#LiberationSans-30" transform="translate(111.230469 0)"/>
      </g>
     </g>
    </g>
    <g id="xtick_18">
     <g id="line2d_47">
      <path d="M 327.971477 665.239005 
L 327.971477 370.185625 
" clip-path="url(#pdc911cd1c1)" style="fill: none; stroke: #ffffff; stroke-width: 0.8; stroke-linecap: round"/>
     </g>
     <g id="line2d_48"/>
     <g id="text_54">
      <!-- 200 -->
      <g style="fill: #262626" transform="translate(323.901746 685.659849) rotate(-45) scale(0.1 -0.1)">
       <use xlink:href="#LiberationSans-32"/>
       <use xlink:href="#LiberationSans-30" transform="translate(55.615234 0)"/>
       <use xlink:href="#LiberationSans-30" transform="translate(111.230469 0)"/>
      </g>
     </g>
    </g>
    <g id="xtick_19">
     <g id="line2d_49">
      <path d="M 385.702301 665.239005 
L 385.702301 370.185625 
" clip-path="url(#pdc911cd1c1)" style="fill: none; stroke: #ffffff; stroke-width: 0.8; stroke-linecap: round"/>
     </g>
     <g id="line2d_50"/>
     <g id="text_55">
      <!-- 300 -->
      <g style="fill: #262626" transform="translate(381.63257 685.659849) rotate(-45) scale(0.1 -0.1)">
       <use xlink:href="#LiberationSans-33"/>
       <use xlink:href="#LiberationSans-30" transform="translate(55.615234 0)"/>
       <use xlink:href="#LiberationSans-30" transform="translate(111.230469 0)"/>
      </g>
     </g>
    </g>
    <g id="xtick_20">
     <g id="line2d_51">
      <path d="M 443.433125 665.239005 
L 443.433125 370.185625 
" clip-path="url(#pdc911cd1c1)" style="fill: none; stroke: #ffffff; stroke-width: 0.8; stroke-linecap: round"/>
     </g>
     <g id="line2d_52"/>
     <g id="text_56">
      <!-- 400 -->
      <g style="fill: #262626" transform="translate(439.363394 685.659849) rotate(-45) scale(0.1 -0.1)">
       <use xlink:href="#LiberationSans-34"/>
       <use xlink:href="#LiberationSans-30" transform="translate(55.615234 0)"/>
       <use xlink:href="#LiberationSans-30" transform="translate(111.230469 0)"/>
      </g>
     </g>
    </g>
    <g id="xtick_21">
     <g id="line2d_53">
      <path d="M 501.163949 665.239005 
L 501.163949 370.185625 
" clip-path="url(#pdc911cd1c1)" style="fill: none; stroke: #ffffff; stroke-width: 0.8; stroke-linecap: round"/>
     </g>
     <g id="line2d_54"/>
     <g id="text_57">
      <!-- 500 -->
      <g style="fill: #262626" transform="translate(497.094218 685.659849) rotate(-45) scale(0.1 -0.1)">
       <use xlink:href="#LiberationSans-35"/>
       <use xlink:href="#LiberationSans-30" transform="translate(55.615234 0)"/>
       <use xlink:href="#LiberationSans-30" transform="translate(111.230469 0)"/>
      </g>
     </g>
    </g>
    <g id="xtick_22">
     <g id="line2d_55">
      <path d="M 558.894773 665.239005 
L 558.894773 370.185625 
" clip-path="url(#pdc911cd1c1)" style="fill: none; stroke: #ffffff; stroke-width: 0.8; stroke-linecap: round"/>
     </g>
     <g id="line2d_56"/>
     <g id="text_58">
      <!-- 600 -->
      <g style="fill: #262626" transform="translate(554.825042 685.659849) rotate(-45) scale(0.1 -0.1)">
       <use xlink:href="#LiberationSans-36"/>
       <use xlink:href="#LiberationSans-30" transform="translate(55.615234 0)"/>
       <use xlink:href="#LiberationSans-30" transform="translate(111.230469 0)"/>
      </g>
     </g>
    </g>
    <g id="xtick_23">
     <g id="line2d_57">
      <path d="M 616.625597 665.239005 
L 616.625597 370.185625 
" clip-path="url(#pdc911cd1c1)" style="fill: none; stroke: #ffffff; stroke-width: 0.8; stroke-linecap: round"/>
     </g>
     <g id="line2d_58"/>
     <g id="text_59">
      <!-- 700 -->
      <g style="fill: #262626" transform="translate(612.555866 685.659849) rotate(-45) scale(0.1 -0.1)">
       <use xlink:href="#LiberationSans-37"/>
       <use xlink:href="#LiberationSans-30" transform="translate(55.615234 0)"/>
       <use xlink:href="#LiberationSans-30" transform="translate(111.230469 0)"/>
      </g>
     </g>
    </g>
    <g id="xtick_24">
     <g id="line2d_59">
      <path d="M 674.35642 665.239005 
L 674.35642 370.185625 
" clip-path="url(#pdc911cd1c1)" style="fill: none; stroke: #ffffff; stroke-width: 0.8; stroke-linecap: round"/>
     </g>
     <g id="line2d_60"/>
     <g id="text_60">
      <!-- 800 -->
      <g style="fill: #262626" transform="translate(670.286689 685.659849) rotate(-45) scale(0.1 -0.1)">
       <use xlink:href="#LiberationSans-38"/>
       <use xlink:href="#LiberationSans-30" transform="translate(55.615234 0)"/>
       <use xlink:href="#LiberationSans-30" transform="translate(111.230469 0)"/>
      </g>
     </g>
    </g>
    <g id="xtick_25">
     <g id="line2d_61">
      <path d="M 732.087244 665.239005 
L 732.087244 370.185625 
" clip-path="url(#pdc911cd1c1)" style="fill: none; stroke: #ffffff; stroke-width: 0.8; stroke-linecap: round"/>
     </g>
     <g id="line2d_62"/>
     <g id="text_61">
      <!-- 900 -->
      <g style="fill: #262626" transform="translate(728.017513 685.659849) rotate(-45) scale(0.1 -0.1)">
       <use xlink:href="#LiberationSans-39"/>
       <use xlink:href="#LiberationSans-30" transform="translate(55.615234 0)"/>
       <use xlink:href="#LiberationSans-30" transform="translate(111.230469 0)"/>
      </g>
     </g>
    </g>
    <g id="xtick_26">
     <g id="line2d_63">
      <path d="M 789.818068 665.239005 
L 789.818068 370.185625 
" clip-path="url(#pdc911cd1c1)" style="fill: none; stroke: #ffffff; stroke-width: 0.8; stroke-linecap: round"/>
     </g>
     <g id="line2d_64"/>
     <g id="text_62">
      <!-- 1000 -->
      <g style="fill: #262626" transform="translate(783.782249 689.592026) rotate(-45) scale(0.1 -0.1)">
       <use xlink:href="#LiberationSans-31"/>
       <use xlink:href="#LiberationSans-30" transform="translate(55.615234 0)"/>
       <use xlink:href="#LiberationSans-30" transform="translate(111.230469 0)"/>
       <use xlink:href="#LiberationSans-30" transform="translate(166.845703 0)"/>
      </g>
     </g>
    </g>
    <g id="text_63">
     <!-- Requested Throughput (Mb/s) -->
     <g style="fill: #262626" transform="translate(363.502813 703.755522) scale(0.12 -0.12)">
      <defs>
       <path id="LiberationSans-52" d="M 3638 0 
L 2494 1828 
L 1122 1828 
L 1122 0 
L 525 0 
L 525 4403 
L 2597 4403 
Q 3341 4403 3745 4070 
Q 4150 3738 4150 3144 
Q 4150 2653 3864 2318 
Q 3578 1984 3075 1897 
L 4325 0 
L 3638 0 
z
M 3550 3138 
Q 3550 3522 3289 3723 
Q 3028 3925 2538 3925 
L 1122 3925 
L 1122 2300 
L 2563 2300 
Q 3034 2300 3292 2520 
Q 3550 2741 3550 3138 
z
" transform="scale(0.015625)"/>
       <path id="LiberationSans-71" d="M 1513 -63 
Q 869 -63 569 371 
Q 269 806 269 1675 
Q 269 3444 1513 3444 
Q 1897 3444 2147 3308 
Q 2397 3172 2566 2856 
L 2572 2856 
Q 2572 2950 2584 3179 
Q 2597 3409 2609 3425 
L 3150 3425 
Q 3128 3241 3128 2503 
L 3128 -1328 
L 2566 -1328 
L 2566 44 
L 2578 556 
L 2572 556 
Q 2403 222 2156 79 
Q 1909 -63 1513 -63 
z
M 2566 1731 
Q 2566 2391 2350 2709 
Q 2134 3028 1663 3028 
Q 1234 3028 1046 2709 
Q 859 2391 859 1694 
Q 859 984 1048 678 
Q 1238 372 1656 372 
Q 2134 372 2350 712 
Q 2566 1053 2566 1731 
z
" transform="scale(0.015625)"/>
       <path id="LiberationSans-75" d="M 981 3381 
L 981 1238 
Q 981 903 1047 718 
Q 1113 534 1256 453 
Q 1400 372 1678 372 
Q 2084 372 2318 650 
Q 2553 928 2553 1422 
L 2553 3381 
L 3116 3381 
L 3116 722 
Q 3116 131 3134 0 
L 2603 0 
Q 2600 16 2597 84 
Q 2594 153 2589 242 
Q 2584 331 2578 578 
L 2569 578 
Q 2375 228 2120 82 
Q 1866 -63 1488 -63 
Q 931 -63 673 214 
Q 416 491 416 1128 
L 416 3381 
L 981 3381 
z
" transform="scale(0.015625)"/>
       <path id="LiberationSans-54" d="M 2250 3916 
L 2250 0 
L 1656 0 
L 1656 3916 
L 144 3916 
L 144 4403 
L 3763 4403 
L 3763 3916 
L 2250 3916 
z
" transform="scale(0.015625)"/>
       <path id="LiberationSans-67" d="M 1713 -1328 
Q 1159 -1328 831 -1111 
Q 503 -894 409 -494 
L 975 -413 
Q 1031 -647 1223 -773 
Q 1416 -900 1728 -900 
Q 2569 -900 2569 84 
L 2569 628 
L 2563 628 
Q 2403 303 2125 139 
Q 1847 -25 1475 -25 
Q 853 -25 561 387 
Q 269 800 269 1684 
Q 269 2581 583 3007 
Q 897 3434 1538 3434 
Q 1897 3434 2161 3270 
Q 2425 3106 2569 2803 
L 2575 2803 
Q 2575 2897 2587 3128 
Q 2600 3359 2613 3381 
L 3147 3381 
Q 3128 3213 3128 2681 
L 3128 97 
Q 3128 -1328 1713 -1328 
z
M 2569 1691 
Q 2569 2103 2456 2401 
Q 2344 2700 2139 2858 
Q 1934 3016 1675 3016 
Q 1244 3016 1047 2703 
Q 850 2391 850 1691 
Q 850 997 1034 694 
Q 1219 391 1666 391 
Q 1931 391 2137 547 
Q 2344 703 2456 995 
Q 2569 1288 2569 1691 
z
" transform="scale(0.015625)"/>
       <path id="LiberationSans-62" d="M 3291 1706 
Q 3291 -63 2047 -63 
Q 1663 -63 1408 76 
Q 1153 216 994 525 
L 988 525 
Q 988 428 975 229 
Q 963 31 956 0 
L 413 0 
Q 431 169 431 697 
L 431 4638 
L 994 4638 
L 994 3316 
Q 994 3113 981 2838 
L 994 2838 
Q 1150 3163 1408 3303 
Q 1666 3444 2047 3444 
Q 2688 3444 2989 3012 
Q 3291 2581 3291 1706 
z
M 2700 1688 
Q 2700 2397 2512 2703 
Q 2325 3009 1903 3009 
Q 1428 3009 1211 2684 
Q 994 2359 994 1653 
Q 994 988 1206 670 
Q 1419 353 1897 353 
Q 2322 353 2511 667 
Q 2700 981 2700 1688 
z
" transform="scale(0.015625)"/>
       <path id="LiberationSans-2f" d="M 0 -63 
L 1284 4638 
L 1778 4638 
L 506 -63 
L 0 -63 
z
" transform="scale(0.015625)"/>
      </defs>
      <use xlink:href="#LiberationSans-52"/>
      <use xlink:href="#LiberationSans-65" transform="translate(72.216797 0)"/>
      <use xlink:href="#LiberationSans-71" transform="translate(127.832031 0)"/>
      <use xlink:href="#LiberationSans-75" transform="translate(183.447266 0)"/>
      <use xlink:href="#LiberationSans-65" transform="translate(239.0625 0)"/>
      <use xlink:href="#LiberationSans-73" transform="translate(294.677734 0)"/>
      <use xlink:href="#LiberationSans-74" transform="translate(344.677734 0)"/>
      <use xlink:href="#LiberationSans-65" transform="translate(372.460938 0)"/>
      <use xlink:href="#LiberationSans-64" transform="translate(428.076172 0)"/>
      <use xlink:href="#LiberationSans-20" transform="translate(483.691406 0)"/>
      <use xlink:href="#LiberationSans-54" transform="translate(509.724609 0)"/>
      <use xlink:href="#LiberationSans-68" transform="translate(570.808594 0)"/>
      <use xlink:href="#LiberationSans-72" transform="translate(626.423828 0)"/>
      <use xlink:href="#LiberationSans-6f" transform="translate(659.724609 0)"/>
      <use xlink:href="#LiberationSans-75" transform="translate(715.339844 0)"/>
      <use xlink:href="#LiberationSans-67" transform="translate(770.955078 0)"/>
      <use xlink:href="#LiberationSans-68" transform="translate(826.570312 0)"/>
      <use xlink:href="#LiberationSans-70" transform="translate(882.185547 0)"/>
      <use xlink:href="#LiberationSans-75" transform="translate(937.800781 0)"/>
      <use xlink:href="#LiberationSans-74" transform="translate(993.416016 0)"/>
      <use xlink:href="#LiberationSans-20" transform="translate(1021.199219 0)"/>
      <use xlink:href="#LiberationSans-28" transform="translate(1048.982422 0)"/>
      <use xlink:href="#LiberationSans-4d" transform="translate(1082.283203 0)"/>
      <use xlink:href="#LiberationSans-62" transform="translate(1165.583984 0)"/>
      <use xlink:href="#LiberationSans-2f" transform="translate(1221.199219 0)"/>
      <use xlink:href="#LiberationSans-73" transform="translate(1248.982422 0)"/>
      <use xlink:href="#LiberationSans-29" transform="translate(1298.982422 0)"/>
     </g>
    </g>
   </g>
   <g id="matplotlib.axis_4">
    <g id="ytick_7">
     <g id="line2d_65">
      <path d="M 37.008125 645.109452 
L 849.858125 645.109452 
" clip-path="url(#pdc911cd1c1)" style="fill: none; stroke: #ffffff; stroke-opacity: 0.3; stroke-width: 0.8; stroke-linecap: round"/>
     </g>
     <g id="line2d_66"/>
     <g id="text_64">
      <!-- 0 -->
      <g style="fill: #262626" transform="translate(27.947188 648.73289) scale(0.1 -0.1)">
       <use xlink:href="#LiberationSans-30"/>
      </g>
     </g>
    </g>
    <g id="ytick_8">
     <g id="line2d_67">
      <path d="M 37.008125 594.168214 
L 849.858125 594.168214 
" clip-path="url(#pdc911cd1c1)" style="fill: none; stroke: #ffffff; stroke-opacity: 0.3; stroke-width: 0.8; stroke-linecap: round"/>
     </g>
     <g id="line2d_68"/>
     <g id="text_65">
      <!-- 10 -->
      <g style="fill: #262626" transform="translate(22.38625 597.791651) scale(0.1 -0.1)">
       <use xlink:href="#LiberationSans-31"/>
       <use xlink:href="#LiberationSans-30" transform="translate(55.615234 0)"/>
      </g>
     </g>
    </g>
    <g id="ytick_9">
     <g id="line2d_69">
      <path d="M 37.008125 543.226976 
L 849.858125 543.226976 
" clip-path="url(#pdc911cd1c1)" style="fill: none; stroke: #ffffff; stroke-opacity: 0.3; stroke-width: 0.8; stroke-linecap: round"/>
     </g>
     <g id="line2d_70"/>
     <g id="text_66">
      <!-- 20 -->
      <g style="fill: #262626" transform="translate(22.38625 546.850413) scale(0.1 -0.1)">
       <use xlink:href="#LiberationSans-32"/>
       <use xlink:href="#LiberationSans-30" transform="translate(55.615234 0)"/>
      </g>
     </g>
    </g>
    <g id="ytick_10">
     <g id="line2d_71">
      <path d="M 37.008125 492.285738 
L 849.858125 492.285738 
" clip-path="url(#pdc911cd1c1)" style="fill: none; stroke: #ffffff; stroke-opacity: 0.3; stroke-width: 0.8; stroke-linecap: round"/>
     </g>
     <g id="line2d_72"/>
     <g id="text_67">
      <!-- 30 -->
      <g style="fill: #262626" transform="translate(22.38625 495.909175) scale(0.1 -0.1)">
       <use xlink:href="#LiberationSans-33"/>
       <use xlink:href="#LiberationSans-30" transform="translate(55.615234 0)"/>
      </g>
     </g>
    </g>
    <g id="ytick_11">
     <g id="line2d_73">
      <path d="M 37.008125 441.3445 
L 849.858125 441.3445 
" clip-path="url(#pdc911cd1c1)" style="fill: none; stroke: #ffffff; stroke-opacity: 0.3; stroke-width: 0.8; stroke-linecap: round"/>
     </g>
     <g id="line2d_74"/>
     <g id="text_68">
      <!-- 40 -->
      <g style="fill: #262626" transform="translate(22.38625 444.967937) scale(0.1 -0.1)">
       <use xlink:href="#LiberationSans-34"/>
       <use xlink:href="#LiberationSans-30" transform="translate(55.615234 0)"/>
      </g>
     </g>
    </g>
    <g id="ytick_12">
     <g id="line2d_75">
      <path d="M 37.008125 390.403261 
L 849.858125 390.403261 
" clip-path="url(#pdc911cd1c1)" style="fill: none; stroke: #ffffff; stroke-opacity: 0.3; stroke-width: 0.8; stroke-linecap: round"/>
     </g>
     <g id="line2d_76"/>
     <g id="text_69">
      <!-- 50 -->
      <g style="fill: #262626" transform="translate(22.38625 394.026699) scale(0.1 -0.1)">
       <use xlink:href="#LiberationSans-35"/>
       <use xlink:href="#LiberationSans-30" transform="translate(55.615234 0)"/>
      </g>
     </g>
    </g>
    <g id="text_70">
     <!-- Relative Difference (%) -->
     <g style="fill: #262626" transform="translate(15.89625 579.292002) rotate(-90) scale(0.12 -0.12)">
      <defs>
       <path id="LiberationSans-76" d="M 1916 0 
L 1250 0 
L 22 3381 
L 622 3381 
L 1366 1181 
Q 1406 1056 1581 441 
L 1691 806 
L 1813 1175 
L 2581 3381 
L 3178 3381 
L 1916 0 
z
" transform="scale(0.015625)"/>
       <path id="LiberationSans-44" d="M 4316 2247 
Q 4316 1566 4050 1055 
Q 3784 544 3296 272 
Q 2809 0 2172 0 
L 525 0 
L 525 4403 
L 1981 4403 
Q 3100 4403 3708 3842 
Q 4316 3281 4316 2247 
z
M 3716 2247 
Q 3716 3066 3267 3495 
Q 2819 3925 1969 3925 
L 1122 3925 
L 1122 478 
L 2103 478 
Q 2588 478 2955 690 
Q 3322 903 3519 1303 
Q 3716 1703 3716 2247 
z
" transform="scale(0.015625)"/>
       <path id="LiberationSans-66" d="M 1128 2972 
L 1128 0 
L 566 0 
L 566 2972 
L 91 2972 
L 91 3381 
L 566 3381 
L 566 3763 
Q 566 4225 769 4428 
Q 972 4631 1391 4631 
Q 1625 4631 1788 4594 
L 1788 4166 
Q 1647 4191 1538 4191 
Q 1322 4191 1225 4081 
Q 1128 3972 1128 3684 
L 1128 3381 
L 1788 3381 
L 1788 2972 
L 1128 2972 
z
" transform="scale(0.015625)"/>
       <path id="LiberationSans-25" d="M 5463 1356 
Q 5463 684 5209 323 
Q 4956 -38 4463 -38 
Q 3975 -38 3726 314 
Q 3478 666 3478 1356 
Q 3478 2069 3717 2417 
Q 3956 2766 4475 2766 
Q 4988 2766 5225 2408 
Q 5463 2050 5463 1356 
z
M 1647 0 
L 1163 0 
L 4044 4403 
L 4534 4403 
L 1647 0 
z
M 1231 4441 
Q 1728 4441 1968 4091 
Q 2209 3741 2209 3047 
Q 2209 2369 1961 2003 
Q 1713 1638 1219 1638 
Q 725 1638 476 2000 
Q 228 2363 228 3047 
Q 228 3744 468 4092 
Q 709 4441 1231 4441 
z
M 5000 1356 
Q 5000 1916 4879 2167 
Q 4759 2419 4475 2419 
Q 4191 2419 4064 2172 
Q 3938 1925 3938 1356 
Q 3938 822 4061 564 
Q 4184 306 4469 306 
Q 4744 306 4872 567 
Q 5000 828 5000 1356 
z
M 1750 3047 
Q 1750 3597 1631 3850 
Q 1513 4103 1231 4103 
Q 938 4103 813 3854 
Q 688 3606 688 3047 
Q 688 2506 813 2248 
Q 938 1991 1225 1991 
Q 1497 1991 1623 2253 
Q 1750 2516 1750 3047 
z
" transform="scale(0.015625)"/>
      </defs>
      <use xlink:href="#LiberationSans-52"/>
      <use xlink:href="#LiberationSans-65" transform="translate(72.216797 0)"/>
      <use xlink:href="#LiberationSans-6c" transform="translate(127.832031 0)"/>
      <use xlink:href="#LiberationSans-61" transform="translate(150.048828 0)"/>
      <use xlink:href="#LiberationSans-74" transform="translate(205.664062 0)"/>
      <use xlink:href="#LiberationSans-69" transform="translate(233.447266 0)"/>
      <use xlink:href="#LiberationSans-76" transform="translate(255.664062 0)"/>
      <use xlink:href="#LiberationSans-65" transform="translate(305.664062 0)"/>
      <use xlink:href="#LiberationSans-20" transform="translate(361.279297 0)"/>
      <use xlink:href="#LiberationSans-44" transform="translate(389.0625 0)"/>
      <use xlink:href="#LiberationSans-69" transform="translate(461.279297 0)"/>
      <use xlink:href="#LiberationSans-66" transform="translate(483.496094 0)"/>
      <use xlink:href="#LiberationSans-66" transform="translate(509.529297 0)"/>
      <use xlink:href="#LiberationSans-65" transform="translate(537.3125 0)"/>
      <use xlink:href="#LiberationSans-72" transform="translate(592.927734 0)"/>
      <use xlink:href="#LiberationSans-65" transform="translate(626.228516 0)"/>
      <use xlink:href="#LiberationSans-6e" transform="translate(681.84375 0)"/>
      <use xlink:href="#LiberationSans-63" transform="translate(737.458984 0)"/>
      <use xlink:href="#LiberationSans-65" transform="translate(787.458984 0)"/>
      <use xlink:href="#LiberationSans-20" transform="translate(843.074219 0)"/>
      <use xlink:href="#LiberationSans-28" transform="translate(870.857422 0)"/>
      <use xlink:href="#LiberationSans-25" transform="translate(904.158203 0)"/>
      <use xlink:href="#LiberationSans-29" transform="translate(993.074219 0)"/>
     </g>
    </g>
   </g>
   <g id="patch_36">
    <path d="M 73.955852 645.109452 
L 120.140511 645.109452 
L 120.140511 440.075199 
L 73.955852 440.075199 
z
" clip-path="url(#pdc911cd1c1)" style="fill: #27ae60; opacity: 0.8"/>
   </g>
   <g id="patch_37">
    <path d="M 131.686676 645.109452 
L 177.871335 645.109452 
L 177.871335 408.665917 
L 131.686676 408.665917 
z
" clip-path="url(#pdc911cd1c1)" style="fill: #27ae60; opacity: 0.8"/>
   </g>
   <g id="patch_38">
    <path d="M 189.4175 645.109452 
L 235.602159 645.109452 
L 235.602159 383.597142 
L 189.4175 383.597142 
z
" clip-path="url(#pdc911cd1c1)" style="fill: #27ae60; opacity: 0.8"/>
   </g>
   <g id="patch_39">
    <path d="M 247.148324 645.109452 
L 293.332983 645.109452 
L 293.332983 430.133193 
L 247.148324 430.133193 
z
" clip-path="url(#pdc911cd1c1)" style="fill: #27ae60; opacity: 0.8"/>
   </g>
   <g id="patch_40">
    <path d="M 304.879148 645.109452 
L 351.063807 645.109452 
L 351.063807 431.857587 
L 304.879148 431.857587 
z
" clip-path="url(#pdc911cd1c1)" style="fill: #27ae60; opacity: 0.8"/>
   </g>
   <g id="patch_41">
    <path d="M 362.609972 645.109452 
L 408.794631 645.109452 
L 408.794631 507.478877 
L 362.609972 507.478877 
z
" clip-path="url(#pdc911cd1c1)" style="fill: #27ae60; opacity: 0.8"/>
   </g>
   <g id="patch_42">
    <path d="M 420.340795 645.109452 
L 466.525455 645.109452 
L 466.525455 530.368558 
L 420.340795 530.368558 
z
" clip-path="url(#pdc911cd1c1)" style="fill: #27ae60; opacity: 0.8"/>
   </g>
   <g id="patch_43">
    <path d="M 478.071619 645.109452 
L 524.256278 645.109452 
L 524.256278 566.487737 
L 478.071619 566.487737 
z
" clip-path="url(#pdc911cd1c1)" style="fill: #27ae60; opacity: 0.8"/>
   </g>
   <g id="patch_44">
    <path d="M 535.802443 645.109452 
L 581.987102 645.109452 
L 581.987102 590.491158 
L 535.802443 590.491158 
z
" clip-path="url(#pdc911cd1c1)" style="fill: #27ae60; opacity: 0.8"/>
   </g>
   <g id="patch_45">
    <path d="M 593.533267 645.109452 
L 639.717926 645.109452 
L 639.717926 599.018432 
L 593.533267 599.018432 
z
" clip-path="url(#pdc911cd1c1)" style="fill: #27ae60; opacity: 0.8"/>
   </g>
   <g id="patch_46">
    <path d="M 651.264091 645.109452 
L 697.44875 645.109452 
L 697.44875 615.49324 
L 651.264091 615.49324 
z
" clip-path="url(#pdc911cd1c1)" style="fill: #27ae60; opacity: 0.8"/>
   </g>
   <g id="patch_47">
    <path d="M 708.994915 645.109452 
L 755.179574 645.109452 
L 755.179574 639.171926 
L 708.994915 639.171926 
z
" clip-path="url(#pdc911cd1c1)" style="fill: #27ae60; opacity: 0.8"/>
   </g>
   <g id="patch_48">
    <path d="M 766.725739 645.109452 
L 812.910398 645.109452 
L 812.910398 651.827488 
L 766.725739 651.827488 
z
" clip-path="url(#pdc911cd1c1)" style="fill: #e67e22; opacity: 0.8"/>
   </g>
   <g id="line2d_77">
    <path d="M 37.008125 645.109452 
L 849.858125 645.109452 
" clip-path="url(#pdc911cd1c1)" style="fill: none; stroke: #000000; stroke-width: 0.5; stroke-linecap: round"/>
   </g>
   <g id="patch_49">
    <path d="M 37.008125 665.239005 
L 37.008125 370.185625 
" style="fill: none"/>
   </g>
   <g id="patch_50">
    <path d="M 849.858125 665.239005 
L 849.858125 370.185625 
" style="fill: none"/>
   </g>
   <g id="patch_51">
    <path d="M 37.008125 665.239005 
L 849.858125 665.239005 
" style="fill: none"/>
   </g>
   <g id="patch_52">
    <path d="M 37.008125 370.185625 
L 849.858125 370.185625 
" style="fill: none"/>
   </g>
   <g id="text_71">
    <!-- 40.2% -->
    <g style="fill: #262626" transform="translate(85.706932 438.415199) scale(0.08 -0.08)">
     <use xlink:href="#LiberationSans-34"/>
     <use xlink:href="#LiberationSans-30" transform="translate(55.615234 0)"/>
     <use xlink:href="#LiberationSans-2e" transform="translate(111.230469 0)"/>
     <use xlink:href="#LiberationSans-32" transform="translate(139.013672 0)"/>
     <use xlink:href="#LiberationSans-25" transform="translate(194.628906 0)"/>
    </g>
   </g>
   <g id="text_72">
    <!-- 46.4% -->
    <g style="fill: #262626" transform="translate(143.437756 407.005917) scale(0.08 -0.08)">
     <use xlink:href="#LiberationSans-34"/>
     <use xlink:href="#LiberationSans-36" transform="translate(55.615234 0)"/>
     <use xlink:href="#LiberationSans-2e" transform="translate(111.230469 0)"/>
     <use xlink:href="#LiberationSans-34" transform="translate(139.013672 0)"/>
     <use xlink:href="#LiberationSans-25" transform="translate(194.628906 0)"/>
    </g>
   </g>
   <g id="text_73">
    <!-- 51.3% -->
    <g style="fill: #262626" transform="translate(201.16858 381.937142) scale(0.08 -0.08)">
     <use xlink:href="#LiberationSans-35"/>
     <use xlink:href="#LiberationSans-31" transform="translate(55.615234 0)"/>
     <use xlink:href="#LiberationSans-2e" transform="translate(111.230469 0)"/>
     <use xlink:href="#LiberationSans-33" transform="translate(139.013672 0)"/>
     <use xlink:href="#LiberationSans-25" transform="translate(194.628906 0)"/>
    </g>
   </g>
   <g id="text_74">
    <!-- 42.2% -->
    <g style="fill: #262626" transform="translate(258.899403 428.473193) scale(0.08 -0.08)">
     <use xlink:href="#LiberationSans-34"/>
     <use xlink:href="#LiberationSans-32" transform="translate(55.615234 0)"/>
     <use xlink:href="#LiberationSans-2e" transform="translate(111.230469 0)"/>
     <use xlink:href="#LiberationSans-32" transform="translate(139.013672 0)"/>
     <use xlink:href="#LiberationSans-25" transform="translate(194.628906 0)"/>
    </g>
   </g>
   <g id="text_75">
    <!-- 41.9% -->
    <g style="fill: #262626" transform="translate(316.630227 430.197587) scale(0.08 -0.08)">
     <use xlink:href="#LiberationSans-34"/>
     <use xlink:href="#LiberationSans-31" transform="translate(55.615234 0)"/>
     <use xlink:href="#LiberationSans-2e" transform="translate(111.230469 0)"/>
     <use xlink:href="#LiberationSans-39" transform="translate(139.013672 0)"/>
     <use xlink:href="#LiberationSans-25" transform="translate(194.628906 0)"/>
    </g>
   </g>
   <g id="text_76">
    <!-- 27.0% -->
    <g style="fill: #262626" transform="translate(374.361051 505.818877) scale(0.08 -0.08)">
     <use xlink:href="#LiberationSans-32"/>
     <use xlink:href="#LiberationSans-37" transform="translate(55.615234 0)"/>
     <use xlink:href="#LiberationSans-2e" transform="translate(111.230469 0)"/>
     <use xlink:href="#LiberationSans-30" transform="translate(139.013672 0)"/>
     <use xlink:href="#LiberationSans-25" transform="translate(194.628906 0)"/>
    </g>
   </g>
   <g id="text_77">
    <!-- 22.5% -->
    <g style="fill: #262626" transform="translate(432.091875 528.708558) scale(0.08 -0.08)">
     <use xlink:href="#LiberationSans-32"/>
     <use xlink:href="#LiberationSans-32" transform="translate(55.615234 0)"/>
     <use xlink:href="#LiberationSans-2e" transform="translate(111.230469 0)"/>
     <use xlink:href="#LiberationSans-35" transform="translate(139.013672 0)"/>
     <use xlink:href="#LiberationSans-25" transform="translate(194.628906 0)"/>
    </g>
   </g>
   <g id="text_78">
    <!-- 15.4% -->
    <g style="fill: #262626" transform="translate(489.822699 564.827737) scale(0.08 -0.08)">
     <use xlink:href="#LiberationSans-31"/>
     <use xlink:href="#LiberationSans-35" transform="translate(55.615234 0)"/>
     <use xlink:href="#LiberationSans-2e" transform="translate(111.230469 0)"/>
     <use xlink:href="#LiberationSans-34" transform="translate(139.013672 0)"/>
     <use xlink:href="#LiberationSans-25" transform="translate(194.628906 0)"/>
    </g>
   </g>
   <g id="text_79">
    <!-- 10.7% -->
    <g style="fill: #262626" transform="translate(547.553523 588.831158) scale(0.08 -0.08)">
     <use xlink:href="#LiberationSans-31"/>
     <use xlink:href="#LiberationSans-30" transform="translate(55.615234 0)"/>
     <use xlink:href="#LiberationSans-2e" transform="translate(111.230469 0)"/>
     <use xlink:href="#LiberationSans-37" transform="translate(139.013672 0)"/>
     <use xlink:href="#LiberationSans-25" transform="translate(194.628906 0)"/>
    </g>
   </g>
   <g id="text_80">
    <!-- 9.0% -->
    <g style="fill: #262626" transform="translate(607.508722 597.358432) scale(0.08 -0.08)">
     <use xlink:href="#LiberationSans-39"/>
     <use xlink:href="#LiberationSans-2e" transform="translate(55.615234 0)"/>
     <use xlink:href="#LiberationSans-30" transform="translate(83.398438 0)"/>
     <use xlink:href="#LiberationSans-25" transform="translate(139.013672 0)"/>
    </g>
   </g>
   <g id="text_81">
    <!-- 5.8% -->
    <g style="fill: #262626" transform="translate(665.239545 613.83324) scale(0.08 -0.08)">
     <use xlink:href="#LiberationSans-35"/>
     <use xlink:href="#LiberationSans-2e" transform="translate(55.615234 0)"/>
     <use xlink:href="#LiberationSans-38" transform="translate(83.398438 0)"/>
     <use xlink:href="#LiberationSans-25" transform="translate(139.013672 0)"/>
    </g>
   </g>
   <g id="text_82">
    <!-- 1.2% -->
    <g style="fill: #262626" transform="translate(722.970369 637.511926) scale(0.08 -0.08)">
     <use xlink:href="#LiberationSans-31"/>
     <use xlink:href="#LiberationSans-2e" transform="translate(55.615234 0)"/>
     <use xlink:href="#LiberationSans-32" transform="translate(83.398438 0)"/>
     <use xlink:href="#LiberationSans-25" transform="translate(139.013672 0)"/>
    </g>
   </g>
   <g id="text_83">
    <!-- -1.3% -->
    <g style="fill: #262626" transform="translate(779.369318 657.624988) scale(0.08 -0.08)">
     <defs>
      <path id="LiberationSans-2d" d="M 284 1450 
L 284 1950 
L 1847 1950 
L 1847 1450 
L 284 1450 
z
" transform="scale(0.015625)"/>
     </defs>
     <use xlink:href="#LiberationSans-2d"/>
     <use xlink:href="#LiberationSans-31" transform="translate(33.300781 0)"/>
     <use xlink:href="#LiberationSans-2e" transform="translate(88.916016 0)"/>
     <use xlink:href="#LiberationSans-33" transform="translate(116.699219 0)"/>
     <use xlink:href="#LiberationSans-25" transform="translate(172.314453 0)"/>
    </g>
   </g>
   <g id="text_84">
    <!-- Relative Difference (PNK vs C SIM) -->
    <g style="fill: #262626" transform="translate(348.850625 364.185625) scale(0.12 -0.12)">
     <use xlink:href="#LiberationSans-52"/>
     <use xlink:href="#LiberationSans-65" transform="translate(72.216797 0)"/>
     <use xlink:href="#LiberationSans-6c" transform="translate(127.832031 0)"/>
     <use xlink:href="#LiberationSans-61" transform="translate(150.048828 0)"/>
     <use xlink:href="#LiberationSans-74" transform="translate(205.664062 0)"/>
     <use xlink:href="#LiberationSans-69" transform="translate(233.447266 0)"/>
     <use xlink:href="#LiberationSans-76" transform="translate(255.664062 0)"/>
     <use xlink:href="#LiberationSans-65" transform="translate(305.664062 0)"/>
     <use xlink:href="#LiberationSans-20" transform="translate(361.279297 0)"/>
     <use xlink:href="#LiberationSans-44" transform="translate(389.0625 0)"/>
     <use xlink:href="#LiberationSans-69" transform="translate(461.279297 0)"/>
     <use xlink:href="#LiberationSans-66" transform="translate(483.496094 0)"/>
     <use xlink:href="#LiberationSans-66" transform="translate(509.529297 0)"/>
     <use xlink:href="#LiberationSans-65" transform="translate(537.3125 0)"/>
     <use xlink:href="#LiberationSans-72" transform="translate(592.927734 0)"/>
     <use xlink:href="#LiberationSans-65" transform="translate(626.228516 0)"/>
     <use xlink:href="#LiberationSans-6e" transform="translate(681.84375 0)"/>
     <use xlink:href="#LiberationSans-63" transform="translate(737.458984 0)"/>
     <use xlink:href="#LiberationSans-65" transform="translate(787.458984 0)"/>
     <use xlink:href="#LiberationSans-20" transform="translate(843.074219 0)"/>
     <use xlink:href="#LiberationSans-28" transform="translate(870.857422 0)"/>
     <use xlink:href="#LiberationSans-50" transform="translate(904.158203 0)"/>
     <use xlink:href="#LiberationSans-4e" transform="translate(970.857422 0)"/>
     <use xlink:href="#LiberationSans-4b" transform="translate(1043.074219 0)"/>
     <use xlink:href="#LiberationSans-20" transform="translate(1109.773438 0)"/>
     <use xlink:href="#LiberationSans-76" transform="translate(1137.556641 0)"/>
     <use xlink:href="#LiberationSans-73" transform="translate(1187.556641 0)"/>
     <use xlink:href="#LiberationSans-20" transform="translate(1237.556641 0)"/>
     <use xlink:href="#LiberationSans-43" transform="translate(1265.339844 0)"/>
     <use xlink:href="#LiberationSans-20" transform="translate(1337.556641 0)"/>
     <use xlink:href="#LiberationSans-53" transform="translate(1365.339844 0)"/>
     <use xlink:href="#LiberationSans-49" transform="translate(1432.039062 0)"/>
     <use xlink:href="#LiberationSans-4d" transform="translate(1459.822266 0)"/>
     <use xlink:href="#LiberationSans-29" transform="translate(1543.123047 0)"/>
    </g>
   </g>
  </g>
 </g>
 <defs>
  <clipPath id="pbb3f0dbea5">
   <rect x="37.008125" y="23.345625" width="812.85" height="295.05338"/>
  </clipPath>
  <clipPath id="pdc911cd1c1">
   <rect x="37.008125" y="370.185625" width="812.85" height="295.05338"/>
  </clipPath>
 </defs>
</svg>
