<?xml version="1.0" encoding="utf-8" standalone="no"?>
<!DOCTYPE svg PUBLIC "-//W3C//DTD SVG 1.1//EN"
  "http://www.w3.org/Graphics/SVG/1.1/DTD/svg11.dtd">
<svg xmlns:xlink="http://www.w3.org/1999/xlink" width="857.08875pt" height="713.445522pt" viewBox="0 0 857.08875 713.445522" xmlns="http://www.w3.org/2000/svg" version="1.1">
 <metadata>
  <rdf:RDF xmlns:dc="http://purl.org/dc/elements/1.1/" xmlns:cc="http://creativecommons.org/ns#" xmlns:rdf="http://www.w3.org/1999/02/22-rdf-syntax-ns#">
   <cc:Work>
    <dc:type rdf:resource="http://purl.org/dc/dcmitype/StillImage"/>
    <dc:date>2025-08-15T19:41:58.550113</dc:date>
    <dc:format>image/svg+xml</dc:format>
    <dc:creator>
     <cc:Agent>
      <dc:title>Matplotlib v3.10.5, https://matplotlib.org/</dc:title>
     </cc:Agent>
    </dc:creator>
   </cc:Work>
  </rdf:RDF>
 </metadata>
 <defs>
  <style type="text/css">*{stroke-linejoin: round; stroke-linecap: butt}</style>
 </defs>
 <g id="figure_1">
  <g id="patch_1">
   <path d="M 0 713.445522 
L 857.08875 713.445522 
L 857.08875 0 
L 0 0 
z
" style="fill: #ffffff"/>
  </g>
  <g id="axes_1">
   <g id="patch_2">
    <path d="M 56.74875 318.399005 
L 849.88875 318.399005 
L 849.88875 23.345625 
L 56.74875 23.345625 
z
" style="fill: #eaeaf2"/>
   </g>
   <g id="matplotlib.axis_1">
    <g id="xtick_1">
     <g id="line2d_1">
      <path d="M 112.671649 318.399005 
L 112.671649 23.345625 
" clip-path="url(#pc24fff0ed3)" style="fill: none; stroke: #ffffff; stroke-opacity: 0.3; stroke-width: 0.8; stroke-linecap: round"/>
     </g>
     <g id="line2d_2"/>
     <g id="text_1">
      <!-- 10 -->
      <g style="fill: #262626" transform="translate(110.568006 334.887673) rotate(-45) scale(0.1 -0.1)">
       <defs>
        <path id="LiberationSans-31" d="M 488 0 
L 488 478 
L 1609 478 
L 1609 3866 
L 616 3156 
L 616 3688 
L 1656 4403 
L 2175 4403 
L 2175 478 
L 3247 478 
L 3247 0 
L 488 0 
z
" transform="scale(0.015625)"/>
        <path id="LiberationSans-30" d="M 3309 2203 
Q 3309 1100 2920 518 
Q 2531 -63 1772 -63 
Q 1013 -63 631 515 
Q 250 1094 250 2203 
Q 250 3338 620 3903 
Q 991 4469 1791 4469 
Q 2569 4469 2939 3897 
Q 3309 3325 3309 2203 
z
M 2738 2203 
Q 2738 3156 2517 3584 
Q 2297 4013 1791 4013 
Q 1272 4013 1045 3591 
Q 819 3169 819 2203 
Q 819 1266 1048 831 
Q 1278 397 1778 397 
Q 2275 397 2506 840 
Q 2738 1284 2738 2203 
z
" transform="scale(0.015625)"/>
       </defs>
       <use xlink:href="#LiberationSans-31"/>
       <use xlink:href="#LiberationSans-30" transform="translate(55.615234 0)"/>
      </g>
     </g>
    </g>
    <g id="xtick_2">
     <g id="line2d_3">
      <path d="M 169.446166 318.399005 
L 169.446166 23.345625 
" clip-path="url(#pc24fff0ed3)" style="fill: none; stroke: #ffffff; stroke-opacity: 0.3; stroke-width: 0.8; stroke-linecap: round"/>
     </g>
     <g id="line2d_4"/>
     <g id="text_2">
      <!-- 20 -->
      <g style="fill: #262626" transform="translate(167.342523 334.887673) rotate(-45) scale(0.1 -0.1)">
       <defs>
        <path id="LiberationSans-32" d="M 322 0 
L 322 397 
Q 481 763 711 1042 
Q 941 1322 1194 1548 
Q 1447 1775 1695 1969 
Q 1944 2163 2144 2356 
Q 2344 2550 2467 2762 
Q 2591 2975 2591 3244 
Q 2591 3606 2378 3806 
Q 2166 4006 1788 4006 
Q 1428 4006 1195 3811 
Q 963 3616 922 3263 
L 347 3316 
Q 409 3844 795 4156 
Q 1181 4469 1788 4469 
Q 2453 4469 2811 4155 
Q 3169 3841 3169 3263 
Q 3169 3006 3051 2753 
Q 2934 2500 2703 2247 
Q 2472 1994 1819 1463 
Q 1459 1169 1246 933 
Q 1034 697 941 478 
L 3238 478 
L 3238 0 
L 322 0 
z
" transform="scale(0.015625)"/>
       </defs>
       <use xlink:href="#LiberationSans-32"/>
       <use xlink:href="#LiberationSans-30" transform="translate(55.615234 0)"/>
      </g>
     </g>
    </g>
    <g id="xtick_3">
     <g id="line2d_5">
      <path d="M 226.220683 318.399005 
L 226.220683 23.345625 
" clip-path="url(#pc24fff0ed3)" style="fill: none; stroke: #ffffff; stroke-opacity: 0.3; stroke-width: 0.8; stroke-linecap: round"/>
     </g>
     <g id="line2d_6"/>
     <g id="text_3">
      <!-- 50 -->
      <g style="fill: #262626" transform="translate(224.11704 334.887673) rotate(-45) scale(0.1 -0.1)">
       <defs>
        <path id="LiberationSans-35" d="M 3291 1434 
Q 3291 738 2877 337 
Q 2463 -63 1728 -63 
Q 1113 -63 734 206 
Q 356 475 256 984 
L 825 1050 
Q 1003 397 1741 397 
Q 2194 397 2450 670 
Q 2706 944 2706 1422 
Q 2706 1838 2448 2094 
Q 2191 2350 1753 2350 
Q 1525 2350 1328 2278 
Q 1131 2206 934 2034 
L 384 2034 
L 531 4403 
L 3034 4403 
L 3034 3925 
L 1044 3925 
L 959 2528 
Q 1325 2809 1869 2809 
Q 2519 2809 2905 2428 
Q 3291 2047 3291 1434 
z
" transform="scale(0.015625)"/>
       </defs>
       <use xlink:href="#LiberationSans-35"/>
       <use xlink:href="#LiberationSans-30" transform="translate(55.615234 0)"/>
      </g>
     </g>
    </g>
    <g id="xtick_4">
     <g id="line2d_7">
      <path d="M 282.9952 318.399005 
L 282.9952 23.345625 
" clip-path="url(#pc24fff0ed3)" style="fill: none; stroke: #ffffff; stroke-opacity: 0.3; stroke-width: 0.8; stroke-linecap: round"/>
     </g>
     <g id="line2d_8"/>
     <g id="text_4">
      <!-- 100 -->
      <g style="fill: #262626" transform="translate(278.925469 338.819849) rotate(-45) scale(0.1 -0.1)">
       <use xlink:href="#LiberationSans-31"/>
       <use xlink:href="#LiberationSans-30" transform="translate(55.615234 0)"/>
       <use xlink:href="#LiberationSans-30" transform="translate(111.230469 0)"/>
      </g>
     </g>
    </g>
    <g id="xtick_5">
     <g id="line2d_9">
      <path d="M 339.769716 318.399005 
L 339.769716 23.345625 
" clip-path="url(#pc24fff0ed3)" style="fill: none; stroke: #ffffff; stroke-opacity: 0.3; stroke-width: 0.8; stroke-linecap: round"/>
     </g>
     <g id="line2d_10"/>
     <g id="text_5">
      <!-- 200 -->
      <g style="fill: #262626" transform="translate(335.699985 338.819849) rotate(-45) scale(0.1 -0.1)">
       <use xlink:href="#LiberationSans-32"/>
       <use xlink:href="#LiberationSans-30" transform="translate(55.615234 0)"/>
       <use xlink:href="#LiberationSans-30" transform="translate(111.230469 0)"/>
      </g>
     </g>
    </g>
    <g id="xtick_6">
     <g id="line2d_11">
      <path d="M 396.544233 318.399005 
L 396.544233 23.345625 
" clip-path="url(#pc24fff0ed3)" style="fill: none; stroke: #ffffff; stroke-opacity: 0.3; stroke-width: 0.8; stroke-linecap: round"/>
     </g>
     <g id="line2d_12"/>
     <g id="text_6">
      <!-- 300 -->
      <g style="fill: #262626" transform="translate(392.474502 338.819849) rotate(-45) scale(0.1 -0.1)">
       <defs>
        <path id="LiberationSans-33" d="M 3278 1216 
Q 3278 606 2890 271 
Q 2503 -63 1784 -63 
Q 1116 -63 717 239 
Q 319 541 244 1131 
L 825 1184 
Q 938 403 1784 403 
Q 2209 403 2451 612 
Q 2694 822 2694 1234 
Q 2694 1594 2417 1795 
Q 2141 1997 1619 1997 
L 1300 1997 
L 1300 2484 
L 1606 2484 
Q 2069 2484 2323 2686 
Q 2578 2888 2578 3244 
Q 2578 3597 2370 3801 
Q 2163 4006 1753 4006 
Q 1381 4006 1151 3815 
Q 922 3625 884 3278 
L 319 3322 
Q 381 3863 767 4166 
Q 1153 4469 1759 4469 
Q 2422 4469 2789 4161 
Q 3156 3853 3156 3303 
Q 3156 2881 2920 2617 
Q 2684 2353 2234 2259 
L 2234 2247 
Q 2728 2194 3003 1916 
Q 3278 1638 3278 1216 
z
" transform="scale(0.015625)"/>
       </defs>
       <use xlink:href="#LiberationSans-33"/>
       <use xlink:href="#LiberationSans-30" transform="translate(55.615234 0)"/>
       <use xlink:href="#LiberationSans-30" transform="translate(111.230469 0)"/>
      </g>
     </g>
    </g>
    <g id="xtick_7">
     <g id="line2d_13">
      <path d="M 453.31875 318.399005 
L 453.31875 23.345625 
" clip-path="url(#pc24fff0ed3)" style="fill: none; stroke: #ffffff; stroke-opacity: 0.3; stroke-width: 0.8; stroke-linecap: round"/>
     </g>
     <g id="line2d_14"/>
     <g id="text_7">
      <!-- 400 -->
      <g style="fill: #262626" transform="translate(449.249019 338.819849) rotate(-45) scale(0.1 -0.1)">
       <defs>
        <path id="LiberationSans-34" d="M 2753 997 
L 2753 0 
L 2222 0 
L 2222 997 
L 147 997 
L 147 1434 
L 2163 4403 
L 2753 4403 
L 2753 1441 
L 3372 1441 
L 3372 997 
L 2753 997 
z
M 2222 3769 
Q 2216 3750 2134 3603 
Q 2053 3456 2013 3397 
L 884 1734 
L 716 1503 
L 666 1441 
L 2222 1441 
L 2222 3769 
z
" transform="scale(0.015625)"/>
       </defs>
       <use xlink:href="#LiberationSans-34"/>
       <use xlink:href="#LiberationSans-30" transform="translate(55.615234 0)"/>
       <use xlink:href="#LiberationSans-30" transform="translate(111.230469 0)"/>
      </g>
     </g>
    </g>
    <g id="xtick_8">
     <g id="line2d_15">
      <path d="M 510.093267 318.399005 
L 510.093267 23.345625 
" clip-path="url(#pc24fff0ed3)" style="fill: none; stroke: #ffffff; stroke-opacity: 0.3; stroke-width: 0.8; stroke-linecap: round"/>
     </g>
     <g id="line2d_16"/>
     <g id="text_8">
      <!-- 500 -->
      <g style="fill: #262626" transform="translate(506.023536 338.819849) rotate(-45) scale(0.1 -0.1)">
       <use xlink:href="#LiberationSans-35"/>
       <use xlink:href="#LiberationSans-30" transform="translate(55.615234 0)"/>
       <use xlink:href="#LiberationSans-30" transform="translate(111.230469 0)"/>
      </g>
     </g>
    </g>
    <g id="xtick_9">
     <g id="line2d_17">
      <path d="M 566.867784 318.399005 
L 566.867784 23.345625 
" clip-path="url(#pc24fff0ed3)" style="fill: none; stroke: #ffffff; stroke-opacity: 0.3; stroke-width: 0.8; stroke-linecap: round"/>
     </g>
     <g id="line2d_18"/>
     <g id="text_9">
      <!-- 600 -->
      <g style="fill: #262626" transform="translate(562.798053 338.819849) rotate(-45) scale(0.1 -0.1)">
       <defs>
        <path id="LiberationSans-36" d="M 3278 1441 
Q 3278 744 2900 340 
Q 2522 -63 1856 -63 
Q 1113 -63 719 490 
Q 325 1044 325 2100 
Q 325 3244 734 3856 
Q 1144 4469 1900 4469 
Q 2897 4469 3156 3572 
L 2619 3475 
Q 2453 4013 1894 4013 
Q 1413 4013 1148 3564 
Q 884 3116 884 2266 
Q 1038 2550 1316 2698 
Q 1594 2847 1953 2847 
Q 2563 2847 2920 2465 
Q 3278 2084 3278 1441 
z
M 2706 1416 
Q 2706 1894 2472 2153 
Q 2238 2413 1819 2413 
Q 1425 2413 1183 2183 
Q 941 1953 941 1550 
Q 941 1041 1192 716 
Q 1444 391 1838 391 
Q 2244 391 2475 664 
Q 2706 938 2706 1416 
z
" transform="scale(0.015625)"/>
       </defs>
       <use xlink:href="#LiberationSans-36"/>
       <use xlink:href="#LiberationSans-30" transform="translate(55.615234 0)"/>
       <use xlink:href="#LiberationSans-30" transform="translate(111.230469 0)"/>
      </g>
     </g>
    </g>
    <g id="xtick_10">
     <g id="line2d_19">
      <path d="M 623.6423 318.399005 
L 623.6423 23.345625 
" clip-path="url(#pc24fff0ed3)" style="fill: none; stroke: #ffffff; stroke-opacity: 0.3; stroke-width: 0.8; stroke-linecap: round"/>
     </g>
     <g id="line2d_20"/>
     <g id="text_10">
      <!-- 700 -->
      <g style="fill: #262626" transform="translate(619.572569 338.819849) rotate(-45) scale(0.1 -0.1)">
       <defs>
        <path id="LiberationSans-37" d="M 3238 3947 
Q 2563 2916 2284 2331 
Q 2006 1747 1867 1178 
Q 1728 609 1728 0 
L 1141 0 
Q 1141 844 1498 1776 
Q 1856 2709 2694 3925 
L 328 3925 
L 328 4403 
L 3238 4403 
L 3238 3947 
z
" transform="scale(0.015625)"/>
       </defs>
       <use xlink:href="#LiberationSans-37"/>
       <use xlink:href="#LiberationSans-30" transform="translate(55.615234 0)"/>
       <use xlink:href="#LiberationSans-30" transform="translate(111.230469 0)"/>
      </g>
     </g>
    </g>
    <g id="xtick_11">
     <g id="line2d_21">
      <path d="M 680.416817 318.399005 
L 680.416817 23.345625 
" clip-path="url(#pc24fff0ed3)" style="fill: none; stroke: #ffffff; stroke-opacity: 0.3; stroke-width: 0.8; stroke-linecap: round"/>
     </g>
     <g id="line2d_22"/>
     <g id="text_11">
      <!-- 800 -->
      <g style="fill: #262626" transform="translate(676.347086 338.819849) rotate(-45) scale(0.1 -0.1)">
       <defs>
        <path id="LiberationSans-38" d="M 3281 1228 
Q 3281 619 2893 278 
Q 2506 -63 1781 -63 
Q 1075 -63 676 271 
Q 278 606 278 1222 
Q 278 1653 525 1947 
Q 772 2241 1156 2303 
L 1156 2316 
Q 797 2400 589 2681 
Q 381 2963 381 3341 
Q 381 3844 757 4156 
Q 1134 4469 1769 4469 
Q 2419 4469 2795 4162 
Q 3172 3856 3172 3334 
Q 3172 2956 2962 2675 
Q 2753 2394 2391 2322 
L 2391 2309 
Q 2813 2241 3047 1952 
Q 3281 1663 3281 1228 
z
M 2588 3303 
Q 2588 4050 1769 4050 
Q 1372 4050 1164 3862 
Q 956 3675 956 3303 
Q 956 2925 1170 2726 
Q 1384 2528 1775 2528 
Q 2172 2528 2380 2711 
Q 2588 2894 2588 3303 
z
M 2697 1281 
Q 2697 1691 2453 1898 
Q 2209 2106 1769 2106 
Q 1341 2106 1100 1882 
Q 859 1659 859 1269 
Q 859 359 1788 359 
Q 2247 359 2472 579 
Q 2697 800 2697 1281 
z
" transform="scale(0.015625)"/>
       </defs>
       <use xlink:href="#LiberationSans-38"/>
       <use xlink:href="#LiberationSans-30" transform="translate(55.615234 0)"/>
       <use xlink:href="#LiberationSans-30" transform="translate(111.230469 0)"/>
      </g>
     </g>
    </g>
    <g id="xtick_12">
     <g id="line2d_23">
      <path d="M 737.191334 318.399005 
L 737.191334 23.345625 
" clip-path="url(#pc24fff0ed3)" style="fill: none; stroke: #ffffff; stroke-opacity: 0.3; stroke-width: 0.8; stroke-linecap: round"/>
     </g>
     <g id="line2d_24"/>
     <g id="text_12">
      <!-- 900 -->
      <g style="fill: #262626" transform="translate(733.121603 338.819849) rotate(-45) scale(0.1 -0.1)">
       <defs>
        <path id="LiberationSans-39" d="M 3256 2291 
Q 3256 1156 2842 546 
Q 2428 -63 1663 -63 
Q 1147 -63 836 154 
Q 525 372 391 856 
L 928 941 
Q 1097 391 1672 391 
Q 2156 391 2422 841 
Q 2688 1291 2700 2125 
Q 2575 1844 2272 1673 
Q 1969 1503 1606 1503 
Q 1013 1503 656 1909 
Q 300 2316 300 2988 
Q 300 3678 687 4073 
Q 1075 4469 1766 4469 
Q 2500 4469 2878 3925 
Q 3256 3381 3256 2291 
z
M 2644 2834 
Q 2644 3366 2400 3689 
Q 2156 4013 1747 4013 
Q 1341 4013 1106 3736 
Q 872 3459 872 2988 
Q 872 2506 1106 2226 
Q 1341 1947 1741 1947 
Q 1984 1947 2193 2058 
Q 2403 2169 2523 2372 
Q 2644 2575 2644 2834 
z
" transform="scale(0.015625)"/>
       </defs>
       <use xlink:href="#LiberationSans-39"/>
       <use xlink:href="#LiberationSans-30" transform="translate(55.615234 0)"/>
       <use xlink:href="#LiberationSans-30" transform="translate(111.230469 0)"/>
      </g>
     </g>
    </g>
    <g id="xtick_13">
     <g id="line2d_25">
      <path d="M 793.965851 318.399005 
L 793.965851 23.345625 
" clip-path="url(#pc24fff0ed3)" style="fill: none; stroke: #ffffff; stroke-opacity: 0.3; stroke-width: 0.8; stroke-linecap: round"/>
     </g>
     <g id="line2d_26"/>
     <g id="text_13">
      <!-- 1000 -->
      <g style="fill: #262626" transform="translate(787.930032 342.752026) rotate(-45) scale(0.1 -0.1)">
       <use xlink:href="#LiberationSans-31"/>
       <use xlink:href="#LiberationSans-30" transform="translate(55.615234 0)"/>
       <use xlink:href="#LiberationSans-30" transform="translate(111.230469 0)"/>
       <use xlink:href="#LiberationSans-30" transform="translate(166.845703 0)"/>
      </g>
     </g>
    </g>
   </g>
   <g id="matplotlib.axis_2">
    <g id="ytick_1">
     <g id="line2d_27">
      <path d="M 56.74875 318.399005 
L 849.88875 318.399005 
" clip-path="url(#pc24fff0ed3)" style="fill: none; stroke: #ffffff; stroke-opacity: 0.3; stroke-width: 0.8; stroke-linecap: round"/>
     </g>
     <g id="line2d_28"/>
     <g id="text_14">
      <!-- 0 -->
      <g style="fill: #262626" transform="translate(47.687812 322.022442) scale(0.1 -0.1)">
       <use xlink:href="#LiberationSans-30"/>
      </g>
     </g>
    </g>
    <g id="ytick_2">
     <g id="line2d_29">
      <path d="M 56.74875 282.516225 
L 849.88875 282.516225 
" clip-path="url(#pc24fff0ed3)" style="fill: none; stroke: #ffffff; stroke-opacity: 0.3; stroke-width: 0.8; stroke-linecap: round"/>
     </g>
     <g id="line2d_30"/>
     <g id="text_15">
      <!-- 10 -->
      <g style="fill: #262626" transform="translate(42.126875 286.139662) scale(0.1 -0.1)">
       <use xlink:href="#LiberationSans-31"/>
       <use xlink:href="#LiberationSans-30" transform="translate(55.615234 0)"/>
      </g>
     </g>
    </g>
    <g id="ytick_3">
     <g id="line2d_31">
      <path d="M 56.74875 246.633444 
L 849.88875 246.633444 
" clip-path="url(#pc24fff0ed3)" style="fill: none; stroke: #ffffff; stroke-opacity: 0.3; stroke-width: 0.8; stroke-linecap: round"/>
     </g>
     <g id="line2d_32"/>
     <g id="text_16">
      <!-- 20 -->
      <g style="fill: #262626" transform="translate(42.126875 250.256882) scale(0.1 -0.1)">
       <use xlink:href="#LiberationSans-32"/>
       <use xlink:href="#LiberationSans-30" transform="translate(55.615234 0)"/>
      </g>
     </g>
    </g>
    <g id="ytick_4">
     <g id="line2d_33">
      <path d="M 56.74875 210.750664 
L 849.88875 210.750664 
" clip-path="url(#pc24fff0ed3)" style="fill: none; stroke: #ffffff; stroke-opacity: 0.3; stroke-width: 0.8; stroke-linecap: round"/>
     </g>
     <g id="line2d_34"/>
     <g id="text_17">
      <!-- 30 -->
      <g style="fill: #262626" transform="translate(42.126875 214.374102) scale(0.1 -0.1)">
       <use xlink:href="#LiberationSans-33"/>
       <use xlink:href="#LiberationSans-30" transform="translate(55.615234 0)"/>
      </g>
     </g>
    </g>
    <g id="ytick_5">
     <g id="line2d_35">
      <path d="M 56.74875 174.867884 
L 849.88875 174.867884 
" clip-path="url(#pc24fff0ed3)" style="fill: none; stroke: #ffffff; stroke-opacity: 0.3; stroke-width: 0.8; stroke-linecap: round"/>
     </g>
     <g id="line2d_36"/>
     <g id="text_18">
      <!-- 40 -->
      <g style="fill: #262626" transform="translate(42.126875 178.491322) scale(0.1 -0.1)">
       <use xlink:href="#LiberationSans-34"/>
       <use xlink:href="#LiberationSans-30" transform="translate(55.615234 0)"/>
      </g>
     </g>
    </g>
    <g id="ytick_6">
     <g id="line2d_37">
      <path d="M 56.74875 138.985104 
L 849.88875 138.985104 
" clip-path="url(#pc24fff0ed3)" style="fill: none; stroke: #ffffff; stroke-opacity: 0.3; stroke-width: 0.8; stroke-linecap: round"/>
     </g>
     <g id="line2d_38"/>
     <g id="text_19">
      <!-- 50 -->
      <g style="fill: #262626" transform="translate(42.126875 142.608541) scale(0.1 -0.1)">
       <use xlink:href="#LiberationSans-35"/>
       <use xlink:href="#LiberationSans-30" transform="translate(55.615234 0)"/>
      </g>
     </g>
    </g>
    <g id="ytick_7">
     <g id="line2d_39">
      <path d="M 56.74875 103.102324 
L 849.88875 103.102324 
" clip-path="url(#pc24fff0ed3)" style="fill: none; stroke: #ffffff; stroke-opacity: 0.3; stroke-width: 0.8; stroke-linecap: round"/>
     </g>
     <g id="line2d_40"/>
     <g id="text_20">
      <!-- 60 -->
      <g style="fill: #262626" transform="translate(42.126875 106.725761) scale(0.1 -0.1)">
       <use xlink:href="#LiberationSans-36"/>
       <use xlink:href="#LiberationSans-30" transform="translate(55.615234 0)"/>
      </g>
     </g>
    </g>
    <g id="ytick_8">
     <g id="line2d_41">
      <path d="M 56.74875 67.219543 
L 849.88875 67.219543 
" clip-path="url(#pc24fff0ed3)" style="fill: none; stroke: #ffffff; stroke-opacity: 0.3; stroke-width: 0.8; stroke-linecap: round"/>
     </g>
     <g id="line2d_42"/>
     <g id="text_21">
      <!-- 70 -->
      <g style="fill: #262626" transform="translate(42.126875 70.842981) scale(0.1 -0.1)">
       <use xlink:href="#LiberationSans-37"/>
       <use xlink:href="#LiberationSans-30" transform="translate(55.615234 0)"/>
      </g>
     </g>
    </g>
    <g id="ytick_9">
     <g id="line2d_43">
      <path d="M 56.74875 31.336763 
L 849.88875 31.336763 
" clip-path="url(#pc24fff0ed3)" style="fill: none; stroke: #ffffff; stroke-opacity: 0.3; stroke-width: 0.8; stroke-linecap: round"/>
     </g>
     <g id="line2d_44"/>
     <g id="text_22">
      <!-- 80 -->
      <g style="fill: #262626" transform="translate(42.126875 34.960201) scale(0.1 -0.1)">
       <use xlink:href="#LiberationSans-38"/>
       <use xlink:href="#LiberationSans-30" transform="translate(55.615234 0)"/>
      </g>
     </g>
    </g>
    <g id="text_23">
     <!-- Packet Rate (Kpps) -->
     <g style="fill: #262626" transform="translate(35.636875 222.892315) rotate(-90) scale(0.12 -0.12)">
      <defs>
       <path id="LiberationSans-50" d="M 3931 3078 
Q 3931 2453 3523 2084 
Q 3116 1716 2416 1716 
L 1122 1716 
L 1122 0 
L 525 0 
L 525 4403 
L 2378 4403 
Q 3119 4403 3525 4056 
Q 3931 3709 3931 3078 
z
M 3331 3072 
Q 3331 3925 2306 3925 
L 1122 3925 
L 1122 2188 
L 2331 2188 
Q 3331 2188 3331 3072 
z
" transform="scale(0.015625)"/>
       <path id="LiberationSans-61" d="M 1294 -63 
Q 784 -63 528 206 
Q 272 475 272 944 
Q 272 1469 617 1750 
Q 963 2031 1731 2050 
L 2491 2063 
L 2491 2247 
Q 2491 2659 2316 2837 
Q 2141 3016 1766 3016 
Q 1388 3016 1216 2887 
Q 1044 2759 1009 2478 
L 422 2531 
Q 566 3444 1778 3444 
Q 2416 3444 2737 3151 
Q 3059 2859 3059 2306 
L 3059 850 
Q 3059 600 3125 473 
Q 3191 347 3375 347 
Q 3456 347 3559 369 
L 3559 19 
Q 3347 -31 3125 -31 
Q 2813 -31 2670 133 
Q 2528 297 2509 647 
L 2491 647 
Q 2275 259 1989 98 
Q 1703 -63 1294 -63 
z
M 1422 359 
Q 1731 359 1972 500 
Q 2213 641 2352 886 
Q 2491 1131 2491 1391 
L 2491 1669 
L 1875 1656 
Q 1478 1650 1273 1575 
Q 1069 1500 959 1344 
Q 850 1188 850 934 
Q 850 659 998 509 
Q 1147 359 1422 359 
z
" transform="scale(0.015625)"/>
       <path id="LiberationSans-63" d="M 859 1706 
Q 859 1031 1071 706 
Q 1284 381 1713 381 
Q 2013 381 2214 543 
Q 2416 706 2463 1044 
L 3031 1006 
Q 2966 519 2616 228 
Q 2266 -63 1728 -63 
Q 1019 -63 645 385 
Q 272 834 272 1694 
Q 272 2547 647 2995 
Q 1022 3444 1722 3444 
Q 2241 3444 2583 3175 
Q 2925 2906 3013 2434 
L 2434 2391 
Q 2391 2672 2212 2837 
Q 2034 3003 1706 3003 
Q 1259 3003 1059 2706 
Q 859 2409 859 1706 
z
" transform="scale(0.015625)"/>
       <path id="LiberationSans-6b" d="M 2550 0 
L 1406 1544 
L 994 1203 
L 994 0 
L 431 0 
L 431 4638 
L 994 4638 
L 994 1741 
L 2478 3381 
L 3138 3381 
L 1766 1928 
L 3209 0 
L 2550 0 
z
" transform="scale(0.015625)"/>
       <path id="LiberationSans-65" d="M 863 1572 
Q 863 991 1103 675 
Q 1344 359 1806 359 
Q 2172 359 2392 506 
Q 2613 653 2691 878 
L 3184 738 
Q 2881 -63 1806 -63 
Q 1056 -63 664 384 
Q 272 831 272 1713 
Q 272 2550 664 2997 
Q 1056 3444 1784 3444 
Q 3275 3444 3275 1647 
L 3275 1572 
L 863 1572 
z
M 2694 2003 
Q 2647 2538 2422 2783 
Q 2197 3028 1775 3028 
Q 1366 3028 1127 2754 
Q 888 2481 869 2003 
L 2694 2003 
z
" transform="scale(0.015625)"/>
       <path id="LiberationSans-74" d="M 1731 25 
Q 1453 -50 1163 -50 
Q 488 -50 488 716 
L 488 2972 
L 97 2972 
L 97 3381 
L 509 3381 
L 675 4138 
L 1050 4138 
L 1050 3381 
L 1675 3381 
L 1675 2972 
L 1050 2972 
L 1050 838 
Q 1050 594 1129 495 
Q 1209 397 1406 397 
Q 1519 397 1731 441 
L 1731 25 
z
" transform="scale(0.015625)"/>
       <path id="LiberationSans-20" transform="scale(0.015625)"/>
       <path id="LiberationSans-52" d="M 3638 0 
L 2494 1828 
L 1122 1828 
L 1122 0 
L 525 0 
L 525 4403 
L 2597 4403 
Q 3341 4403 3745 4070 
Q 4150 3738 4150 3144 
Q 4150 2653 3864 2318 
Q 3578 1984 3075 1897 
L 4325 0 
L 3638 0 
z
M 3550 3138 
Q 3550 3522 3289 3723 
Q 3028 3925 2538 3925 
L 1122 3925 
L 1122 2300 
L 2563 2300 
Q 3034 2300 3292 2520 
Q 3550 2741 3550 3138 
z
" transform="scale(0.015625)"/>
       <path id="LiberationSans-28" d="M 397 1663 
Q 397 2566 680 3284 
Q 963 4003 1550 4638 
L 2094 4638 
Q 1509 3988 1236 3256 
Q 963 2525 963 1656 
Q 963 791 1233 62 
Q 1503 -666 2094 -1325 
L 1550 -1325 
Q 959 -688 678 32 
Q 397 753 397 1650 
L 397 1663 
z
" transform="scale(0.015625)"/>
       <path id="LiberationSans-4b" d="M 3456 0 
L 1697 2125 
L 1122 1688 
L 1122 0 
L 525 0 
L 525 4403 
L 1122 4403 
L 1122 2197 
L 3244 4403 
L 3947 4403 
L 2072 2491 
L 4197 0 
L 3456 0 
z
" transform="scale(0.015625)"/>
       <path id="LiberationSans-70" d="M 3291 1706 
Q 3291 -63 2047 -63 
Q 1266 -63 997 525 
L 981 525 
Q 994 500 994 -6 
L 994 -1328 
L 431 -1328 
L 431 2691 
Q 431 3213 413 3381 
L 956 3381 
Q 959 3369 965 3292 
Q 972 3216 980 3056 
Q 988 2897 988 2838 
L 1000 2838 
Q 1150 3150 1397 3295 
Q 1644 3441 2047 3441 
Q 2672 3441 2981 3022 
Q 3291 2603 3291 1706 
z
M 2700 1694 
Q 2700 2400 2509 2703 
Q 2319 3006 1903 3006 
Q 1569 3006 1380 2865 
Q 1191 2725 1092 2426 
Q 994 2128 994 1650 
Q 994 984 1206 668 
Q 1419 353 1897 353 
Q 2316 353 2508 661 
Q 2700 969 2700 1694 
z
" transform="scale(0.015625)"/>
       <path id="LiberationSans-73" d="M 2969 934 
Q 2969 456 2608 196 
Q 2247 -63 1597 -63 
Q 966 -63 623 145 
Q 281 353 178 794 
L 675 891 
Q 747 619 972 492 
Q 1197 366 1597 366 
Q 2025 366 2223 497 
Q 2422 628 2422 891 
Q 2422 1091 2284 1216 
Q 2147 1341 1841 1422 
L 1438 1528 
Q 953 1653 748 1773 
Q 544 1894 428 2066 
Q 313 2238 313 2488 
Q 313 2950 642 3192 
Q 972 3434 1603 3434 
Q 2163 3434 2492 3237 
Q 2822 3041 2909 2606 
L 2403 2544 
Q 2356 2769 2151 2889 
Q 1947 3009 1603 3009 
Q 1222 3009 1040 2893 
Q 859 2778 859 2544 
Q 859 2400 934 2306 
Q 1009 2213 1156 2147 
Q 1303 2081 1775 1966 
Q 2222 1853 2419 1758 
Q 2616 1663 2730 1547 
Q 2844 1431 2906 1279 
Q 2969 1128 2969 934 
z
" transform="scale(0.015625)"/>
       <path id="LiberationSans-29" d="M 1734 1650 
Q 1734 747 1451 28 
Q 1169 -691 581 -1325 
L 38 -1325 
Q 625 -669 897 57 
Q 1169 784 1169 1656 
Q 1169 2528 895 3256 
Q 622 3984 38 4638 
L 581 4638 
Q 1172 4000 1453 3279 
Q 1734 2559 1734 1663 
L 1734 1650 
z
" transform="scale(0.015625)"/>
      </defs>
      <use xlink:href="#LiberationSans-50"/>
      <use xlink:href="#LiberationSans-61" transform="translate(66.699219 0)"/>
      <use xlink:href="#LiberationSans-63" transform="translate(122.314453 0)"/>
      <use xlink:href="#LiberationSans-6b" transform="translate(172.314453 0)"/>
      <use xlink:href="#LiberationSans-65" transform="translate(222.314453 0)"/>
      <use xlink:href="#LiberationSans-74" transform="translate(277.929688 0)"/>
      <use xlink:href="#LiberationSans-20" transform="translate(305.712891 0)"/>
      <use xlink:href="#LiberationSans-52" transform="translate(333.496094 0)"/>
      <use xlink:href="#LiberationSans-61" transform="translate(405.712891 0)"/>
      <use xlink:href="#LiberationSans-74" transform="translate(461.328125 0)"/>
      <use xlink:href="#LiberationSans-65" transform="translate(489.111328 0)"/>
      <use xlink:href="#LiberationSans-20" transform="translate(544.726562 0)"/>
      <use xlink:href="#LiberationSans-28" transform="translate(572.509766 0)"/>
      <use xlink:href="#LiberationSans-4b" transform="translate(605.810547 0)"/>
      <use xlink:href="#LiberationSans-70" transform="translate(672.509766 0)"/>
      <use xlink:href="#LiberationSans-70" transform="translate(728.125 0)"/>
      <use xlink:href="#LiberationSans-73" transform="translate(783.740234 0)"/>
      <use xlink:href="#LiberationSans-29" transform="translate(833.740234 0)"/>
     </g>
    </g>
   </g>
   <g id="patch_3">
    <path d="M 92.800568 318.399005 
L 112.671649 318.399005 
L 112.671649 315.463506 
L 92.800568 315.463506 
z
" clip-path="url(#pc24fff0ed3)" style="fill: #5d6d7e; opacity: 0.9"/>
   </g>
   <g id="patch_4">
    <path d="M 149.575085 318.399005 
L 169.446166 318.399005 
L 169.446166 312.528044 
L 149.575085 312.528044 
z
" clip-path="url(#pc24fff0ed3)" style="fill: #5d6d7e; opacity: 0.9"/>
   </g>
   <g id="patch_5">
    <path d="M 206.349602 318.399005 
L 226.220683 318.399005 
L 226.220683 303.72162 
L 206.349602 303.72162 
z
" clip-path="url(#pc24fff0ed3)" style="fill: #5d6d7e; opacity: 0.9"/>
   </g>
   <g id="patch_6">
    <path d="M 263.124119 318.399005 
L 282.9952 318.399005 
L 282.9952 289.044307 
L 263.124119 289.044307 
z
" clip-path="url(#pc24fff0ed3)" style="fill: #5d6d7e; opacity: 0.9"/>
   </g>
   <g id="patch_7">
    <path d="M 319.898635 318.399005 
L 339.769716 318.399005 
L 339.769716 259.689035 
L 319.898635 259.689035 
z
" clip-path="url(#pc24fff0ed3)" style="fill: #5d6d7e; opacity: 0.9"/>
   </g>
   <g id="patch_8">
    <path d="M 376.673152 318.399005 
L 396.544233 318.399005 
L 396.544233 230.332938 
L 376.673152 230.332938 
z
" clip-path="url(#pc24fff0ed3)" style="fill: #5d6d7e; opacity: 0.9"/>
   </g>
   <g id="patch_9">
    <path d="M 433.447669 318.399005 
L 453.31875 318.399005 
L 453.31875 200.982044 
L 433.447669 200.982044 
z
" clip-path="url(#pc24fff0ed3)" style="fill: #5d6d7e; opacity: 0.9"/>
   </g>
   <g id="patch_10">
    <path d="M 490.222186 318.399005 
L 510.093267 318.399005 
L 510.093267 171.625624 
L 490.222186 171.625624 
z
" clip-path="url(#pc24fff0ed3)" style="fill: #5d6d7e; opacity: 0.9"/>
   </g>
   <g id="patch_11">
    <path d="M 546.996703 318.399005 
L 566.867784 318.399005 
L 566.867784 142.275483 
L 546.996703 142.275483 
z
" clip-path="url(#pc24fff0ed3)" style="fill: #5d6d7e; opacity: 0.9"/>
   </g>
   <g id="patch_12">
    <path d="M 603.77122 318.399005 
L 623.6423 318.399005 
L 623.6423 112.917376 
L 603.77122 112.917376 
z
" clip-path="url(#pc24fff0ed3)" style="fill: #5d6d7e; opacity: 0.9"/>
   </g>
   <g id="patch_13">
    <path d="M 660.545736 318.399005 
L 680.416817 318.399005 
L 680.416817 83.562212 
L 660.545736 83.562212 
z
" clip-path="url(#pc24fff0ed3)" style="fill: #5d6d7e; opacity: 0.9"/>
   </g>
   <g id="patch_14">
    <path d="M 717.320253 318.399005 
L 737.191334 318.399005 
L 737.191334 54.205146 
L 717.320253 54.205146 
z
" clip-path="url(#pc24fff0ed3)" style="fill: #5d6d7e; opacity: 0.9"/>
   </g>
   <g id="patch_15">
    <path d="M 774.09477 318.399005 
L 793.965851 318.399005 
L 793.965851 37.395786 
L 774.09477 37.395786 
z
" clip-path="url(#pc24fff0ed3)" style="fill: #5d6d7e; opacity: 0.9"/>
   </g>
   <g id="patch_16">
    <path d="M 112.671649 318.399005 
L 132.54273 318.399005 
L 132.54273 315.463506 
L 112.671649 315.463506 
z
" clip-path="url(#pc24fff0ed3)" style="fill: #85c1e9; opacity: 0.9"/>
   </g>
   <g id="patch_17">
    <path d="M 169.446166 318.399005 
L 189.317247 318.399005 
L 189.317247 312.528044 
L 169.446166 312.528044 
z
" clip-path="url(#pc24fff0ed3)" style="fill: #85c1e9; opacity: 0.9"/>
   </g>
   <g id="patch_18">
    <path d="M 226.220683 318.399005 
L 246.091764 318.399005 
L 246.091764 303.72162 
L 226.220683 303.72162 
z
" clip-path="url(#pc24fff0ed3)" style="fill: #85c1e9; opacity: 0.9"/>
   </g>
   <g id="patch_19">
    <path d="M 282.9952 318.399005 
L 302.86628 318.399005 
L 302.86628 289.044451 
L 282.9952 289.044451 
z
" clip-path="url(#pc24fff0ed3)" style="fill: #85c1e9; opacity: 0.9"/>
   </g>
   <g id="patch_20">
    <path d="M 339.769716 318.399005 
L 359.640797 318.399005 
L 359.640797 259.689681 
L 339.769716 259.689681 
z
" clip-path="url(#pc24fff0ed3)" style="fill: #85c1e9; opacity: 0.9"/>
   </g>
   <g id="patch_21">
    <path d="M 396.544233 318.399005 
L 416.415314 318.399005 
L 416.415314 230.333261 
L 396.544233 230.333261 
z
" clip-path="url(#pc24fff0ed3)" style="fill: #85c1e9; opacity: 0.9"/>
   </g>
   <g id="patch_22">
    <path d="M 453.31875 318.399005 
L 473.189831 318.399005 
L 473.189831 200.980286 
L 453.31875 200.980286 
z
" clip-path="url(#pc24fff0ed3)" style="fill: #85c1e9; opacity: 0.9"/>
   </g>
   <g id="patch_23">
    <path d="M 510.093267 318.399005 
L 529.964348 318.399005 
L 529.964348 171.624296 
L 510.093267 171.624296 
z
" clip-path="url(#pc24fff0ed3)" style="fill: #85c1e9; opacity: 0.9"/>
   </g>
   <g id="patch_24">
    <path d="M 566.867784 318.399005 
L 586.738865 318.399005 
L 586.738865 142.270998 
L 566.867784 142.270998 
z
" clip-path="url(#pc24fff0ed3)" style="fill: #85c1e9; opacity: 0.9"/>
   </g>
   <g id="patch_25">
    <path d="M 623.6423 318.399005 
L 643.513381 318.399005 
L 643.513381 112.920032 
L 623.6423 112.920032 
z
" clip-path="url(#pc24fff0ed3)" style="fill: #85c1e9; opacity: 0.9"/>
   </g>
   <g id="patch_26">
    <path d="M 680.416817 318.399005 
L 700.287898 318.399005 
L 700.287898 83.563253 
L 680.416817 83.563253 
z
" clip-path="url(#pc24fff0ed3)" style="fill: #85c1e9; opacity: 0.9"/>
   </g>
   <g id="patch_27">
    <path d="M 737.191334 318.399005 
L 757.062415 318.399005 
L 757.062415 54.204895 
L 737.191334 54.204895 
z
" clip-path="url(#pc24fff0ed3)" style="fill: #85c1e9; opacity: 0.9"/>
   </g>
   <g id="patch_28">
    <path d="M 793.965851 318.399005 
L 813.836932 318.399005 
L 813.836932 37.469597 
L 793.965851 37.469597 
z
" clip-path="url(#pc24fff0ed3)" style="fill: #85c1e9; opacity: 0.9"/>
   </g>
   <g id="patch_29">
    <path d="M 56.74875 318.399005 
L 56.74875 23.345625 
" style="fill: none"/>
   </g>
   <g id="patch_30">
    <path d="M 849.88875 318.399005 
L 849.88875 23.345625 
" style="fill: none"/>
   </g>
   <g id="patch_31">
    <path d="M 56.74875 318.399005 
L 849.88875 318.399005 
" style="fill: none"/>
   </g>
   <g id="patch_32">
    <path d="M 56.74875 23.345625 
L 849.88875 23.345625 
" style="fill: none"/>
   </g>
   <g id="text_24">
    <!-- 0.82 -->
    <g style="fill: #5d6d7e" transform="translate(94.951734 313.774151) scale(0.08 -0.08)">
     <defs>
      <path id="LiberationSans-2e" d="M 584 0 
L 584 684 
L 1194 684 
L 1194 0 
L 584 0 
z
" transform="scale(0.015625)"/>
     </defs>
     <use xlink:href="#LiberationSans-30"/>
     <use xlink:href="#LiberationSans-2e" transform="translate(55.615234 0)"/>
     <use xlink:href="#LiberationSans-38" transform="translate(83.398438 0)"/>
     <use xlink:href="#LiberationSans-32" transform="translate(139.013672 0)"/>
    </g>
   </g>
   <g id="text_25">
    <!-- 1.64 -->
    <g style="fill: #5d6d7e" transform="translate(151.72625 310.809334) scale(0.08 -0.08)">
     <use xlink:href="#LiberationSans-31"/>
     <use xlink:href="#LiberationSans-2e" transform="translate(55.615234 0)"/>
     <use xlink:href="#LiberationSans-36" transform="translate(83.398438 0)"/>
     <use xlink:href="#LiberationSans-34" transform="translate(139.013672 0)"/>
    </g>
   </g>
   <g id="text_26">
    <!-- 4.09 -->
    <g style="fill: #5d6d7e" transform="translate(208.500767 301.914846) scale(0.08 -0.08)">
     <use xlink:href="#LiberationSans-34"/>
     <use xlink:href="#LiberationSans-2e" transform="translate(55.615234 0)"/>
     <use xlink:href="#LiberationSans-30" transform="translate(83.398438 0)"/>
     <use xlink:href="#LiberationSans-39" transform="translate(139.013672 0)"/>
    </g>
   </g>
   <g id="text_27">
    <!-- 8.18 -->
    <g style="fill: #5d6d7e" transform="translate(265.275284 287.09076) scale(0.08 -0.08)">
     <use xlink:href="#LiberationSans-38"/>
     <use xlink:href="#LiberationSans-2e" transform="translate(55.615234 0)"/>
     <use xlink:href="#LiberationSans-31" transform="translate(83.398438 0)"/>
     <use xlink:href="#LiberationSans-38" transform="translate(139.013672 0)"/>
    </g>
   </g>
   <g id="text_28">
    <!-- 16.4 -->
    <g style="fill: #5d6d7e" transform="translate(322.049801 257.441936) scale(0.08 -0.08)">
     <use xlink:href="#LiberationSans-31"/>
     <use xlink:href="#LiberationSans-36" transform="translate(55.615234 0)"/>
     <use xlink:href="#LiberationSans-2e" transform="translate(111.230469 0)"/>
     <use xlink:href="#LiberationSans-34" transform="translate(139.013672 0)"/>
    </g>
   </g>
   <g id="text_29">
    <!-- 24.5 -->
    <g style="fill: #5d6d7e" transform="translate(378.824318 227.792277) scale(0.08 -0.08)">
     <use xlink:href="#LiberationSans-32"/>
     <use xlink:href="#LiberationSans-34" transform="translate(55.615234 0)"/>
     <use xlink:href="#LiberationSans-2e" transform="translate(111.230469 0)"/>
     <use xlink:href="#LiberationSans-35" transform="translate(139.013672 0)"/>
    </g>
   </g>
   <g id="text_30">
    <!-- 32.7 -->
    <g style="fill: #5d6d7e" transform="translate(435.598835 198.147874) scale(0.08 -0.08)">
     <use xlink:href="#LiberationSans-33"/>
     <use xlink:href="#LiberationSans-32" transform="translate(55.615234 0)"/>
     <use xlink:href="#LiberationSans-2e" transform="translate(111.230469 0)"/>
     <use xlink:href="#LiberationSans-37" transform="translate(139.013672 0)"/>
    </g>
   </g>
   <g id="text_31">
    <!-- 40.9 -->
    <g style="fill: #5d6d7e" transform="translate(492.373351 168.49789) scale(0.08 -0.08)">
     <use xlink:href="#LiberationSans-34"/>
     <use xlink:href="#LiberationSans-30" transform="translate(55.615234 0)"/>
     <use xlink:href="#LiberationSans-2e" transform="translate(111.230469 0)"/>
     <use xlink:href="#LiberationSans-39" transform="translate(139.013672 0)"/>
    </g>
   </g>
   <g id="text_32">
    <!-- 49.1 -->
    <g style="fill: #5d6d7e" transform="translate(549.147868 138.854248) scale(0.08 -0.08)">
     <use xlink:href="#LiberationSans-34"/>
     <use xlink:href="#LiberationSans-39" transform="translate(55.615234 0)"/>
     <use xlink:href="#LiberationSans-2e" transform="translate(111.230469 0)"/>
     <use xlink:href="#LiberationSans-31" transform="translate(139.013672 0)"/>
    </g>
   </g>
   <g id="text_33">
    <!-- 57.3 -->
    <g style="fill: #5d6d7e" transform="translate(605.922385 109.20256) scale(0.08 -0.08)">
     <use xlink:href="#LiberationSans-35"/>
     <use xlink:href="#LiberationSans-37" transform="translate(55.615234 0)"/>
     <use xlink:href="#LiberationSans-2e" transform="translate(111.230469 0)"/>
     <use xlink:href="#LiberationSans-33" transform="translate(139.013672 0)"/>
    </g>
   </g>
   <g id="text_34">
    <!-- 65.4 -->
    <g style="fill: #5d6d7e" transform="translate(662.696902 79.553844) scale(0.08 -0.08)">
     <use xlink:href="#LiberationSans-36"/>
     <use xlink:href="#LiberationSans-35" transform="translate(55.615234 0)"/>
     <use xlink:href="#LiberationSans-2e" transform="translate(111.230469 0)"/>
     <use xlink:href="#LiberationSans-34" transform="translate(139.013672 0)"/>
    </g>
   </g>
   <g id="text_35">
    <!-- 73.6 -->
    <g style="fill: #5d6d7e" transform="translate(719.471419 49.903208) scale(0.08 -0.08)">
     <use xlink:href="#LiberationSans-37"/>
     <use xlink:href="#LiberationSans-33" transform="translate(55.615234 0)"/>
     <use xlink:href="#LiberationSans-2e" transform="translate(111.230469 0)"/>
     <use xlink:href="#LiberationSans-36" transform="translate(139.013672 0)"/>
    </g>
   </g>
   <g id="text_36">
    <!-- 78.3 -->
    <g style="fill: #5d6d7e" transform="translate(776.245935 32.925754) scale(0.08 -0.08)">
     <use xlink:href="#LiberationSans-37"/>
     <use xlink:href="#LiberationSans-38" transform="translate(55.615234 0)"/>
     <use xlink:href="#LiberationSans-2e" transform="translate(111.230469 0)"/>
     <use xlink:href="#LiberationSans-33" transform="translate(139.013672 0)"/>
    </g>
   </g>
   <g id="text_37">
    <!-- 0.82 -->
    <g style="fill: #85c1e9" transform="translate(114.822815 313.774151) scale(0.08 -0.08)">
     <use xlink:href="#LiberationSans-30"/>
     <use xlink:href="#LiberationSans-2e" transform="translate(55.615234 0)"/>
     <use xlink:href="#LiberationSans-38" transform="translate(83.398438 0)"/>
     <use xlink:href="#LiberationSans-32" transform="translate(139.013672 0)"/>
    </g>
   </g>
   <g id="text_38">
    <!-- 1.64 -->
    <g style="fill: #85c1e9" transform="translate(171.597331 310.809334) scale(0.08 -0.08)">
     <use xlink:href="#LiberationSans-31"/>
     <use xlink:href="#LiberationSans-2e" transform="translate(55.615234 0)"/>
     <use xlink:href="#LiberationSans-36" transform="translate(83.398438 0)"/>
     <use xlink:href="#LiberationSans-34" transform="translate(139.013672 0)"/>
    </g>
   </g>
   <g id="text_39">
    <!-- 4.09 -->
    <g style="fill: #85c1e9" transform="translate(228.371848 301.914846) scale(0.08 -0.08)">
     <use xlink:href="#LiberationSans-34"/>
     <use xlink:href="#LiberationSans-2e" transform="translate(55.615234 0)"/>
     <use xlink:href="#LiberationSans-30" transform="translate(83.398438 0)"/>
     <use xlink:href="#LiberationSans-39" transform="translate(139.013672 0)"/>
    </g>
   </g>
   <g id="text_40">
    <!-- 8.18 -->
    <g style="fill: #85c1e9" transform="translate(285.146365 287.090905) scale(0.08 -0.08)">
     <use xlink:href="#LiberationSans-38"/>
     <use xlink:href="#LiberationSans-2e" transform="translate(55.615234 0)"/>
     <use xlink:href="#LiberationSans-31" transform="translate(83.398438 0)"/>
     <use xlink:href="#LiberationSans-38" transform="translate(139.013672 0)"/>
    </g>
   </g>
   <g id="text_41">
    <!-- 16.4 -->
    <g style="fill: #85c1e9" transform="translate(341.920882 257.442588) scale(0.08 -0.08)">
     <use xlink:href="#LiberationSans-31"/>
     <use xlink:href="#LiberationSans-36" transform="translate(55.615234 0)"/>
     <use xlink:href="#LiberationSans-2e" transform="translate(111.230469 0)"/>
     <use xlink:href="#LiberationSans-34" transform="translate(139.013672 0)"/>
    </g>
   </g>
   <g id="text_42">
    <!-- 24.5 -->
    <g style="fill: #85c1e9" transform="translate(398.695399 227.792604) scale(0.08 -0.08)">
     <use xlink:href="#LiberationSans-32"/>
     <use xlink:href="#LiberationSans-34" transform="translate(55.615234 0)"/>
     <use xlink:href="#LiberationSans-2e" transform="translate(111.230469 0)"/>
     <use xlink:href="#LiberationSans-35" transform="translate(139.013672 0)"/>
    </g>
   </g>
   <g id="text_43">
    <!-- 32.7 -->
    <g style="fill: #85c1e9" transform="translate(455.469915 198.146098) scale(0.08 -0.08)">
     <use xlink:href="#LiberationSans-33"/>
     <use xlink:href="#LiberationSans-32" transform="translate(55.615234 0)"/>
     <use xlink:href="#LiberationSans-2e" transform="translate(111.230469 0)"/>
     <use xlink:href="#LiberationSans-37" transform="translate(139.013672 0)"/>
    </g>
   </g>
   <g id="text_44">
    <!-- 40.9 -->
    <g style="fill: #85c1e9" transform="translate(512.244432 168.496549) scale(0.08 -0.08)">
     <use xlink:href="#LiberationSans-34"/>
     <use xlink:href="#LiberationSans-30" transform="translate(55.615234 0)"/>
     <use xlink:href="#LiberationSans-2e" transform="translate(111.230469 0)"/>
     <use xlink:href="#LiberationSans-39" transform="translate(139.013672 0)"/>
    </g>
   </g>
   <g id="text_45">
    <!-- 49.1 -->
    <g style="fill: #85c1e9" transform="translate(569.018949 138.849718) scale(0.08 -0.08)">
     <use xlink:href="#LiberationSans-34"/>
     <use xlink:href="#LiberationSans-39" transform="translate(55.615234 0)"/>
     <use xlink:href="#LiberationSans-2e" transform="translate(111.230469 0)"/>
     <use xlink:href="#LiberationSans-31" transform="translate(139.013672 0)"/>
    </g>
   </g>
   <g id="text_46">
    <!-- 57.3 -->
    <g style="fill: #85c1e9" transform="translate(625.793466 109.205242) scale(0.08 -0.08)">
     <use xlink:href="#LiberationSans-35"/>
     <use xlink:href="#LiberationSans-37" transform="translate(55.615234 0)"/>
     <use xlink:href="#LiberationSans-2e" transform="translate(111.230469 0)"/>
     <use xlink:href="#LiberationSans-33" transform="translate(139.013672 0)"/>
    </g>
   </g>
   <g id="text_47">
    <!-- 65.4 -->
    <g style="fill: #85c1e9" transform="translate(682.567983 79.554895) scale(0.08 -0.08)">
     <use xlink:href="#LiberationSans-36"/>
     <use xlink:href="#LiberationSans-35" transform="translate(55.615234 0)"/>
     <use xlink:href="#LiberationSans-2e" transform="translate(111.230469 0)"/>
     <use xlink:href="#LiberationSans-34" transform="translate(139.013672 0)"/>
    </g>
   </g>
   <g id="text_48">
    <!-- 73.6 -->
    <g style="fill: #85c1e9" transform="translate(739.3425 49.902954) scale(0.08 -0.08)">
     <use xlink:href="#LiberationSans-37"/>
     <use xlink:href="#LiberationSans-33" transform="translate(55.615234 0)"/>
     <use xlink:href="#LiberationSans-2e" transform="translate(111.230469 0)"/>
     <use xlink:href="#LiberationSans-36" transform="translate(139.013672 0)"/>
    </g>
   </g>
   <g id="text_49">
    <!-- 78.3 -->
    <g style="fill: #85c1e9" transform="translate(796.117016 33.000303) scale(0.08 -0.08)">
     <use xlink:href="#LiberationSans-37"/>
     <use xlink:href="#LiberationSans-38" transform="translate(55.615234 0)"/>
     <use xlink:href="#LiberationSans-2e" transform="translate(111.230469 0)"/>
     <use xlink:href="#LiberationSans-33" transform="translate(139.013672 0)"/>
    </g>
   </g>
   <g id="text_50">
    <!-- Packet Rate (packets/s) vs Throughput -->
    <g style="fill: #262626" transform="translate(324.185156 17.345625) scale(0.14 -0.14)">
     <defs>
      <path id="LiberationSans-Bold-50" d="M 4050 3009 
Q 4050 2584 3856 2250 
Q 3663 1916 3302 1733 
Q 2941 1550 2444 1550 
L 1350 1550 
L 1350 0 
L 428 0 
L 428 4403 
L 2406 4403 
Q 3197 4403 3623 4039 
Q 4050 3675 4050 3009 
z
M 3122 2994 
Q 3122 3688 2303 3688 
L 1350 3688 
L 1350 2259 
L 2328 2259 
Q 2709 2259 2915 2448 
Q 3122 2638 3122 2994 
z
" transform="scale(0.015625)"/>
      <path id="LiberationSans-Bold-61" d="M 1228 -63 
Q 738 -63 463 204 
Q 188 472 188 956 
Q 188 1481 530 1756 
Q 872 2031 1522 2038 
L 2250 2050 
L 2250 2222 
Q 2250 2553 2134 2714 
Q 2019 2875 1756 2875 
Q 1513 2875 1398 2764 
Q 1284 2653 1256 2397 
L 341 2441 
Q 425 2934 792 3189 
Q 1159 3444 1794 3444 
Q 2434 3444 2781 3128 
Q 3128 2813 3128 2231 
L 3128 1000 
Q 3128 716 3192 608 
Q 3256 500 3406 500 
Q 3506 500 3600 519 
L 3600 44 
Q 3522 25 3459 9 
Q 3397 -6 3334 -15 
Q 3272 -25 3201 -31 
Q 3131 -38 3038 -38 
Q 2706 -38 2548 125 
Q 2391 288 2359 603 
L 2341 603 
Q 1972 -63 1228 -63 
z
M 2250 1566 
L 1800 1559 
Q 1494 1547 1366 1492 
Q 1238 1438 1170 1325 
Q 1103 1213 1103 1025 
Q 1103 784 1214 667 
Q 1325 550 1509 550 
Q 1716 550 1886 662 
Q 2056 775 2153 973 
Q 2250 1172 2250 1394 
L 2250 1566 
z
" transform="scale(0.015625)"/>
      <path id="LiberationSans-Bold-63" d="M 1856 -63 
Q 1088 -63 669 395 
Q 250 853 250 1672 
Q 250 2509 672 2976 
Q 1094 3444 1869 3444 
Q 2466 3444 2856 3144 
Q 3247 2844 3347 2316 
L 2463 2272 
Q 2425 2531 2275 2686 
Q 2125 2841 1850 2841 
Q 1172 2841 1172 1706 
Q 1172 538 1863 538 
Q 2113 538 2281 695 
Q 2450 853 2491 1166 
L 3372 1125 
Q 3325 778 3123 506 
Q 2922 234 2594 85 
Q 2266 -63 1856 -63 
z
" transform="scale(0.015625)"/>
      <path id="LiberationSans-Bold-6b" d="M 2606 0 
L 1703 1531 
L 1325 1269 
L 1325 0 
L 447 0 
L 447 4638 
L 1325 4638 
L 1325 1981 
L 2531 3381 
L 3475 3381 
L 2288 2063 
L 3566 0 
L 2606 0 
z
" transform="scale(0.015625)"/>
      <path id="LiberationSans-Bold-65" d="M 1831 -63 
Q 1069 -63 659 389 
Q 250 841 250 1706 
Q 250 2544 665 2994 
Q 1081 3444 1844 3444 
Q 2572 3444 2956 2961 
Q 3341 2478 3341 1547 
L 3341 1522 
L 1172 1522 
Q 1172 1028 1355 776 
Q 1538 525 1875 525 
Q 2341 525 2463 928 
L 3291 856 
Q 2931 -63 1831 -63 
z
M 1831 2891 
Q 1522 2891 1355 2675 
Q 1188 2459 1178 2072 
L 2491 2072 
Q 2466 2481 2294 2686 
Q 2122 2891 1831 2891 
z
" transform="scale(0.015625)"/>
      <path id="LiberationSans-Bold-74" d="M 1313 -56 
Q 925 -56 715 155 
Q 506 366 506 794 
L 506 2788 
L 78 2788 
L 78 3381 
L 550 3381 
L 825 4175 
L 1375 4175 
L 1375 3381 
L 2016 3381 
L 2016 2788 
L 1375 2788 
L 1375 1031 
Q 1375 784 1469 667 
Q 1563 550 1759 550 
Q 1863 550 2053 594 
L 2053 50 
Q 1728 -56 1313 -56 
z
" transform="scale(0.015625)"/>
      <path id="LiberationSans-Bold-20" transform="scale(0.015625)"/>
      <path id="LiberationSans-Bold-52" d="M 3453 0 
L 2431 1672 
L 1350 1672 
L 1350 0 
L 428 0 
L 428 4403 
L 2628 4403 
Q 3416 4403 3844 4064 
Q 4272 3725 4272 3091 
Q 4272 2628 4009 2292 
Q 3747 1956 3300 1850 
L 4491 0 
L 3453 0 
z
M 3344 3053 
Q 3344 3688 2531 3688 
L 1350 3688 
L 1350 2388 
L 2556 2388 
Q 2944 2388 3144 2563 
Q 3344 2738 3344 3053 
z
" transform="scale(0.015625)"/>
      <path id="LiberationSans-Bold-28" d="M 1247 -1328 
Q 756 -622 537 81 
Q 319 784 319 1659 
Q 319 2531 537 3232 
Q 756 3934 1247 4638 
L 2125 4638 
Q 1631 3925 1407 3219 
Q 1184 2513 1184 1656 
Q 1184 803 1406 101 
Q 1628 -600 2125 -1328 
L 1247 -1328 
z
" transform="scale(0.015625)"/>
      <path id="LiberationSans-Bold-70" d="M 3647 1706 
Q 3647 859 3308 398 
Q 2969 -63 2350 -63 
Q 1994 -63 1730 92 
Q 1466 247 1325 538 
L 1306 538 
Q 1325 444 1325 -31 
L 1325 -1328 
L 447 -1328 
L 447 2603 
Q 447 3081 422 3381 
L 1275 3381 
Q 1291 3325 1302 3159 
Q 1313 2994 1313 2831 
L 1325 2831 
Q 1622 3453 2406 3453 
Q 2997 3453 3322 2998 
Q 3647 2544 3647 1706 
z
M 2731 1706 
Q 2731 2844 2034 2844 
Q 1684 2844 1498 2537 
Q 1313 2231 1313 1681 
Q 1313 1134 1498 836 
Q 1684 538 2028 538 
Q 2731 538 2731 1706 
z
" transform="scale(0.015625)"/>
      <path id="LiberationSans-Bold-73" d="M 3297 988 
Q 3297 497 2895 217 
Q 2494 -63 1784 -63 
Q 1088 -63 717 157 
Q 347 378 225 844 
L 997 959 
Q 1063 719 1223 619 
Q 1384 519 1784 519 
Q 2153 519 2322 612 
Q 2491 706 2491 906 
Q 2491 1069 2355 1164 
Q 2219 1259 1894 1325 
Q 1150 1472 890 1598 
Q 631 1725 495 1926 
Q 359 2128 359 2422 
Q 359 2906 732 3176 
Q 1106 3447 1791 3447 
Q 2394 3447 2761 3212 
Q 3128 2978 3219 2534 
L 2441 2453 
Q 2403 2659 2256 2761 
Q 2109 2863 1791 2863 
Q 1478 2863 1322 2783 
Q 1166 2703 1166 2516 
Q 1166 2369 1286 2283 
Q 1406 2197 1691 2141 
Q 2088 2059 2395 1973 
Q 2703 1888 2889 1769 
Q 3075 1650 3186 1464 
Q 3297 1278 3297 988 
z
" transform="scale(0.015625)"/>
      <path id="LiberationSans-Bold-2f" d="M 63 -128 
L 972 4638 
L 1716 4638 
L 822 -128 
L 63 -128 
z
" transform="scale(0.015625)"/>
      <path id="LiberationSans-Bold-29" d="M 6 -1328 
Q 506 -597 726 101 
Q 947 800 947 1656 
Q 947 2516 722 3223 
Q 497 3931 6 4638 
L 884 4638 
Q 1378 3928 1595 3225 
Q 1813 2522 1813 1659 
Q 1813 791 1595 87 
Q 1378 -616 884 -1328 
L 6 -1328 
z
" transform="scale(0.015625)"/>
      <path id="LiberationSans-Bold-76" d="M 2284 0 
L 1234 0 
L 25 3381 
L 953 3381 
L 1544 1491 
Q 1591 1334 1766 709 
Q 1797 838 1894 1159 
Q 1991 1481 2613 3381 
L 3531 3381 
L 2284 0 
z
" transform="scale(0.015625)"/>
      <path id="LiberationSans-Bold-54" d="M 2416 3691 
L 2416 0 
L 1494 0 
L 1494 3691 
L 72 3691 
L 72 4403 
L 3841 4403 
L 3841 3691 
L 2416 3691 
z
" transform="scale(0.015625)"/>
      <path id="LiberationSans-Bold-68" d="M 1313 2706 
Q 1491 3094 1759 3269 
Q 2028 3444 2400 3444 
Q 2938 3444 3225 3112 
Q 3513 2781 3513 2144 
L 3513 0 
L 2638 0 
L 2638 1894 
Q 2638 2784 2034 2784 
Q 1716 2784 1520 2511 
Q 1325 2238 1325 1809 
L 1325 0 
L 447 0 
L 447 4638 
L 1325 4638 
L 1325 3372 
Q 1325 3031 1300 2706 
L 1313 2706 
z
" transform="scale(0.015625)"/>
      <path id="LiberationSans-Bold-72" d="M 447 0 
L 447 2588 
Q 447 2866 439 3052 
Q 431 3238 422 3381 
L 1259 3381 
Q 1269 3325 1284 3039 
Q 1300 2753 1300 2659 
L 1313 2659 
Q 1441 3016 1541 3161 
Q 1641 3306 1778 3376 
Q 1916 3447 2122 3447 
Q 2291 3447 2394 3400 
L 2394 2666 
Q 2181 2713 2019 2713 
Q 1691 2713 1508 2447 
Q 1325 2181 1325 1659 
L 1325 0 
L 447 0 
z
" transform="scale(0.015625)"/>
      <path id="LiberationSans-Bold-6f" d="M 3659 1694 
Q 3659 872 3203 404 
Q 2747 -63 1941 -63 
Q 1150 -63 700 406 
Q 250 875 250 1694 
Q 250 2509 700 2976 
Q 1150 3444 1959 3444 
Q 2788 3444 3223 2992 
Q 3659 2541 3659 1694 
z
M 2741 1694 
Q 2741 2297 2544 2569 
Q 2347 2841 1972 2841 
Q 1172 2841 1172 1694 
Q 1172 1128 1367 833 
Q 1563 538 1931 538 
Q 2741 538 2741 1694 
z
" transform="scale(0.015625)"/>
      <path id="LiberationSans-Bold-75" d="M 1275 3381 
L 1275 1484 
Q 1275 594 1875 594 
Q 2194 594 2389 867 
Q 2584 1141 2584 1569 
L 2584 3381 
L 3463 3381 
L 3463 756 
Q 3463 325 3488 0 
L 2650 0 
Q 2613 450 2613 672 
L 2597 672 
Q 2422 288 2151 112 
Q 1881 -63 1509 -63 
Q 972 -63 684 267 
Q 397 597 397 1234 
L 397 3381 
L 1275 3381 
z
" transform="scale(0.015625)"/>
      <path id="LiberationSans-Bold-67" d="M 1863 -1356 
Q 1244 -1356 867 -1120 
Q 491 -884 403 -447 
L 1281 -344 
Q 1328 -547 1483 -662 
Q 1638 -778 1888 -778 
Q 2253 -778 2422 -553 
Q 2591 -328 2591 116 
L 2591 294 
L 2597 628 
L 2591 628 
Q 2300 6 1503 6 
Q 913 6 588 450 
Q 263 894 263 1719 
Q 263 2547 597 2997 
Q 931 3447 1569 3447 
Q 2306 3447 2591 2838 
L 2606 2838 
Q 2606 2947 2620 3134 
Q 2634 3322 2650 3381 
L 3481 3381 
Q 3463 3044 3463 2600 
L 3463 103 
Q 3463 -619 3053 -987 
Q 2644 -1356 1863 -1356 
z
M 2597 1738 
Q 2597 2259 2411 2551 
Q 2225 2844 1881 2844 
Q 1178 2844 1178 1719 
Q 1178 616 1875 616 
Q 2225 616 2411 908 
Q 2597 1200 2597 1738 
z
" transform="scale(0.015625)"/>
     </defs>
     <use xlink:href="#LiberationSans-Bold-50"/>
     <use xlink:href="#LiberationSans-Bold-61" transform="translate(66.699219 0)"/>
     <use xlink:href="#LiberationSans-Bold-63" transform="translate(122.314453 0)"/>
     <use xlink:href="#LiberationSans-Bold-6b" transform="translate(177.929688 0)"/>
     <use xlink:href="#LiberationSans-Bold-65" transform="translate(233.544922 0)"/>
     <use xlink:href="#LiberationSans-Bold-74" transform="translate(289.160156 0)"/>
     <use xlink:href="#LiberationSans-Bold-20" transform="translate(322.460938 0)"/>
     <use xlink:href="#LiberationSans-Bold-52" transform="translate(350.244141 0)"/>
     <use xlink:href="#LiberationSans-Bold-61" transform="translate(422.460938 0)"/>
     <use xlink:href="#LiberationSans-Bold-74" transform="translate(478.076172 0)"/>
     <use xlink:href="#LiberationSans-Bold-65" transform="translate(511.376953 0)"/>
     <use xlink:href="#LiberationSans-Bold-20" transform="translate(566.992188 0)"/>
     <use xlink:href="#LiberationSans-Bold-28" transform="translate(594.775391 0)"/>
     <use xlink:href="#LiberationSans-Bold-70" transform="translate(628.076172 0)"/>
     <use xlink:href="#LiberationSans-Bold-61" transform="translate(689.160156 0)"/>
     <use xlink:href="#LiberationSans-Bold-63" transform="translate(744.775391 0)"/>
     <use xlink:href="#LiberationSans-Bold-6b" transform="translate(800.390625 0)"/>
     <use xlink:href="#LiberationSans-Bold-65" transform="translate(856.005859 0)"/>
     <use xlink:href="#LiberationSans-Bold-74" transform="translate(911.621094 0)"/>
     <use xlink:href="#LiberationSans-Bold-73" transform="translate(944.921875 0)"/>
     <use xlink:href="#LiberationSans-Bold-2f" transform="translate(1000.537109 0)"/>
     <use xlink:href="#LiberationSans-Bold-73" transform="translate(1028.320312 0)"/>
     <use xlink:href="#LiberationSans-Bold-29" transform="translate(1083.935547 0)"/>
     <use xlink:href="#LiberationSans-Bold-20" transform="translate(1117.236328 0)"/>
     <use xlink:href="#LiberationSans-Bold-76" transform="translate(1145.019531 0)"/>
     <use xlink:href="#LiberationSans-Bold-73" transform="translate(1200.634766 0)"/>
     <use xlink:href="#LiberationSans-Bold-20" transform="translate(1256.25 0)"/>
     <use xlink:href="#LiberationSans-Bold-54" transform="translate(1284.033203 0)"/>
     <use xlink:href="#LiberationSans-Bold-68" transform="translate(1345.117188 0)"/>
     <use xlink:href="#LiberationSans-Bold-72" transform="translate(1406.201172 0)"/>
     <use xlink:href="#LiberationSans-Bold-6f" transform="translate(1445.117188 0)"/>
     <use xlink:href="#LiberationSans-Bold-75" transform="translate(1506.201172 0)"/>
     <use xlink:href="#LiberationSans-Bold-67" transform="translate(1567.285156 0)"/>
     <use xlink:href="#LiberationSans-Bold-68" transform="translate(1628.369141 0)"/>
     <use xlink:href="#LiberationSans-Bold-70" transform="translate(1689.453125 0)"/>
     <use xlink:href="#LiberationSans-Bold-75" transform="translate(1750.537109 0)"/>
     <use xlink:href="#LiberationSans-Bold-74" transform="translate(1811.621094 0)"/>
    </g>
   </g>
   <g id="legend_1">
    <g id="patch_33">
     <path d="M 66.64875 41.217187 
L 88.64875 41.217187 
L 88.64875 33.517187 
L 66.64875 33.517187 
z
" style="fill: #5d6d7e; opacity: 0.9"/>
    </g>
    <g id="text_51">
     <!-- C SIM -->
     <g style="fill: #262626" transform="translate(97.44875 41.217187) scale(0.11 -0.11)">
      <defs>
       <path id="LiberationSans-43" d="M 2475 3981 
Q 1744 3981 1337 3511 
Q 931 3041 931 2222 
Q 931 1413 1354 920 
Q 1778 428 2500 428 
Q 3425 428 3891 1344 
L 4378 1100 
Q 4106 531 3614 234 
Q 3122 -63 2472 -63 
Q 1806 -63 1320 214 
Q 834 491 579 1005 
Q 325 1519 325 2222 
Q 325 3275 894 3872 
Q 1463 4469 2469 4469 
Q 3172 4469 3644 4194 
Q 4116 3919 4338 3378 
L 3772 3191 
Q 3619 3575 3280 3778 
Q 2941 3981 2475 3981 
z
" transform="scale(0.015625)"/>
       <path id="LiberationSans-53" d="M 3975 1216 
Q 3975 606 3498 271 
Q 3022 -63 2156 -63 
Q 547 -63 291 1056 
L 869 1172 
Q 969 775 1294 589 
Q 1619 403 2178 403 
Q 2756 403 3070 601 
Q 3384 800 3384 1184 
Q 3384 1400 3286 1534 
Q 3188 1669 3009 1756 
Q 2831 1844 2584 1903 
Q 2338 1963 2038 2031 
Q 1516 2147 1245 2262 
Q 975 2378 819 2520 
Q 663 2663 580 2853 
Q 497 3044 497 3291 
Q 497 3856 930 4162 
Q 1363 4469 2169 4469 
Q 2919 4469 3316 4239 
Q 3713 4009 3872 3456 
L 3284 3353 
Q 3188 3703 2916 3861 
Q 2644 4019 2163 4019 
Q 1634 4019 1356 3844 
Q 1078 3669 1078 3322 
Q 1078 3119 1186 2986 
Q 1294 2853 1497 2761 
Q 1700 2669 2306 2534 
Q 2509 2488 2711 2439 
Q 2913 2391 3097 2323 
Q 3281 2256 3442 2165 
Q 3603 2075 3722 1944 
Q 3841 1813 3908 1634 
Q 3975 1456 3975 1216 
z
" transform="scale(0.015625)"/>
       <path id="LiberationSans-49" d="M 591 0 
L 591 4403 
L 1188 4403 
L 1188 0 
L 591 0 
z
" transform="scale(0.015625)"/>
       <path id="LiberationSans-4d" d="M 4269 0 
L 4269 2938 
Q 4269 3425 4297 3875 
Q 4144 3316 4022 3000 
L 2884 0 
L 2466 0 
L 1313 3000 
L 1138 3531 
L 1034 3875 
L 1044 3528 
L 1056 2938 
L 1056 0 
L 525 0 
L 525 4403 
L 1309 4403 
L 2481 1350 
Q 2544 1166 2601 955 
Q 2659 744 2678 650 
Q 2703 775 2783 1029 
Q 2863 1284 2891 1350 
L 4041 4403 
L 4806 4403 
L 4806 0 
L 4269 0 
z
" transform="scale(0.015625)"/>
      </defs>
      <use xlink:href="#LiberationSans-43"/>
      <use xlink:href="#LiberationSans-20" transform="translate(72.216797 0)"/>
      <use xlink:href="#LiberationSans-53" transform="translate(100 0)"/>
      <use xlink:href="#LiberationSans-49" transform="translate(166.699219 0)"/>
      <use xlink:href="#LiberationSans-4d" transform="translate(194.482422 0)"/>
     </g>
    </g>
    <g id="patch_34">
     <path d="M 66.64875 56.97125 
L 88.64875 56.97125 
L 88.64875 49.27125 
L 66.64875 49.27125 
z
" style="fill: #85c1e9; opacity: 0.9"/>
    </g>
    <g id="text_52">
     <!-- PNK -->
     <g style="fill: #262626" transform="translate(97.44875 56.97125) scale(0.11 -0.11)">
      <defs>
       <path id="LiberationSans-4e" d="M 3381 0 
L 1025 3750 
L 1041 3447 
L 1056 2925 
L 1056 0 
L 525 0 
L 525 4403 
L 1219 4403 
L 3600 628 
Q 3563 1241 3563 1516 
L 3563 4403 
L 4100 4403 
L 4100 0 
L 3381 0 
z
" transform="scale(0.015625)"/>
      </defs>
      <use xlink:href="#LiberationSans-50"/>
      <use xlink:href="#LiberationSans-4e" transform="translate(66.699219 0)"/>
      <use xlink:href="#LiberationSans-4b" transform="translate(138.916016 0)"/>
     </g>
    </g>
   </g>
  </g>
  <g id="axes_2">
   <g id="patch_35">
    <path d="M 56.74875 665.239005 
L 849.88875 665.239005 
L 849.88875 370.185625 
L 56.74875 370.185625 
z
" style="fill: #eaeaf2"/>
   </g>
   <g id="matplotlib.axis_3">
    <g id="xtick_14">
     <g id="line2d_45">
      <path d="M 115.332955 665.239005 
L 115.332955 370.185625 
" clip-path="url(#pff51871098)" style="fill: none; stroke: #ffffff; stroke-width: 0.8; stroke-linecap: round"/>
     </g>
     <g id="line2d_46"/>
     <g id="text_53">
      <!-- 10 -->
      <g style="fill: #262626" transform="translate(113.229312 681.727673) rotate(-45) scale(0.1 -0.1)">
       <use xlink:href="#LiberationSans-31"/>
       <use xlink:href="#LiberationSans-30" transform="translate(55.615234 0)"/>
      </g>
     </g>
    </g>
    <g id="xtick_15">
     <g id="line2d_47">
      <path d="M 171.66392 665.239005 
L 171.66392 370.185625 
" clip-path="url(#pff51871098)" style="fill: none; stroke: #ffffff; stroke-width: 0.8; stroke-linecap: round"/>
     </g>
     <g id="line2d_48"/>
     <g id="text_54">
      <!-- 20 -->
      <g style="fill: #262626" transform="translate(169.560278 681.727673) rotate(-45) scale(0.1 -0.1)">
       <use xlink:href="#LiberationSans-32"/>
       <use xlink:href="#LiberationSans-30" transform="translate(55.615234 0)"/>
      </g>
     </g>
    </g>
    <g id="xtick_16">
     <g id="line2d_49">
      <path d="M 227.994886 665.239005 
L 227.994886 370.185625 
" clip-path="url(#pff51871098)" style="fill: none; stroke: #ffffff; stroke-width: 0.8; stroke-linecap: round"/>
     </g>
     <g id="line2d_50"/>
     <g id="text_55">
      <!-- 50 -->
      <g style="fill: #262626" transform="translate(225.891244 681.727673) rotate(-45) scale(0.1 -0.1)">
       <use xlink:href="#LiberationSans-35"/>
       <use xlink:href="#LiberationSans-30" transform="translate(55.615234 0)"/>
      </g>
     </g>
    </g>
    <g id="xtick_17">
     <g id="line2d_51">
      <path d="M 284.325852 665.239005 
L 284.325852 370.185625 
" clip-path="url(#pff51871098)" style="fill: none; stroke: #ffffff; stroke-width: 0.8; stroke-linecap: round"/>
     </g>
     <g id="line2d_52"/>
     <g id="text_56">
      <!-- 100 -->
      <g style="fill: #262626" transform="translate(280.256121 685.659849) rotate(-45) scale(0.1 -0.1)">
       <use xlink:href="#LiberationSans-31"/>
       <use xlink:href="#LiberationSans-30" transform="translate(55.615234 0)"/>
       <use xlink:href="#LiberationSans-30" transform="translate(111.230469 0)"/>
      </g>
     </g>
    </g>
    <g id="xtick_18">
     <g id="line2d_53">
      <path d="M 340.656818 665.239005 
L 340.656818 370.185625 
" clip-path="url(#pff51871098)" style="fill: none; stroke: #ffffff; stroke-width: 0.8; stroke-linecap: round"/>
     </g>
     <g id="line2d_54"/>
     <g id="text_57">
      <!-- 200 -->
      <g style="fill: #262626" transform="translate(336.587087 685.659849) rotate(-45) scale(0.1 -0.1)">
       <use xlink:href="#LiberationSans-32"/>
       <use xlink:href="#LiberationSans-30" transform="translate(55.615234 0)"/>
       <use xlink:href="#LiberationSans-30" transform="translate(111.230469 0)"/>
      </g>
     </g>
    </g>
    <g id="xtick_19">
     <g id="line2d_55">
      <path d="M 396.987784 665.239005 
L 396.987784 370.185625 
" clip-path="url(#pff51871098)" style="fill: none; stroke: #ffffff; stroke-width: 0.8; stroke-linecap: round"/>
     </g>
     <g id="line2d_56"/>
     <g id="text_58">
      <!-- 300 -->
      <g style="fill: #262626" transform="translate(392.918053 685.659849) rotate(-45) scale(0.1 -0.1)">
       <use xlink:href="#LiberationSans-33"/>
       <use xlink:href="#LiberationSans-30" transform="translate(55.615234 0)"/>
       <use xlink:href="#LiberationSans-30" transform="translate(111.230469 0)"/>
      </g>
     </g>
    </g>
    <g id="xtick_20">
     <g id="line2d_57">
      <path d="M 453.31875 665.239005 
L 453.31875 370.185625 
" clip-path="url(#pff51871098)" style="fill: none; stroke: #ffffff; stroke-width: 0.8; stroke-linecap: round"/>
     </g>
     <g id="line2d_58"/>
     <g id="text_59">
      <!-- 400 -->
      <g style="fill: #262626" transform="translate(449.249019 685.659849) rotate(-45) scale(0.1 -0.1)">
       <use xlink:href="#LiberationSans-34"/>
       <use xlink:href="#LiberationSans-30" transform="translate(55.615234 0)"/>
       <use xlink:href="#LiberationSans-30" transform="translate(111.230469 0)"/>
      </g>
     </g>
    </g>
    <g id="xtick_21">
     <g id="line2d_59">
      <path d="M 509.649716 665.239005 
L 509.649716 370.185625 
" clip-path="url(#pff51871098)" style="fill: none; stroke: #ffffff; stroke-width: 0.8; stroke-linecap: round"/>
     </g>
     <g id="line2d_60"/>
     <g id="text_60">
      <!-- 500 -->
      <g style="fill: #262626" transform="translate(505.579985 685.659849) rotate(-45) scale(0.1 -0.1)">
       <use xlink:href="#LiberationSans-35"/>
       <use xlink:href="#LiberationSans-30" transform="translate(55.615234 0)"/>
       <use xlink:href="#LiberationSans-30" transform="translate(111.230469 0)"/>
      </g>
     </g>
    </g>
    <g id="xtick_22">
     <g id="line2d_61">
      <path d="M 565.980682 665.239005 
L 565.980682 370.185625 
" clip-path="url(#pff51871098)" style="fill: none; stroke: #ffffff; stroke-width: 0.8; stroke-linecap: round"/>
     </g>
     <g id="line2d_62"/>
     <g id="text_61">
      <!-- 600 -->
      <g style="fill: #262626" transform="translate(561.910951 685.659849) rotate(-45) scale(0.1 -0.1)">
       <use xlink:href="#LiberationSans-36"/>
       <use xlink:href="#LiberationSans-30" transform="translate(55.615234 0)"/>
       <use xlink:href="#LiberationSans-30" transform="translate(111.230469 0)"/>
      </g>
     </g>
    </g>
    <g id="xtick_23">
     <g id="line2d_63">
      <path d="M 622.311648 665.239005 
L 622.311648 370.185625 
" clip-path="url(#pff51871098)" style="fill: none; stroke: #ffffff; stroke-width: 0.8; stroke-linecap: round"/>
     </g>
     <g id="line2d_64"/>
     <g id="text_62">
      <!-- 700 -->
      <g style="fill: #262626" transform="translate(618.241917 685.659849) rotate(-45) scale(0.1 -0.1)">
       <use xlink:href="#LiberationSans-37"/>
       <use xlink:href="#LiberationSans-30" transform="translate(55.615234 0)"/>
       <use xlink:href="#LiberationSans-30" transform="translate(111.230469 0)"/>
      </g>
     </g>
    </g>
    <g id="xtick_24">
     <g id="line2d_65">
      <path d="M 678.642614 665.239005 
L 678.642614 370.185625 
" clip-path="url(#pff51871098)" style="fill: none; stroke: #ffffff; stroke-width: 0.8; stroke-linecap: round"/>
     </g>
     <g id="line2d_66"/>
     <g id="text_63">
      <!-- 800 -->
      <g style="fill: #262626" transform="translate(674.572883 685.659849) rotate(-45) scale(0.1 -0.1)">
       <use xlink:href="#LiberationSans-38"/>
       <use xlink:href="#LiberationSans-30" transform="translate(55.615234 0)"/>
       <use xlink:href="#LiberationSans-30" transform="translate(111.230469 0)"/>
      </g>
     </g>
    </g>
    <g id="xtick_25">
     <g id="line2d_67">
      <path d="M 734.97358 665.239005 
L 734.97358 370.185625 
" clip-path="url(#pff51871098)" style="fill: none; stroke: #ffffff; stroke-width: 0.8; stroke-linecap: round"/>
     </g>
     <g id="line2d_68"/>
     <g id="text_64">
      <!-- 900 -->
      <g style="fill: #262626" transform="translate(730.903849 685.659849) rotate(-45) scale(0.1 -0.1)">
       <use xlink:href="#LiberationSans-39"/>
       <use xlink:href="#LiberationSans-30" transform="translate(55.615234 0)"/>
       <use xlink:href="#LiberationSans-30" transform="translate(111.230469 0)"/>
      </g>
     </g>
    </g>
    <g id="xtick_26">
     <g id="line2d_69">
      <path d="M 791.304545 665.239005 
L 791.304545 370.185625 
" clip-path="url(#pff51871098)" style="fill: none; stroke: #ffffff; stroke-width: 0.8; stroke-linecap: round"/>
     </g>
     <g id="line2d_70"/>
     <g id="text_65">
      <!-- 1000 -->
      <g style="fill: #262626" transform="translate(785.268726 689.592026) rotate(-45) scale(0.1 -0.1)">
       <use xlink:href="#LiberationSans-31"/>
       <use xlink:href="#LiberationSans-30" transform="translate(55.615234 0)"/>
       <use xlink:href="#LiberationSans-30" transform="translate(111.230469 0)"/>
       <use xlink:href="#LiberationSans-30" transform="translate(166.845703 0)"/>
      </g>
     </g>
    </g>
    <g id="text_66">
     <!-- Requested Throughput (Mb/s) -->
     <g style="fill: #262626" transform="translate(373.388438 703.755522) scale(0.12 -0.12)">
      <defs>
       <path id="LiberationSans-71" d="M 1513 -63 
Q 869 -63 569 371 
Q 269 806 269 1675 
Q 269 3444 1513 3444 
Q 1897 3444 2147 3308 
Q 2397 3172 2566 2856 
L 2572 2856 
Q 2572 2950 2584 3179 
Q 2597 3409 2609 3425 
L 3150 3425 
Q 3128 3241 3128 2503 
L 3128 -1328 
L 2566 -1328 
L 2566 44 
L 2578 556 
L 2572 556 
Q 2403 222 2156 79 
Q 1909 -63 1513 -63 
z
M 2566 1731 
Q 2566 2391 2350 2709 
Q 2134 3028 1663 3028 
Q 1234 3028 1046 2709 
Q 859 2391 859 1694 
Q 859 984 1048 678 
Q 1238 372 1656 372 
Q 2134 372 2350 712 
Q 2566 1053 2566 1731 
z
" transform="scale(0.015625)"/>
       <path id="LiberationSans-75" d="M 981 3381 
L 981 1238 
Q 981 903 1047 718 
Q 1113 534 1256 453 
Q 1400 372 1678 372 
Q 2084 372 2318 650 
Q 2553 928 2553 1422 
L 2553 3381 
L 3116 3381 
L 3116 722 
Q 3116 131 3134 0 
L 2603 0 
Q 2600 16 2597 84 
Q 2594 153 2589 242 
Q 2584 331 2578 578 
L 2569 578 
Q 2375 228 2120 82 
Q 1866 -63 1488 -63 
Q 931 -63 673 214 
Q 416 491 416 1128 
L 416 3381 
L 981 3381 
z
" transform="scale(0.015625)"/>
       <path id="LiberationSans-64" d="M 2566 544 
Q 2409 219 2151 78 
Q 1894 -63 1513 -63 
Q 872 -63 570 368 
Q 269 800 269 1675 
Q 269 3444 1513 3444 
Q 1897 3444 2153 3303 
Q 2409 3163 2566 2856 
L 2572 2856 
L 2566 3234 
L 2566 4638 
L 3128 4638 
L 3128 697 
Q 3128 169 3147 0 
L 2609 0 
Q 2600 50 2589 231 
Q 2578 413 2578 544 
L 2566 544 
z
M 859 1694 
Q 859 984 1046 678 
Q 1234 372 1656 372 
Q 2134 372 2350 703 
Q 2566 1034 2566 1731 
Q 2566 2403 2350 2715 
Q 2134 3028 1663 3028 
Q 1238 3028 1048 2714 
Q 859 2400 859 1694 
z
" transform="scale(0.015625)"/>
       <path id="LiberationSans-54" d="M 2250 3916 
L 2250 0 
L 1656 0 
L 1656 3916 
L 144 3916 
L 144 4403 
L 3763 4403 
L 3763 3916 
L 2250 3916 
z
" transform="scale(0.015625)"/>
       <path id="LiberationSans-68" d="M 991 2803 
Q 1172 3134 1426 3289 
Q 1681 3444 2072 3444 
Q 2622 3444 2883 3170 
Q 3144 2897 3144 2253 
L 3144 0 
L 2578 0 
L 2578 2144 
Q 2578 2500 2512 2673 
Q 2447 2847 2297 2928 
Q 2147 3009 1881 3009 
Q 1484 3009 1245 2734 
Q 1006 2459 1006 1994 
L 1006 0 
L 444 0 
L 444 4638 
L 1006 4638 
L 1006 3431 
Q 1006 3241 995 3037 
Q 984 2834 981 2803 
L 991 2803 
z
" transform="scale(0.015625)"/>
       <path id="LiberationSans-72" d="M 444 0 
L 444 2594 
Q 444 2950 425 3381 
L 956 3381 
Q 981 2806 981 2691 
L 994 2691 
Q 1128 3125 1303 3284 
Q 1478 3444 1797 3444 
Q 1909 3444 2025 3413 
L 2025 2897 
Q 1913 2928 1725 2928 
Q 1375 2928 1190 2626 
Q 1006 2325 1006 1763 
L 1006 0 
L 444 0 
z
" transform="scale(0.015625)"/>
       <path id="LiberationSans-6f" d="M 3291 1694 
Q 3291 806 2900 371 
Q 2509 -63 1766 -63 
Q 1025 -63 647 389 
Q 269 841 269 1694 
Q 269 3444 1784 3444 
Q 2559 3444 2925 3017 
Q 3291 2591 3291 1694 
z
M 2700 1694 
Q 2700 2394 2492 2711 
Q 2284 3028 1794 3028 
Q 1300 3028 1079 2704 
Q 859 2381 859 1694 
Q 859 1025 1076 689 
Q 1294 353 1759 353 
Q 2266 353 2483 678 
Q 2700 1003 2700 1694 
z
" transform="scale(0.015625)"/>
       <path id="LiberationSans-67" d="M 1713 -1328 
Q 1159 -1328 831 -1111 
Q 503 -894 409 -494 
L 975 -413 
Q 1031 -647 1223 -773 
Q 1416 -900 1728 -900 
Q 2569 -900 2569 84 
L 2569 628 
L 2563 628 
Q 2403 303 2125 139 
Q 1847 -25 1475 -25 
Q 853 -25 561 387 
Q 269 800 269 1684 
Q 269 2581 583 3007 
Q 897 3434 1538 3434 
Q 1897 3434 2161 3270 
Q 2425 3106 2569 2803 
L 2575 2803 
Q 2575 2897 2587 3128 
Q 2600 3359 2613 3381 
L 3147 3381 
Q 3128 3213 3128 2681 
L 3128 97 
Q 3128 -1328 1713 -1328 
z
M 2569 1691 
Q 2569 2103 2456 2401 
Q 2344 2700 2139 2858 
Q 1934 3016 1675 3016 
Q 1244 3016 1047 2703 
Q 850 2391 850 1691 
Q 850 997 1034 694 
Q 1219 391 1666 391 
Q 1931 391 2137 547 
Q 2344 703 2456 995 
Q 2569 1288 2569 1691 
z
" transform="scale(0.015625)"/>
       <path id="LiberationSans-62" d="M 3291 1706 
Q 3291 -63 2047 -63 
Q 1663 -63 1408 76 
Q 1153 216 994 525 
L 988 525 
Q 988 428 975 229 
Q 963 31 956 0 
L 413 0 
Q 431 169 431 697 
L 431 4638 
L 994 4638 
L 994 3316 
Q 994 3113 981 2838 
L 994 2838 
Q 1150 3163 1408 3303 
Q 1666 3444 2047 3444 
Q 2688 3444 2989 3012 
Q 3291 2581 3291 1706 
z
M 2700 1688 
Q 2700 2397 2512 2703 
Q 2325 3009 1903 3009 
Q 1428 3009 1211 2684 
Q 994 2359 994 1653 
Q 994 988 1206 670 
Q 1419 353 1897 353 
Q 2322 353 2511 667 
Q 2700 981 2700 1688 
z
" transform="scale(0.015625)"/>
       <path id="LiberationSans-2f" d="M 0 -63 
L 1284 4638 
L 1778 4638 
L 506 -63 
L 0 -63 
z
" transform="scale(0.015625)"/>
      </defs>
      <use xlink:href="#LiberationSans-52"/>
      <use xlink:href="#LiberationSans-65" transform="translate(72.216797 0)"/>
      <use xlink:href="#LiberationSans-71" transform="translate(127.832031 0)"/>
      <use xlink:href="#LiberationSans-75" transform="translate(183.447266 0)"/>
      <use xlink:href="#LiberationSans-65" transform="translate(239.0625 0)"/>
      <use xlink:href="#LiberationSans-73" transform="translate(294.677734 0)"/>
      <use xlink:href="#LiberationSans-74" transform="translate(344.677734 0)"/>
      <use xlink:href="#LiberationSans-65" transform="translate(372.460938 0)"/>
      <use xlink:href="#LiberationSans-64" transform="translate(428.076172 0)"/>
      <use xlink:href="#LiberationSans-20" transform="translate(483.691406 0)"/>
      <use xlink:href="#LiberationSans-54" transform="translate(509.724609 0)"/>
      <use xlink:href="#LiberationSans-68" transform="translate(570.808594 0)"/>
      <use xlink:href="#LiberationSans-72" transform="translate(626.423828 0)"/>
      <use xlink:href="#LiberationSans-6f" transform="translate(659.724609 0)"/>
      <use xlink:href="#LiberationSans-75" transform="translate(715.339844 0)"/>
      <use xlink:href="#LiberationSans-67" transform="translate(770.955078 0)"/>
      <use xlink:href="#LiberationSans-68" transform="translate(826.570312 0)"/>
      <use xlink:href="#LiberationSans-70" transform="translate(882.185547 0)"/>
      <use xlink:href="#LiberationSans-75" transform="translate(937.800781 0)"/>
      <use xlink:href="#LiberationSans-74" transform="translate(993.416016 0)"/>
      <use xlink:href="#LiberationSans-20" transform="translate(1021.199219 0)"/>
      <use xlink:href="#LiberationSans-28" transform="translate(1048.982422 0)"/>
      <use xlink:href="#LiberationSans-4d" transform="translate(1082.283203 0)"/>
      <use xlink:href="#LiberationSans-62" transform="translate(1165.583984 0)"/>
      <use xlink:href="#LiberationSans-2f" transform="translate(1221.199219 0)"/>
      <use xlink:href="#LiberationSans-73" transform="translate(1248.982422 0)"/>
      <use xlink:href="#LiberationSans-29" transform="translate(1298.982422 0)"/>
     </g>
    </g>
   </g>
   <g id="matplotlib.axis_4">
    <g id="ytick_10">
     <g id="line2d_71">
      <path d="M 56.74875 640.033578 
L 849.88875 640.033578 
" clip-path="url(#pff51871098)" style="fill: none; stroke: #ffffff; stroke-opacity: 0.3; stroke-width: 0.8; stroke-linecap: round"/>
     </g>
     <g id="line2d_72"/>
     <g id="text_67">
      <!-- 0.025 -->
      <g style="fill: #262626" transform="translate(22.38625 643.657015) scale(0.1 -0.1)">
       <defs>
        <path id="LiberationSans-2212" d="M 316 1900 
L 316 2356 
L 3425 2356 
L 3425 1900 
L 316 1900 
z
" transform="scale(0.015625)"/>
       </defs>
       <use xlink:href="#LiberationSans-2212"/>
       <use xlink:href="#LiberationSans-30" transform="translate(58.398438 0)"/>
       <use xlink:href="#LiberationSans-2e" transform="translate(114.013672 0)"/>
       <use xlink:href="#LiberationSans-30" transform="translate(141.796875 0)"/>
       <use xlink:href="#LiberationSans-32" transform="translate(197.412109 0)"/>
       <use xlink:href="#LiberationSans-35" transform="translate(253.027344 0)"/>
      </g>
     </g>
    </g>
    <g id="ytick_11">
     <g id="line2d_73">
      <path d="M 56.74875 593.487824 
L 849.88875 593.487824 
" clip-path="url(#pff51871098)" style="fill: none; stroke: #ffffff; stroke-opacity: 0.3; stroke-width: 0.8; stroke-linecap: round"/>
     </g>
     <g id="line2d_74"/>
     <g id="text_68">
      <!-- 0.020 -->
      <g style="fill: #262626" transform="translate(22.38625 597.111261) scale(0.1 -0.1)">
       <use xlink:href="#LiberationSans-2212"/>
       <use xlink:href="#LiberationSans-30" transform="translate(58.398438 0)"/>
       <use xlink:href="#LiberationSans-2e" transform="translate(114.013672 0)"/>
       <use xlink:href="#LiberationSans-30" transform="translate(141.796875 0)"/>
       <use xlink:href="#LiberationSans-32" transform="translate(197.412109 0)"/>
       <use xlink:href="#LiberationSans-30" transform="translate(253.027344 0)"/>
      </g>
     </g>
    </g>
    <g id="ytick_12">
     <g id="line2d_75">
      <path d="M 56.74875 546.94207 
L 849.88875 546.94207 
" clip-path="url(#pff51871098)" style="fill: none; stroke: #ffffff; stroke-opacity: 0.3; stroke-width: 0.8; stroke-linecap: round"/>
     </g>
     <g id="line2d_76"/>
     <g id="text_69">
      <!-- 0.015 -->
      <g style="fill: #262626" transform="translate(22.38625 550.565507) scale(0.1 -0.1)">
       <use xlink:href="#LiberationSans-2212"/>
       <use xlink:href="#LiberationSans-30" transform="translate(58.398438 0)"/>
       <use xlink:href="#LiberationSans-2e" transform="translate(114.013672 0)"/>
       <use xlink:href="#LiberationSans-30" transform="translate(141.796875 0)"/>
       <use xlink:href="#LiberationSans-31" transform="translate(197.412109 0)"/>
       <use xlink:href="#LiberationSans-35" transform="translate(253.027344 0)"/>
      </g>
     </g>
    </g>
    <g id="ytick_13">
     <g id="line2d_77">
      <path d="M 56.74875 500.396316 
L 849.88875 500.396316 
" clip-path="url(#pff51871098)" style="fill: none; stroke: #ffffff; stroke-opacity: 0.3; stroke-width: 0.8; stroke-linecap: round"/>
     </g>
     <g id="line2d_78"/>
     <g id="text_70">
      <!-- 0.010 -->
      <g style="fill: #262626" transform="translate(22.38625 504.019753) scale(0.1 -0.1)">
       <use xlink:href="#LiberationSans-2212"/>
       <use xlink:href="#LiberationSans-30" transform="translate(58.398438 0)"/>
       <use xlink:href="#LiberationSans-2e" transform="translate(114.013672 0)"/>
       <use xlink:href="#LiberationSans-30" transform="translate(141.796875 0)"/>
       <use xlink:href="#LiberationSans-31" transform="translate(197.412109 0)"/>
       <use xlink:href="#LiberationSans-30" transform="translate(253.027344 0)"/>
      </g>
     </g>
    </g>
    <g id="ytick_14">
     <g id="line2d_79">
      <path d="M 56.74875 453.850562 
L 849.88875 453.850562 
" clip-path="url(#pff51871098)" style="fill: none; stroke: #ffffff; stroke-opacity: 0.3; stroke-width: 0.8; stroke-linecap: round"/>
     </g>
     <g id="line2d_80"/>
     <g id="text_71">
      <!-- 0.005 -->
      <g style="fill: #262626" transform="translate(22.38625 457.474) scale(0.1 -0.1)">
       <use xlink:href="#LiberationSans-2212"/>
       <use xlink:href="#LiberationSans-30" transform="translate(58.398438 0)"/>
       <use xlink:href="#LiberationSans-2e" transform="translate(114.013672 0)"/>
       <use xlink:href="#LiberationSans-30" transform="translate(141.796875 0)"/>
       <use xlink:href="#LiberationSans-30" transform="translate(197.412109 0)"/>
       <use xlink:href="#LiberationSans-35" transform="translate(253.027344 0)"/>
      </g>
     </g>
    </g>
    <g id="ytick_15">
     <g id="line2d_81">
      <path d="M 56.74875 407.304808 
L 849.88875 407.304808 
" clip-path="url(#pff51871098)" style="fill: none; stroke: #ffffff; stroke-opacity: 0.3; stroke-width: 0.8; stroke-linecap: round"/>
     </g>
     <g id="line2d_82"/>
     <g id="text_72">
      <!-- 0.000 -->
      <g style="fill: #262626" transform="translate(28.226875 410.928246) scale(0.1 -0.1)">
       <use xlink:href="#LiberationSans-30"/>
       <use xlink:href="#LiberationSans-2e" transform="translate(55.615234 0)"/>
       <use xlink:href="#LiberationSans-30" transform="translate(83.398438 0)"/>
       <use xlink:href="#LiberationSans-30" transform="translate(139.013672 0)"/>
       <use xlink:href="#LiberationSans-30" transform="translate(194.628906 0)"/>
      </g>
     </g>
    </g>
    <g id="text_73">
     <!-- Relative Difference (%) -->
     <g style="fill: #262626" transform="translate(15.89625 579.292002) rotate(-90) scale(0.12 -0.12)">
      <defs>
       <path id="LiberationSans-6c" d="M 431 0 
L 431 4638 
L 994 4638 
L 994 0 
L 431 0 
z
" transform="scale(0.015625)"/>
       <path id="LiberationSans-69" d="M 428 4100 
L 428 4638 
L 991 4638 
L 991 4100 
L 428 4100 
z
M 428 0 
L 428 3381 
L 991 3381 
L 991 0 
L 428 0 
z
" transform="scale(0.015625)"/>
       <path id="LiberationSans-76" d="M 1916 0 
L 1250 0 
L 22 3381 
L 622 3381 
L 1366 1181 
Q 1406 1056 1581 441 
L 1691 806 
L 1813 1175 
L 2581 3381 
L 3178 3381 
L 1916 0 
z
" transform="scale(0.015625)"/>
       <path id="LiberationSans-44" d="M 4316 2247 
Q 4316 1566 4050 1055 
Q 3784 544 3296 272 
Q 2809 0 2172 0 
L 525 0 
L 525 4403 
L 1981 4403 
Q 3100 4403 3708 3842 
Q 4316 3281 4316 2247 
z
M 3716 2247 
Q 3716 3066 3267 3495 
Q 2819 3925 1969 3925 
L 1122 3925 
L 1122 478 
L 2103 478 
Q 2588 478 2955 690 
Q 3322 903 3519 1303 
Q 3716 1703 3716 2247 
z
" transform="scale(0.015625)"/>
       <path id="LiberationSans-66" d="M 1128 2972 
L 1128 0 
L 566 0 
L 566 2972 
L 91 2972 
L 91 3381 
L 566 3381 
L 566 3763 
Q 566 4225 769 4428 
Q 972 4631 1391 4631 
Q 1625 4631 1788 4594 
L 1788 4166 
Q 1647 4191 1538 4191 
Q 1322 4191 1225 4081 
Q 1128 3972 1128 3684 
L 1128 3381 
L 1788 3381 
L 1788 2972 
L 1128 2972 
z
" transform="scale(0.015625)"/>
       <path id="LiberationSans-6e" d="M 2578 0 
L 2578 2144 
Q 2578 2478 2512 2662 
Q 2447 2847 2303 2928 
Q 2159 3009 1881 3009 
Q 1475 3009 1240 2731 
Q 1006 2453 1006 1959 
L 1006 0 
L 444 0 
L 444 2659 
Q 444 3250 425 3381 
L 956 3381 
Q 959 3366 962 3297 
Q 966 3228 970 3139 
Q 975 3050 981 2803 
L 991 2803 
Q 1184 3153 1439 3298 
Q 1694 3444 2072 3444 
Q 2628 3444 2886 3167 
Q 3144 2891 3144 2253 
L 3144 0 
L 2578 0 
z
" transform="scale(0.015625)"/>
       <path id="LiberationSans-25" d="M 5463 1356 
Q 5463 684 5209 323 
Q 4956 -38 4463 -38 
Q 3975 -38 3726 314 
Q 3478 666 3478 1356 
Q 3478 2069 3717 2417 
Q 3956 2766 4475 2766 
Q 4988 2766 5225 2408 
Q 5463 2050 5463 1356 
z
M 1647 0 
L 1163 0 
L 4044 4403 
L 4534 4403 
L 1647 0 
z
M 1231 4441 
Q 1728 4441 1968 4091 
Q 2209 3741 2209 3047 
Q 2209 2369 1961 2003 
Q 1713 1638 1219 1638 
Q 725 1638 476 2000 
Q 228 2363 228 3047 
Q 228 3744 468 4092 
Q 709 4441 1231 4441 
z
M 5000 1356 
Q 5000 1916 4879 2167 
Q 4759 2419 4475 2419 
Q 4191 2419 4064 2172 
Q 3938 1925 3938 1356 
Q 3938 822 4061 564 
Q 4184 306 4469 306 
Q 4744 306 4872 567 
Q 5000 828 5000 1356 
z
M 1750 3047 
Q 1750 3597 1631 3850 
Q 1513 4103 1231 4103 
Q 938 4103 813 3854 
Q 688 3606 688 3047 
Q 688 2506 813 2248 
Q 938 1991 1225 1991 
Q 1497 1991 1623 2253 
Q 1750 2516 1750 3047 
z
" transform="scale(0.015625)"/>
      </defs>
      <use xlink:href="#LiberationSans-52"/>
      <use xlink:href="#LiberationSans-65" transform="translate(72.216797 0)"/>
      <use xlink:href="#LiberationSans-6c" transform="translate(127.832031 0)"/>
      <use xlink:href="#LiberationSans-61" transform="translate(150.048828 0)"/>
      <use xlink:href="#LiberationSans-74" transform="translate(205.664062 0)"/>
      <use xlink:href="#LiberationSans-69" transform="translate(233.447266 0)"/>
      <use xlink:href="#LiberationSans-76" transform="translate(255.664062 0)"/>
      <use xlink:href="#LiberationSans-65" transform="translate(305.664062 0)"/>
      <use xlink:href="#LiberationSans-20" transform="translate(361.279297 0)"/>
      <use xlink:href="#LiberationSans-44" transform="translate(389.0625 0)"/>
      <use xlink:href="#LiberationSans-69" transform="translate(461.279297 0)"/>
      <use xlink:href="#LiberationSans-66" transform="translate(483.496094 0)"/>
      <use xlink:href="#LiberationSans-66" transform="translate(509.529297 0)"/>
      <use xlink:href="#LiberationSans-65" transform="translate(537.3125 0)"/>
      <use xlink:href="#LiberationSans-72" transform="translate(592.927734 0)"/>
      <use xlink:href="#LiberationSans-65" transform="translate(626.228516 0)"/>
      <use xlink:href="#LiberationSans-6e" transform="translate(681.84375 0)"/>
      <use xlink:href="#LiberationSans-63" transform="translate(737.458984 0)"/>
      <use xlink:href="#LiberationSans-65" transform="translate(787.458984 0)"/>
      <use xlink:href="#LiberationSans-20" transform="translate(843.074219 0)"/>
      <use xlink:href="#LiberationSans-28" transform="translate(870.857422 0)"/>
      <use xlink:href="#LiberationSans-25" transform="translate(904.158203 0)"/>
      <use xlink:href="#LiberationSans-29" transform="translate(993.074219 0)"/>
     </g>
    </g>
   </g>
   <g id="patch_36">
    <path d="M 92.800568 407.304808 
L 137.865341 407.304808 
L 137.865341 407.304808 
L 92.800568 407.304808 
z
" clip-path="url(#pff51871098)" style="fill: #27ae60; opacity: 0.8"/>
   </g>
   <g id="patch_37">
    <path d="M 149.131534 407.304808 
L 194.196307 407.304808 
L 194.196307 407.304808 
L 149.131534 407.304808 
z
" clip-path="url(#pff51871098)" style="fill: #27ae60; opacity: 0.8"/>
   </g>
   <g id="patch_38">
    <path d="M 205.4625 407.304808 
L 250.527273 407.304808 
L 250.527273 407.304808 
L 205.4625 407.304808 
z
" clip-path="url(#pff51871098)" style="fill: #27ae60; opacity: 0.8"/>
   </g>
   <g id="patch_39">
    <path d="M 261.793466 407.304808 
L 306.858239 407.304808 
L 306.858239 411.85656 
L 261.793466 411.85656 
z
" clip-path="url(#pff51871098)" style="fill: #e67e22; opacity: 0.8"/>
   </g>
   <g id="patch_40">
    <path d="M 318.124432 407.304808 
L 363.189205 407.304808 
L 363.189205 417.546149 
L 318.124432 417.546149 
z
" clip-path="url(#pff51871098)" style="fill: #e67e22; opacity: 0.8"/>
   </g>
   <g id="patch_41">
    <path d="M 374.455398 407.304808 
L 419.52017 407.304808 
L 419.52017 410.718545 
L 374.455398 410.718545 
z
" clip-path="url(#pff51871098)" style="fill: #e67e22; opacity: 0.8"/>
   </g>
   <g id="patch_42">
    <path d="M 430.786364 407.304808 
L 475.851136 407.304808 
L 475.851136 393.364853 
L 430.786364 393.364853 
z
" clip-path="url(#pff51871098)" style="fill: #27ae60; opacity: 0.8"/>
   </g>
   <g id="patch_43">
    <path d="M 487.11733 407.304808 
L 532.182102 407.304808 
L 532.182102 398.884062 
L 487.11733 398.884062 
z
" clip-path="url(#pff51871098)" style="fill: #27ae60; opacity: 0.8"/>
   </g>
   <g id="patch_44">
    <path d="M 543.448295 407.304808 
L 588.513068 407.304808 
L 588.513068 383.597142 
L 543.448295 383.597142 
z
" clip-path="url(#pff51871098)" style="fill: #27ae60; opacity: 0.8"/>
   </g>
   <g id="patch_45">
    <path d="M 599.779261 407.304808 
L 644.844034 407.304808 
L 644.844034 419.33451 
L 599.779261 419.33451 
z
" clip-path="url(#pff51871098)" style="fill: #e67e22; opacity: 0.8"/>
   </g>
   <g id="patch_46">
    <path d="M 656.110227 407.304808 
L 701.175 407.304808 
L 701.175 411.429847 
L 656.110227 411.429847 
z
" clip-path="url(#pff51871098)" style="fill: #e67e22; opacity: 0.8"/>
   </g>
   <g id="patch_47">
    <path d="M 712.441193 407.304808 
L 757.505966 407.304808 
L 757.505966 406.419751 
L 712.441193 406.419751 
z
" clip-path="url(#pff51871098)" style="fill: #27ae60; opacity: 0.8"/>
   </g>
   <g id="patch_48">
    <path d="M 768.772159 407.304808 
L 813.836932 407.304808 
L 813.836932 651.827488 
L 768.772159 651.827488 
z
" clip-path="url(#pff51871098)" style="fill: #e67e22; opacity: 0.8"/>
   </g>
   <g id="line2d_83">
    <path d="M 56.74875 407.304808 
L 849.88875 407.304808 
" clip-path="url(#pff51871098)" style="fill: none; stroke: #000000; stroke-width: 0.5; stroke-linecap: round"/>
   </g>
   <g id="patch_49">
    <path d="M 56.74875 665.239005 
L 56.74875 370.185625 
" style="fill: none"/>
   </g>
   <g id="patch_50">
    <path d="M 849.88875 665.239005 
L 849.88875 370.185625 
" style="fill: none"/>
   </g>
   <g id="patch_51">
    <path d="M 56.74875 665.239005 
L 849.88875 665.239005 
" style="fill: none"/>
   </g>
   <g id="patch_52">
    <path d="M 56.74875 370.185625 
L 849.88875 370.185625 
" style="fill: none"/>
   </g>
   <g id="text_74">
    <!-- Relative Difference (PNK vs C SIM) -->
    <g style="fill: #262626" transform="translate(358.73625 364.185625) scale(0.12 -0.12)">
     <use xlink:href="#LiberationSans-52"/>
     <use xlink:href="#LiberationSans-65" transform="translate(72.216797 0)"/>
     <use xlink:href="#LiberationSans-6c" transform="translate(127.832031 0)"/>
     <use xlink:href="#LiberationSans-61" transform="translate(150.048828 0)"/>
     <use xlink:href="#LiberationSans-74" transform="translate(205.664062 0)"/>
     <use xlink:href="#LiberationSans-69" transform="translate(233.447266 0)"/>
     <use xlink:href="#LiberationSans-76" transform="translate(255.664062 0)"/>
     <use xlink:href="#LiberationSans-65" transform="translate(305.664062 0)"/>
     <use xlink:href="#LiberationSans-20" transform="translate(361.279297 0)"/>
     <use xlink:href="#LiberationSans-44" transform="translate(389.0625 0)"/>
     <use xlink:href="#LiberationSans-69" transform="translate(461.279297 0)"/>
     <use xlink:href="#LiberationSans-66" transform="translate(483.496094 0)"/>
     <use xlink:href="#LiberationSans-66" transform="translate(509.529297 0)"/>
     <use xlink:href="#LiberationSans-65" transform="translate(537.3125 0)"/>
     <use xlink:href="#LiberationSans-72" transform="translate(592.927734 0)"/>
     <use xlink:href="#LiberationSans-65" transform="translate(626.228516 0)"/>
     <use xlink:href="#LiberationSans-6e" transform="translate(681.84375 0)"/>
     <use xlink:href="#LiberationSans-63" transform="translate(737.458984 0)"/>
     <use xlink:href="#LiberationSans-65" transform="translate(787.458984 0)"/>
     <use xlink:href="#LiberationSans-20" transform="translate(843.074219 0)"/>
     <use xlink:href="#LiberationSans-28" transform="translate(870.857422 0)"/>
     <use xlink:href="#LiberationSans-50" transform="translate(904.158203 0)"/>
     <use xlink:href="#LiberationSans-4e" transform="translate(970.857422 0)"/>
     <use xlink:href="#LiberationSans-4b" transform="translate(1043.074219 0)"/>
     <use xlink:href="#LiberationSans-20" transform="translate(1109.773438 0)"/>
     <use xlink:href="#LiberationSans-76" transform="translate(1137.556641 0)"/>
     <use xlink:href="#LiberationSans-73" transform="translate(1187.556641 0)"/>
     <use xlink:href="#LiberationSans-20" transform="translate(1237.556641 0)"/>
     <use xlink:href="#LiberationSans-43" transform="translate(1265.339844 0)"/>
     <use xlink:href="#LiberationSans-20" transform="translate(1337.556641 0)"/>
     <use xlink:href="#LiberationSans-53" transform="translate(1365.339844 0)"/>
     <use xlink:href="#LiberationSans-49" transform="translate(1432.039062 0)"/>
     <use xlink:href="#LiberationSans-4d" transform="translate(1459.822266 0)"/>
     <use xlink:href="#LiberationSans-29" transform="translate(1543.123047 0)"/>
    </g>
   </g>
  </g>
 </g>
 <defs>
  <clipPath id="pc24fff0ed3">
   <rect x="56.74875" y="23.345625" width="793.14" height="295.05338"/>
  </clipPath>
  <clipPath id="pff51871098">
   <rect x="56.74875" y="370.185625" width="793.14" height="295.05338"/>
  </clipPath>
 </defs>
</svg>
