<?xml version="1.0" encoding="utf-8" standalone="no"?>
<!DOCTYPE svg PUBLIC "-//W3C//DTD SVG 1.1//EN"
  "http://www.w3.org/Graphics/SVG/1.1/DTD/svg11.dtd">
<svg xmlns:xlink="http://www.w3.org/1999/xlink" width="1124.968437pt" height="836.975996pt" viewBox="0 0 1124.968437 836.975996" xmlns="http://www.w3.org/2000/svg" version="1.1">
 <metadata>
  <rdf:RDF xmlns:dc="http://purl.org/dc/elements/1.1/" xmlns:cc="http://creativecommons.org/ns#" xmlns:rdf="http://www.w3.org/1999/02/22-rdf-syntax-ns#">
   <cc:Work>
    <dc:type rdf:resource="http://purl.org/dc/dcmitype/StillImage"/>
    <dc:date>2025-08-16T18:32:45.100691</dc:date>
    <dc:format>image/svg+xml</dc:format>
    <dc:creator>
     <cc:Agent>
      <dc:title>Matplotlib v3.10.5, https://matplotlib.org/</dc:title>
     </cc:Agent>
    </dc:creator>
   </cc:Work>
  </rdf:RDF>
 </metadata>
 <defs>
  <style type="text/css">*{stroke-linejoin: round; stroke-linecap: butt}</style>
 </defs>
 <g id="figure_1">
  <g id="patch_1">
   <path d="M 0 836.975996 
L 1124.968437 836.975996 
L 1124.968437 0 
L 0 0 
z
" style="fill: #ffffff"/>
  </g>
  <g id="axes_1">
   <g id="patch_2">
    <path d="M 58.275 778.873198 
L 1072.745 778.873198 
L 1072.745 31.43625 
L 58.275 31.43625 
z
" style="fill: #ffffff"/>
   </g>
   <g id="matplotlib.axis_1">
    <g id="xtick_1">
     <g id="line2d_1">
      <path d="M 131.512139 778.873198 
L 131.512139 31.43625 
" clip-path="url(#pc10493883b)" style="fill: none; stroke: #cccccc; stroke-opacity: 0.3; stroke-width: 0.5; stroke-linecap: round"/>
     </g>
     <g id="line2d_2"/>
     <g id="text_1">
      <!-- 10 -->
      <g style="fill: #262626" transform="translate(129.225091 796.297677) rotate(-45) scale(0.1 -0.1)">
       <defs>
        <path id="DejaVuSansMono-31" d="M 844 531 
L 1825 531 
L 1825 4097 
L 769 3859 
L 769 4434 
L 1819 4666 
L 2450 4666 
L 2450 531 
L 3419 531 
L 3419 0 
L 844 0 
L 844 531 
z
" transform="scale(0.015625)"/>
        <path id="DejaVuSansMono-30" d="M 1509 2344 
Q 1509 2516 1629 2641 
Q 1750 2766 1919 2766 
Q 2094 2766 2219 2641 
Q 2344 2516 2344 2344 
Q 2344 2169 2220 2047 
Q 2097 1925 1919 1925 
Q 1744 1925 1626 2044 
Q 1509 2163 1509 2344 
z
M 1925 4250 
Q 1484 4250 1267 3775 
Q 1050 3300 1050 2328 
Q 1050 1359 1267 884 
Q 1484 409 1925 409 
Q 2369 409 2586 884 
Q 2803 1359 2803 2328 
Q 2803 3300 2586 3775 
Q 2369 4250 1925 4250 
z
M 1925 4750 
Q 2672 4750 3055 4137 
Q 3438 3525 3438 2328 
Q 3438 1134 3055 521 
Q 2672 -91 1925 -91 
Q 1178 -91 797 521 
Q 416 1134 416 2328 
Q 416 3525 797 4137 
Q 1178 4750 1925 4750 
z
" transform="scale(0.015625)"/>
       </defs>
       <use xlink:href="#DejaVuSansMono-31"/>
       <use xlink:href="#DejaVuSansMono-30" transform="translate(60.205078 0)"/>
      </g>
     </g>
    </g>
    <g id="xtick_2">
     <g id="line2d_3">
      <path d="M 203.845116 778.873198 
L 203.845116 31.43625 
" clip-path="url(#pc10493883b)" style="fill: none; stroke: #cccccc; stroke-opacity: 0.3; stroke-width: 0.5; stroke-linecap: round"/>
     </g>
     <g id="line2d_4"/>
     <g id="text_2">
      <!-- 20 -->
      <g style="fill: #262626" transform="translate(201.558067 796.297677) rotate(-45) scale(0.1 -0.1)">
       <defs>
        <path id="DejaVuSansMono-32" d="M 1166 531 
L 3309 531 
L 3309 0 
L 475 0 
L 475 531 
Q 1059 1147 1496 1619 
Q 1934 2091 2100 2284 
Q 2413 2666 2522 2902 
Q 2631 3138 2631 3384 
Q 2631 3775 2401 3997 
Q 2172 4219 1772 4219 
Q 1488 4219 1175 4116 
Q 863 4013 513 3803 
L 513 4441 
Q 834 4594 1145 4672 
Q 1456 4750 1759 4750 
Q 2444 4750 2861 4386 
Q 3278 4022 3278 3431 
Q 3278 3131 3139 2831 
Q 3000 2531 2688 2169 
Q 2513 1966 2180 1606 
Q 1847 1247 1166 531 
z
" transform="scale(0.015625)"/>
       </defs>
       <use xlink:href="#DejaVuSansMono-32"/>
       <use xlink:href="#DejaVuSansMono-30" transform="translate(60.205078 0)"/>
      </g>
     </g>
    </g>
    <g id="xtick_3">
     <g id="line2d_5">
      <path d="M 276.178093 778.873198 
L 276.178093 31.43625 
" clip-path="url(#pc10493883b)" style="fill: none; stroke: #cccccc; stroke-opacity: 0.3; stroke-width: 0.5; stroke-linecap: round"/>
     </g>
     <g id="line2d_6"/>
     <g id="text_3">
      <!-- 50 -->
      <g style="fill: #262626" transform="translate(273.891044 796.297677) rotate(-45) scale(0.1 -0.1)">
       <defs>
        <path id="DejaVuSansMono-35" d="M 647 4666 
L 3009 4666 
L 3009 4134 
L 1222 4134 
L 1222 2988 
Q 1356 3038 1492 3061 
Q 1628 3084 1766 3084 
Q 2491 3084 2916 2656 
Q 3341 2228 3341 1497 
Q 3341 759 2895 334 
Q 2450 -91 1678 -91 
Q 1306 -91 998 -41 
Q 691 9 447 109 
L 447 750 
Q 734 594 1025 517 
Q 1316 441 1619 441 
Q 2141 441 2423 716 
Q 2706 991 2706 1497 
Q 2706 1997 2414 2275 
Q 2122 2553 1600 2553 
Q 1347 2553 1106 2495 
Q 866 2438 647 2322 
L 647 4666 
z
" transform="scale(0.015625)"/>
       </defs>
       <use xlink:href="#DejaVuSansMono-35"/>
       <use xlink:href="#DejaVuSansMono-30" transform="translate(60.205078 0)"/>
      </g>
     </g>
    </g>
    <g id="xtick_4">
     <g id="line2d_7">
      <path d="M 348.51107 778.873198 
L 348.51107 31.43625 
" clip-path="url(#pc10493883b)" style="fill: none; stroke: #cccccc; stroke-opacity: 0.3; stroke-width: 0.5; stroke-linecap: round"/>
     </g>
     <g id="line2d_8"/>
     <g id="text_4">
      <!-- 100 -->
      <g style="fill: #262626" transform="translate(344.095519 800.554681) rotate(-45) scale(0.1 -0.1)">
       <use xlink:href="#DejaVuSansMono-31"/>
       <use xlink:href="#DejaVuSansMono-30" transform="translate(60.205078 0)"/>
       <use xlink:href="#DejaVuSansMono-30" transform="translate(120.410156 0)"/>
      </g>
     </g>
    </g>
    <g id="xtick_5">
     <g id="line2d_9">
      <path d="M 420.844046 778.873198 
L 420.844046 31.43625 
" clip-path="url(#pc10493883b)" style="fill: none; stroke: #cccccc; stroke-opacity: 0.3; stroke-width: 0.5; stroke-linecap: round"/>
     </g>
     <g id="line2d_10"/>
     <g id="text_5">
      <!-- 200 -->
      <g style="fill: #262626" transform="translate(416.428496 800.554681) rotate(-45) scale(0.1 -0.1)">
       <use xlink:href="#DejaVuSansMono-32"/>
       <use xlink:href="#DejaVuSansMono-30" transform="translate(60.205078 0)"/>
       <use xlink:href="#DejaVuSansMono-30" transform="translate(120.410156 0)"/>
      </g>
     </g>
    </g>
    <g id="xtick_6">
     <g id="line2d_11">
      <path d="M 493.177023 778.873198 
L 493.177023 31.43625 
" clip-path="url(#pc10493883b)" style="fill: none; stroke: #cccccc; stroke-opacity: 0.3; stroke-width: 0.5; stroke-linecap: round"/>
     </g>
     <g id="line2d_12"/>
     <g id="text_6">
      <!-- 300 -->
      <g style="fill: #262626" transform="translate(488.761473 800.554681) rotate(-45) scale(0.1 -0.1)">
       <defs>
        <path id="DejaVuSansMono-33" d="M 2425 2497 
Q 2884 2375 3128 2064 
Q 3372 1753 3372 1288 
Q 3372 644 2939 276 
Q 2506 -91 1741 -91 
Q 1419 -91 1084 -31 
Q 750 28 428 141 
L 428 769 
Q 747 603 1056 522 
Q 1366 441 1672 441 
Q 2191 441 2469 675 
Q 2747 909 2747 1350 
Q 2747 1756 2469 1995 
Q 2191 2234 1716 2234 
L 1234 2234 
L 1234 2753 
L 1716 2753 
Q 2150 2753 2394 2943 
Q 2638 3134 2638 3475 
Q 2638 3834 2411 4026 
Q 2184 4219 1766 4219 
Q 1488 4219 1191 4156 
Q 894 4094 569 3969 
L 569 4550 
Q 947 4650 1242 4700 
Q 1538 4750 1766 4750 
Q 2447 4750 2855 4408 
Q 3263 4066 3263 3500 
Q 3263 3116 3048 2859 
Q 2834 2603 2425 2497 
z
" transform="scale(0.015625)"/>
       </defs>
       <use xlink:href="#DejaVuSansMono-33"/>
       <use xlink:href="#DejaVuSansMono-30" transform="translate(60.205078 0)"/>
       <use xlink:href="#DejaVuSansMono-30" transform="translate(120.410156 0)"/>
      </g>
     </g>
    </g>
    <g id="xtick_7">
     <g id="line2d_13">
      <path d="M 565.51 778.873198 
L 565.51 31.43625 
" clip-path="url(#pc10493883b)" style="fill: none; stroke: #cccccc; stroke-opacity: 0.3; stroke-width: 0.5; stroke-linecap: round"/>
     </g>
     <g id="line2d_14"/>
     <g id="text_7">
      <!-- 400 -->
      <g style="fill: #262626" transform="translate(561.09445 800.554681) rotate(-45) scale(0.1 -0.1)">
       <defs>
        <path id="DejaVuSansMono-34" d="M 2297 4091 
L 825 1625 
L 2297 1625 
L 2297 4091 
z
M 2194 4666 
L 2925 4666 
L 2925 1625 
L 3547 1625 
L 3547 1113 
L 2925 1113 
L 2925 0 
L 2297 0 
L 2297 1113 
L 319 1113 
L 319 1709 
L 2194 4666 
z
" transform="scale(0.015625)"/>
       </defs>
       <use xlink:href="#DejaVuSansMono-34"/>
       <use xlink:href="#DejaVuSansMono-30" transform="translate(60.205078 0)"/>
       <use xlink:href="#DejaVuSansMono-30" transform="translate(120.410156 0)"/>
      </g>
     </g>
    </g>
    <g id="xtick_8">
     <g id="line2d_15">
      <path d="M 637.842977 778.873198 
L 637.842977 31.43625 
" clip-path="url(#pc10493883b)" style="fill: none; stroke: #cccccc; stroke-opacity: 0.3; stroke-width: 0.5; stroke-linecap: round"/>
     </g>
     <g id="line2d_16"/>
     <g id="text_8">
      <!-- 500 -->
      <g style="fill: #262626" transform="translate(633.427426 800.554681) rotate(-45) scale(0.1 -0.1)">
       <use xlink:href="#DejaVuSansMono-35"/>
       <use xlink:href="#DejaVuSansMono-30" transform="translate(60.205078 0)"/>
       <use xlink:href="#DejaVuSansMono-30" transform="translate(120.410156 0)"/>
      </g>
     </g>
    </g>
    <g id="xtick_9">
     <g id="line2d_17">
      <path d="M 710.175954 778.873198 
L 710.175954 31.43625 
" clip-path="url(#pc10493883b)" style="fill: none; stroke: #cccccc; stroke-opacity: 0.3; stroke-width: 0.5; stroke-linecap: round"/>
     </g>
     <g id="line2d_18"/>
     <g id="text_9">
      <!-- 600 -->
      <g style="fill: #262626" transform="translate(705.760403 800.554681) rotate(-45) scale(0.1 -0.1)">
       <defs>
        <path id="DejaVuSansMono-36" d="M 3097 4563 
L 3097 3981 
Q 2900 4097 2678 4158 
Q 2456 4219 2216 4219 
Q 1616 4219 1306 3767 
Q 997 3316 997 2438 
Q 1147 2750 1412 2917 
Q 1678 3084 2022 3084 
Q 2697 3084 3067 2670 
Q 3438 2256 3438 1497 
Q 3438 741 3056 325 
Q 2675 -91 1984 -91 
Q 1172 -91 794 492 
Q 416 1075 416 2328 
Q 416 3509 870 4129 
Q 1325 4750 2188 4750 
Q 2419 4750 2650 4701 
Q 2881 4653 3097 4563 
z
M 1972 2591 
Q 1569 2591 1337 2300 
Q 1106 2009 1106 1497 
Q 1106 984 1337 693 
Q 1569 403 1972 403 
Q 2391 403 2603 679 
Q 2816 956 2816 1497 
Q 2816 2041 2603 2316 
Q 2391 2591 1972 2591 
z
" transform="scale(0.015625)"/>
       </defs>
       <use xlink:href="#DejaVuSansMono-36"/>
       <use xlink:href="#DejaVuSansMono-30" transform="translate(60.205078 0)"/>
       <use xlink:href="#DejaVuSansMono-30" transform="translate(120.410156 0)"/>
      </g>
     </g>
    </g>
    <g id="xtick_10">
     <g id="line2d_19">
      <path d="M 782.50893 778.873198 
L 782.50893 31.43625 
" clip-path="url(#pc10493883b)" style="fill: none; stroke: #cccccc; stroke-opacity: 0.3; stroke-width: 0.5; stroke-linecap: round"/>
     </g>
     <g id="line2d_20"/>
     <g id="text_10">
      <!-- 700 -->
      <g style="fill: #262626" transform="translate(778.09338 800.554681) rotate(-45) scale(0.1 -0.1)">
       <defs>
        <path id="DejaVuSansMono-37" d="M 434 4666 
L 3372 4666 
L 3372 4397 
L 1703 0 
L 1044 0 
L 2669 4134 
L 434 4134 
L 434 4666 
z
" transform="scale(0.015625)"/>
       </defs>
       <use xlink:href="#DejaVuSansMono-37"/>
       <use xlink:href="#DejaVuSansMono-30" transform="translate(60.205078 0)"/>
       <use xlink:href="#DejaVuSansMono-30" transform="translate(120.410156 0)"/>
      </g>
     </g>
    </g>
    <g id="xtick_11">
     <g id="line2d_21">
      <path d="M 854.841907 778.873198 
L 854.841907 31.43625 
" clip-path="url(#pc10493883b)" style="fill: none; stroke: #cccccc; stroke-opacity: 0.3; stroke-width: 0.5; stroke-linecap: round"/>
     </g>
     <g id="line2d_22"/>
     <g id="text_11">
      <!-- 800 -->
      <g style="fill: #262626" transform="translate(850.426357 800.554681) rotate(-45) scale(0.1 -0.1)">
       <defs>
        <path id="DejaVuSansMono-38" d="M 1925 2216 
Q 1503 2216 1273 1980 
Q 1044 1744 1044 1313 
Q 1044 881 1276 642 
Q 1509 403 1925 403 
Q 2350 403 2579 639 
Q 2809 875 2809 1313 
Q 2809 1741 2576 1978 
Q 2344 2216 1925 2216 
z
M 1375 2478 
Q 972 2581 745 2862 
Q 519 3144 519 3541 
Q 519 4097 897 4423 
Q 1275 4750 1925 4750 
Q 2578 4750 2956 4423 
Q 3334 4097 3334 3541 
Q 3334 3144 3107 2862 
Q 2881 2581 2478 2478 
Q 2947 2375 3195 2062 
Q 3444 1750 3444 1253 
Q 3444 622 3041 265 
Q 2638 -91 1925 -91 
Q 1213 -91 811 264 
Q 409 619 409 1247 
Q 409 1747 657 2061 
Q 906 2375 1375 2478 
z
M 1147 3481 
Q 1147 3106 1347 2909 
Q 1547 2713 1925 2713 
Q 2306 2713 2506 2909 
Q 2706 3106 2706 3481 
Q 2706 3863 2507 4063 
Q 2309 4263 1925 4263 
Q 1547 4263 1347 4061 
Q 1147 3859 1147 3481 
z
" transform="scale(0.015625)"/>
       </defs>
       <use xlink:href="#DejaVuSansMono-38"/>
       <use xlink:href="#DejaVuSansMono-30" transform="translate(60.205078 0)"/>
       <use xlink:href="#DejaVuSansMono-30" transform="translate(120.410156 0)"/>
      </g>
     </g>
    </g>
    <g id="xtick_12">
     <g id="line2d_23">
      <path d="M 927.174884 778.873198 
L 927.174884 31.43625 
" clip-path="url(#pc10493883b)" style="fill: none; stroke: #cccccc; stroke-opacity: 0.3; stroke-width: 0.5; stroke-linecap: round"/>
     </g>
     <g id="line2d_24"/>
     <g id="text_12">
      <!-- 900 -->
      <g style="fill: #262626" transform="translate(922.759334 800.554681) rotate(-45) scale(0.1 -0.1)">
       <defs>
        <path id="DejaVuSansMono-39" d="M 1863 2069 
Q 2266 2069 2495 2359 
Q 2725 2650 2725 3163 
Q 2725 3675 2495 3965 
Q 2266 4256 1863 4256 
Q 1444 4256 1231 3979 
Q 1019 3703 1019 3163 
Q 1019 2619 1230 2344 
Q 1441 2069 1863 2069 
z
M 738 97 
L 738 678 
Q 934 563 1156 502 
Q 1378 441 1619 441 
Q 2219 441 2526 892 
Q 2834 1344 2834 2222 
Q 2688 1909 2422 1742 
Q 2156 1575 1813 1575 
Q 1138 1575 767 1990 
Q 397 2406 397 3169 
Q 397 3922 776 4336 
Q 1156 4750 1850 4750 
Q 2663 4750 3041 4165 
Q 3419 3581 3419 2328 
Q 3419 1150 2964 529 
Q 2509 -91 1644 -91 
Q 1416 -91 1184 -42 
Q 953 6 738 97 
z
" transform="scale(0.015625)"/>
       </defs>
       <use xlink:href="#DejaVuSansMono-39"/>
       <use xlink:href="#DejaVuSansMono-30" transform="translate(60.205078 0)"/>
       <use xlink:href="#DejaVuSansMono-30" transform="translate(120.410156 0)"/>
      </g>
     </g>
    </g>
    <g id="xtick_13">
     <g id="line2d_25">
      <path d="M 999.507861 778.873198 
L 999.507861 31.43625 
" clip-path="url(#pc10493883b)" style="fill: none; stroke: #cccccc; stroke-opacity: 0.3; stroke-width: 0.5; stroke-linecap: round"/>
     </g>
     <g id="line2d_26"/>
     <g id="text_13">
      <!-- 1000 -->
      <g style="fill: #262626" transform="translate(992.963809 804.811685) rotate(-45) scale(0.1 -0.1)">
       <use xlink:href="#DejaVuSansMono-31"/>
       <use xlink:href="#DejaVuSansMono-30" transform="translate(60.205078 0)"/>
       <use xlink:href="#DejaVuSansMono-30" transform="translate(120.410156 0)"/>
       <use xlink:href="#DejaVuSansMono-30" transform="translate(180.615234 0)"/>
      </g>
     </g>
    </g>
    <g id="text_14">
     <!-- Requested Throughput (Mb/s) -->
     <g style="fill: #262626" transform="translate(402.961563 825.479121) scale(0.2 -0.2)">
      <defs>
       <path id="DejaVuSansMono-52" d="M 2375 2203 
Q 2619 2141 2791 1967 
Q 2963 1794 3219 1275 
L 3853 0 
L 3175 0 
L 2619 1178 
Q 2378 1681 2186 1826 
Q 1994 1972 1684 1972 
L 1081 1972 
L 1081 0 
L 447 0 
L 447 4666 
L 1747 4666 
Q 2516 4666 2925 4319 
Q 3334 3972 3334 3316 
Q 3334 2853 3082 2561 
Q 2831 2269 2375 2203 
z
M 1081 4147 
L 1081 2491 
L 1772 2491 
Q 2225 2491 2447 2694 
Q 2669 2897 2669 3316 
Q 2669 3719 2433 3933 
Q 2197 4147 1747 4147 
L 1081 4147 
z
" transform="scale(0.015625)"/>
       <path id="DejaVuSansMono-65" d="M 3475 1894 
L 3475 1613 
L 984 1613 
L 984 1594 
Q 984 1022 1282 709 
Q 1581 397 2125 397 
Q 2400 397 2700 484 
Q 3000 572 3341 750 
L 3341 178 
Q 3013 44 2708 -23 
Q 2403 -91 2119 -91 
Q 1303 -91 843 398 
Q 384 888 384 1747 
Q 384 2584 834 3084 
Q 1284 3584 2034 3584 
Q 2703 3584 3089 3131 
Q 3475 2678 3475 1894 
z
M 2900 2063 
Q 2888 2569 2661 2833 
Q 2434 3097 2009 3097 
Q 1594 3097 1325 2822 
Q 1056 2547 1006 2059 
L 2900 2063 
z
" transform="scale(0.015625)"/>
       <path id="DejaVuSansMono-71" d="M 1038 1734 
Q 1038 1066 1248 725 
Q 1459 384 1875 384 
Q 2291 384 2505 726 
Q 2719 1069 2719 1734 
Q 2719 2400 2505 2742 
Q 2291 3084 1875 3084 
Q 1459 3084 1248 2743 
Q 1038 2403 1038 1734 
z
M 2719 434 
Q 2578 175 2339 36 
Q 2100 -103 1784 -103 
Q 1156 -103 792 383 
Q 428 869 428 1722 
Q 428 2591 790 3081 
Q 1153 3572 1784 3572 
Q 2097 3572 2336 3436 
Q 2575 3300 2719 3041 
L 2719 3488 
L 3297 3488 
L 3297 -1344 
L 2719 -1344 
L 2719 434 
z
" transform="scale(0.015625)"/>
       <path id="DejaVuSansMono-75" d="M 609 1325 
L 609 3494 
L 1184 3494 
L 1184 1325 
Q 1184 853 1351 631 
Q 1519 409 1869 409 
Q 2275 409 2490 695 
Q 2706 981 2706 1516 
L 2706 3494 
L 3284 3494 
L 3284 0 
L 2706 0 
L 2706 525 
Q 2553 222 2289 65 
Q 2025 -91 1672 -91 
Q 1134 -91 871 261 
Q 609 613 609 1325 
z
" transform="scale(0.015625)"/>
       <path id="DejaVuSansMono-73" d="M 3041 3378 
L 3041 2816 
Q 2794 2959 2544 3031 
Q 2294 3103 2034 3103 
Q 1644 3103 1451 2976 
Q 1259 2850 1259 2591 
Q 1259 2356 1403 2240 
Q 1547 2125 2119 2016 
L 2350 1972 
Q 2778 1891 2998 1647 
Q 3219 1403 3219 1013 
Q 3219 494 2850 201 
Q 2481 -91 1825 -91 
Q 1566 -91 1281 -36 
Q 997 19 666 128 
L 666 722 
Q 988 556 1281 473 
Q 1575 391 1838 391 
Q 2219 391 2428 545 
Q 2638 700 2638 978 
Q 2638 1378 1872 1531 
L 1847 1538 
L 1631 1581 
Q 1134 1678 906 1908 
Q 678 2138 678 2534 
Q 678 3038 1018 3311 
Q 1359 3584 1991 3584 
Q 2272 3584 2531 3532 
Q 2791 3481 3041 3378 
z
" transform="scale(0.015625)"/>
       <path id="DejaVuSansMono-74" d="M 1919 4494 
L 1919 3500 
L 3225 3500 
L 3225 3053 
L 1919 3053 
L 1919 1153 
Q 1919 766 2066 612 
Q 2213 459 2578 459 
L 3225 459 
L 3225 0 
L 2522 0 
Q 1875 0 1609 259 
Q 1344 519 1344 1153 
L 1344 3053 
L 409 3053 
L 409 3500 
L 1344 3500 
L 1344 4494 
L 1919 4494 
z
" transform="scale(0.015625)"/>
       <path id="DejaVuSansMono-64" d="M 2681 3053 
L 2681 4863 
L 3256 4863 
L 3256 0 
L 2681 0 
L 2681 441 
Q 2538 181 2298 45 
Q 2059 -91 1747 -91 
Q 1113 -91 748 401 
Q 384 894 384 1759 
Q 384 2613 750 3098 
Q 1116 3584 1747 3584 
Q 2063 3584 2303 3448 
Q 2544 3313 2681 3053 
z
M 991 1747 
Q 991 1078 1203 737 
Q 1416 397 1831 397 
Q 2247 397 2464 740 
Q 2681 1084 2681 1747 
Q 2681 2413 2464 2755 
Q 2247 3097 1831 3097 
Q 1416 3097 1203 2756 
Q 991 2416 991 1747 
z
" transform="scale(0.015625)"/>
       <path id="DejaVuSansMono-20" transform="scale(0.015625)"/>
       <path id="DejaVuSansMono-54" d="M 147 4666 
L 3706 4666 
L 3706 4134 
L 2247 4134 
L 2247 0 
L 1613 0 
L 1613 4134 
L 147 4134 
L 147 4666 
z
" transform="scale(0.015625)"/>
       <path id="DejaVuSansMono-68" d="M 3284 2169 
L 3284 0 
L 2706 0 
L 2706 2169 
Q 2706 2641 2540 2862 
Q 2375 3084 2022 3084 
Q 1619 3084 1401 2798 
Q 1184 2513 1184 1978 
L 1184 0 
L 609 0 
L 609 4863 
L 1184 4863 
L 1184 2975 
Q 1338 3275 1600 3429 
Q 1863 3584 2222 3584 
Q 2756 3584 3020 3232 
Q 3284 2881 3284 2169 
z
" transform="scale(0.015625)"/>
       <path id="DejaVuSansMono-72" d="M 3609 2778 
Q 3425 2922 3234 2987 
Q 3044 3053 2816 3053 
Q 2278 3053 1993 2715 
Q 1709 2378 1709 1741 
L 1709 0 
L 1131 0 
L 1131 3500 
L 1709 3500 
L 1709 2816 
Q 1853 3188 2151 3386 
Q 2450 3584 2859 3584 
Q 3072 3584 3256 3531 
Q 3441 3478 3609 3366 
L 3609 2778 
z
" transform="scale(0.015625)"/>
       <path id="DejaVuSansMono-6f" d="M 1925 3097 
Q 1488 3097 1263 2756 
Q 1038 2416 1038 1747 
Q 1038 1081 1263 739 
Q 1488 397 1925 397 
Q 2366 397 2591 739 
Q 2816 1081 2816 1747 
Q 2816 2416 2591 2756 
Q 2366 3097 1925 3097 
z
M 1925 3584 
Q 2653 3584 3039 3112 
Q 3425 2641 3425 1747 
Q 3425 850 3040 379 
Q 2656 -91 1925 -91 
Q 1197 -91 812 379 
Q 428 850 428 1747 
Q 428 2641 812 3112 
Q 1197 3584 1925 3584 
z
" transform="scale(0.015625)"/>
       <path id="DejaVuSansMono-67" d="M 2681 1778 
Q 2681 2425 2470 2761 
Q 2259 3097 1856 3097 
Q 1434 3097 1212 2761 
Q 991 2425 991 1778 
Q 991 1131 1214 792 
Q 1438 453 1863 453 
Q 2259 453 2470 793 
Q 2681 1134 2681 1778 
z
M 3256 225 
Q 3256 -563 2884 -969 
Q 2513 -1375 1791 -1375 
Q 1553 -1375 1293 -1331 
Q 1034 -1288 775 -1203 
L 775 -634 
Q 1081 -778 1331 -847 
Q 1581 -916 1791 -916 
Q 2256 -916 2468 -662 
Q 2681 -409 2681 141 
L 2681 166 
L 2681 556 
Q 2544 263 2306 119 
Q 2069 -25 1728 -25 
Q 1116 -25 750 465 
Q 384 956 384 1778 
Q 384 2603 750 3093 
Q 1116 3584 1728 3584 
Q 2066 3584 2300 3450 
Q 2534 3316 2681 3034 
L 2681 3488 
L 3256 3488 
L 3256 225 
z
" transform="scale(0.015625)"/>
       <path id="DejaVuSansMono-70" d="M 1172 441 
L 1172 -1331 
L 594 -1331 
L 594 3500 
L 1172 3500 
L 1172 3053 
Q 1316 3313 1555 3448 
Q 1794 3584 2106 3584 
Q 2741 3584 3102 3093 
Q 3463 2603 3463 1734 
Q 3463 881 3100 395 
Q 2738 -91 2106 -91 
Q 1788 -91 1548 45 
Q 1309 181 1172 441 
z
M 2859 1747 
Q 2859 2416 2648 2756 
Q 2438 3097 2022 3097 
Q 1603 3097 1387 2755 
Q 1172 2413 1172 1747 
Q 1172 1084 1387 740 
Q 1603 397 2022 397 
Q 2438 397 2648 737 
Q 2859 1078 2859 1747 
z
" transform="scale(0.015625)"/>
       <path id="DejaVuSansMono-28" d="M 2766 4856 
Q 2350 4144 2145 3436 
Q 1941 2728 1941 2009 
Q 1941 1294 2145 584 
Q 2350 -125 2766 -844 
L 2266 -844 
Q 1794 -100 1562 604 
Q 1331 1309 1331 2009 
Q 1331 2706 1562 3412 
Q 1794 4119 2266 4856 
L 2766 4856 
z
" transform="scale(0.015625)"/>
       <path id="DejaVuSansMono-4d" d="M 269 4666 
L 1113 4666 
L 1919 2291 
L 2731 4666 
L 3578 4666 
L 3578 0 
L 2994 0 
L 2994 4122 
L 2163 1663 
L 1684 1663 
L 850 4122 
L 850 0 
L 269 0 
L 269 4666 
z
" transform="scale(0.015625)"/>
       <path id="DejaVuSansMono-62" d="M 2869 1747 
Q 2869 2416 2656 2756 
Q 2444 3097 2028 3097 
Q 1609 3097 1393 2755 
Q 1178 2413 1178 1747 
Q 1178 1084 1393 740 
Q 1609 397 2028 397 
Q 2444 397 2656 737 
Q 2869 1078 2869 1747 
z
M 1178 3053 
Q 1316 3309 1558 3446 
Q 1800 3584 2119 3584 
Q 2750 3584 3112 3098 
Q 3475 2613 3475 1759 
Q 3475 894 3111 401 
Q 2747 -91 2113 -91 
Q 1800 -91 1561 45 
Q 1322 181 1178 441 
L 1178 0 
L 603 0 
L 603 4863 
L 1178 4863 
L 1178 3053 
z
" transform="scale(0.015625)"/>
       <path id="DejaVuSansMono-2f" d="M 2778 4666 
L 3372 4666 
L 916 -594 
L 319 -594 
L 2778 4666 
z
" transform="scale(0.015625)"/>
       <path id="DejaVuSansMono-29" d="M 1088 4856 
L 1588 4856 
Q 2059 4119 2290 3412 
Q 2522 2706 2522 2009 
Q 2522 1306 2290 600 
Q 2059 -106 1588 -844 
L 1088 -844 
Q 1503 -119 1708 590 
Q 1913 1300 1913 2009 
Q 1913 2722 1708 3431 
Q 1503 4141 1088 4856 
z
" transform="scale(0.015625)"/>
      </defs>
      <use xlink:href="#DejaVuSansMono-52"/>
      <use xlink:href="#DejaVuSansMono-65" transform="translate(60.205078 0)"/>
      <use xlink:href="#DejaVuSansMono-71" transform="translate(120.410156 0)"/>
      <use xlink:href="#DejaVuSansMono-75" transform="translate(180.615234 0)"/>
      <use xlink:href="#DejaVuSansMono-65" transform="translate(240.820312 0)"/>
      <use xlink:href="#DejaVuSansMono-73" transform="translate(301.025391 0)"/>
      <use xlink:href="#DejaVuSansMono-74" transform="translate(361.230469 0)"/>
      <use xlink:href="#DejaVuSansMono-65" transform="translate(421.435547 0)"/>
      <use xlink:href="#DejaVuSansMono-64" transform="translate(481.640625 0)"/>
      <use xlink:href="#DejaVuSansMono-20" transform="translate(541.845703 0)"/>
      <use xlink:href="#DejaVuSansMono-54" transform="translate(602.050781 0)"/>
      <use xlink:href="#DejaVuSansMono-68" transform="translate(662.255859 0)"/>
      <use xlink:href="#DejaVuSansMono-72" transform="translate(722.460938 0)"/>
      <use xlink:href="#DejaVuSansMono-6f" transform="translate(782.666016 0)"/>
      <use xlink:href="#DejaVuSansMono-75" transform="translate(842.871094 0)"/>
      <use xlink:href="#DejaVuSansMono-67" transform="translate(903.076172 0)"/>
      <use xlink:href="#DejaVuSansMono-68" transform="translate(963.28125 0)"/>
      <use xlink:href="#DejaVuSansMono-70" transform="translate(1023.486328 0)"/>
      <use xlink:href="#DejaVuSansMono-75" transform="translate(1083.691406 0)"/>
      <use xlink:href="#DejaVuSansMono-74" transform="translate(1143.896484 0)"/>
      <use xlink:href="#DejaVuSansMono-20" transform="translate(1204.101562 0)"/>
      <use xlink:href="#DejaVuSansMono-28" transform="translate(1264.306641 0)"/>
      <use xlink:href="#DejaVuSansMono-4d" transform="translate(1324.511719 0)"/>
      <use xlink:href="#DejaVuSansMono-62" transform="translate(1384.716797 0)"/>
      <use xlink:href="#DejaVuSansMono-2f" transform="translate(1444.921875 0)"/>
      <use xlink:href="#DejaVuSansMono-73" transform="translate(1505.126953 0)"/>
      <use xlink:href="#DejaVuSansMono-29" transform="translate(1565.332031 0)"/>
     </g>
    </g>
   </g>
   <g id="matplotlib.axis_2">
    <g id="ytick_1">
     <g id="line2d_27">
      <path d="M 58.275 778.873198 
L 1072.745 778.873198 
" clip-path="url(#pc10493883b)" style="fill: none; stroke: #cccccc; stroke-opacity: 0.3; stroke-width: 0.5; stroke-linecap: round"/>
     </g>
     <g id="line2d_28"/>
     <g id="text_15">
      <!-- 0 -->
      <g style="fill: #262626" transform="translate(48.754688 782.698979) scale(0.1 -0.1)">
       <use xlink:href="#DejaVuSansMono-30"/>
      </g>
     </g>
    </g>
    <g id="ytick_2">
     <g id="line2d_29">
      <path d="M 58.275 636.502955 
L 1072.745 636.502955 
" clip-path="url(#pc10493883b)" style="fill: none; stroke: #cccccc; stroke-opacity: 0.3; stroke-width: 0.5; stroke-linecap: round"/>
     </g>
     <g id="line2d_30"/>
     <g id="text_16">
      <!-- 200 -->
      <g style="fill: #262626" transform="translate(36.714063 640.328736) scale(0.1 -0.1)">
       <use xlink:href="#DejaVuSansMono-32"/>
       <use xlink:href="#DejaVuSansMono-30" transform="translate(60.205078 0)"/>
       <use xlink:href="#DejaVuSansMono-30" transform="translate(120.410156 0)"/>
      </g>
     </g>
    </g>
    <g id="ytick_3">
     <g id="line2d_31">
      <path d="M 58.275 494.132712 
L 1072.745 494.132712 
" clip-path="url(#pc10493883b)" style="fill: none; stroke: #cccccc; stroke-opacity: 0.3; stroke-width: 0.5; stroke-linecap: round"/>
     </g>
     <g id="line2d_32"/>
     <g id="text_17">
      <!-- 400 -->
      <g style="fill: #262626" transform="translate(36.714063 497.958493) scale(0.1 -0.1)">
       <use xlink:href="#DejaVuSansMono-34"/>
       <use xlink:href="#DejaVuSansMono-30" transform="translate(60.205078 0)"/>
       <use xlink:href="#DejaVuSansMono-30" transform="translate(120.410156 0)"/>
      </g>
     </g>
    </g>
    <g id="ytick_4">
     <g id="line2d_33">
      <path d="M 58.275 351.762469 
L 1072.745 351.762469 
" clip-path="url(#pc10493883b)" style="fill: none; stroke: #cccccc; stroke-opacity: 0.3; stroke-width: 0.5; stroke-linecap: round"/>
     </g>
     <g id="line2d_34"/>
     <g id="text_18">
      <!-- 600 -->
      <g style="fill: #262626" transform="translate(36.714063 355.58825) scale(0.1 -0.1)">
       <use xlink:href="#DejaVuSansMono-36"/>
       <use xlink:href="#DejaVuSansMono-30" transform="translate(60.205078 0)"/>
       <use xlink:href="#DejaVuSansMono-30" transform="translate(120.410156 0)"/>
      </g>
     </g>
    </g>
    <g id="ytick_5">
     <g id="line2d_35">
      <path d="M 58.275 209.392226 
L 1072.745 209.392226 
" clip-path="url(#pc10493883b)" style="fill: none; stroke: #cccccc; stroke-opacity: 0.3; stroke-width: 0.5; stroke-linecap: round"/>
     </g>
     <g id="line2d_36"/>
     <g id="text_19">
      <!-- 800 -->
      <g style="fill: #262626" transform="translate(36.714063 213.218007) scale(0.1 -0.1)">
       <use xlink:href="#DejaVuSansMono-38"/>
       <use xlink:href="#DejaVuSansMono-30" transform="translate(60.205078 0)"/>
       <use xlink:href="#DejaVuSansMono-30" transform="translate(120.410156 0)"/>
      </g>
     </g>
    </g>
    <g id="ytick_6">
     <g id="line2d_37">
      <path d="M 58.275 67.021983 
L 1072.745 67.021983 
" clip-path="url(#pc10493883b)" style="fill: none; stroke: #cccccc; stroke-opacity: 0.3; stroke-width: 0.5; stroke-linecap: round"/>
     </g>
     <g id="line2d_38"/>
     <g id="text_20">
      <!-- 1000 -->
      <g style="fill: #262626" transform="translate(30.69375 70.847764) scale(0.1 -0.1)">
       <use xlink:href="#DejaVuSansMono-31"/>
       <use xlink:href="#DejaVuSansMono-30" transform="translate(60.205078 0)"/>
       <use xlink:href="#DejaVuSansMono-30" transform="translate(120.410156 0)"/>
       <use xlink:href="#DejaVuSansMono-30" transform="translate(180.615234 0)"/>
      </g>
     </g>
    </g>
    <g id="text_21">
     <!-- Sent Throughput (Mb/s) -->
     <g style="fill: #262626" transform="translate(22.396875 537.601599) rotate(-90) scale(0.2 -0.2)">
      <defs>
       <path id="DejaVuSansMono-53" d="M 3163 4506 
L 3163 3866 
Q 2875 4050 2586 4144 
Q 2297 4238 2003 4238 
Q 1556 4238 1297 4030 
Q 1038 3822 1038 3469 
Q 1038 3159 1208 2996 
Q 1378 2834 1844 2725 
L 2175 2650 
Q 2831 2497 3131 2169 
Q 3431 1841 3431 1275 
Q 3431 609 3018 259 
Q 2606 -91 1819 -91 
Q 1491 -91 1159 -20 
Q 828 50 494 191 
L 494 863 
Q 853 634 1173 528 
Q 1494 422 1819 422 
Q 2297 422 2562 636 
Q 2828 850 2828 1234 
Q 2828 1584 2645 1768 
Q 2463 1953 2009 2053 
L 1672 2131 
Q 1022 2278 728 2575 
Q 434 2872 434 3372 
Q 434 3997 854 4373 
Q 1275 4750 1972 4750 
Q 2241 4750 2537 4689 
Q 2834 4628 3163 4506 
z
" transform="scale(0.015625)"/>
       <path id="DejaVuSansMono-6e" d="M 3284 2169 
L 3284 0 
L 2706 0 
L 2706 2169 
Q 2706 2641 2540 2862 
Q 2375 3084 2022 3084 
Q 1619 3084 1401 2798 
Q 1184 2513 1184 1978 
L 1184 0 
L 609 0 
L 609 3500 
L 1184 3500 
L 1184 2975 
Q 1338 3275 1600 3429 
Q 1863 3584 2222 3584 
Q 2756 3584 3020 3232 
Q 3284 2881 3284 2169 
z
" transform="scale(0.015625)"/>
      </defs>
      <use xlink:href="#DejaVuSansMono-53"/>
      <use xlink:href="#DejaVuSansMono-65" transform="translate(60.205078 0)"/>
      <use xlink:href="#DejaVuSansMono-6e" transform="translate(120.410156 0)"/>
      <use xlink:href="#DejaVuSansMono-74" transform="translate(180.615234 0)"/>
      <use xlink:href="#DejaVuSansMono-20" transform="translate(240.820312 0)"/>
      <use xlink:href="#DejaVuSansMono-54" transform="translate(301.025391 0)"/>
      <use xlink:href="#DejaVuSansMono-68" transform="translate(361.230469 0)"/>
      <use xlink:href="#DejaVuSansMono-72" transform="translate(421.435547 0)"/>
      <use xlink:href="#DejaVuSansMono-6f" transform="translate(481.640625 0)"/>
      <use xlink:href="#DejaVuSansMono-75" transform="translate(541.845703 0)"/>
      <use xlink:href="#DejaVuSansMono-67" transform="translate(602.050781 0)"/>
      <use xlink:href="#DejaVuSansMono-68" transform="translate(662.255859 0)"/>
      <use xlink:href="#DejaVuSansMono-70" transform="translate(722.460938 0)"/>
      <use xlink:href="#DejaVuSansMono-75" transform="translate(782.666016 0)"/>
      <use xlink:href="#DejaVuSansMono-74" transform="translate(842.871094 0)"/>
      <use xlink:href="#DejaVuSansMono-20" transform="translate(903.076172 0)"/>
      <use xlink:href="#DejaVuSansMono-28" transform="translate(963.28125 0)"/>
      <use xlink:href="#DejaVuSansMono-4d" transform="translate(1023.486328 0)"/>
      <use xlink:href="#DejaVuSansMono-62" transform="translate(1083.691406 0)"/>
      <use xlink:href="#DejaVuSansMono-2f" transform="translate(1143.896484 0)"/>
      <use xlink:href="#DejaVuSansMono-73" transform="translate(1204.101562 0)"/>
      <use xlink:href="#DejaVuSansMono-29" transform="translate(1264.306641 0)"/>
     </g>
    </g>
   </g>
   <g id="patch_3">
    <path d="M 104.387273 778.873198 
L 129.703815 778.873198 
L 129.703815 771.754555 
L 104.387273 771.754555 
z
" clip-path="url(#pc10493883b)" style="fill: #84a5c7; opacity: 0.85"/>
   </g>
   <g id="patch_4">
    <path d="M 176.72025 778.873198 
L 202.036791 778.873198 
L 202.036791 764.635931 
L 176.72025 764.635931 
z
" clip-path="url(#pc10493883b)" style="fill: #84a5c7; opacity: 0.85"/>
   </g>
   <g id="patch_5">
    <path d="M 249.053226 778.873198 
L 274.369768 778.873198 
L 274.369768 743.280167 
L 249.053226 743.280167 
z
" clip-path="url(#pc10493883b)" style="fill: #84a5c7; opacity: 0.85"/>
   </g>
   <g id="patch_6">
    <path d="M 321.386203 778.873198 
L 346.702745 778.873198 
L 346.702745 707.68763 
L 321.386203 707.68763 
z
" clip-path="url(#pc10493883b)" style="fill: #84a5c7; opacity: 0.85"/>
   </g>
   <g id="patch_7">
    <path d="M 393.71918 778.873198 
L 419.035722 778.873198 
L 419.035722 636.503898 
L 393.71918 636.503898 
z
" clip-path="url(#pc10493883b)" style="fill: #84a5c7; opacity: 0.85"/>
   </g>
   <g id="patch_8">
    <path d="M 466.052157 778.873198 
L 491.368699 778.873198 
L 491.368699 565.316586 
L 466.052157 565.316586 
z
" clip-path="url(#pc10493883b)" style="fill: #84a5c7; opacity: 0.85"/>
   </g>
   <g id="patch_9">
    <path d="M 538.385134 778.873198 
L 563.701676 778.873198 
L 563.701676 494.132587 
L 538.385134 494.132587 
z
" clip-path="url(#pc10493883b)" style="fill: #84a5c7; opacity: 0.85"/>
   </g>
   <g id="patch_10">
    <path d="M 610.718111 778.873198 
L 636.034652 778.873198 
L 636.034652 422.950675 
L 610.718111 422.950675 
z
" clip-path="url(#pc10493883b)" style="fill: #84a5c7; opacity: 0.85"/>
   </g>
   <g id="patch_11">
    <path d="M 683.051087 778.873198 
L 708.367629 778.873198 
L 708.367629 351.759292 
L 683.051087 351.759292 
z
" clip-path="url(#pc10493883b)" style="fill: #84a5c7; opacity: 0.85"/>
   </g>
   <g id="patch_12">
    <path d="M 755.384064 778.873198 
L 780.700606 778.873198 
L 780.700606 280.579857 
L 755.384064 280.579857 
z
" clip-path="url(#pc10493883b)" style="fill: #84a5c7; opacity: 0.85"/>
   </g>
   <g id="patch_13">
    <path d="M 827.717041 778.873198 
L 853.033583 778.873198 
L 853.033583 209.38782 
L 827.717041 209.38782 
z
" clip-path="url(#pc10493883b)" style="fill: #84a5c7; opacity: 0.85"/>
   </g>
   <g id="patch_14">
    <path d="M 900.050018 778.873198 
L 925.36656 778.873198 
L 925.36656 138.205501 
L 900.050018 138.205501 
z
" clip-path="url(#pc10493883b)" style="fill: #84a5c7; opacity: 0.85"/>
   </g>
   <g id="patch_15">
    <path d="M 972.382995 778.873198 
L 997.699537 778.873198 
L 997.699537 67.028486 
L 972.382995 67.028486 
z
" clip-path="url(#pc10493883b)" style="fill: #84a5c7; opacity: 0.85"/>
   </g>
   <g id="patch_16">
    <path d="M 133.320463 778.873198 
L 158.637005 778.873198 
L 158.637005 771.754555 
L 133.320463 771.754555 
z
" clip-path="url(#pc10493883b)" style="fill: #f18484; opacity: 0.85"/>
   </g>
   <g id="patch_17">
    <path d="M 205.65344 778.873198 
L 230.969982 778.873198 
L 230.969982 764.63593 
L 205.65344 764.63593 
z
" clip-path="url(#pc10493883b)" style="fill: #f18484; opacity: 0.85"/>
   </g>
   <g id="patch_18">
    <path d="M 277.986417 778.873198 
L 303.302959 778.873198 
L 303.302959 743.280272 
L 277.986417 743.280272 
z
" clip-path="url(#pc10493883b)" style="fill: #f18484; opacity: 0.85"/>
   </g>
   <g id="patch_19">
    <path d="M 350.319394 778.873198 
L 375.635936 778.873198 
L 375.635936 707.687602 
L 350.319394 707.687602 
z
" clip-path="url(#pc10493883b)" style="fill: #f18484; opacity: 0.85"/>
   </g>
   <g id="patch_20">
    <path d="M 422.652371 778.873198 
L 447.968913 778.873198 
L 447.968913 636.503746 
L 422.652371 636.503746 
z
" clip-path="url(#pc10493883b)" style="fill: #f18484; opacity: 0.85"/>
   </g>
   <g id="patch_21">
    <path d="M 494.985348 778.873198 
L 520.301889 778.873198 
L 520.301889 565.315872 
L 494.985348 565.315872 
z
" clip-path="url(#pc10493883b)" style="fill: #f18484; opacity: 0.85"/>
   </g>
   <g id="patch_22">
    <path d="M 567.318324 778.873198 
L 592.634866 778.873198 
L 592.634866 494.133049 
L 567.318324 494.133049 
z
" clip-path="url(#pc10493883b)" style="fill: #f18484; opacity: 0.85"/>
   </g>
   <g id="patch_23">
    <path d="M 639.651301 778.873198 
L 664.967843 778.873198 
L 664.967843 422.949565 
L 639.651301 422.949565 
z
" clip-path="url(#pc10493883b)" style="fill: #f18484; opacity: 0.85"/>
   </g>
   <g id="patch_24">
    <path d="M 711.984278 778.873198 
L 737.30082 778.873198 
L 737.30082 351.762284 
L 711.984278 351.762284 
z
" clip-path="url(#pc10493883b)" style="fill: #f18484; opacity: 0.85"/>
   </g>
   <g id="patch_25">
    <path d="M 784.317255 778.873198 
L 809.633797 778.873198 
L 809.633797 280.581883 
L 784.317255 280.581883 
z
" clip-path="url(#pc10493883b)" style="fill: #f18484; opacity: 0.85"/>
   </g>
   <g id="patch_26">
    <path d="M 856.650232 778.873198 
L 881.966774 778.873198 
L 881.966774 209.387687 
L 856.650232 209.387687 
z
" clip-path="url(#pc10493883b)" style="fill: #f18484; opacity: 0.85"/>
   </g>
   <g id="patch_27">
    <path d="M 928.983209 778.873198 
L 954.29975 778.873198 
L 954.29975 138.208418 
L 928.983209 138.208418 
z
" clip-path="url(#pc10493883b)" style="fill: #f18484; opacity: 0.85"/>
   </g>
   <g id="patch_28">
    <path d="M 1001.316185 778.873198 
L 1026.632727 778.873198 
L 1026.632727 67.029373 
L 1001.316185 67.029373 
z
" clip-path="url(#pc10493883b)" style="fill: #f18484; opacity: 0.85"/>
   </g>
   <g id="patch_29">
    <path d="M 58.275 778.873198 
L 58.275 31.43625 
" style="fill: none; stroke: #cccccc; stroke-linejoin: miter; stroke-linecap: square"/>
   </g>
   <g id="patch_30">
    <path d="M 1072.745 778.873198 
L 1072.745 31.43625 
" style="fill: none; stroke: #cccccc; stroke-linejoin: miter; stroke-linecap: square"/>
   </g>
   <g id="patch_31">
    <path d="M 58.275 778.873198 
L 1072.745 778.873198 
" style="fill: none; stroke: #cccccc; stroke-linejoin: miter; stroke-linecap: square"/>
   </g>
   <g id="patch_32">
    <path d="M 58.275 31.43625 
L 1072.745 31.43625 
" style="fill: none; stroke: #cccccc; stroke-linejoin: miter; stroke-linecap: square"/>
   </g>
   <g id="text_22">
    <!-- Sent Throughput (Mb/s) vs Throughput -->
    <g style="fill: #262626" transform="translate(305.4325 25.43625) scale(0.24 -0.24)">
     <defs>
      <path id="DejaVuSansMono-Bold-53" d="M 1594 2047 
Q 897 2313 650 2605 
Q 403 2897 403 3391 
Q 403 4025 809 4387 
Q 1216 4750 1925 4750 
Q 2247 4750 2569 4676 
Q 2891 4603 3206 4459 
L 3206 3559 
Q 2909 3769 2603 3878 
Q 2297 3988 1997 3988 
Q 1663 3988 1484 3853 
Q 1306 3719 1306 3469 
Q 1306 3275 1436 3148 
Q 1566 3022 1978 2869 
L 2375 2719 
Q 2938 2513 3203 2172 
Q 3469 1831 3469 1313 
Q 3469 606 3051 257 
Q 2634 -91 1791 -91 
Q 1444 -91 1095 -8 
Q 747 75 422 238 
L 422 1191 
Q 791 928 1136 800 
Q 1481 672 1819 672 
Q 2159 672 2346 826 
Q 2534 981 2534 1259 
Q 2534 1469 2409 1626 
Q 2284 1784 2047 1875 
L 1594 2047 
z
" transform="scale(0.015625)"/>
      <path id="DejaVuSansMono-Bold-65" d="M 3444 172 
Q 3125 41 2794 -25 
Q 2463 -91 2094 -91 
Q 1216 -91 752 379 
Q 288 850 288 1734 
Q 288 2591 734 3087 
Q 1181 3584 1953 3584 
Q 2731 3584 3161 3123 
Q 3591 2663 3591 1825 
L 3591 1453 
L 1219 1453 
Q 1222 1041 1462 837 
Q 1703 634 2181 634 
Q 2497 634 2803 725 
Q 3109 816 3444 1013 
L 3444 172 
z
M 2669 2141 
Q 2663 2503 2483 2689 
Q 2303 2875 1953 2875 
Q 1638 2875 1450 2683 
Q 1263 2491 1228 2138 
L 2669 2141 
z
" transform="scale(0.015625)"/>
      <path id="DejaVuSansMono-Bold-6e" d="M 3347 2272 
L 3347 0 
L 2438 0 
L 2438 2131 
Q 2438 2513 2330 2677 
Q 2222 2841 1978 2841 
Q 1731 2841 1589 2619 
Q 1447 2397 1447 2003 
L 1447 0 
L 538 0 
L 538 3500 
L 1447 3500 
L 1447 2975 
Q 1544 3266 1778 3425 
Q 2013 3584 2344 3584 
Q 2841 3584 3094 3254 
Q 3347 2925 3347 2272 
z
" transform="scale(0.015625)"/>
      <path id="DejaVuSansMono-Bold-74" d="M 2156 4494 
L 2156 3500 
L 3353 3500 
L 3353 2797 
L 2156 2797 
L 2156 1141 
Q 2156 906 2270 804 
Q 2384 703 2650 703 
L 3353 703 
L 3353 0 
L 2584 0 
Q 1797 0 1519 251 
Q 1241 503 1241 1184 
L 1241 2797 
L 347 2797 
L 347 3500 
L 1241 3500 
L 1241 4494 
L 2156 4494 
z
" transform="scale(0.015625)"/>
      <path id="DejaVuSansMono-Bold-20" transform="scale(0.015625)"/>
      <path id="DejaVuSansMono-Bold-54" d="M 2388 0 
L 1466 0 
L 1466 3859 
L 281 3859 
L 281 4666 
L 3572 4666 
L 3572 3859 
L 2388 3859 
L 2388 0 
z
" transform="scale(0.015625)"/>
      <path id="DejaVuSansMono-Bold-68" d="M 3347 2272 
L 3347 0 
L 2438 0 
L 2438 2131 
Q 2438 2509 2330 2671 
Q 2222 2834 1978 2834 
Q 1728 2834 1587 2614 
Q 1447 2394 1447 2003 
L 1447 0 
L 538 0 
L 538 4863 
L 1447 4863 
L 1447 2975 
Q 1544 3266 1778 3425 
Q 2013 3584 2344 3584 
Q 2841 3584 3094 3254 
Q 3347 2925 3347 2272 
z
" transform="scale(0.015625)"/>
      <path id="DejaVuSansMono-Bold-72" d="M 3597 2534 
Q 3447 2672 3245 2740 
Q 3044 2809 2803 2809 
Q 2513 2809 2295 2707 
Q 2078 2606 1959 2413 
Q 1884 2294 1854 2125 
Q 1825 1956 1825 1613 
L 1825 0 
L 909 0 
L 909 3500 
L 1825 3500 
L 1825 2956 
Q 1959 3256 2237 3420 
Q 2516 3584 2888 3584 
Q 3075 3584 3254 3539 
Q 3434 3494 3597 3406 
L 3597 2534 
z
" transform="scale(0.015625)"/>
      <path id="DejaVuSansMono-Bold-6f" d="M 1925 2841 
Q 1597 2841 1409 2552 
Q 1222 2263 1222 1747 
Q 1222 1231 1409 942 
Q 1597 653 1925 653 
Q 2256 653 2443 942 
Q 2631 1231 2631 1747 
Q 2631 2263 2443 2552 
Q 2256 2841 1925 2841 
z
M 306 1747 
Q 306 2594 745 3089 
Q 1184 3584 1925 3584 
Q 2669 3584 3108 3089 
Q 3547 2594 3547 1747 
Q 3547 900 3108 404 
Q 2669 -91 1925 -91 
Q 1184 -91 745 404 
Q 306 900 306 1747 
z
" transform="scale(0.015625)"/>
      <path id="DejaVuSansMono-Bold-75" d="M 500 1222 
L 500 3500 
L 1416 3500 
L 1416 1363 
Q 1416 984 1522 821 
Q 1628 659 1875 659 
Q 2122 659 2261 878 
Q 2400 1097 2400 1491 
L 2400 3500 
L 3316 3500 
L 3316 0 
L 2400 0 
L 2400 519 
Q 2303 228 2070 68 
Q 1838 -91 1509 -91 
Q 1009 -91 754 240 
Q 500 572 500 1222 
z
" transform="scale(0.015625)"/>
      <path id="DejaVuSansMono-Bold-67" d="M 2509 1806 
Q 2509 2275 2331 2558 
Q 2153 2841 1863 2841 
Q 1575 2841 1398 2559 
Q 1222 2278 1222 1806 
Q 1222 1331 1398 1050 
Q 1575 769 1863 769 
Q 2153 769 2331 1051 
Q 2509 1334 2509 1806 
z
M 3425 263 
Q 3425 -578 3045 -951 
Q 2666 -1325 1813 -1325 
Q 1525 -1325 1244 -1283 
Q 963 -1241 672 -1153 
L 672 -313 
Q 931 -456 1200 -525 
Q 1469 -594 1753 -594 
Q 2141 -594 2325 -411 
Q 2509 -228 2509 159 
L 2509 538 
Q 2375 288 2153 166 
Q 1931 44 1613 44 
Q 1013 44 659 512 
Q 306 981 306 1784 
Q 306 2616 659 3103 
Q 1013 3591 1606 3591 
Q 1906 3591 2140 3450 
Q 2375 3309 2509 3053 
L 2509 3500 
L 3425 3500 
L 3425 263 
z
" transform="scale(0.015625)"/>
      <path id="DejaVuSansMono-Bold-70" d="M 1381 494 
L 1381 -1331 
L 469 -1331 
L 469 3500 
L 1381 3500 
L 1381 2975 
Q 1525 3278 1759 3431 
Q 1994 3584 2309 3584 
Q 2909 3584 3240 3103 
Q 3572 2622 3572 1747 
Q 3572 859 3236 384 
Q 2900 -91 2278 -91 
Q 1997 -91 1773 54 
Q 1550 200 1381 494 
z
M 2656 1753 
Q 2656 2259 2487 2546 
Q 2319 2834 2022 2834 
Q 1725 2834 1553 2546 
Q 1381 2259 1381 1753 
Q 1381 1247 1553 959 
Q 1725 672 2022 672 
Q 2319 672 2487 959 
Q 2656 1247 2656 1753 
z
" transform="scale(0.015625)"/>
      <path id="DejaVuSansMono-Bold-28" d="M 2888 4856 
Q 2475 4109 2275 3409 
Q 2075 2709 2075 2009 
Q 2075 1316 2275 611 
Q 2475 -94 2888 -844 
L 2175 -844 
Q 1678 -122 1437 579 
Q 1197 1281 1197 2009 
Q 1197 2734 1439 3439 
Q 1681 4144 2175 4856 
L 2888 4856 
z
" transform="scale(0.015625)"/>
      <path id="DejaVuSansMono-Bold-4d" d="M 269 4666 
L 1369 4666 
L 1925 2619 
L 2478 4666 
L 3584 4666 
L 3584 0 
L 2791 0 
L 2791 3738 
L 2297 1697 
L 1563 1697 
L 1063 3738 
L 1063 0 
L 269 0 
L 269 4666 
z
" transform="scale(0.015625)"/>
      <path id="DejaVuSansMono-Bold-62" d="M 2656 1741 
Q 2656 2247 2487 2534 
Q 2319 2822 2022 2822 
Q 1725 2822 1553 2534 
Q 1381 2247 1381 1741 
Q 1381 1234 1553 946 
Q 1725 659 2022 659 
Q 2319 659 2487 946 
Q 2656 1234 2656 1741 
z
M 1381 3003 
Q 1550 3294 1773 3439 
Q 1997 3584 2278 3584 
Q 2900 3584 3236 3109 
Q 3572 2634 3572 1747 
Q 3572 872 3240 390 
Q 2909 -91 2309 -91 
Q 1994 -91 1759 62 
Q 1525 216 1381 519 
L 1381 0 
L 469 0 
L 469 4863 
L 1381 4863 
L 1381 3003 
z
" transform="scale(0.015625)"/>
      <path id="DejaVuSansMono-Bold-2f" d="M 2809 4666 
L 3500 4666 
L 1044 -594 
L 353 -594 
L 2809 4666 
z
" transform="scale(0.015625)"/>
      <path id="DejaVuSansMono-Bold-73" d="M 3097 3391 
L 3097 2591 
Q 2844 2753 2570 2836 
Q 2297 2919 2022 2919 
Q 1716 2919 1559 2830 
Q 1403 2741 1403 2566 
Q 1403 2316 2072 2159 
L 2106 2150 
L 2369 2088 
Q 2869 1969 3101 1705 
Q 3334 1441 3334 991 
Q 3334 450 2979 179 
Q 2625 -91 1913 -91 
Q 1597 -91 1265 -36 
Q 934 19 594 128 
L 594 928 
Q 897 756 1211 665 
Q 1525 575 1819 575 
Q 2141 575 2306 669 
Q 2472 763 2472 941 
Q 2472 1116 2355 1209 
Q 2238 1303 1797 1409 
L 1544 1466 
Q 1019 1584 778 1837 
Q 538 2091 538 2516 
Q 538 3022 903 3303 
Q 1269 3584 1931 3584 
Q 2228 3584 2523 3536 
Q 2819 3488 3097 3391 
z
" transform="scale(0.015625)"/>
      <path id="DejaVuSansMono-Bold-29" d="M 966 4856 
L 1678 4856 
Q 2172 4144 2414 3439 
Q 2656 2734 2656 2009 
Q 2656 1281 2415 579 
Q 2175 -122 1678 -844 
L 966 -844 
Q 1378 -94 1578 611 
Q 1778 1316 1778 2009 
Q 1778 2709 1578 3409 
Q 1378 4109 966 4856 
z
" transform="scale(0.015625)"/>
      <path id="DejaVuSansMono-Bold-76" d="M 3603 3500 
L 2491 0 
L 1363 0 
L 250 3500 
L 1178 3500 
L 1925 769 
L 2675 3500 
L 3603 3500 
z
" transform="scale(0.015625)"/>
     </defs>
     <use xlink:href="#DejaVuSansMono-Bold-53"/>
     <use xlink:href="#DejaVuSansMono-Bold-65" transform="translate(60.205078 0)"/>
     <use xlink:href="#DejaVuSansMono-Bold-6e" transform="translate(120.410156 0)"/>
     <use xlink:href="#DejaVuSansMono-Bold-74" transform="translate(180.615234 0)"/>
     <use xlink:href="#DejaVuSansMono-Bold-20" transform="translate(240.820312 0)"/>
     <use xlink:href="#DejaVuSansMono-Bold-54" transform="translate(301.025391 0)"/>
     <use xlink:href="#DejaVuSansMono-Bold-68" transform="translate(361.230469 0)"/>
     <use xlink:href="#DejaVuSansMono-Bold-72" transform="translate(421.435547 0)"/>
     <use xlink:href="#DejaVuSansMono-Bold-6f" transform="translate(481.640625 0)"/>
     <use xlink:href="#DejaVuSansMono-Bold-75" transform="translate(541.845703 0)"/>
     <use xlink:href="#DejaVuSansMono-Bold-67" transform="translate(602.050781 0)"/>
     <use xlink:href="#DejaVuSansMono-Bold-68" transform="translate(662.255859 0)"/>
     <use xlink:href="#DejaVuSansMono-Bold-70" transform="translate(722.460938 0)"/>
     <use xlink:href="#DejaVuSansMono-Bold-75" transform="translate(782.666016 0)"/>
     <use xlink:href="#DejaVuSansMono-Bold-74" transform="translate(842.871094 0)"/>
     <use xlink:href="#DejaVuSansMono-Bold-20" transform="translate(903.076172 0)"/>
     <use xlink:href="#DejaVuSansMono-Bold-28" transform="translate(963.28125 0)"/>
     <use xlink:href="#DejaVuSansMono-Bold-4d" transform="translate(1023.486328 0)"/>
     <use xlink:href="#DejaVuSansMono-Bold-62" transform="translate(1083.691406 0)"/>
     <use xlink:href="#DejaVuSansMono-Bold-2f" transform="translate(1143.896484 0)"/>
     <use xlink:href="#DejaVuSansMono-Bold-73" transform="translate(1204.101562 0)"/>
     <use xlink:href="#DejaVuSansMono-Bold-29" transform="translate(1264.306641 0)"/>
     <use xlink:href="#DejaVuSansMono-Bold-20" transform="translate(1324.511719 0)"/>
     <use xlink:href="#DejaVuSansMono-Bold-76" transform="translate(1384.716797 0)"/>
     <use xlink:href="#DejaVuSansMono-Bold-73" transform="translate(1444.921875 0)"/>
     <use xlink:href="#DejaVuSansMono-Bold-20" transform="translate(1505.126953 0)"/>
     <use xlink:href="#DejaVuSansMono-Bold-54" transform="translate(1565.332031 0)"/>
     <use xlink:href="#DejaVuSansMono-Bold-68" transform="translate(1625.537109 0)"/>
     <use xlink:href="#DejaVuSansMono-Bold-72" transform="translate(1685.742188 0)"/>
     <use xlink:href="#DejaVuSansMono-Bold-6f" transform="translate(1745.947266 0)"/>
     <use xlink:href="#DejaVuSansMono-Bold-75" transform="translate(1806.152344 0)"/>
     <use xlink:href="#DejaVuSansMono-Bold-67" transform="translate(1866.357422 0)"/>
     <use xlink:href="#DejaVuSansMono-Bold-68" transform="translate(1926.5625 0)"/>
     <use xlink:href="#DejaVuSansMono-Bold-70" transform="translate(1986.767578 0)"/>
     <use xlink:href="#DejaVuSansMono-Bold-75" transform="translate(2046.972656 0)"/>
     <use xlink:href="#DejaVuSansMono-Bold-74" transform="translate(2107.177734 0)"/>
    </g>
   </g>
   <g id="legend_1">
    <g id="patch_33">
     <path d="M 74.475 61.409063 
L 110.475 61.409063 
L 110.475 48.809063 
L 74.475 48.809063 
z
" style="fill: #84a5c7; opacity: 0.85"/>
    </g>
    <g id="text_23">
     <!-- C -->
     <g style="fill: #262626" transform="translate(124.875 61.409063) scale(0.18 -0.18)">
      <defs>
       <path id="DejaVuSansMono-43" d="M 3353 166 
Q 3113 38 2859 -26 
Q 2606 -91 2322 -91 
Q 1425 -91 929 543 
Q 434 1178 434 2328 
Q 434 3472 932 4111 
Q 1431 4750 2322 4750 
Q 2606 4750 2859 4686 
Q 3113 4622 3353 4494 
L 3353 3847 
Q 3122 4038 2856 4138 
Q 2591 4238 2322 4238 
Q 1706 4238 1400 3763 
Q 1094 3288 1094 2328 
Q 1094 1372 1400 897 
Q 1706 422 2322 422 
Q 2597 422 2861 522 
Q 3125 622 3353 813 
L 3353 166 
z
" transform="scale(0.015625)"/>
      </defs>
      <use xlink:href="#DejaVuSansMono-43"/>
     </g>
    </g>
    <g id="patch_34">
     <path d="M 74.475 87.925313 
L 110.475 87.925313 
L 110.475 75.325313 
L 74.475 75.325313 
z
" style="fill: #f18484; opacity: 0.85"/>
    </g>
    <g id="text_24">
     <!-- PNK -->
     <g style="fill: #262626" transform="translate(124.875 87.925313) scale(0.18 -0.18)">
      <defs>
       <path id="DejaVuSansMono-50" d="M 1247 4147 
L 1247 2394 
L 1978 2394 
Q 2416 2394 2661 2625 
Q 2906 2856 2906 3272 
Q 2906 3688 2662 3917 
Q 2419 4147 1978 4147 
L 1247 4147 
z
M 616 4666 
L 1978 4666 
Q 2759 4666 3162 4311 
Q 3566 3956 3566 3272 
Q 3566 2581 3164 2228 
Q 2763 1875 1978 1875 
L 1247 1875 
L 1247 0 
L 616 0 
L 616 4666 
z
" transform="scale(0.015625)"/>
       <path id="DejaVuSansMono-4e" d="M 434 4666 
L 1234 4666 
L 2809 825 
L 2809 4666 
L 3419 4666 
L 3419 0 
L 2619 0 
L 1044 3841 
L 1044 0 
L 434 0 
L 434 4666 
z
" transform="scale(0.015625)"/>
       <path id="DejaVuSansMono-4b" d="M 428 4666 
L 1063 4666 
L 1063 2591 
L 3034 4666 
L 3775 4666 
L 1959 2759 
L 3828 0 
L 3066 0 
L 1544 2338 
L 1063 1825 
L 1063 0 
L 428 0 
L 428 4666 
z
" transform="scale(0.015625)"/>
      </defs>
      <use xlink:href="#DejaVuSansMono-50"/>
      <use xlink:href="#DejaVuSansMono-4e" transform="translate(60.205078 0)"/>
      <use xlink:href="#DejaVuSansMono-4b" transform="translate(120.410156 0)"/>
     </g>
    </g>
    <g id="line2d_39">
     <path d="M 74.475 108.141563 
L 92.475 108.141563 
L 110.475 108.141563 
" style="fill: none; stroke: #000000; stroke-width: 2; stroke-linecap: round"/>
     <defs>
      <path id="mc52713c00c" d="M 0 4 
C 1.060812 4 2.078319 3.578535 2.828427 2.828427 
C 3.578535 2.078319 4 1.060812 4 0 
C 4 -1.060812 3.578535 -2.078319 2.828427 -2.828427 
C 2.078319 -3.578535 1.060812 -4 0 -4 
C -1.060812 -4 -2.078319 -3.578535 -2.828427 -2.828427 
C -3.578535 -2.078319 -4 -1.060812 -4 0 
C -4 1.060812 -3.578535 2.078319 -2.828427 2.828427 
C -2.078319 3.578535 -1.060812 4 0 4 
z
" style="stroke: #000000"/>
     </defs>
     <g>
      <use xlink:href="#mc52713c00c" x="92.475" y="108.141563" style="fill: #808080; stroke: #000000"/>
     </g>
    </g>
    <g id="text_25">
     <!-- Relative Diff (PNK vs C) -->
     <g style="fill: #262626" transform="translate(124.875 114.441563) scale(0.18 -0.18)">
      <defs>
       <path id="DejaVuSansMono-6c" d="M 1997 1269 
Q 1997 881 2139 684 
Q 2281 488 2559 488 
L 3231 488 
L 3231 0 
L 2503 0 
Q 1988 0 1705 331 
Q 1422 663 1422 1269 
L 1422 4447 
L 500 4447 
L 500 4897 
L 1997 4897 
L 1997 1269 
z
" transform="scale(0.015625)"/>
       <path id="DejaVuSansMono-61" d="M 2194 1759 
L 2003 1759 
Q 1500 1759 1245 1582 
Q 991 1406 991 1056 
Q 991 741 1181 566 
Q 1372 391 1709 391 
Q 2184 391 2456 720 
Q 2728 1050 2731 1631 
L 2731 1759 
L 2194 1759 
z
M 3309 1997 
L 3309 0 
L 2731 0 
L 2731 519 
Q 2547 206 2267 57 
Q 1988 -91 1588 -91 
Q 1053 -91 734 211 
Q 416 513 416 1019 
Q 416 1603 808 1906 
Q 1200 2209 1959 2209 
L 2731 2209 
L 2731 2300 
Q 2728 2719 2518 2908 
Q 2309 3097 1850 3097 
Q 1556 3097 1256 3012 
Q 956 2928 672 2766 
L 672 3341 
Q 991 3463 1283 3523 
Q 1575 3584 1850 3584 
Q 2284 3584 2592 3456 
Q 2900 3328 3091 3072 
Q 3209 2916 3259 2686 
Q 3309 2456 3309 1997 
z
" transform="scale(0.015625)"/>
       <path id="DejaVuSansMono-69" d="M 800 3500 
L 2272 3500 
L 2272 447 
L 3413 447 
L 3413 0 
L 556 0 
L 556 447 
L 1697 447 
L 1697 3053 
L 800 3053 
L 800 3500 
z
M 1697 4863 
L 2272 4863 
L 2272 4134 
L 1697 4134 
L 1697 4863 
z
" transform="scale(0.015625)"/>
       <path id="DejaVuSansMono-76" d="M 313 3500 
L 909 3500 
L 1925 563 
L 2944 3500 
L 3541 3500 
L 2297 0 
L 1556 0 
L 313 3500 
z
" transform="scale(0.015625)"/>
       <path id="DejaVuSansMono-44" d="M 1363 519 
Q 2159 519 2475 911 
Q 2791 1303 2791 2328 
Q 2791 3363 2477 3755 
Q 2163 4147 1363 4147 
L 1063 4147 
L 1063 519 
L 1363 519 
z
M 1375 4666 
Q 2444 4666 2950 4097 
Q 3456 3528 3456 2328 
Q 3456 1134 2950 567 
Q 2444 0 1375 0 
L 428 0 
L 428 4666 
L 1375 4666 
z
" transform="scale(0.015625)"/>
       <path id="DejaVuSansMono-66" d="M 3322 4863 
L 3322 4384 
L 2669 4384 
Q 2359 4384 2239 4257 
Q 2119 4131 2119 3809 
L 2119 3500 
L 3322 3500 
L 3322 3053 
L 2119 3053 
L 2119 0 
L 1544 0 
L 1544 3053 
L 609 3053 
L 609 3500 
L 1544 3500 
L 1544 3744 
Q 1544 4319 1808 4591 
Q 2072 4863 2631 4863 
L 3322 4863 
z
" transform="scale(0.015625)"/>
      </defs>
      <use xlink:href="#DejaVuSansMono-52"/>
      <use xlink:href="#DejaVuSansMono-65" transform="translate(60.205078 0)"/>
      <use xlink:href="#DejaVuSansMono-6c" transform="translate(120.410156 0)"/>
      <use xlink:href="#DejaVuSansMono-61" transform="translate(180.615234 0)"/>
      <use xlink:href="#DejaVuSansMono-74" transform="translate(240.820312 0)"/>
      <use xlink:href="#DejaVuSansMono-69" transform="translate(301.025391 0)"/>
      <use xlink:href="#DejaVuSansMono-76" transform="translate(361.230469 0)"/>
      <use xlink:href="#DejaVuSansMono-65" transform="translate(421.435547 0)"/>
      <use xlink:href="#DejaVuSansMono-20" transform="translate(481.640625 0)"/>
      <use xlink:href="#DejaVuSansMono-44" transform="translate(541.845703 0)"/>
      <use xlink:href="#DejaVuSansMono-69" transform="translate(602.050781 0)"/>
      <use xlink:href="#DejaVuSansMono-66" transform="translate(662.255859 0)"/>
      <use xlink:href="#DejaVuSansMono-66" transform="translate(722.460938 0)"/>
      <use xlink:href="#DejaVuSansMono-20" transform="translate(782.666016 0)"/>
      <use xlink:href="#DejaVuSansMono-28" transform="translate(842.871094 0)"/>
      <use xlink:href="#DejaVuSansMono-50" transform="translate(903.076172 0)"/>
      <use xlink:href="#DejaVuSansMono-4e" transform="translate(963.28125 0)"/>
      <use xlink:href="#DejaVuSansMono-4b" transform="translate(1023.486328 0)"/>
      <use xlink:href="#DejaVuSansMono-20" transform="translate(1083.691406 0)"/>
      <use xlink:href="#DejaVuSansMono-76" transform="translate(1143.896484 0)"/>
      <use xlink:href="#DejaVuSansMono-73" transform="translate(1204.101562 0)"/>
      <use xlink:href="#DejaVuSansMono-20" transform="translate(1264.306641 0)"/>
      <use xlink:href="#DejaVuSansMono-43" transform="translate(1324.511719 0)"/>
      <use xlink:href="#DejaVuSansMono-29" transform="translate(1384.716797 0)"/>
     </g>
    </g>
   </g>
  </g>
  <g id="axes_2">
   <g id="matplotlib.axis_3">
    <g id="ytick_7">
     <g id="line2d_40">
      <path d="M 58.275 778.873198 
L 1072.745 778.873198 
" clip-path="url(#pc10493883b)" style="fill: none; stroke-dasharray: 1.85,0.8; stroke-dashoffset: 0; stroke: #cccccc; stroke-opacity: 0.2; stroke-width: 0.5"/>
     </g>
     <g id="line2d_41"/>
     <g id="text_26">
      <!-- 20 -->
      <g style="fill: #262626" transform="translate(1076.245 782.698979) scale(0.1 -0.1)">
       <defs>
        <path id="DejaVuSansMono-2212" d="M 275 2272 
L 3578 2272 
L 3578 1741 
L 275 1741 
L 275 2272 
z
" transform="scale(0.015625)"/>
       </defs>
       <use xlink:href="#DejaVuSansMono-2212"/>
       <use xlink:href="#DejaVuSansMono-32" transform="translate(60.205078 0)"/>
       <use xlink:href="#DejaVuSansMono-30" transform="translate(120.410156 0)"/>
      </g>
     </g>
    </g>
    <g id="ytick_8">
     <g id="line2d_42">
      <path d="M 58.275 629.385808 
L 1072.745 629.385808 
" clip-path="url(#pc10493883b)" style="fill: none; stroke-dasharray: 1.85,0.8; stroke-dashoffset: 0; stroke: #cccccc; stroke-opacity: 0.2; stroke-width: 0.5"/>
     </g>
     <g id="line2d_43"/>
     <g id="text_27">
      <!-- 0 -->
      <g style="fill: #262626" transform="translate(1076.245 633.21159) scale(0.1 -0.1)">
       <use xlink:href="#DejaVuSansMono-30"/>
      </g>
     </g>
    </g>
    <g id="ytick_9">
     <g id="line2d_44">
      <path d="M 58.275 479.898419 
L 1072.745 479.898419 
" clip-path="url(#pc10493883b)" style="fill: none; stroke-dasharray: 1.85,0.8; stroke-dashoffset: 0; stroke: #cccccc; stroke-opacity: 0.2; stroke-width: 0.5"/>
     </g>
     <g id="line2d_45"/>
     <g id="text_28">
      <!-- 20 -->
      <g style="fill: #262626" transform="translate(1076.245 483.7242) scale(0.1 -0.1)">
       <use xlink:href="#DejaVuSansMono-32"/>
       <use xlink:href="#DejaVuSansMono-30" transform="translate(60.205078 0)"/>
      </g>
     </g>
    </g>
    <g id="ytick_10">
     <g id="line2d_46">
      <path d="M 58.275 330.411029 
L 1072.745 330.411029 
" clip-path="url(#pc10493883b)" style="fill: none; stroke-dasharray: 1.85,0.8; stroke-dashoffset: 0; stroke: #cccccc; stroke-opacity: 0.2; stroke-width: 0.5"/>
     </g>
     <g id="line2d_47"/>
     <g id="text_29">
      <!-- 40 -->
      <g style="fill: #262626" transform="translate(1076.245 334.23681) scale(0.1 -0.1)">
       <use xlink:href="#DejaVuSansMono-34"/>
       <use xlink:href="#DejaVuSansMono-30" transform="translate(60.205078 0)"/>
      </g>
     </g>
    </g>
    <g id="ytick_11">
     <g id="line2d_48">
      <path d="M 58.275 180.92364 
L 1072.745 180.92364 
" clip-path="url(#pc10493883b)" style="fill: none; stroke-dasharray: 1.85,0.8; stroke-dashoffset: 0; stroke: #cccccc; stroke-opacity: 0.2; stroke-width: 0.5"/>
     </g>
     <g id="line2d_49"/>
     <g id="text_30">
      <!-- 60 -->
      <g style="fill: #262626" transform="translate(1076.245 184.749421) scale(0.1 -0.1)">
       <use xlink:href="#DejaVuSansMono-36"/>
       <use xlink:href="#DejaVuSansMono-30" transform="translate(60.205078 0)"/>
      </g>
     </g>
    </g>
    <g id="ytick_12">
     <g id="line2d_50">
      <path d="M 58.275 31.43625 
L 1072.745 31.43625 
" clip-path="url(#pc10493883b)" style="fill: none; stroke-dasharray: 1.85,0.8; stroke-dashoffset: 0; stroke: #cccccc; stroke-opacity: 0.2; stroke-width: 0.5"/>
     </g>
     <g id="line2d_51"/>
     <g id="text_31">
      <!-- 80 -->
      <g style="fill: #262626" transform="translate(1076.245 35.262031) scale(0.1 -0.1)">
       <use xlink:href="#DejaVuSansMono-38"/>
       <use xlink:href="#DejaVuSansMono-30" transform="translate(60.205078 0)"/>
      </g>
     </g>
    </g>
    <g id="text_32">
     <!-- Relative Difference (%) -->
     <g style="fill: #262626" transform="translate(1113.609062 543.621912) rotate(-90) scale(0.2 -0.2)">
      <defs>
       <path id="DejaVuSansMono-63" d="M 3316 178 
Q 3084 44 2839 -23 
Q 2594 -91 2338 -91 
Q 1525 -91 1067 396 
Q 609 884 609 1747 
Q 609 2609 1067 3096 
Q 1525 3584 2338 3584 
Q 2591 3584 2831 3518 
Q 3072 3453 3316 3316 
L 3316 2713 
Q 3088 2916 2858 3006 
Q 2628 3097 2338 3097 
Q 1797 3097 1506 2747 
Q 1216 2397 1216 1747 
Q 1216 1100 1508 748 
Q 1800 397 2338 397 
Q 2638 397 2875 489 
Q 3113 581 3316 775 
L 3316 178 
z
" transform="scale(0.015625)"/>
       <path id="DejaVuSansMono-25" d="M 2175 997 
Q 2175 753 2339 587 
Q 2503 422 2747 422 
Q 2988 422 3155 589 
Q 3322 756 3322 997 
Q 3322 1238 3153 1406 
Q 2984 1575 2747 1575 
Q 2503 1575 2339 1409 
Q 2175 1244 2175 997 
z
M 1753 997 
Q 1753 1419 2040 1708 
Q 2328 1997 2747 1997 
Q 2947 1997 3126 1922 
Q 3306 1847 3450 1703 
Q 3594 1556 3672 1375 
Q 3750 1194 3750 997 
Q 3750 581 3459 290 
Q 3169 0 2747 0 
Q 2322 0 2037 286 
Q 1753 572 1753 997 
z
M 378 1453 
L 269 1753 
L 3525 3059 
L 3653 2759 
L 378 1453 
z
M 525 3475 
Q 525 3228 689 3064 
Q 853 2900 1100 2900 
Q 1341 2900 1509 3067 
Q 1678 3234 1678 3475 
Q 1678 3716 1509 3883 
Q 1341 4050 1100 4050 
Q 859 4050 692 3884 
Q 525 3719 525 3475 
z
M 103 3475 
Q 103 3897 390 4186 
Q 678 4475 1100 4475 
Q 1300 4475 1483 4400 
Q 1666 4325 1806 4184 
Q 1947 4044 2023 3861 
Q 2100 3678 2100 3475 
Q 2100 3056 1809 2767 
Q 1519 2478 1100 2478 
Q 678 2478 390 2765 
Q 103 3053 103 3475 
z
" transform="scale(0.015625)"/>
      </defs>
      <use xlink:href="#DejaVuSansMono-52"/>
      <use xlink:href="#DejaVuSansMono-65" transform="translate(60.205078 0)"/>
      <use xlink:href="#DejaVuSansMono-6c" transform="translate(120.410156 0)"/>
      <use xlink:href="#DejaVuSansMono-61" transform="translate(180.615234 0)"/>
      <use xlink:href="#DejaVuSansMono-74" transform="translate(240.820312 0)"/>
      <use xlink:href="#DejaVuSansMono-69" transform="translate(301.025391 0)"/>
      <use xlink:href="#DejaVuSansMono-76" transform="translate(361.230469 0)"/>
      <use xlink:href="#DejaVuSansMono-65" transform="translate(421.435547 0)"/>
      <use xlink:href="#DejaVuSansMono-20" transform="translate(481.640625 0)"/>
      <use xlink:href="#DejaVuSansMono-44" transform="translate(541.845703 0)"/>
      <use xlink:href="#DejaVuSansMono-69" transform="translate(602.050781 0)"/>
      <use xlink:href="#DejaVuSansMono-66" transform="translate(662.255859 0)"/>
      <use xlink:href="#DejaVuSansMono-66" transform="translate(722.460938 0)"/>
      <use xlink:href="#DejaVuSansMono-65" transform="translate(782.666016 0)"/>
      <use xlink:href="#DejaVuSansMono-72" transform="translate(842.871094 0)"/>
      <use xlink:href="#DejaVuSansMono-65" transform="translate(903.076172 0)"/>
      <use xlink:href="#DejaVuSansMono-6e" transform="translate(963.28125 0)"/>
      <use xlink:href="#DejaVuSansMono-63" transform="translate(1023.486328 0)"/>
      <use xlink:href="#DejaVuSansMono-65" transform="translate(1083.691406 0)"/>
      <use xlink:href="#DejaVuSansMono-20" transform="translate(1143.896484 0)"/>
      <use xlink:href="#DejaVuSansMono-28" transform="translate(1204.101562 0)"/>
      <use xlink:href="#DejaVuSansMono-25" transform="translate(1264.306641 0)"/>
      <use xlink:href="#DejaVuSansMono-29" transform="translate(1324.511719 0)"/>
     </g>
    </g>
   </g>
   <g id="patch_35">
    <path d="M 58.275 778.873198 
L 58.275 31.43625 
" style="fill: none; stroke: #cccccc; stroke-linejoin: miter; stroke-linecap: square"/>
   </g>
   <g id="patch_36">
    <path d="M 1072.745 778.873198 
L 1072.745 31.43625 
" style="fill: none; stroke: #cccccc; stroke-linejoin: miter; stroke-linecap: square"/>
   </g>
   <g id="patch_37">
    <path d="M 58.275 778.873198 
L 1072.745 778.873198 
" style="fill: none; stroke: #cccccc; stroke-linejoin: miter; stroke-linecap: square"/>
   </g>
   <g id="patch_38">
    <path d="M 58.275 31.43625 
L 1072.745 31.43625 
" style="fill: none; stroke: #cccccc; stroke-linejoin: miter; stroke-linecap: square"/>
   </g>
   <g id="line2d_52">
    <path d="M 58.275 629.385808 
L 1072.745 629.385808 
" clip-path="url(#pc10493883b)" style="fill: none; stroke-dasharray: 3.7,1.6; stroke-dashoffset: 0; stroke: #808080; stroke-opacity: 0.7"/>
   </g>
   <g id="line2d_53">
    <path d="M 131.512139 629.385808 
L 203.845116 629.385808 
L 276.178093 629.385808 
L 348.51107 629.385808 
L 420.844046 629.385808 
L 493.177023 629.385808 
L 565.51 629.385808 
L 637.842977 629.385808 
L 710.175954 629.385808 
L 782.50893 629.385808 
L 854.841907 629.385808 
L 927.174884 629.385808 
L 999.507861 629.385808 
" clip-path="url(#pc10493883b)" style="fill: none; stroke: #555555; stroke-width: 4; stroke-linecap: round"/>
   </g>
   <g id="line2d_54">
    <defs>
     <path id="m696737c93f" d="M 0 7 
C 1.856422 7 3.637059 6.262436 4.949747 4.949747 
C 6.262436 3.637059 7 1.856422 7 0 
C 7 -1.856422 6.262436 -3.637059 4.949747 -4.949747 
C 3.637059 -6.262436 1.856422 -7 0 -7 
C -1.856422 -7 -3.637059 -6.262436 -4.949747 -4.949747 
C -6.262436 -3.637059 -7 -1.856422 -7 0 
C -7 1.856422 -6.262436 3.637059 -4.949747 4.949747 
C -3.637059 6.262436 -1.856422 7 0 7 
z
" style="stroke: #555555"/>
    </defs>
    <g clip-path="url(#pc10493883b)">
     <use xlink:href="#m696737c93f" x="131.512139" y="629.385808" style="fill: #555555; stroke: #555555"/>
    </g>
   </g>
   <g id="line2d_55">
    <g clip-path="url(#pc10493883b)">
     <use xlink:href="#m696737c93f" x="203.845116" y="629.385808" style="fill: #555555; stroke: #555555"/>
    </g>
   </g>
   <g id="line2d_56">
    <g clip-path="url(#pc10493883b)">
     <use xlink:href="#m696737c93f" x="276.178093" y="629.385808" style="fill: #555555; stroke: #555555"/>
    </g>
   </g>
   <g id="line2d_57">
    <g clip-path="url(#pc10493883b)">
     <use xlink:href="#m696737c93f" x="348.51107" y="629.385808" style="fill: #555555; stroke: #555555"/>
    </g>
   </g>
   <g id="line2d_58">
    <g clip-path="url(#pc10493883b)">
     <use xlink:href="#m696737c93f" x="420.844046" y="629.385808" style="fill: #555555; stroke: #555555"/>
    </g>
   </g>
   <g id="line2d_59">
    <g clip-path="url(#pc10493883b)">
     <use xlink:href="#m696737c93f" x="493.177023" y="629.385808" style="fill: #555555; stroke: #555555"/>
    </g>
   </g>
   <g id="line2d_60">
    <g clip-path="url(#pc10493883b)">
     <use xlink:href="#m696737c93f" x="565.51" y="629.385808" style="fill: #555555; stroke: #555555"/>
    </g>
   </g>
   <g id="line2d_61">
    <g clip-path="url(#pc10493883b)">
     <use xlink:href="#m696737c93f" x="637.842977" y="629.385808" style="fill: #555555; stroke: #555555"/>
    </g>
   </g>
   <g id="line2d_62">
    <g clip-path="url(#pc10493883b)">
     <use xlink:href="#m696737c93f" x="710.175954" y="629.385808" style="fill: #555555; stroke: #555555"/>
    </g>
   </g>
   <g id="line2d_63">
    <g clip-path="url(#pc10493883b)">
     <use xlink:href="#m696737c93f" x="782.50893" y="629.385808" style="fill: #555555; stroke: #555555"/>
    </g>
   </g>
   <g id="line2d_64">
    <g clip-path="url(#pc10493883b)">
     <use xlink:href="#m696737c93f" x="854.841907" y="629.385808" style="fill: #555555; stroke: #555555"/>
    </g>
   </g>
   <g id="line2d_65">
    <g clip-path="url(#pc10493883b)">
     <use xlink:href="#m696737c93f" x="927.174884" y="629.385808" style="fill: #555555; stroke: #555555"/>
    </g>
   </g>
   <g id="line2d_66">
    <g clip-path="url(#pc10493883b)">
     <use xlink:href="#m696737c93f" x="999.507861" y="629.385808" style="fill: #555555; stroke: #555555"/>
    </g>
   </g>
   <g id="text_33">
    <g id="patch_39">
     <path d="M 112.247139 595.213961 
L 150.777139 595.213961 
Q 153.977139 595.213961 153.977139 592.013961 
L 153.977139 576.528961 
Q 153.977139 573.328961 150.777139 573.328961 
L 112.247139 573.328961 
Q 109.047139 573.328961 109.047139 576.528961 
L 109.047139 592.013961 
Q 109.047139 595.213961 112.247139 595.213961 
z
" style="fill: #d3d3d3; opacity: 0.7; stroke: #808080; stroke-width: 0.5; stroke-linejoin: miter"/>
    </g>
    <!-- 0.0% -->
    <g style="fill: #555555" transform="translate(112.247139 588.686461) scale(0.16 -0.16)">
     <defs>
      <path id="DejaVuSansMono-Bold-30" d="M 1538 2328 
Q 1538 2494 1650 2606 
Q 1763 2719 1925 2719 
Q 2091 2719 2203 2606 
Q 2316 2494 2316 2328 
Q 2316 2166 2203 2053 
Q 2091 1941 1925 1941 
Q 1763 1941 1650 2052 
Q 1538 2163 1538 2328 
z
M 1925 3969 
Q 1606 3969 1459 3578 
Q 1313 3188 1313 2328 
Q 1313 1472 1459 1081 
Q 1606 691 1925 691 
Q 2247 691 2394 1081 
Q 2541 1472 2541 2328 
Q 2541 3188 2394 3578 
Q 2247 3969 1925 3969 
z
M 384 2328 
Q 384 3541 768 4145 
Q 1153 4750 1925 4750 
Q 2700 4750 3084 4147 
Q 3469 3544 3469 2328 
Q 3469 1116 3084 512 
Q 2700 -91 1925 -91 
Q 1153 -91 768 514 
Q 384 1119 384 2328 
z
" transform="scale(0.015625)"/>
      <path id="DejaVuSansMono-Bold-2e" d="M 1403 1147 
L 2444 1147 
L 2444 0 
L 1403 0 
L 1403 1147 
z
" transform="scale(0.015625)"/>
      <path id="DejaVuSansMono-Bold-25" d="M 103 3475 
Q 103 3894 393 4184 
Q 684 4475 1100 4475 
Q 1516 4475 1808 4183 
Q 2100 3891 2100 3475 
Q 2100 3059 1808 2768 
Q 1516 2478 1100 2478 
Q 684 2478 393 2767 
Q 103 3056 103 3475 
z
M 1100 3903 
Q 922 3903 797 3779 
Q 672 3656 672 3475 
Q 672 3294 797 3170 
Q 922 3047 1100 3047 
Q 1281 3047 1404 3170 
Q 1528 3294 1528 3475 
Q 1528 3653 1403 3778 
Q 1278 3903 1100 3903 
z
M 269 1753 
L 3525 3059 
L 3653 2759 
L 378 1453 
L 269 1753 
z
M 1813 997 
Q 1813 1416 2102 1706 
Q 2391 1997 2809 1997 
Q 3222 1997 3515 1705 
Q 3809 1413 3809 997 
Q 3809 584 3515 292 
Q 3222 0 2809 0 
Q 2391 0 2102 289 
Q 1813 578 1813 997 
z
M 2803 1428 
Q 2628 1428 2504 1303 
Q 2381 1178 2381 997 
Q 2381 816 2503 692 
Q 2625 569 2803 569 
Q 2984 569 3111 694 
Q 3238 819 3238 997 
Q 3238 1175 3109 1301 
Q 2981 1428 2803 1428 
z
" transform="scale(0.015625)"/>
     </defs>
     <use xlink:href="#DejaVuSansMono-Bold-30"/>
     <use xlink:href="#DejaVuSansMono-Bold-2e" transform="translate(60.205078 0)"/>
     <use xlink:href="#DejaVuSansMono-Bold-30" transform="translate(120.410156 0)"/>
     <use xlink:href="#DejaVuSansMono-Bold-25" transform="translate(180.615234 0)"/>
    </g>
   </g>
   <g id="text_34">
    <g id="patch_40">
     <path d="M 184.580116 595.213961 
L 223.110116 595.213961 
Q 226.310116 595.213961 226.310116 592.013961 
L 226.310116 576.528961 
Q 226.310116 573.328961 223.110116 573.328961 
L 184.580116 573.328961 
Q 181.380116 573.328961 181.380116 576.528961 
L 181.380116 592.013961 
Q 181.380116 595.213961 184.580116 595.213961 
z
" style="fill: #d3d3d3; opacity: 0.7; stroke: #808080; stroke-width: 0.5; stroke-linejoin: miter"/>
    </g>
    <!-- 0.0% -->
    <g style="fill: #555555" transform="translate(184.580116 588.686461) scale(0.16 -0.16)">
     <use xlink:href="#DejaVuSansMono-Bold-30"/>
     <use xlink:href="#DejaVuSansMono-Bold-2e" transform="translate(60.205078 0)"/>
     <use xlink:href="#DejaVuSansMono-Bold-30" transform="translate(120.410156 0)"/>
     <use xlink:href="#DejaVuSansMono-Bold-25" transform="translate(180.615234 0)"/>
    </g>
   </g>
   <g id="text_35">
    <g id="patch_41">
     <path d="M 256.913093 595.213961 
L 295.443093 595.213961 
Q 298.643093 595.213961 298.643093 592.013961 
L 298.643093 576.528961 
Q 298.643093 573.328961 295.443093 573.328961 
L 256.913093 573.328961 
Q 253.713093 573.328961 253.713093 576.528961 
L 253.713093 592.013961 
Q 253.713093 595.213961 256.913093 595.213961 
z
" style="fill: #d3d3d3; opacity: 0.7; stroke: #808080; stroke-width: 0.5; stroke-linejoin: miter"/>
    </g>
    <!-- 0.0% -->
    <g style="fill: #555555" transform="translate(256.913093 588.686461) scale(0.16 -0.16)">
     <use xlink:href="#DejaVuSansMono-Bold-30"/>
     <use xlink:href="#DejaVuSansMono-Bold-2e" transform="translate(60.205078 0)"/>
     <use xlink:href="#DejaVuSansMono-Bold-30" transform="translate(120.410156 0)"/>
     <use xlink:href="#DejaVuSansMono-Bold-25" transform="translate(180.615234 0)"/>
    </g>
   </g>
   <g id="text_36">
    <g id="patch_42">
     <path d="M 329.24607 595.213961 
L 367.77607 595.213961 
Q 370.97607 595.213961 370.97607 592.013961 
L 370.97607 576.528961 
Q 370.97607 573.328961 367.77607 573.328961 
L 329.24607 573.328961 
Q 326.04607 573.328961 326.04607 576.528961 
L 326.04607 592.013961 
Q 326.04607 595.213961 329.24607 595.213961 
z
" style="fill: #d3d3d3; opacity: 0.7; stroke: #808080; stroke-width: 0.5; stroke-linejoin: miter"/>
    </g>
    <!-- 0.0% -->
    <g style="fill: #555555" transform="translate(329.24607 588.686461) scale(0.16 -0.16)">
     <use xlink:href="#DejaVuSansMono-Bold-30"/>
     <use xlink:href="#DejaVuSansMono-Bold-2e" transform="translate(60.205078 0)"/>
     <use xlink:href="#DejaVuSansMono-Bold-30" transform="translate(120.410156 0)"/>
     <use xlink:href="#DejaVuSansMono-Bold-25" transform="translate(180.615234 0)"/>
    </g>
   </g>
   <g id="text_37">
    <g id="patch_43">
     <path d="M 401.579046 595.213961 
L 440.109046 595.213961 
Q 443.309046 595.213961 443.309046 592.013961 
L 443.309046 576.528961 
Q 443.309046 573.328961 440.109046 573.328961 
L 401.579046 573.328961 
Q 398.379046 573.328961 398.379046 576.528961 
L 398.379046 592.013961 
Q 398.379046 595.213961 401.579046 595.213961 
z
" style="fill: #d3d3d3; opacity: 0.7; stroke: #808080; stroke-width: 0.5; stroke-linejoin: miter"/>
    </g>
    <!-- 0.0% -->
    <g style="fill: #555555" transform="translate(401.579046 588.686461) scale(0.16 -0.16)">
     <use xlink:href="#DejaVuSansMono-Bold-30"/>
     <use xlink:href="#DejaVuSansMono-Bold-2e" transform="translate(60.205078 0)"/>
     <use xlink:href="#DejaVuSansMono-Bold-30" transform="translate(120.410156 0)"/>
     <use xlink:href="#DejaVuSansMono-Bold-25" transform="translate(180.615234 0)"/>
    </g>
   </g>
   <g id="text_38">
    <g id="patch_44">
     <path d="M 473.912023 595.213961 
L 512.442023 595.213961 
Q 515.642023 595.213961 515.642023 592.013961 
L 515.642023 576.528961 
Q 515.642023 573.328961 512.442023 573.328961 
L 473.912023 573.328961 
Q 470.712023 573.328961 470.712023 576.528961 
L 470.712023 592.013961 
Q 470.712023 595.213961 473.912023 595.213961 
z
" style="fill: #d3d3d3; opacity: 0.7; stroke: #808080; stroke-width: 0.5; stroke-linejoin: miter"/>
    </g>
    <!-- 0.0% -->
    <g style="fill: #555555" transform="translate(473.912023 588.686461) scale(0.16 -0.16)">
     <use xlink:href="#DejaVuSansMono-Bold-30"/>
     <use xlink:href="#DejaVuSansMono-Bold-2e" transform="translate(60.205078 0)"/>
     <use xlink:href="#DejaVuSansMono-Bold-30" transform="translate(120.410156 0)"/>
     <use xlink:href="#DejaVuSansMono-Bold-25" transform="translate(180.615234 0)"/>
    </g>
   </g>
   <g id="text_39">
    <g id="patch_45">
     <path d="M 546.245 595.213961 
L 584.775 595.213961 
Q 587.975 595.213961 587.975 592.013961 
L 587.975 576.528961 
Q 587.975 573.328961 584.775 573.328961 
L 546.245 573.328961 
Q 543.045 573.328961 543.045 576.528961 
L 543.045 592.013961 
Q 543.045 595.213961 546.245 595.213961 
z
" style="fill: #d3d3d3; opacity: 0.7; stroke: #808080; stroke-width: 0.5; stroke-linejoin: miter"/>
    </g>
    <!-- 0.0% -->
    <g style="fill: #555555" transform="translate(546.245 588.686461) scale(0.16 -0.16)">
     <use xlink:href="#DejaVuSansMono-Bold-30"/>
     <use xlink:href="#DejaVuSansMono-Bold-2e" transform="translate(60.205078 0)"/>
     <use xlink:href="#DejaVuSansMono-Bold-30" transform="translate(120.410156 0)"/>
     <use xlink:href="#DejaVuSansMono-Bold-25" transform="translate(180.615234 0)"/>
    </g>
   </g>
   <g id="text_40">
    <g id="patch_46">
     <path d="M 618.577977 595.213961 
L 657.107977 595.213961 
Q 660.307977 595.213961 660.307977 592.013961 
L 660.307977 576.528961 
Q 660.307977 573.328961 657.107977 573.328961 
L 618.577977 573.328961 
Q 615.377977 573.328961 615.377977 576.528961 
L 615.377977 592.013961 
Q 615.377977 595.213961 618.577977 595.213961 
z
" style="fill: #d3d3d3; opacity: 0.7; stroke: #808080; stroke-width: 0.5; stroke-linejoin: miter"/>
    </g>
    <!-- 0.0% -->
    <g style="fill: #555555" transform="translate(618.577977 588.686461) scale(0.16 -0.16)">
     <use xlink:href="#DejaVuSansMono-Bold-30"/>
     <use xlink:href="#DejaVuSansMono-Bold-2e" transform="translate(60.205078 0)"/>
     <use xlink:href="#DejaVuSansMono-Bold-30" transform="translate(120.410156 0)"/>
     <use xlink:href="#DejaVuSansMono-Bold-25" transform="translate(180.615234 0)"/>
    </g>
   </g>
   <g id="text_41">
    <g id="patch_47">
     <path d="M 690.910954 595.213961 
L 729.440954 595.213961 
Q 732.640954 595.213961 732.640954 592.013961 
L 732.640954 576.528961 
Q 732.640954 573.328961 729.440954 573.328961 
L 690.910954 573.328961 
Q 687.710954 573.328961 687.710954 576.528961 
L 687.710954 592.013961 
Q 687.710954 595.213961 690.910954 595.213961 
z
" style="fill: #d3d3d3; opacity: 0.7; stroke: #808080; stroke-width: 0.5; stroke-linejoin: miter"/>
    </g>
    <!-- 0.0% -->
    <g style="fill: #555555" transform="translate(690.910954 588.686461) scale(0.16 -0.16)">
     <use xlink:href="#DejaVuSansMono-Bold-30"/>
     <use xlink:href="#DejaVuSansMono-Bold-2e" transform="translate(60.205078 0)"/>
     <use xlink:href="#DejaVuSansMono-Bold-30" transform="translate(120.410156 0)"/>
     <use xlink:href="#DejaVuSansMono-Bold-25" transform="translate(180.615234 0)"/>
    </g>
   </g>
   <g id="text_42">
    <g id="patch_48">
     <path d="M 763.24393 595.213961 
L 801.77393 595.213961 
Q 804.97393 595.213961 804.97393 592.013961 
L 804.97393 576.528961 
Q 804.97393 573.328961 801.77393 573.328961 
L 763.24393 573.328961 
Q 760.04393 573.328961 760.04393 576.528961 
L 760.04393 592.013961 
Q 760.04393 595.213961 763.24393 595.213961 
z
" style="fill: #d3d3d3; opacity: 0.7; stroke: #808080; stroke-width: 0.5; stroke-linejoin: miter"/>
    </g>
    <!-- 0.0% -->
    <g style="fill: #555555" transform="translate(763.24393 588.686461) scale(0.16 -0.16)">
     <use xlink:href="#DejaVuSansMono-Bold-30"/>
     <use xlink:href="#DejaVuSansMono-Bold-2e" transform="translate(60.205078 0)"/>
     <use xlink:href="#DejaVuSansMono-Bold-30" transform="translate(120.410156 0)"/>
     <use xlink:href="#DejaVuSansMono-Bold-25" transform="translate(180.615234 0)"/>
    </g>
   </g>
   <g id="text_43">
    <g id="patch_49">
     <path d="M 835.576907 595.213961 
L 874.106907 595.213961 
Q 877.306907 595.213961 877.306907 592.013961 
L 877.306907 576.528961 
Q 877.306907 573.328961 874.106907 573.328961 
L 835.576907 573.328961 
Q 832.376907 573.328961 832.376907 576.528961 
L 832.376907 592.013961 
Q 832.376907 595.213961 835.576907 595.213961 
z
" style="fill: #d3d3d3; opacity: 0.7; stroke: #808080; stroke-width: 0.5; stroke-linejoin: miter"/>
    </g>
    <!-- 0.0% -->
    <g style="fill: #555555" transform="translate(835.576907 588.686461) scale(0.16 -0.16)">
     <use xlink:href="#DejaVuSansMono-Bold-30"/>
     <use xlink:href="#DejaVuSansMono-Bold-2e" transform="translate(60.205078 0)"/>
     <use xlink:href="#DejaVuSansMono-Bold-30" transform="translate(120.410156 0)"/>
     <use xlink:href="#DejaVuSansMono-Bold-25" transform="translate(180.615234 0)"/>
    </g>
   </g>
   <g id="text_44">
    <g id="patch_50">
     <path d="M 907.909884 595.213961 
L 946.439884 595.213961 
Q 949.639884 595.213961 949.639884 592.013961 
L 949.639884 576.528961 
Q 949.639884 573.328961 946.439884 573.328961 
L 907.909884 573.328961 
Q 904.709884 573.328961 904.709884 576.528961 
L 904.709884 592.013961 
Q 904.709884 595.213961 907.909884 595.213961 
z
" style="fill: #d3d3d3; opacity: 0.7; stroke: #808080; stroke-width: 0.5; stroke-linejoin: miter"/>
    </g>
    <!-- 0.0% -->
    <g style="fill: #555555" transform="translate(907.909884 588.686461) scale(0.16 -0.16)">
     <use xlink:href="#DejaVuSansMono-Bold-30"/>
     <use xlink:href="#DejaVuSansMono-Bold-2e" transform="translate(60.205078 0)"/>
     <use xlink:href="#DejaVuSansMono-Bold-30" transform="translate(120.410156 0)"/>
     <use xlink:href="#DejaVuSansMono-Bold-25" transform="translate(180.615234 0)"/>
    </g>
   </g>
   <g id="text_45">
    <g id="patch_51">
     <path d="M 980.242861 595.213961 
L 1018.772861 595.213961 
Q 1021.972861 595.213961 1021.972861 592.013961 
L 1021.972861 576.528961 
Q 1021.972861 573.328961 1018.772861 573.328961 
L 980.242861 573.328961 
Q 977.042861 573.328961 977.042861 576.528961 
L 977.042861 592.013961 
Q 977.042861 595.213961 980.242861 595.213961 
z
" style="fill: #d3d3d3; opacity: 0.7; stroke: #808080; stroke-width: 0.5; stroke-linejoin: miter"/>
    </g>
    <!-- 0.0% -->
    <g style="fill: #555555" transform="translate(980.242861 588.686461) scale(0.16 -0.16)">
     <use xlink:href="#DejaVuSansMono-Bold-30"/>
     <use xlink:href="#DejaVuSansMono-Bold-2e" transform="translate(60.205078 0)"/>
     <use xlink:href="#DejaVuSansMono-Bold-30" transform="translate(120.410156 0)"/>
     <use xlink:href="#DejaVuSansMono-Bold-25" transform="translate(180.615234 0)"/>
    </g>
   </g>
  </g>
 </g>
 <defs>
  <clipPath id="pc10493883b">
   <rect x="58.275" y="31.43625" width="1014.47" height="747.436948"/>
  </clipPath>
 </defs>
</svg>
