<?xml version="1.0" encoding="utf-8" standalone="no"?>
<!DOCTYPE svg PUBLIC "-//W3C//DTD SVG 1.1//EN"
  "http://www.w3.org/Graphics/SVG/1.1/DTD/svg11.dtd">
<svg xmlns:xlink="http://www.w3.org/1999/xlink" width="1003.267187pt" height="1843.779798pt" viewBox="0 0 1003.267187 1843.779798" xmlns="http://www.w3.org/2000/svg" version="1.1">
 <metadata>
  <rdf:RDF xmlns:dc="http://purl.org/dc/elements/1.1/" xmlns:cc="http://creativecommons.org/ns#" xmlns:rdf="http://www.w3.org/1999/02/22-rdf-syntax-ns#">
   <cc:Work>
    <dc:type rdf:resource="http://purl.org/dc/dcmitype/StillImage"/>
    <dc:date>2025-08-17T17:03:32.653465</dc:date>
    <dc:format>image/svg+xml</dc:format>
    <dc:creator>
     <cc:Agent>
      <dc:title>Matplotlib v3.10.5, https://matplotlib.org/</dc:title>
     </cc:Agent>
    </dc:creator>
   </cc:Work>
  </rdf:RDF>
 </metadata>
 <defs>
  <style type="text/css">*{stroke-linejoin: round; stroke-linecap: butt}</style>
 </defs>
 <g id="figure_1">
  <g id="patch_1">
   <path d="M 0 1843.779798 
L 1003.267187 1843.779798 
L 1003.267187 0 
L 0 0 
z
" style="fill: #ffffff"/>
  </g>
  <g id="axes_1">
   <g id="patch_2">
    <path d="M 58.24375 1785.677 
L 951.04375 1785.677 
L 951.04375 1120.397 
L 58.24375 1120.397 
z
" style="fill: #ffffff"/>
   </g>
   <g id="matplotlib.axis_1">
    <g id="xtick_1">
     <g id="line2d_1">
      <path d="M 122.697226 1785.677 
L 122.697226 1120.397 
" clip-path="url(#p17d8b736b2)" style="fill: none; stroke: #cccccc; stroke-opacity: 0.3; stroke-width: 0.5; stroke-linecap: round"/>
     </g>
     <g id="line2d_2"/>
     <g id="text_1">
      <!-- 10 -->
      <g style="fill: #262626" transform="translate(120.410177 1803.101479) rotate(-45) scale(0.1 -0.1)">
       <defs>
        <path id="DejaVuSansMono-31" d="M 844 531 
L 1825 531 
L 1825 4097 
L 769 3859 
L 769 4434 
L 1819 4666 
L 2450 4666 
L 2450 531 
L 3419 531 
L 3419 0 
L 844 0 
L 844 531 
z
" transform="scale(0.015625)"/>
        <path id="DejaVuSansMono-30" d="M 1509 2344 
Q 1509 2516 1629 2641 
Q 1750 2766 1919 2766 
Q 2094 2766 2219 2641 
Q 2344 2516 2344 2344 
Q 2344 2169 2220 2047 
Q 2097 1925 1919 1925 
Q 1744 1925 1626 2044 
Q 1509 2163 1509 2344 
z
M 1925 4250 
Q 1484 4250 1267 3775 
Q 1050 3300 1050 2328 
Q 1050 1359 1267 884 
Q 1484 409 1925 409 
Q 2369 409 2586 884 
Q 2803 1359 2803 2328 
Q 2803 3300 2586 3775 
Q 2369 4250 1925 4250 
z
M 1925 4750 
Q 2672 4750 3055 4137 
Q 3438 3525 3438 2328 
Q 3438 1134 3055 521 
Q 2672 -91 1925 -91 
Q 1178 -91 797 521 
Q 416 1134 416 2328 
Q 416 3525 797 4137 
Q 1178 4750 1925 4750 
z
" transform="scale(0.015625)"/>
       </defs>
       <use xlink:href="#DejaVuSansMono-31"/>
       <use xlink:href="#DejaVuSansMono-30" transform="translate(60.205078 0)"/>
      </g>
     </g>
    </g>
    <g id="xtick_2">
     <g id="line2d_3">
      <path d="M 186.35498 1785.677 
L 186.35498 1120.397 
" clip-path="url(#p17d8b736b2)" style="fill: none; stroke: #cccccc; stroke-opacity: 0.3; stroke-width: 0.5; stroke-linecap: round"/>
     </g>
     <g id="line2d_4"/>
     <g id="text_2">
      <!-- 20 -->
      <g style="fill: #262626" transform="translate(184.067931 1803.101479) rotate(-45) scale(0.1 -0.1)">
       <defs>
        <path id="DejaVuSansMono-32" d="M 1166 531 
L 3309 531 
L 3309 0 
L 475 0 
L 475 531 
Q 1059 1147 1496 1619 
Q 1934 2091 2100 2284 
Q 2413 2666 2522 2902 
Q 2631 3138 2631 3384 
Q 2631 3775 2401 3997 
Q 2172 4219 1772 4219 
Q 1488 4219 1175 4116 
Q 863 4013 513 3803 
L 513 4441 
Q 834 4594 1145 4672 
Q 1456 4750 1759 4750 
Q 2444 4750 2861 4386 
Q 3278 4022 3278 3431 
Q 3278 3131 3139 2831 
Q 3000 2531 2688 2169 
Q 2513 1966 2180 1606 
Q 1847 1247 1166 531 
z
" transform="scale(0.015625)"/>
       </defs>
       <use xlink:href="#DejaVuSansMono-32"/>
       <use xlink:href="#DejaVuSansMono-30" transform="translate(60.205078 0)"/>
      </g>
     </g>
    </g>
    <g id="xtick_3">
     <g id="line2d_5">
      <path d="M 250.012734 1785.677 
L 250.012734 1120.397 
" clip-path="url(#p17d8b736b2)" style="fill: none; stroke: #cccccc; stroke-opacity: 0.3; stroke-width: 0.5; stroke-linecap: round"/>
     </g>
     <g id="line2d_6"/>
     <g id="text_3">
      <!-- 50 -->
      <g style="fill: #262626" transform="translate(247.725685 1803.101479) rotate(-45) scale(0.1 -0.1)">
       <defs>
        <path id="DejaVuSansMono-35" d="M 647 4666 
L 3009 4666 
L 3009 4134 
L 1222 4134 
L 1222 2988 
Q 1356 3038 1492 3061 
Q 1628 3084 1766 3084 
Q 2491 3084 2916 2656 
Q 3341 2228 3341 1497 
Q 3341 759 2895 334 
Q 2450 -91 1678 -91 
Q 1306 -91 998 -41 
Q 691 9 447 109 
L 447 750 
Q 734 594 1025 517 
Q 1316 441 1619 441 
Q 2141 441 2423 716 
Q 2706 991 2706 1497 
Q 2706 1997 2414 2275 
Q 2122 2553 1600 2553 
Q 1347 2553 1106 2495 
Q 866 2438 647 2322 
L 647 4666 
z
" transform="scale(0.015625)"/>
       </defs>
       <use xlink:href="#DejaVuSansMono-35"/>
       <use xlink:href="#DejaVuSansMono-30" transform="translate(60.205078 0)"/>
      </g>
     </g>
    </g>
    <g id="xtick_4">
     <g id="line2d_7">
      <path d="M 313.670488 1785.677 
L 313.670488 1120.397 
" clip-path="url(#p17d8b736b2)" style="fill: none; stroke: #cccccc; stroke-opacity: 0.3; stroke-width: 0.5; stroke-linecap: round"/>
     </g>
     <g id="line2d_8"/>
     <g id="text_4">
      <!-- 100 -->
      <g style="fill: #262626" transform="translate(309.254938 1807.358483) rotate(-45) scale(0.1 -0.1)">
       <use xlink:href="#DejaVuSansMono-31"/>
       <use xlink:href="#DejaVuSansMono-30" transform="translate(60.205078 0)"/>
       <use xlink:href="#DejaVuSansMono-30" transform="translate(120.410156 0)"/>
      </g>
     </g>
    </g>
    <g id="xtick_5">
     <g id="line2d_9">
      <path d="M 377.328242 1785.677 
L 377.328242 1120.397 
" clip-path="url(#p17d8b736b2)" style="fill: none; stroke: #cccccc; stroke-opacity: 0.3; stroke-width: 0.5; stroke-linecap: round"/>
     </g>
     <g id="line2d_10"/>
     <g id="text_5">
      <!-- 200 -->
      <g style="fill: #262626" transform="translate(372.912692 1807.358483) rotate(-45) scale(0.1 -0.1)">
       <use xlink:href="#DejaVuSansMono-32"/>
       <use xlink:href="#DejaVuSansMono-30" transform="translate(60.205078 0)"/>
       <use xlink:href="#DejaVuSansMono-30" transform="translate(120.410156 0)"/>
      </g>
     </g>
    </g>
    <g id="xtick_6">
     <g id="line2d_11">
      <path d="M 440.985996 1785.677 
L 440.985996 1120.397 
" clip-path="url(#p17d8b736b2)" style="fill: none; stroke: #cccccc; stroke-opacity: 0.3; stroke-width: 0.5; stroke-linecap: round"/>
     </g>
     <g id="line2d_12"/>
     <g id="text_6">
      <!-- 300 -->
      <g style="fill: #262626" transform="translate(436.570446 1807.358483) rotate(-45) scale(0.1 -0.1)">
       <defs>
        <path id="DejaVuSansMono-33" d="M 2425 2497 
Q 2884 2375 3128 2064 
Q 3372 1753 3372 1288 
Q 3372 644 2939 276 
Q 2506 -91 1741 -91 
Q 1419 -91 1084 -31 
Q 750 28 428 141 
L 428 769 
Q 747 603 1056 522 
Q 1366 441 1672 441 
Q 2191 441 2469 675 
Q 2747 909 2747 1350 
Q 2747 1756 2469 1995 
Q 2191 2234 1716 2234 
L 1234 2234 
L 1234 2753 
L 1716 2753 
Q 2150 2753 2394 2943 
Q 2638 3134 2638 3475 
Q 2638 3834 2411 4026 
Q 2184 4219 1766 4219 
Q 1488 4219 1191 4156 
Q 894 4094 569 3969 
L 569 4550 
Q 947 4650 1242 4700 
Q 1538 4750 1766 4750 
Q 2447 4750 2855 4408 
Q 3263 4066 3263 3500 
Q 3263 3116 3048 2859 
Q 2834 2603 2425 2497 
z
" transform="scale(0.015625)"/>
       </defs>
       <use xlink:href="#DejaVuSansMono-33"/>
       <use xlink:href="#DejaVuSansMono-30" transform="translate(60.205078 0)"/>
       <use xlink:href="#DejaVuSansMono-30" transform="translate(120.410156 0)"/>
      </g>
     </g>
    </g>
    <g id="xtick_7">
     <g id="line2d_13">
      <path d="M 504.64375 1785.677 
L 504.64375 1120.397 
" clip-path="url(#p17d8b736b2)" style="fill: none; stroke: #cccccc; stroke-opacity: 0.3; stroke-width: 0.5; stroke-linecap: round"/>
     </g>
     <g id="line2d_14"/>
     <g id="text_7">
      <!-- 400 -->
      <g style="fill: #262626" transform="translate(500.2282 1807.358483) rotate(-45) scale(0.1 -0.1)">
       <defs>
        <path id="DejaVuSansMono-34" d="M 2297 4091 
L 825 1625 
L 2297 1625 
L 2297 4091 
z
M 2194 4666 
L 2925 4666 
L 2925 1625 
L 3547 1625 
L 3547 1113 
L 2925 1113 
L 2925 0 
L 2297 0 
L 2297 1113 
L 319 1113 
L 319 1709 
L 2194 4666 
z
" transform="scale(0.015625)"/>
       </defs>
       <use xlink:href="#DejaVuSansMono-34"/>
       <use xlink:href="#DejaVuSansMono-30" transform="translate(60.205078 0)"/>
       <use xlink:href="#DejaVuSansMono-30" transform="translate(120.410156 0)"/>
      </g>
     </g>
    </g>
    <g id="xtick_8">
     <g id="line2d_15">
      <path d="M 568.301504 1785.677 
L 568.301504 1120.397 
" clip-path="url(#p17d8b736b2)" style="fill: none; stroke: #cccccc; stroke-opacity: 0.3; stroke-width: 0.5; stroke-linecap: round"/>
     </g>
     <g id="line2d_16"/>
     <g id="text_8">
      <!-- 500 -->
      <g style="fill: #262626" transform="translate(563.885954 1807.358483) rotate(-45) scale(0.1 -0.1)">
       <use xlink:href="#DejaVuSansMono-35"/>
       <use xlink:href="#DejaVuSansMono-30" transform="translate(60.205078 0)"/>
       <use xlink:href="#DejaVuSansMono-30" transform="translate(120.410156 0)"/>
      </g>
     </g>
    </g>
    <g id="xtick_9">
     <g id="line2d_17">
      <path d="M 631.959258 1785.677 
L 631.959258 1120.397 
" clip-path="url(#p17d8b736b2)" style="fill: none; stroke: #cccccc; stroke-opacity: 0.3; stroke-width: 0.5; stroke-linecap: round"/>
     </g>
     <g id="line2d_18"/>
     <g id="text_9">
      <!-- 600 -->
      <g style="fill: #262626" transform="translate(627.543708 1807.358483) rotate(-45) scale(0.1 -0.1)">
       <defs>
        <path id="DejaVuSansMono-36" d="M 3097 4563 
L 3097 3981 
Q 2900 4097 2678 4158 
Q 2456 4219 2216 4219 
Q 1616 4219 1306 3767 
Q 997 3316 997 2438 
Q 1147 2750 1412 2917 
Q 1678 3084 2022 3084 
Q 2697 3084 3067 2670 
Q 3438 2256 3438 1497 
Q 3438 741 3056 325 
Q 2675 -91 1984 -91 
Q 1172 -91 794 492 
Q 416 1075 416 2328 
Q 416 3509 870 4129 
Q 1325 4750 2188 4750 
Q 2419 4750 2650 4701 
Q 2881 4653 3097 4563 
z
M 1972 2591 
Q 1569 2591 1337 2300 
Q 1106 2009 1106 1497 
Q 1106 984 1337 693 
Q 1569 403 1972 403 
Q 2391 403 2603 679 
Q 2816 956 2816 1497 
Q 2816 2041 2603 2316 
Q 2391 2591 1972 2591 
z
" transform="scale(0.015625)"/>
       </defs>
       <use xlink:href="#DejaVuSansMono-36"/>
       <use xlink:href="#DejaVuSansMono-30" transform="translate(60.205078 0)"/>
       <use xlink:href="#DejaVuSansMono-30" transform="translate(120.410156 0)"/>
      </g>
     </g>
    </g>
    <g id="xtick_10">
     <g id="line2d_19">
      <path d="M 695.617012 1785.677 
L 695.617012 1120.397 
" clip-path="url(#p17d8b736b2)" style="fill: none; stroke: #cccccc; stroke-opacity: 0.3; stroke-width: 0.5; stroke-linecap: round"/>
     </g>
     <g id="line2d_20"/>
     <g id="text_10">
      <!-- 700 -->
      <g style="fill: #262626" transform="translate(691.201462 1807.358483) rotate(-45) scale(0.1 -0.1)">
       <defs>
        <path id="DejaVuSansMono-37" d="M 434 4666 
L 3372 4666 
L 3372 4397 
L 1703 0 
L 1044 0 
L 2669 4134 
L 434 4134 
L 434 4666 
z
" transform="scale(0.015625)"/>
       </defs>
       <use xlink:href="#DejaVuSansMono-37"/>
       <use xlink:href="#DejaVuSansMono-30" transform="translate(60.205078 0)"/>
       <use xlink:href="#DejaVuSansMono-30" transform="translate(120.410156 0)"/>
      </g>
     </g>
    </g>
    <g id="xtick_11">
     <g id="line2d_21">
      <path d="M 759.274766 1785.677 
L 759.274766 1120.397 
" clip-path="url(#p17d8b736b2)" style="fill: none; stroke: #cccccc; stroke-opacity: 0.3; stroke-width: 0.5; stroke-linecap: round"/>
     </g>
     <g id="line2d_22"/>
     <g id="text_11">
      <!-- 800 -->
      <g style="fill: #262626" transform="translate(754.859216 1807.358483) rotate(-45) scale(0.1 -0.1)">
       <defs>
        <path id="DejaVuSansMono-38" d="M 1925 2216 
Q 1503 2216 1273 1980 
Q 1044 1744 1044 1313 
Q 1044 881 1276 642 
Q 1509 403 1925 403 
Q 2350 403 2579 639 
Q 2809 875 2809 1313 
Q 2809 1741 2576 1978 
Q 2344 2216 1925 2216 
z
M 1375 2478 
Q 972 2581 745 2862 
Q 519 3144 519 3541 
Q 519 4097 897 4423 
Q 1275 4750 1925 4750 
Q 2578 4750 2956 4423 
Q 3334 4097 3334 3541 
Q 3334 3144 3107 2862 
Q 2881 2581 2478 2478 
Q 2947 2375 3195 2062 
Q 3444 1750 3444 1253 
Q 3444 622 3041 265 
Q 2638 -91 1925 -91 
Q 1213 -91 811 264 
Q 409 619 409 1247 
Q 409 1747 657 2061 
Q 906 2375 1375 2478 
z
M 1147 3481 
Q 1147 3106 1347 2909 
Q 1547 2713 1925 2713 
Q 2306 2713 2506 2909 
Q 2706 3106 2706 3481 
Q 2706 3863 2507 4063 
Q 2309 4263 1925 4263 
Q 1547 4263 1347 4061 
Q 1147 3859 1147 3481 
z
" transform="scale(0.015625)"/>
       </defs>
       <use xlink:href="#DejaVuSansMono-38"/>
       <use xlink:href="#DejaVuSansMono-30" transform="translate(60.205078 0)"/>
       <use xlink:href="#DejaVuSansMono-30" transform="translate(120.410156 0)"/>
      </g>
     </g>
    </g>
    <g id="xtick_12">
     <g id="line2d_23">
      <path d="M 822.93252 1785.677 
L 822.93252 1120.397 
" clip-path="url(#p17d8b736b2)" style="fill: none; stroke: #cccccc; stroke-opacity: 0.3; stroke-width: 0.5; stroke-linecap: round"/>
     </g>
     <g id="line2d_24"/>
     <g id="text_12">
      <!-- 900 -->
      <g style="fill: #262626" transform="translate(818.51697 1807.358483) rotate(-45) scale(0.1 -0.1)">
       <defs>
        <path id="DejaVuSansMono-39" d="M 1863 2069 
Q 2266 2069 2495 2359 
Q 2725 2650 2725 3163 
Q 2725 3675 2495 3965 
Q 2266 4256 1863 4256 
Q 1444 4256 1231 3979 
Q 1019 3703 1019 3163 
Q 1019 2619 1230 2344 
Q 1441 2069 1863 2069 
z
M 738 97 
L 738 678 
Q 934 563 1156 502 
Q 1378 441 1619 441 
Q 2219 441 2526 892 
Q 2834 1344 2834 2222 
Q 2688 1909 2422 1742 
Q 2156 1575 1813 1575 
Q 1138 1575 767 1990 
Q 397 2406 397 3169 
Q 397 3922 776 4336 
Q 1156 4750 1850 4750 
Q 2663 4750 3041 4165 
Q 3419 3581 3419 2328 
Q 3419 1150 2964 529 
Q 2509 -91 1644 -91 
Q 1416 -91 1184 -42 
Q 953 6 738 97 
z
" transform="scale(0.015625)"/>
       </defs>
       <use xlink:href="#DejaVuSansMono-39"/>
       <use xlink:href="#DejaVuSansMono-30" transform="translate(60.205078 0)"/>
       <use xlink:href="#DejaVuSansMono-30" transform="translate(120.410156 0)"/>
      </g>
     </g>
    </g>
    <g id="xtick_13">
     <g id="line2d_25">
      <path d="M 886.590274 1785.677 
L 886.590274 1120.397 
" clip-path="url(#p17d8b736b2)" style="fill: none; stroke: #cccccc; stroke-opacity: 0.3; stroke-width: 0.5; stroke-linecap: round"/>
     </g>
     <g id="line2d_26"/>
     <g id="text_13">
      <!-- 1000 -->
      <g style="fill: #262626" transform="translate(880.046222 1811.615487) rotate(-45) scale(0.1 -0.1)">
       <use xlink:href="#DejaVuSansMono-31"/>
       <use xlink:href="#DejaVuSansMono-30" transform="translate(60.205078 0)"/>
       <use xlink:href="#DejaVuSansMono-30" transform="translate(120.410156 0)"/>
       <use xlink:href="#DejaVuSansMono-30" transform="translate(180.615234 0)"/>
      </g>
     </g>
    </g>
    <g id="text_14">
     <!-- Requested Throughput (Mb/s) -->
     <g style="fill: #262626" transform="translate(342.095312 1832.282923) scale(0.2 -0.2)">
      <defs>
       <path id="DejaVuSansMono-52" d="M 2375 2203 
Q 2619 2141 2791 1967 
Q 2963 1794 3219 1275 
L 3853 0 
L 3175 0 
L 2619 1178 
Q 2378 1681 2186 1826 
Q 1994 1972 1684 1972 
L 1081 1972 
L 1081 0 
L 447 0 
L 447 4666 
L 1747 4666 
Q 2516 4666 2925 4319 
Q 3334 3972 3334 3316 
Q 3334 2853 3082 2561 
Q 2831 2269 2375 2203 
z
M 1081 4147 
L 1081 2491 
L 1772 2491 
Q 2225 2491 2447 2694 
Q 2669 2897 2669 3316 
Q 2669 3719 2433 3933 
Q 2197 4147 1747 4147 
L 1081 4147 
z
" transform="scale(0.015625)"/>
       <path id="DejaVuSansMono-65" d="M 3475 1894 
L 3475 1613 
L 984 1613 
L 984 1594 
Q 984 1022 1282 709 
Q 1581 397 2125 397 
Q 2400 397 2700 484 
Q 3000 572 3341 750 
L 3341 178 
Q 3013 44 2708 -23 
Q 2403 -91 2119 -91 
Q 1303 -91 843 398 
Q 384 888 384 1747 
Q 384 2584 834 3084 
Q 1284 3584 2034 3584 
Q 2703 3584 3089 3131 
Q 3475 2678 3475 1894 
z
M 2900 2063 
Q 2888 2569 2661 2833 
Q 2434 3097 2009 3097 
Q 1594 3097 1325 2822 
Q 1056 2547 1006 2059 
L 2900 2063 
z
" transform="scale(0.015625)"/>
       <path id="DejaVuSansMono-71" d="M 1038 1734 
Q 1038 1066 1248 725 
Q 1459 384 1875 384 
Q 2291 384 2505 726 
Q 2719 1069 2719 1734 
Q 2719 2400 2505 2742 
Q 2291 3084 1875 3084 
Q 1459 3084 1248 2743 
Q 1038 2403 1038 1734 
z
M 2719 434 
Q 2578 175 2339 36 
Q 2100 -103 1784 -103 
Q 1156 -103 792 383 
Q 428 869 428 1722 
Q 428 2591 790 3081 
Q 1153 3572 1784 3572 
Q 2097 3572 2336 3436 
Q 2575 3300 2719 3041 
L 2719 3488 
L 3297 3488 
L 3297 -1344 
L 2719 -1344 
L 2719 434 
z
" transform="scale(0.015625)"/>
       <path id="DejaVuSansMono-75" d="M 609 1325 
L 609 3494 
L 1184 3494 
L 1184 1325 
Q 1184 853 1351 631 
Q 1519 409 1869 409 
Q 2275 409 2490 695 
Q 2706 981 2706 1516 
L 2706 3494 
L 3284 3494 
L 3284 0 
L 2706 0 
L 2706 525 
Q 2553 222 2289 65 
Q 2025 -91 1672 -91 
Q 1134 -91 871 261 
Q 609 613 609 1325 
z
" transform="scale(0.015625)"/>
       <path id="DejaVuSansMono-73" d="M 3041 3378 
L 3041 2816 
Q 2794 2959 2544 3031 
Q 2294 3103 2034 3103 
Q 1644 3103 1451 2976 
Q 1259 2850 1259 2591 
Q 1259 2356 1403 2240 
Q 1547 2125 2119 2016 
L 2350 1972 
Q 2778 1891 2998 1647 
Q 3219 1403 3219 1013 
Q 3219 494 2850 201 
Q 2481 -91 1825 -91 
Q 1566 -91 1281 -36 
Q 997 19 666 128 
L 666 722 
Q 988 556 1281 473 
Q 1575 391 1838 391 
Q 2219 391 2428 545 
Q 2638 700 2638 978 
Q 2638 1378 1872 1531 
L 1847 1538 
L 1631 1581 
Q 1134 1678 906 1908 
Q 678 2138 678 2534 
Q 678 3038 1018 3311 
Q 1359 3584 1991 3584 
Q 2272 3584 2531 3532 
Q 2791 3481 3041 3378 
z
" transform="scale(0.015625)"/>
       <path id="DejaVuSansMono-74" d="M 1919 4494 
L 1919 3500 
L 3225 3500 
L 3225 3053 
L 1919 3053 
L 1919 1153 
Q 1919 766 2066 612 
Q 2213 459 2578 459 
L 3225 459 
L 3225 0 
L 2522 0 
Q 1875 0 1609 259 
Q 1344 519 1344 1153 
L 1344 3053 
L 409 3053 
L 409 3500 
L 1344 3500 
L 1344 4494 
L 1919 4494 
z
" transform="scale(0.015625)"/>
       <path id="DejaVuSansMono-64" d="M 2681 3053 
L 2681 4863 
L 3256 4863 
L 3256 0 
L 2681 0 
L 2681 441 
Q 2538 181 2298 45 
Q 2059 -91 1747 -91 
Q 1113 -91 748 401 
Q 384 894 384 1759 
Q 384 2613 750 3098 
Q 1116 3584 1747 3584 
Q 2063 3584 2303 3448 
Q 2544 3313 2681 3053 
z
M 991 1747 
Q 991 1078 1203 737 
Q 1416 397 1831 397 
Q 2247 397 2464 740 
Q 2681 1084 2681 1747 
Q 2681 2413 2464 2755 
Q 2247 3097 1831 3097 
Q 1416 3097 1203 2756 
Q 991 2416 991 1747 
z
" transform="scale(0.015625)"/>
       <path id="DejaVuSansMono-20" transform="scale(0.015625)"/>
       <path id="DejaVuSansMono-54" d="M 147 4666 
L 3706 4666 
L 3706 4134 
L 2247 4134 
L 2247 0 
L 1613 0 
L 1613 4134 
L 147 4134 
L 147 4666 
z
" transform="scale(0.015625)"/>
       <path id="DejaVuSansMono-68" d="M 3284 2169 
L 3284 0 
L 2706 0 
L 2706 2169 
Q 2706 2641 2540 2862 
Q 2375 3084 2022 3084 
Q 1619 3084 1401 2798 
Q 1184 2513 1184 1978 
L 1184 0 
L 609 0 
L 609 4863 
L 1184 4863 
L 1184 2975 
Q 1338 3275 1600 3429 
Q 1863 3584 2222 3584 
Q 2756 3584 3020 3232 
Q 3284 2881 3284 2169 
z
" transform="scale(0.015625)"/>
       <path id="DejaVuSansMono-72" d="M 3609 2778 
Q 3425 2922 3234 2987 
Q 3044 3053 2816 3053 
Q 2278 3053 1993 2715 
Q 1709 2378 1709 1741 
L 1709 0 
L 1131 0 
L 1131 3500 
L 1709 3500 
L 1709 2816 
Q 1853 3188 2151 3386 
Q 2450 3584 2859 3584 
Q 3072 3584 3256 3531 
Q 3441 3478 3609 3366 
L 3609 2778 
z
" transform="scale(0.015625)"/>
       <path id="DejaVuSansMono-6f" d="M 1925 3097 
Q 1488 3097 1263 2756 
Q 1038 2416 1038 1747 
Q 1038 1081 1263 739 
Q 1488 397 1925 397 
Q 2366 397 2591 739 
Q 2816 1081 2816 1747 
Q 2816 2416 2591 2756 
Q 2366 3097 1925 3097 
z
M 1925 3584 
Q 2653 3584 3039 3112 
Q 3425 2641 3425 1747 
Q 3425 850 3040 379 
Q 2656 -91 1925 -91 
Q 1197 -91 812 379 
Q 428 850 428 1747 
Q 428 2641 812 3112 
Q 1197 3584 1925 3584 
z
" transform="scale(0.015625)"/>
       <path id="DejaVuSansMono-67" d="M 2681 1778 
Q 2681 2425 2470 2761 
Q 2259 3097 1856 3097 
Q 1434 3097 1212 2761 
Q 991 2425 991 1778 
Q 991 1131 1214 792 
Q 1438 453 1863 453 
Q 2259 453 2470 793 
Q 2681 1134 2681 1778 
z
M 3256 225 
Q 3256 -563 2884 -969 
Q 2513 -1375 1791 -1375 
Q 1553 -1375 1293 -1331 
Q 1034 -1288 775 -1203 
L 775 -634 
Q 1081 -778 1331 -847 
Q 1581 -916 1791 -916 
Q 2256 -916 2468 -662 
Q 2681 -409 2681 141 
L 2681 166 
L 2681 556 
Q 2544 263 2306 119 
Q 2069 -25 1728 -25 
Q 1116 -25 750 465 
Q 384 956 384 1778 
Q 384 2603 750 3093 
Q 1116 3584 1728 3584 
Q 2066 3584 2300 3450 
Q 2534 3316 2681 3034 
L 2681 3488 
L 3256 3488 
L 3256 225 
z
" transform="scale(0.015625)"/>
       <path id="DejaVuSansMono-70" d="M 1172 441 
L 1172 -1331 
L 594 -1331 
L 594 3500 
L 1172 3500 
L 1172 3053 
Q 1316 3313 1555 3448 
Q 1794 3584 2106 3584 
Q 2741 3584 3102 3093 
Q 3463 2603 3463 1734 
Q 3463 881 3100 395 
Q 2738 -91 2106 -91 
Q 1788 -91 1548 45 
Q 1309 181 1172 441 
z
M 2859 1747 
Q 2859 2416 2648 2756 
Q 2438 3097 2022 3097 
Q 1603 3097 1387 2755 
Q 1172 2413 1172 1747 
Q 1172 1084 1387 740 
Q 1603 397 2022 397 
Q 2438 397 2648 737 
Q 2859 1078 2859 1747 
z
" transform="scale(0.015625)"/>
       <path id="DejaVuSansMono-28" d="M 2766 4856 
Q 2350 4144 2145 3436 
Q 1941 2728 1941 2009 
Q 1941 1294 2145 584 
Q 2350 -125 2766 -844 
L 2266 -844 
Q 1794 -100 1562 604 
Q 1331 1309 1331 2009 
Q 1331 2706 1562 3412 
Q 1794 4119 2266 4856 
L 2766 4856 
z
" transform="scale(0.015625)"/>
       <path id="DejaVuSansMono-4d" d="M 269 4666 
L 1113 4666 
L 1919 2291 
L 2731 4666 
L 3578 4666 
L 3578 0 
L 2994 0 
L 2994 4122 
L 2163 1663 
L 1684 1663 
L 850 4122 
L 850 0 
L 269 0 
L 269 4666 
z
" transform="scale(0.015625)"/>
       <path id="DejaVuSansMono-62" d="M 2869 1747 
Q 2869 2416 2656 2756 
Q 2444 3097 2028 3097 
Q 1609 3097 1393 2755 
Q 1178 2413 1178 1747 
Q 1178 1084 1393 740 
Q 1609 397 2028 397 
Q 2444 397 2656 737 
Q 2869 1078 2869 1747 
z
M 1178 3053 
Q 1316 3309 1558 3446 
Q 1800 3584 2119 3584 
Q 2750 3584 3112 3098 
Q 3475 2613 3475 1759 
Q 3475 894 3111 401 
Q 2747 -91 2113 -91 
Q 1800 -91 1561 45 
Q 1322 181 1178 441 
L 1178 0 
L 603 0 
L 603 4863 
L 1178 4863 
L 1178 3053 
z
" transform="scale(0.015625)"/>
       <path id="DejaVuSansMono-2f" d="M 2778 4666 
L 3372 4666 
L 916 -594 
L 319 -594 
L 2778 4666 
z
" transform="scale(0.015625)"/>
       <path id="DejaVuSansMono-29" d="M 1088 4856 
L 1588 4856 
Q 2059 4119 2290 3412 
Q 2522 2706 2522 2009 
Q 2522 1306 2290 600 
Q 2059 -106 1588 -844 
L 1088 -844 
Q 1503 -119 1708 590 
Q 1913 1300 1913 2009 
Q 1913 2722 1708 3431 
Q 1503 4141 1088 4856 
z
" transform="scale(0.015625)"/>
      </defs>
      <use xlink:href="#DejaVuSansMono-52"/>
      <use xlink:href="#DejaVuSansMono-65" transform="translate(60.205078 0)"/>
      <use xlink:href="#DejaVuSansMono-71" transform="translate(120.410156 0)"/>
      <use xlink:href="#DejaVuSansMono-75" transform="translate(180.615234 0)"/>
      <use xlink:href="#DejaVuSansMono-65" transform="translate(240.820312 0)"/>
      <use xlink:href="#DejaVuSansMono-73" transform="translate(301.025391 0)"/>
      <use xlink:href="#DejaVuSansMono-74" transform="translate(361.230469 0)"/>
      <use xlink:href="#DejaVuSansMono-65" transform="translate(421.435547 0)"/>
      <use xlink:href="#DejaVuSansMono-64" transform="translate(481.640625 0)"/>
      <use xlink:href="#DejaVuSansMono-20" transform="translate(541.845703 0)"/>
      <use xlink:href="#DejaVuSansMono-54" transform="translate(602.050781 0)"/>
      <use xlink:href="#DejaVuSansMono-68" transform="translate(662.255859 0)"/>
      <use xlink:href="#DejaVuSansMono-72" transform="translate(722.460938 0)"/>
      <use xlink:href="#DejaVuSansMono-6f" transform="translate(782.666016 0)"/>
      <use xlink:href="#DejaVuSansMono-75" transform="translate(842.871094 0)"/>
      <use xlink:href="#DejaVuSansMono-67" transform="translate(903.076172 0)"/>
      <use xlink:href="#DejaVuSansMono-68" transform="translate(963.28125 0)"/>
      <use xlink:href="#DejaVuSansMono-70" transform="translate(1023.486328 0)"/>
      <use xlink:href="#DejaVuSansMono-75" transform="translate(1083.691406 0)"/>
      <use xlink:href="#DejaVuSansMono-74" transform="translate(1143.896484 0)"/>
      <use xlink:href="#DejaVuSansMono-20" transform="translate(1204.101562 0)"/>
      <use xlink:href="#DejaVuSansMono-28" transform="translate(1264.306641 0)"/>
      <use xlink:href="#DejaVuSansMono-4d" transform="translate(1324.511719 0)"/>
      <use xlink:href="#DejaVuSansMono-62" transform="translate(1384.716797 0)"/>
      <use xlink:href="#DejaVuSansMono-2f" transform="translate(1444.921875 0)"/>
      <use xlink:href="#DejaVuSansMono-73" transform="translate(1505.126953 0)"/>
      <use xlink:href="#DejaVuSansMono-29" transform="translate(1565.332031 0)"/>
     </g>
    </g>
   </g>
   <g id="matplotlib.axis_2">
    <g id="ytick_1">
     <g id="line2d_27">
      <path d="M 58.24375 1785.677 
L 951.04375 1785.677 
" clip-path="url(#p17d8b736b2)" style="fill: none; stroke: #cccccc; stroke-opacity: 0.3; stroke-width: 0.5; stroke-linecap: round"/>
     </g>
     <g id="line2d_28"/>
     <g id="text_15">
      <!-- 0.0 -->
      <g style="fill: #262626" transform="translate(36.682813 1789.502781) scale(0.1 -0.1)">
       <defs>
        <path id="DejaVuSansMono-2e" d="M 1528 953 
L 2316 953 
L 2316 0 
L 1528 0 
L 1528 953 
z
" transform="scale(0.015625)"/>
       </defs>
       <use xlink:href="#DejaVuSansMono-30"/>
       <use xlink:href="#DejaVuSansMono-2e" transform="translate(60.205078 0)"/>
       <use xlink:href="#DejaVuSansMono-30" transform="translate(120.410156 0)"/>
      </g>
     </g>
    </g>
    <g id="ytick_2">
     <g id="line2d_29">
      <path d="M 58.24375 1708.181892 
L 951.04375 1708.181892 
" clip-path="url(#p17d8b736b2)" style="fill: none; stroke: #cccccc; stroke-opacity: 0.3; stroke-width: 0.5; stroke-linecap: round"/>
     </g>
     <g id="line2d_30"/>
     <g id="text_16">
      <!-- 2.5 -->
      <g style="fill: #262626" transform="translate(36.682813 1712.007674) scale(0.1 -0.1)">
       <use xlink:href="#DejaVuSansMono-32"/>
       <use xlink:href="#DejaVuSansMono-2e" transform="translate(60.205078 0)"/>
       <use xlink:href="#DejaVuSansMono-35" transform="translate(120.410156 0)"/>
      </g>
     </g>
    </g>
    <g id="ytick_3">
     <g id="line2d_31">
      <path d="M 58.24375 1630.686785 
L 951.04375 1630.686785 
" clip-path="url(#p17d8b736b2)" style="fill: none; stroke: #cccccc; stroke-opacity: 0.3; stroke-width: 0.5; stroke-linecap: round"/>
     </g>
     <g id="line2d_32"/>
     <g id="text_17">
      <!-- 5.0 -->
      <g style="fill: #262626" transform="translate(36.682813 1634.512566) scale(0.1 -0.1)">
       <use xlink:href="#DejaVuSansMono-35"/>
       <use xlink:href="#DejaVuSansMono-2e" transform="translate(60.205078 0)"/>
       <use xlink:href="#DejaVuSansMono-30" transform="translate(120.410156 0)"/>
      </g>
     </g>
    </g>
    <g id="ytick_4">
     <g id="line2d_33">
      <path d="M 58.24375 1553.191677 
L 951.04375 1553.191677 
" clip-path="url(#p17d8b736b2)" style="fill: none; stroke: #cccccc; stroke-opacity: 0.3; stroke-width: 0.5; stroke-linecap: round"/>
     </g>
     <g id="line2d_34"/>
     <g id="text_18">
      <!-- 7.5 -->
      <g style="fill: #262626" transform="translate(36.682813 1557.017458) scale(0.1 -0.1)">
       <use xlink:href="#DejaVuSansMono-37"/>
       <use xlink:href="#DejaVuSansMono-2e" transform="translate(60.205078 0)"/>
       <use xlink:href="#DejaVuSansMono-35" transform="translate(120.410156 0)"/>
      </g>
     </g>
    </g>
    <g id="ytick_5">
     <g id="line2d_35">
      <path d="M 58.24375 1475.696569 
L 951.04375 1475.696569 
" clip-path="url(#p17d8b736b2)" style="fill: none; stroke: #cccccc; stroke-opacity: 0.3; stroke-width: 0.5; stroke-linecap: round"/>
     </g>
     <g id="line2d_36"/>
     <g id="text_19">
      <!-- 10.0 -->
      <g style="fill: #262626" transform="translate(30.6625 1479.522351) scale(0.1 -0.1)">
       <use xlink:href="#DejaVuSansMono-31"/>
       <use xlink:href="#DejaVuSansMono-30" transform="translate(60.205078 0)"/>
       <use xlink:href="#DejaVuSansMono-2e" transform="translate(120.410156 0)"/>
       <use xlink:href="#DejaVuSansMono-30" transform="translate(180.615234 0)"/>
      </g>
     </g>
    </g>
    <g id="ytick_6">
     <g id="line2d_37">
      <path d="M 58.24375 1398.201462 
L 951.04375 1398.201462 
" clip-path="url(#p17d8b736b2)" style="fill: none; stroke: #cccccc; stroke-opacity: 0.3; stroke-width: 0.5; stroke-linecap: round"/>
     </g>
     <g id="line2d_38"/>
     <g id="text_20">
      <!-- 12.5 -->
      <g style="fill: #262626" transform="translate(30.6625 1402.027243) scale(0.1 -0.1)">
       <use xlink:href="#DejaVuSansMono-31"/>
       <use xlink:href="#DejaVuSansMono-32" transform="translate(60.205078 0)"/>
       <use xlink:href="#DejaVuSansMono-2e" transform="translate(120.410156 0)"/>
       <use xlink:href="#DejaVuSansMono-35" transform="translate(180.615234 0)"/>
      </g>
     </g>
    </g>
    <g id="ytick_7">
     <g id="line2d_39">
      <path d="M 58.24375 1320.706354 
L 951.04375 1320.706354 
" clip-path="url(#p17d8b736b2)" style="fill: none; stroke: #cccccc; stroke-opacity: 0.3; stroke-width: 0.5; stroke-linecap: round"/>
     </g>
     <g id="line2d_40"/>
     <g id="text_21">
      <!-- 15.0 -->
      <g style="fill: #262626" transform="translate(30.6625 1324.532135) scale(0.1 -0.1)">
       <use xlink:href="#DejaVuSansMono-31"/>
       <use xlink:href="#DejaVuSansMono-35" transform="translate(60.205078 0)"/>
       <use xlink:href="#DejaVuSansMono-2e" transform="translate(120.410156 0)"/>
       <use xlink:href="#DejaVuSansMono-30" transform="translate(180.615234 0)"/>
      </g>
     </g>
    </g>
    <g id="ytick_8">
     <g id="line2d_41">
      <path d="M 58.24375 1243.211247 
L 951.04375 1243.211247 
" clip-path="url(#p17d8b736b2)" style="fill: none; stroke: #cccccc; stroke-opacity: 0.3; stroke-width: 0.5; stroke-linecap: round"/>
     </g>
     <g id="line2d_42"/>
     <g id="text_22">
      <!-- 17.5 -->
      <g style="fill: #262626" transform="translate(30.6625 1247.037028) scale(0.1 -0.1)">
       <use xlink:href="#DejaVuSansMono-31"/>
       <use xlink:href="#DejaVuSansMono-37" transform="translate(60.205078 0)"/>
       <use xlink:href="#DejaVuSansMono-2e" transform="translate(120.410156 0)"/>
       <use xlink:href="#DejaVuSansMono-35" transform="translate(180.615234 0)"/>
      </g>
     </g>
    </g>
    <g id="ytick_9">
     <g id="line2d_43">
      <path d="M 58.24375 1165.716139 
L 951.04375 1165.716139 
" clip-path="url(#p17d8b736b2)" style="fill: none; stroke: #cccccc; stroke-opacity: 0.3; stroke-width: 0.5; stroke-linecap: round"/>
     </g>
     <g id="line2d_44"/>
     <g id="text_23">
      <!-- 20.0 -->
      <g style="fill: #262626" transform="translate(30.6625 1169.54192) scale(0.1 -0.1)">
       <use xlink:href="#DejaVuSansMono-32"/>
       <use xlink:href="#DejaVuSansMono-30" transform="translate(60.205078 0)"/>
       <use xlink:href="#DejaVuSansMono-2e" transform="translate(120.410156 0)"/>
       <use xlink:href="#DejaVuSansMono-30" transform="translate(180.615234 0)"/>
      </g>
     </g>
    </g>
    <g id="text_24">
     <!-- CPU Utilization (%) -->
     <g style="fill: #262626" transform="translate(22.503125 1567.422937) rotate(-90) scale(0.2 -0.2)">
      <defs>
       <path id="DejaVuSansMono-43" d="M 3353 166 
Q 3113 38 2859 -26 
Q 2606 -91 2322 -91 
Q 1425 -91 929 543 
Q 434 1178 434 2328 
Q 434 3472 932 4111 
Q 1431 4750 2322 4750 
Q 2606 4750 2859 4686 
Q 3113 4622 3353 4494 
L 3353 3847 
Q 3122 4038 2856 4138 
Q 2591 4238 2322 4238 
Q 1706 4238 1400 3763 
Q 1094 3288 1094 2328 
Q 1094 1372 1400 897 
Q 1706 422 2322 422 
Q 2597 422 2861 522 
Q 3125 622 3353 813 
L 3353 166 
z
" transform="scale(0.015625)"/>
       <path id="DejaVuSansMono-50" d="M 1247 4147 
L 1247 2394 
L 1978 2394 
Q 2416 2394 2661 2625 
Q 2906 2856 2906 3272 
Q 2906 3688 2662 3917 
Q 2419 4147 1978 4147 
L 1247 4147 
z
M 616 4666 
L 1978 4666 
Q 2759 4666 3162 4311 
Q 3566 3956 3566 3272 
Q 3566 2581 3164 2228 
Q 2763 1875 1978 1875 
L 1247 1875 
L 1247 0 
L 616 0 
L 616 4666 
z
" transform="scale(0.015625)"/>
       <path id="DejaVuSansMono-55" d="M 459 1791 
L 459 4666 
L 1094 4666 
L 1094 1503 
Q 1094 1163 1112 1017 
Q 1131 872 1178 794 
Q 1278 609 1467 515 
Q 1656 422 1925 422 
Q 2197 422 2384 515 
Q 2572 609 2675 794 
Q 2722 872 2740 1015 
Q 2759 1159 2759 1497 
L 2759 4666 
L 3391 4666 
L 3391 1791 
Q 3391 1075 3302 773 
Q 3213 472 2994 275 
Q 2788 91 2522 0 
Q 2256 -91 1925 -91 
Q 1597 -91 1331 0 
Q 1066 91 856 275 
Q 641 469 550 776 
Q 459 1084 459 1791 
z
" transform="scale(0.015625)"/>
       <path id="DejaVuSansMono-69" d="M 800 3500 
L 2272 3500 
L 2272 447 
L 3413 447 
L 3413 0 
L 556 0 
L 556 447 
L 1697 447 
L 1697 3053 
L 800 3053 
L 800 3500 
z
M 1697 4863 
L 2272 4863 
L 2272 4134 
L 1697 4134 
L 1697 4863 
z
" transform="scale(0.015625)"/>
       <path id="DejaVuSansMono-6c" d="M 1997 1269 
Q 1997 881 2139 684 
Q 2281 488 2559 488 
L 3231 488 
L 3231 0 
L 2503 0 
Q 1988 0 1705 331 
Q 1422 663 1422 1269 
L 1422 4447 
L 500 4447 
L 500 4897 
L 1997 4897 
L 1997 1269 
z
" transform="scale(0.015625)"/>
       <path id="DejaVuSansMono-7a" d="M 709 3506 
L 3250 3506 
L 3250 2981 
L 1241 469 
L 3250 469 
L 3250 0 
L 634 0 
L 634 531 
L 2644 3047 
L 709 3047 
L 709 3506 
z
" transform="scale(0.015625)"/>
       <path id="DejaVuSansMono-61" d="M 2194 1759 
L 2003 1759 
Q 1500 1759 1245 1582 
Q 991 1406 991 1056 
Q 991 741 1181 566 
Q 1372 391 1709 391 
Q 2184 391 2456 720 
Q 2728 1050 2731 1631 
L 2731 1759 
L 2194 1759 
z
M 3309 1997 
L 3309 0 
L 2731 0 
L 2731 519 
Q 2547 206 2267 57 
Q 1988 -91 1588 -91 
Q 1053 -91 734 211 
Q 416 513 416 1019 
Q 416 1603 808 1906 
Q 1200 2209 1959 2209 
L 2731 2209 
L 2731 2300 
Q 2728 2719 2518 2908 
Q 2309 3097 1850 3097 
Q 1556 3097 1256 3012 
Q 956 2928 672 2766 
L 672 3341 
Q 991 3463 1283 3523 
Q 1575 3584 1850 3584 
Q 2284 3584 2592 3456 
Q 2900 3328 3091 3072 
Q 3209 2916 3259 2686 
Q 3309 2456 3309 1997 
z
" transform="scale(0.015625)"/>
       <path id="DejaVuSansMono-6e" d="M 3284 2169 
L 3284 0 
L 2706 0 
L 2706 2169 
Q 2706 2641 2540 2862 
Q 2375 3084 2022 3084 
Q 1619 3084 1401 2798 
Q 1184 2513 1184 1978 
L 1184 0 
L 609 0 
L 609 3500 
L 1184 3500 
L 1184 2975 
Q 1338 3275 1600 3429 
Q 1863 3584 2222 3584 
Q 2756 3584 3020 3232 
Q 3284 2881 3284 2169 
z
" transform="scale(0.015625)"/>
       <path id="DejaVuSansMono-25" d="M 2175 997 
Q 2175 753 2339 587 
Q 2503 422 2747 422 
Q 2988 422 3155 589 
Q 3322 756 3322 997 
Q 3322 1238 3153 1406 
Q 2984 1575 2747 1575 
Q 2503 1575 2339 1409 
Q 2175 1244 2175 997 
z
M 1753 997 
Q 1753 1419 2040 1708 
Q 2328 1997 2747 1997 
Q 2947 1997 3126 1922 
Q 3306 1847 3450 1703 
Q 3594 1556 3672 1375 
Q 3750 1194 3750 997 
Q 3750 581 3459 290 
Q 3169 0 2747 0 
Q 2322 0 2037 286 
Q 1753 572 1753 997 
z
M 378 1453 
L 269 1753 
L 3525 3059 
L 3653 2759 
L 378 1453 
z
M 525 3475 
Q 525 3228 689 3064 
Q 853 2900 1100 2900 
Q 1341 2900 1509 3067 
Q 1678 3234 1678 3475 
Q 1678 3716 1509 3883 
Q 1341 4050 1100 4050 
Q 859 4050 692 3884 
Q 525 3719 525 3475 
z
M 103 3475 
Q 103 3897 390 4186 
Q 678 4475 1100 4475 
Q 1300 4475 1483 4400 
Q 1666 4325 1806 4184 
Q 1947 4044 2023 3861 
Q 2100 3678 2100 3475 
Q 2100 3056 1809 2767 
Q 1519 2478 1100 2478 
Q 678 2478 390 2765 
Q 103 3053 103 3475 
z
" transform="scale(0.015625)"/>
      </defs>
      <use xlink:href="#DejaVuSansMono-43"/>
      <use xlink:href="#DejaVuSansMono-50" transform="translate(60.205078 0)"/>
      <use xlink:href="#DejaVuSansMono-55" transform="translate(120.410156 0)"/>
      <use xlink:href="#DejaVuSansMono-20" transform="translate(180.615234 0)"/>
      <use xlink:href="#DejaVuSansMono-55" transform="translate(240.820312 0)"/>
      <use xlink:href="#DejaVuSansMono-74" transform="translate(301.025391 0)"/>
      <use xlink:href="#DejaVuSansMono-69" transform="translate(361.230469 0)"/>
      <use xlink:href="#DejaVuSansMono-6c" transform="translate(421.435547 0)"/>
      <use xlink:href="#DejaVuSansMono-69" transform="translate(481.640625 0)"/>
      <use xlink:href="#DejaVuSansMono-7a" transform="translate(541.845703 0)"/>
      <use xlink:href="#DejaVuSansMono-61" transform="translate(602.050781 0)"/>
      <use xlink:href="#DejaVuSansMono-74" transform="translate(662.255859 0)"/>
      <use xlink:href="#DejaVuSansMono-69" transform="translate(722.460938 0)"/>
      <use xlink:href="#DejaVuSansMono-6f" transform="translate(782.666016 0)"/>
      <use xlink:href="#DejaVuSansMono-6e" transform="translate(842.871094 0)"/>
      <use xlink:href="#DejaVuSansMono-20" transform="translate(903.076172 0)"/>
      <use xlink:href="#DejaVuSansMono-28" transform="translate(963.28125 0)"/>
      <use xlink:href="#DejaVuSansMono-25" transform="translate(1023.486328 0)"/>
      <use xlink:href="#DejaVuSansMono-29" transform="translate(1083.691406 0)"/>
     </g>
    </g>
   </g>
   <g id="patch_3">
    <path d="M 98.825568 1785.677 
L 121.105782 1785.677 
L 121.105782 1776.377587 
L 98.825568 1776.377587 
z
" clip-path="url(#p17d8b736b2)" style="fill: #84a5c7; opacity: 0.85"/>
   </g>
   <g id="patch_4">
    <path d="M 162.483322 1785.677 
L 184.763536 1785.677 
L 184.763536 1764.598331 
L 162.483322 1764.598331 
z
" clip-path="url(#p17d8b736b2)" style="fill: #84a5c7; opacity: 0.85"/>
   </g>
   <g id="patch_5">
    <path d="M 226.141076 1785.677 
L 248.42129 1785.677 
L 248.42129 1710.351755 
L 226.141076 1710.351755 
z
" clip-path="url(#p17d8b736b2)" style="fill: #84a5c7; opacity: 0.85"/>
   </g>
   <g id="patch_6">
    <path d="M 289.79883 1785.677 
L 312.079044 1785.677 
L 312.079044 1653.315356 
L 289.79883 1653.315356 
z
" clip-path="url(#p17d8b736b2)" style="fill: #84a5c7; opacity: 0.85"/>
   </g>
   <g id="patch_7">
    <path d="M 353.456584 1785.677 
L 375.736798 1785.677 
L 375.736798 1488.405767 
L 353.456584 1488.405767 
z
" clip-path="url(#p17d8b736b2)" style="fill: #84a5c7; opacity: 0.85"/>
   </g>
   <g id="patch_8">
    <path d="M 417.114338 1785.677 
L 439.394552 1785.677 
L 439.394552 1409.670738 
L 417.114338 1409.670738 
z
" clip-path="url(#p17d8b736b2)" style="fill: #84a5c7; opacity: 0.85"/>
   </g>
   <g id="patch_9">
    <path d="M 480.772092 1785.677 
L 503.052306 1785.677 
L 503.052306 1408.120836 
L 480.772092 1408.120836 
z
" clip-path="url(#p17d8b736b2)" style="fill: #84a5c7; opacity: 0.85"/>
   </g>
   <g id="patch_10">
    <path d="M 544.429846 1785.677 
L 566.71006 1785.677 
L 566.71006 1432.60929 
L 544.429846 1432.60929 
z
" clip-path="url(#p17d8b736b2)" style="fill: #84a5c7; opacity: 0.85"/>
   </g>
   <g id="patch_11">
    <path d="M 608.0876 1785.677 
L 630.367814 1785.677 
L 630.367814 1378.672695 
L 608.0876 1378.672695 
z
" clip-path="url(#p17d8b736b2)" style="fill: #84a5c7; opacity: 0.85"/>
   </g>
   <g id="patch_12">
    <path d="M 671.745354 1785.677 
L 694.025568 1785.677 
L 694.025568 1372.473086 
L 671.745354 1372.473086 
z
" clip-path="url(#p17d8b736b2)" style="fill: #84a5c7; opacity: 0.85"/>
   </g>
   <g id="patch_13">
    <path d="M 735.403108 1785.677 
L 757.683322 1785.677 
L 757.683322 1373.713008 
L 735.403108 1373.713008 
z
" clip-path="url(#p17d8b736b2)" style="fill: #84a5c7; opacity: 0.85"/>
   </g>
   <g id="patch_14">
    <path d="M 799.060862 1785.677 
L 821.341076 1785.677 
L 821.341076 1369.063301 
L 799.060862 1369.063301 
z
" clip-path="url(#p17d8b736b2)" style="fill: #84a5c7; opacity: 0.85"/>
   </g>
   <g id="patch_15">
    <path d="M 862.718616 1785.677 
L 884.99883 1785.677 
L 884.99883 1373.093047 
L 862.718616 1373.093047 
z
" clip-path="url(#p17d8b736b2)" style="fill: #84a5c7; opacity: 0.85"/>
   </g>
   <g id="patch_16">
    <path d="M 124.28867 1785.677 
L 146.568884 1785.677 
L 146.568884 1754.058996 
L 124.28867 1754.058996 
z
" clip-path="url(#p17d8b736b2)" style="fill: #f18484; opacity: 0.85"/>
   </g>
   <g id="patch_17">
    <path d="M 187.946424 1785.677 
L 210.226638 1785.677 
L 210.226638 1724.300875 
L 187.946424 1724.300875 
z
" clip-path="url(#p17d8b736b2)" style="fill: #f18484; opacity: 0.85"/>
   </g>
   <g id="patch_18">
    <path d="M 251.604178 1785.677 
L 273.884392 1785.677 
L 273.884392 1628.826902 
L 251.604178 1628.826902 
z
" clip-path="url(#p17d8b736b2)" style="fill: #f18484; opacity: 0.85"/>
   </g>
   <g id="patch_19">
    <path d="M 315.261932 1785.677 
L 337.542146 1785.677 
L 337.542146 1519.40381 
L 315.261932 1519.40381 
z
" clip-path="url(#p17d8b736b2)" style="fill: #f18484; opacity: 0.85"/>
   </g>
   <g id="patch_20">
    <path d="M 378.919686 1785.677 
L 401.1999 1785.677 
L 401.1999 1285.988546 
L 378.919686 1285.988546 
z
" clip-path="url(#p17d8b736b2)" style="fill: #f18484; opacity: 0.85"/>
   </g>
   <g id="patch_21">
    <path d="M 442.57744 1785.677 
L 464.857654 1785.677 
L 464.857654 1183.385023 
L 442.57744 1183.385023 
z
" clip-path="url(#p17d8b736b2)" style="fill: #f18484; opacity: 0.85"/>
   </g>
   <g id="patch_22">
    <path d="M 506.235194 1785.677 
L 528.515408 1785.677 
L 528.515408 1171.915748 
L 506.235194 1171.915748 
z
" clip-path="url(#p17d8b736b2)" style="fill: #f18484; opacity: 0.85"/>
   </g>
   <g id="patch_23">
    <path d="M 569.892948 1785.677 
L 592.173162 1785.677 
L 592.173162 1173.77563 
L 569.892948 1173.77563 
z
" clip-path="url(#p17d8b736b2)" style="fill: #f18484; opacity: 0.85"/>
   </g>
   <g id="patch_24">
    <path d="M 633.550702 1785.677 
L 655.830916 1785.677 
L 655.830916 1162.926315 
L 633.550702 1162.926315 
z
" clip-path="url(#p17d8b736b2)" style="fill: #f18484; opacity: 0.85"/>
   </g>
   <g id="patch_25">
    <path d="M 697.208456 1785.677 
L 719.48867 1785.677 
L 719.48867 1164.476217 
L 697.208456 1164.476217 
z
" clip-path="url(#p17d8b736b2)" style="fill: #f18484; opacity: 0.85"/>
   </g>
   <g id="patch_26">
    <path d="M 760.86621 1785.677 
L 783.146424 1785.677 
L 783.146424 1157.346667 
L 760.86621 1157.346667 
z
" clip-path="url(#p17d8b736b2)" style="fill: #f18484; opacity: 0.85"/>
   </g>
   <g id="patch_27">
    <path d="M 824.523964 1785.677 
L 846.804178 1785.677 
L 846.804178 1152.077 
L 824.523964 1152.077 
z
" clip-path="url(#p17d8b736b2)" style="fill: #f18484; opacity: 0.85"/>
   </g>
   <g id="patch_28">
    <path d="M 888.181718 1785.677 
L 910.461932 1785.677 
L 910.461932 1153.316922 
L 888.181718 1153.316922 
z
" clip-path="url(#p17d8b736b2)" style="fill: #f18484; opacity: 0.85"/>
   </g>
   <g id="patch_29">
    <path d="M 58.24375 1785.677 
L 58.24375 1120.397 
" style="fill: none; stroke: #cccccc; stroke-linejoin: miter; stroke-linecap: square"/>
   </g>
   <g id="patch_30">
    <path d="M 951.04375 1785.677 
L 951.04375 1120.397 
" style="fill: none; stroke: #cccccc; stroke-linejoin: miter; stroke-linecap: square"/>
   </g>
   <g id="patch_31">
    <path d="M 58.24375 1785.677 
L 951.04375 1785.677 
" style="fill: none; stroke: #cccccc; stroke-linejoin: miter; stroke-linecap: square"/>
   </g>
   <g id="patch_32">
    <path d="M 58.24375 1120.397 
L 951.04375 1120.397 
" style="fill: none; stroke: #cccccc; stroke-linejoin: miter; stroke-linecap: square"/>
   </g>
   <g id="text_25">
    <!-- Ethernet Driver CPU Utilization vs Throughput -->
    <g style="fill: #262626" transform="translate(179.546875 1114.397) scale(0.24 -0.24)">
     <defs>
      <path id="DejaVuSansMono-Bold-45" d="M 3431 0 
L 525 0 
L 525 4666 
L 3431 4666 
L 3431 3853 
L 1447 3853 
L 1447 2847 
L 3244 2847 
L 3244 2034 
L 1447 2034 
L 1447 813 
L 3431 813 
L 3431 0 
z
" transform="scale(0.015625)"/>
      <path id="DejaVuSansMono-Bold-74" d="M 2156 4494 
L 2156 3500 
L 3353 3500 
L 3353 2797 
L 2156 2797 
L 2156 1141 
Q 2156 906 2270 804 
Q 2384 703 2650 703 
L 3353 703 
L 3353 0 
L 2584 0 
Q 1797 0 1519 251 
Q 1241 503 1241 1184 
L 1241 2797 
L 347 2797 
L 347 3500 
L 1241 3500 
L 1241 4494 
L 2156 4494 
z
" transform="scale(0.015625)"/>
      <path id="DejaVuSansMono-Bold-68" d="M 3347 2272 
L 3347 0 
L 2438 0 
L 2438 2131 
Q 2438 2509 2330 2671 
Q 2222 2834 1978 2834 
Q 1728 2834 1587 2614 
Q 1447 2394 1447 2003 
L 1447 0 
L 538 0 
L 538 4863 
L 1447 4863 
L 1447 2975 
Q 1544 3266 1778 3425 
Q 2013 3584 2344 3584 
Q 2841 3584 3094 3254 
Q 3347 2925 3347 2272 
z
" transform="scale(0.015625)"/>
      <path id="DejaVuSansMono-Bold-65" d="M 3444 172 
Q 3125 41 2794 -25 
Q 2463 -91 2094 -91 
Q 1216 -91 752 379 
Q 288 850 288 1734 
Q 288 2591 734 3087 
Q 1181 3584 1953 3584 
Q 2731 3584 3161 3123 
Q 3591 2663 3591 1825 
L 3591 1453 
L 1219 1453 
Q 1222 1041 1462 837 
Q 1703 634 2181 634 
Q 2497 634 2803 725 
Q 3109 816 3444 1013 
L 3444 172 
z
M 2669 2141 
Q 2663 2503 2483 2689 
Q 2303 2875 1953 2875 
Q 1638 2875 1450 2683 
Q 1263 2491 1228 2138 
L 2669 2141 
z
" transform="scale(0.015625)"/>
      <path id="DejaVuSansMono-Bold-72" d="M 3597 2534 
Q 3447 2672 3245 2740 
Q 3044 2809 2803 2809 
Q 2513 2809 2295 2707 
Q 2078 2606 1959 2413 
Q 1884 2294 1854 2125 
Q 1825 1956 1825 1613 
L 1825 0 
L 909 0 
L 909 3500 
L 1825 3500 
L 1825 2956 
Q 1959 3256 2237 3420 
Q 2516 3584 2888 3584 
Q 3075 3584 3254 3539 
Q 3434 3494 3597 3406 
L 3597 2534 
z
" transform="scale(0.015625)"/>
      <path id="DejaVuSansMono-Bold-6e" d="M 3347 2272 
L 3347 0 
L 2438 0 
L 2438 2131 
Q 2438 2513 2330 2677 
Q 2222 2841 1978 2841 
Q 1731 2841 1589 2619 
Q 1447 2397 1447 2003 
L 1447 0 
L 538 0 
L 538 3500 
L 1447 3500 
L 1447 2975 
Q 1544 3266 1778 3425 
Q 2013 3584 2344 3584 
Q 2841 3584 3094 3254 
Q 3347 2925 3347 2272 
z
" transform="scale(0.015625)"/>
      <path id="DejaVuSansMono-Bold-20" transform="scale(0.015625)"/>
      <path id="DejaVuSansMono-Bold-44" d="M 1350 3834 
L 1350 831 
L 1600 831 
Q 2144 831 2375 1173 
Q 2606 1516 2606 2338 
Q 2606 3153 2375 3493 
Q 2144 3834 1600 3834 
L 1350 3834 
z
M 428 4666 
L 1416 4666 
Q 2559 4666 3062 4120 
Q 3566 3575 3566 2338 
Q 3566 1097 3062 548 
Q 2559 0 1416 0 
L 428 0 
L 428 4666 
z
" transform="scale(0.015625)"/>
      <path id="DejaVuSansMono-Bold-69" d="M 691 3500 
L 2503 3500 
L 2503 703 
L 3641 703 
L 3641 0 
L 447 0 
L 447 703 
L 1588 703 
L 1588 2797 
L 691 2797 
L 691 3500 
z
M 1588 5203 
L 2503 5203 
L 2503 4134 
L 1588 4134 
L 1588 5203 
z
" transform="scale(0.015625)"/>
      <path id="DejaVuSansMono-Bold-76" d="M 3603 3500 
L 2491 0 
L 1363 0 
L 250 3500 
L 1178 3500 
L 1925 769 
L 2675 3500 
L 3603 3500 
z
" transform="scale(0.015625)"/>
      <path id="DejaVuSansMono-Bold-43" d="M 3378 134 
Q 3159 22 2918 -34 
Q 2678 -91 2413 -91 
Q 1469 -91 972 531 
Q 475 1153 475 2328 
Q 475 3506 972 4128 
Q 1469 4750 2413 4750 
Q 2678 4750 2922 4694 
Q 3166 4638 3378 4525 
L 3378 3500 
Q 3141 3719 2917 3820 
Q 2694 3922 2456 3922 
Q 1950 3922 1692 3520 
Q 1434 3119 1434 2328 
Q 1434 1541 1692 1139 
Q 1950 738 2456 738 
Q 2694 738 2917 839 
Q 3141 941 3378 1159 
L 3378 134 
z
" transform="scale(0.015625)"/>
      <path id="DejaVuSansMono-Bold-50" d="M 1428 3891 
L 1428 2522 
L 1806 2522 
Q 2259 2522 2442 2675 
Q 2625 2828 2625 3206 
Q 2625 3584 2442 3737 
Q 2259 3891 1806 3891 
L 1428 3891 
z
M 506 4666 
L 1772 4666 
Q 2738 4666 3161 4322 
Q 3584 3978 3584 3206 
Q 3584 2434 3161 2090 
Q 2738 1747 1772 1747 
L 1428 1747 
L 1428 0 
L 506 0 
L 506 4666 
z
" transform="scale(0.015625)"/>
      <path id="DejaVuSansMono-Bold-55" d="M 331 1722 
L 331 4666 
L 1253 4666 
L 1253 1491 
Q 1253 1141 1431 942 
Q 1609 744 1925 744 
Q 2241 744 2419 942 
Q 2597 1141 2597 1491 
L 2597 4666 
L 3519 4666 
L 3519 1722 
Q 3519 772 3141 340 
Q 2763 -91 1925 -91 
Q 1091 -91 711 340 
Q 331 772 331 1722 
z
" transform="scale(0.015625)"/>
      <path id="DejaVuSansMono-Bold-6c" d="M 1209 1459 
L 1209 4159 
L 281 4159 
L 281 4863 
L 2125 4863 
L 2125 1459 
Q 2125 1047 2253 875 
Q 2381 703 2688 703 
L 3419 703 
L 3419 0 
L 2431 0 
Q 1778 0 1493 337 
Q 1209 675 1209 1459 
z
" transform="scale(0.015625)"/>
      <path id="DejaVuSansMono-Bold-7a" d="M 581 3500 
L 3378 3500 
L 3378 2784 
L 1538 684 
L 3378 684 
L 3378 0 
L 506 0 
L 506 716 
L 2350 2816 
L 581 2816 
L 581 3500 
z
" transform="scale(0.015625)"/>
      <path id="DejaVuSansMono-Bold-61" d="M 2188 1644 
Q 1675 1644 1472 1512 
Q 1269 1381 1269 1063 
Q 1269 825 1409 684 
Q 1550 544 1791 544 
Q 2153 544 2353 817 
Q 2553 1091 2553 1581 
L 2553 1644 
L 2188 1644 
z
M 3463 1997 
L 3463 0 
L 2553 0 
L 2553 391 
Q 2388 159 2128 34 
Q 1869 -91 1556 -91 
Q 959 -91 626 225 
Q 294 541 294 1106 
Q 294 1719 691 2011 
Q 1088 2303 1919 2303 
L 2553 2303 
L 2553 2456 
Q 2553 2678 2392 2792 
Q 2231 2906 1919 2906 
Q 1591 2906 1283 2823 
Q 975 2741 641 2559 
L 641 3341 
Q 944 3466 1256 3525 
Q 1569 3584 1919 3584 
Q 2772 3584 3117 3237 
Q 3463 2891 3463 1997 
z
" transform="scale(0.015625)"/>
      <path id="DejaVuSansMono-Bold-6f" d="M 1925 2841 
Q 1597 2841 1409 2552 
Q 1222 2263 1222 1747 
Q 1222 1231 1409 942 
Q 1597 653 1925 653 
Q 2256 653 2443 942 
Q 2631 1231 2631 1747 
Q 2631 2263 2443 2552 
Q 2256 2841 1925 2841 
z
M 306 1747 
Q 306 2594 745 3089 
Q 1184 3584 1925 3584 
Q 2669 3584 3108 3089 
Q 3547 2594 3547 1747 
Q 3547 900 3108 404 
Q 2669 -91 1925 -91 
Q 1184 -91 745 404 
Q 306 900 306 1747 
z
" transform="scale(0.015625)"/>
      <path id="DejaVuSansMono-Bold-73" d="M 3097 3391 
L 3097 2591 
Q 2844 2753 2570 2836 
Q 2297 2919 2022 2919 
Q 1716 2919 1559 2830 
Q 1403 2741 1403 2566 
Q 1403 2316 2072 2159 
L 2106 2150 
L 2369 2088 
Q 2869 1969 3101 1705 
Q 3334 1441 3334 991 
Q 3334 450 2979 179 
Q 2625 -91 1913 -91 
Q 1597 -91 1265 -36 
Q 934 19 594 128 
L 594 928 
Q 897 756 1211 665 
Q 1525 575 1819 575 
Q 2141 575 2306 669 
Q 2472 763 2472 941 
Q 2472 1116 2355 1209 
Q 2238 1303 1797 1409 
L 1544 1466 
Q 1019 1584 778 1837 
Q 538 2091 538 2516 
Q 538 3022 903 3303 
Q 1269 3584 1931 3584 
Q 2228 3584 2523 3536 
Q 2819 3488 3097 3391 
z
" transform="scale(0.015625)"/>
      <path id="DejaVuSansMono-Bold-54" d="M 2388 0 
L 1466 0 
L 1466 3859 
L 281 3859 
L 281 4666 
L 3572 4666 
L 3572 3859 
L 2388 3859 
L 2388 0 
z
" transform="scale(0.015625)"/>
      <path id="DejaVuSansMono-Bold-75" d="M 500 1222 
L 500 3500 
L 1416 3500 
L 1416 1363 
Q 1416 984 1522 821 
Q 1628 659 1875 659 
Q 2122 659 2261 878 
Q 2400 1097 2400 1491 
L 2400 3500 
L 3316 3500 
L 3316 0 
L 2400 0 
L 2400 519 
Q 2303 228 2070 68 
Q 1838 -91 1509 -91 
Q 1009 -91 754 240 
Q 500 572 500 1222 
z
" transform="scale(0.015625)"/>
      <path id="DejaVuSansMono-Bold-67" d="M 2509 1806 
Q 2509 2275 2331 2558 
Q 2153 2841 1863 2841 
Q 1575 2841 1398 2559 
Q 1222 2278 1222 1806 
Q 1222 1331 1398 1050 
Q 1575 769 1863 769 
Q 2153 769 2331 1051 
Q 2509 1334 2509 1806 
z
M 3425 263 
Q 3425 -578 3045 -951 
Q 2666 -1325 1813 -1325 
Q 1525 -1325 1244 -1283 
Q 963 -1241 672 -1153 
L 672 -313 
Q 931 -456 1200 -525 
Q 1469 -594 1753 -594 
Q 2141 -594 2325 -411 
Q 2509 -228 2509 159 
L 2509 538 
Q 2375 288 2153 166 
Q 1931 44 1613 44 
Q 1013 44 659 512 
Q 306 981 306 1784 
Q 306 2616 659 3103 
Q 1013 3591 1606 3591 
Q 1906 3591 2140 3450 
Q 2375 3309 2509 3053 
L 2509 3500 
L 3425 3500 
L 3425 263 
z
" transform="scale(0.015625)"/>
      <path id="DejaVuSansMono-Bold-70" d="M 1381 494 
L 1381 -1331 
L 469 -1331 
L 469 3500 
L 1381 3500 
L 1381 2975 
Q 1525 3278 1759 3431 
Q 1994 3584 2309 3584 
Q 2909 3584 3240 3103 
Q 3572 2622 3572 1747 
Q 3572 859 3236 384 
Q 2900 -91 2278 -91 
Q 1997 -91 1773 54 
Q 1550 200 1381 494 
z
M 2656 1753 
Q 2656 2259 2487 2546 
Q 2319 2834 2022 2834 
Q 1725 2834 1553 2546 
Q 1381 2259 1381 1753 
Q 1381 1247 1553 959 
Q 1725 672 2022 672 
Q 2319 672 2487 959 
Q 2656 1247 2656 1753 
z
" transform="scale(0.015625)"/>
     </defs>
     <use xlink:href="#DejaVuSansMono-Bold-45"/>
     <use xlink:href="#DejaVuSansMono-Bold-74" transform="translate(60.205078 0)"/>
     <use xlink:href="#DejaVuSansMono-Bold-68" transform="translate(120.410156 0)"/>
     <use xlink:href="#DejaVuSansMono-Bold-65" transform="translate(180.615234 0)"/>
     <use xlink:href="#DejaVuSansMono-Bold-72" transform="translate(240.820312 0)"/>
     <use xlink:href="#DejaVuSansMono-Bold-6e" transform="translate(301.025391 0)"/>
     <use xlink:href="#DejaVuSansMono-Bold-65" transform="translate(361.230469 0)"/>
     <use xlink:href="#DejaVuSansMono-Bold-74" transform="translate(421.435547 0)"/>
     <use xlink:href="#DejaVuSansMono-Bold-20" transform="translate(481.640625 0)"/>
     <use xlink:href="#DejaVuSansMono-Bold-44" transform="translate(541.845703 0)"/>
     <use xlink:href="#DejaVuSansMono-Bold-72" transform="translate(602.050781 0)"/>
     <use xlink:href="#DejaVuSansMono-Bold-69" transform="translate(662.255859 0)"/>
     <use xlink:href="#DejaVuSansMono-Bold-76" transform="translate(722.460938 0)"/>
     <use xlink:href="#DejaVuSansMono-Bold-65" transform="translate(782.666016 0)"/>
     <use xlink:href="#DejaVuSansMono-Bold-72" transform="translate(842.871094 0)"/>
     <use xlink:href="#DejaVuSansMono-Bold-20" transform="translate(903.076172 0)"/>
     <use xlink:href="#DejaVuSansMono-Bold-43" transform="translate(963.28125 0)"/>
     <use xlink:href="#DejaVuSansMono-Bold-50" transform="translate(1023.486328 0)"/>
     <use xlink:href="#DejaVuSansMono-Bold-55" transform="translate(1083.691406 0)"/>
     <use xlink:href="#DejaVuSansMono-Bold-20" transform="translate(1143.896484 0)"/>
     <use xlink:href="#DejaVuSansMono-Bold-55" transform="translate(1204.101562 0)"/>
     <use xlink:href="#DejaVuSansMono-Bold-74" transform="translate(1264.306641 0)"/>
     <use xlink:href="#DejaVuSansMono-Bold-69" transform="translate(1324.511719 0)"/>
     <use xlink:href="#DejaVuSansMono-Bold-6c" transform="translate(1384.716797 0)"/>
     <use xlink:href="#DejaVuSansMono-Bold-69" transform="translate(1444.921875 0)"/>
     <use xlink:href="#DejaVuSansMono-Bold-7a" transform="translate(1505.126953 0)"/>
     <use xlink:href="#DejaVuSansMono-Bold-61" transform="translate(1565.332031 0)"/>
     <use xlink:href="#DejaVuSansMono-Bold-74" transform="translate(1625.537109 0)"/>
     <use xlink:href="#DejaVuSansMono-Bold-69" transform="translate(1685.742188 0)"/>
     <use xlink:href="#DejaVuSansMono-Bold-6f" transform="translate(1745.947266 0)"/>
     <use xlink:href="#DejaVuSansMono-Bold-6e" transform="translate(1806.152344 0)"/>
     <use xlink:href="#DejaVuSansMono-Bold-20" transform="translate(1866.357422 0)"/>
     <use xlink:href="#DejaVuSansMono-Bold-76" transform="translate(1926.5625 0)"/>
     <use xlink:href="#DejaVuSansMono-Bold-73" transform="translate(1986.767578 0)"/>
     <use xlink:href="#DejaVuSansMono-Bold-20" transform="translate(2046.972656 0)"/>
     <use xlink:href="#DejaVuSansMono-Bold-54" transform="translate(2107.177734 0)"/>
     <use xlink:href="#DejaVuSansMono-Bold-68" transform="translate(2167.382812 0)"/>
     <use xlink:href="#DejaVuSansMono-Bold-72" transform="translate(2227.587891 0)"/>
     <use xlink:href="#DejaVuSansMono-Bold-6f" transform="translate(2287.792969 0)"/>
     <use xlink:href="#DejaVuSansMono-Bold-75" transform="translate(2347.998047 0)"/>
     <use xlink:href="#DejaVuSansMono-Bold-67" transform="translate(2408.203125 0)"/>
     <use xlink:href="#DejaVuSansMono-Bold-68" transform="translate(2468.408203 0)"/>
     <use xlink:href="#DejaVuSansMono-Bold-70" transform="translate(2528.613281 0)"/>
     <use xlink:href="#DejaVuSansMono-Bold-75" transform="translate(2588.818359 0)"/>
     <use xlink:href="#DejaVuSansMono-Bold-74" transform="translate(2649.023438 0)"/>
    </g>
   </g>
   <g id="legend_1">
    <g id="patch_33">
     <path d="M 74.44375 1150.369812 
L 110.44375 1150.369812 
L 110.44375 1137.769812 
L 74.44375 1137.769812 
z
" style="fill: #84a5c7; opacity: 0.85"/>
    </g>
    <g id="text_26">
     <!-- CompCert -->
     <g style="fill: #262626" transform="translate(124.84375 1150.369812) scale(0.18 -0.18)">
      <defs>
       <path id="DejaVuSansMono-6d" d="M 2113 3144 
Q 2219 3369 2383 3476 
Q 2547 3584 2778 3584 
Q 3200 3584 3373 3257 
Q 3547 2931 3547 2028 
L 3547 0 
L 3022 0 
L 3022 2003 
Q 3022 2744 2939 2923 
Q 2856 3103 2638 3103 
Q 2388 3103 2295 2911 
Q 2203 2719 2203 2003 
L 2203 0 
L 1678 0 
L 1678 2003 
Q 1678 2753 1589 2928 
Q 1500 3103 1269 3103 
Q 1041 3103 952 2911 
Q 863 2719 863 2003 
L 863 0 
L 341 0 
L 341 3500 
L 863 3500 
L 863 3200 
Q 966 3388 1120 3486 
Q 1275 3584 1472 3584 
Q 1709 3584 1867 3475 
Q 2025 3366 2113 3144 
z
" transform="scale(0.015625)"/>
      </defs>
      <use xlink:href="#DejaVuSansMono-43"/>
      <use xlink:href="#DejaVuSansMono-6f" transform="translate(60.205078 0)"/>
      <use xlink:href="#DejaVuSansMono-6d" transform="translate(120.410156 0)"/>
      <use xlink:href="#DejaVuSansMono-70" transform="translate(180.615234 0)"/>
      <use xlink:href="#DejaVuSansMono-43" transform="translate(240.820312 0)"/>
      <use xlink:href="#DejaVuSansMono-65" transform="translate(301.025391 0)"/>
      <use xlink:href="#DejaVuSansMono-72" transform="translate(361.230469 0)"/>
      <use xlink:href="#DejaVuSansMono-74" transform="translate(421.435547 0)"/>
     </g>
    </g>
    <g id="patch_34">
     <path d="M 74.44375 1176.886062 
L 110.44375 1176.886062 
L 110.44375 1164.286062 
L 74.44375 1164.286062 
z
" style="fill: #f18484; opacity: 0.85"/>
    </g>
    <g id="text_27">
     <!-- PNK -->
     <g style="fill: #262626" transform="translate(124.84375 1176.886062) scale(0.18 -0.18)">
      <defs>
       <path id="DejaVuSansMono-4e" d="M 434 4666 
L 1234 4666 
L 2809 825 
L 2809 4666 
L 3419 4666 
L 3419 0 
L 2619 0 
L 1044 3841 
L 1044 0 
L 434 0 
L 434 4666 
z
" transform="scale(0.015625)"/>
       <path id="DejaVuSansMono-4b" d="M 428 4666 
L 1063 4666 
L 1063 2591 
L 3034 4666 
L 3775 4666 
L 1959 2759 
L 3828 0 
L 3066 0 
L 1544 2338 
L 1063 1825 
L 1063 0 
L 428 0 
L 428 4666 
z
" transform="scale(0.015625)"/>
      </defs>
      <use xlink:href="#DejaVuSansMono-50"/>
      <use xlink:href="#DejaVuSansMono-4e" transform="translate(60.205078 0)"/>
      <use xlink:href="#DejaVuSansMono-4b" transform="translate(120.410156 0)"/>
     </g>
    </g>
    <g id="line2d_45">
     <path d="M 74.44375 1197.102312 
L 92.44375 1197.102312 
L 110.44375 1197.102312 
" style="fill: none; stroke: #000000; stroke-width: 2; stroke-linecap: round"/>
     <defs>
      <path id="mebdc5ecda3" d="M 0 4 
C 1.060812 4 2.078319 3.578535 2.828427 2.828427 
C 3.578535 2.078319 4 1.060812 4 0 
C 4 -1.060812 3.578535 -2.078319 2.828427 -2.828427 
C 2.078319 -3.578535 1.060812 -4 0 -4 
C -1.060812 -4 -2.078319 -3.578535 -2.828427 -2.828427 
C -3.578535 -2.078319 -4 -1.060812 -4 0 
C -4 1.060812 -3.578535 2.078319 -2.828427 2.828427 
C -2.078319 3.578535 -1.060812 4 0 4 
z
" style="stroke: #000000"/>
     </defs>
     <g>
      <use xlink:href="#mebdc5ecda3" x="92.44375" y="1197.102312" style="fill: #808080; stroke: #000000"/>
     </g>
    </g>
    <g id="text_28">
     <!-- Relative Diff (PNK vs CompCert) -->
     <g style="fill: #262626" transform="translate(124.84375 1203.402312) scale(0.18 -0.18)">
      <defs>
       <path id="DejaVuSansMono-76" d="M 313 3500 
L 909 3500 
L 1925 563 
L 2944 3500 
L 3541 3500 
L 2297 0 
L 1556 0 
L 313 3500 
z
" transform="scale(0.015625)"/>
       <path id="DejaVuSansMono-44" d="M 1363 519 
Q 2159 519 2475 911 
Q 2791 1303 2791 2328 
Q 2791 3363 2477 3755 
Q 2163 4147 1363 4147 
L 1063 4147 
L 1063 519 
L 1363 519 
z
M 1375 4666 
Q 2444 4666 2950 4097 
Q 3456 3528 3456 2328 
Q 3456 1134 2950 567 
Q 2444 0 1375 0 
L 428 0 
L 428 4666 
L 1375 4666 
z
" transform="scale(0.015625)"/>
       <path id="DejaVuSansMono-66" d="M 3322 4863 
L 3322 4384 
L 2669 4384 
Q 2359 4384 2239 4257 
Q 2119 4131 2119 3809 
L 2119 3500 
L 3322 3500 
L 3322 3053 
L 2119 3053 
L 2119 0 
L 1544 0 
L 1544 3053 
L 609 3053 
L 609 3500 
L 1544 3500 
L 1544 3744 
Q 1544 4319 1808 4591 
Q 2072 4863 2631 4863 
L 3322 4863 
z
" transform="scale(0.015625)"/>
      </defs>
      <use xlink:href="#DejaVuSansMono-52"/>
      <use xlink:href="#DejaVuSansMono-65" transform="translate(60.205078 0)"/>
      <use xlink:href="#DejaVuSansMono-6c" transform="translate(120.410156 0)"/>
      <use xlink:href="#DejaVuSansMono-61" transform="translate(180.615234 0)"/>
      <use xlink:href="#DejaVuSansMono-74" transform="translate(240.820312 0)"/>
      <use xlink:href="#DejaVuSansMono-69" transform="translate(301.025391 0)"/>
      <use xlink:href="#DejaVuSansMono-76" transform="translate(361.230469 0)"/>
      <use xlink:href="#DejaVuSansMono-65" transform="translate(421.435547 0)"/>
      <use xlink:href="#DejaVuSansMono-20" transform="translate(481.640625 0)"/>
      <use xlink:href="#DejaVuSansMono-44" transform="translate(541.845703 0)"/>
      <use xlink:href="#DejaVuSansMono-69" transform="translate(602.050781 0)"/>
      <use xlink:href="#DejaVuSansMono-66" transform="translate(662.255859 0)"/>
      <use xlink:href="#DejaVuSansMono-66" transform="translate(722.460938 0)"/>
      <use xlink:href="#DejaVuSansMono-20" transform="translate(782.666016 0)"/>
      <use xlink:href="#DejaVuSansMono-28" transform="translate(842.871094 0)"/>
      <use xlink:href="#DejaVuSansMono-50" transform="translate(903.076172 0)"/>
      <use xlink:href="#DejaVuSansMono-4e" transform="translate(963.28125 0)"/>
      <use xlink:href="#DejaVuSansMono-4b" transform="translate(1023.486328 0)"/>
      <use xlink:href="#DejaVuSansMono-20" transform="translate(1083.691406 0)"/>
      <use xlink:href="#DejaVuSansMono-76" transform="translate(1143.896484 0)"/>
      <use xlink:href="#DejaVuSansMono-73" transform="translate(1204.101562 0)"/>
      <use xlink:href="#DejaVuSansMono-20" transform="translate(1264.306641 0)"/>
      <use xlink:href="#DejaVuSansMono-43" transform="translate(1324.511719 0)"/>
      <use xlink:href="#DejaVuSansMono-6f" transform="translate(1384.716797 0)"/>
      <use xlink:href="#DejaVuSansMono-6d" transform="translate(1444.921875 0)"/>
      <use xlink:href="#DejaVuSansMono-70" transform="translate(1505.126953 0)"/>
      <use xlink:href="#DejaVuSansMono-43" transform="translate(1565.332031 0)"/>
      <use xlink:href="#DejaVuSansMono-65" transform="translate(1625.537109 0)"/>
      <use xlink:href="#DejaVuSansMono-72" transform="translate(1685.742188 0)"/>
      <use xlink:href="#DejaVuSansMono-74" transform="translate(1745.947266 0)"/>
      <use xlink:href="#DejaVuSansMono-29" transform="translate(1806.152344 0)"/>
     </g>
    </g>
   </g>
  </g>
  <g id="axes_2">
   <g id="matplotlib.axis_3">
    <g id="ytick_10">
     <g id="line2d_46">
      <path d="M 58.24375 1785.677 
L 951.04375 1785.677 
" clip-path="url(#p17d8b736b2)" style="fill: none; stroke-dasharray: 1.85,0.8; stroke-dashoffset: 0; stroke: #cccccc; stroke-opacity: 0.2; stroke-width: 0.5"/>
     </g>
     <g id="line2d_47"/>
     <g id="text_29">
      <!-- 20 -->
      <g style="fill: #262626" transform="translate(954.54375 1789.502781) scale(0.1 -0.1)">
       <defs>
        <path id="DejaVuSansMono-2212" d="M 275 2272 
L 3578 2272 
L 3578 1741 
L 275 1741 
L 275 2272 
z
" transform="scale(0.015625)"/>
       </defs>
       <use xlink:href="#DejaVuSansMono-2212"/>
       <use xlink:href="#DejaVuSansMono-32" transform="translate(60.205078 0)"/>
       <use xlink:href="#DejaVuSansMono-30" transform="translate(120.410156 0)"/>
      </g>
     </g>
    </g>
    <g id="ytick_11">
     <g id="line2d_48">
      <path d="M 58.24375 1652.621 
L 951.04375 1652.621 
" clip-path="url(#p17d8b736b2)" style="fill: none; stroke-dasharray: 1.85,0.8; stroke-dashoffset: 0; stroke: #cccccc; stroke-opacity: 0.2; stroke-width: 0.5"/>
     </g>
     <g id="line2d_49"/>
     <g id="text_30">
      <!-- 0 -->
      <g style="fill: #262626" transform="translate(954.54375 1656.446781) scale(0.1 -0.1)">
       <use xlink:href="#DejaVuSansMono-30"/>
      </g>
     </g>
    </g>
    <g id="ytick_12">
     <g id="line2d_50">
      <path d="M 58.24375 1519.565 
L 951.04375 1519.565 
" clip-path="url(#p17d8b736b2)" style="fill: none; stroke-dasharray: 1.85,0.8; stroke-dashoffset: 0; stroke: #cccccc; stroke-opacity: 0.2; stroke-width: 0.5"/>
     </g>
     <g id="line2d_51"/>
     <g id="text_31">
      <!-- 20 -->
      <g style="fill: #262626" transform="translate(954.54375 1523.390781) scale(0.1 -0.1)">
       <use xlink:href="#DejaVuSansMono-32"/>
       <use xlink:href="#DejaVuSansMono-30" transform="translate(60.205078 0)"/>
      </g>
     </g>
    </g>
    <g id="ytick_13">
     <g id="line2d_52">
      <path d="M 58.24375 1386.509 
L 951.04375 1386.509 
" clip-path="url(#p17d8b736b2)" style="fill: none; stroke-dasharray: 1.85,0.8; stroke-dashoffset: 0; stroke: #cccccc; stroke-opacity: 0.2; stroke-width: 0.5"/>
     </g>
     <g id="line2d_53"/>
     <g id="text_32">
      <!-- 40 -->
      <g style="fill: #262626" transform="translate(954.54375 1390.334781) scale(0.1 -0.1)">
       <use xlink:href="#DejaVuSansMono-34"/>
       <use xlink:href="#DejaVuSansMono-30" transform="translate(60.205078 0)"/>
      </g>
     </g>
    </g>
    <g id="ytick_14">
     <g id="line2d_54">
      <path d="M 58.24375 1253.453 
L 951.04375 1253.453 
" clip-path="url(#p17d8b736b2)" style="fill: none; stroke-dasharray: 1.85,0.8; stroke-dashoffset: 0; stroke: #cccccc; stroke-opacity: 0.2; stroke-width: 0.5"/>
     </g>
     <g id="line2d_55"/>
     <g id="text_33">
      <!-- 60 -->
      <g style="fill: #262626" transform="translate(954.54375 1257.278781) scale(0.1 -0.1)">
       <use xlink:href="#DejaVuSansMono-36"/>
       <use xlink:href="#DejaVuSansMono-30" transform="translate(60.205078 0)"/>
      </g>
     </g>
    </g>
    <g id="ytick_15">
     <g id="line2d_56">
      <path d="M 58.24375 1120.397 
L 951.04375 1120.397 
" clip-path="url(#p17d8b736b2)" style="fill: none; stroke-dasharray: 1.85,0.8; stroke-dashoffset: 0; stroke: #cccccc; stroke-opacity: 0.2; stroke-width: 0.5"/>
     </g>
     <g id="line2d_57"/>
     <g id="text_34">
      <!-- 80 -->
      <g style="fill: #262626" transform="translate(954.54375 1124.222781) scale(0.1 -0.1)">
       <use xlink:href="#DejaVuSansMono-38"/>
       <use xlink:href="#DejaVuSansMono-30" transform="translate(60.205078 0)"/>
      </g>
     </g>
    </g>
    <g id="text_35">
     <!-- Relative Difference (%) -->
     <g style="fill: #262626" transform="translate(991.907812 1591.504187) rotate(-90) scale(0.2 -0.2)">
      <defs>
       <path id="DejaVuSansMono-63" d="M 3316 178 
Q 3084 44 2839 -23 
Q 2594 -91 2338 -91 
Q 1525 -91 1067 396 
Q 609 884 609 1747 
Q 609 2609 1067 3096 
Q 1525 3584 2338 3584 
Q 2591 3584 2831 3518 
Q 3072 3453 3316 3316 
L 3316 2713 
Q 3088 2916 2858 3006 
Q 2628 3097 2338 3097 
Q 1797 3097 1506 2747 
Q 1216 2397 1216 1747 
Q 1216 1100 1508 748 
Q 1800 397 2338 397 
Q 2638 397 2875 489 
Q 3113 581 3316 775 
L 3316 178 
z
" transform="scale(0.015625)"/>
      </defs>
      <use xlink:href="#DejaVuSansMono-52"/>
      <use xlink:href="#DejaVuSansMono-65" transform="translate(60.205078 0)"/>
      <use xlink:href="#DejaVuSansMono-6c" transform="translate(120.410156 0)"/>
      <use xlink:href="#DejaVuSansMono-61" transform="translate(180.615234 0)"/>
      <use xlink:href="#DejaVuSansMono-74" transform="translate(240.820312 0)"/>
      <use xlink:href="#DejaVuSansMono-69" transform="translate(301.025391 0)"/>
      <use xlink:href="#DejaVuSansMono-76" transform="translate(361.230469 0)"/>
      <use xlink:href="#DejaVuSansMono-65" transform="translate(421.435547 0)"/>
      <use xlink:href="#DejaVuSansMono-20" transform="translate(481.640625 0)"/>
      <use xlink:href="#DejaVuSansMono-44" transform="translate(541.845703 0)"/>
      <use xlink:href="#DejaVuSansMono-69" transform="translate(602.050781 0)"/>
      <use xlink:href="#DejaVuSansMono-66" transform="translate(662.255859 0)"/>
      <use xlink:href="#DejaVuSansMono-66" transform="translate(722.460938 0)"/>
      <use xlink:href="#DejaVuSansMono-65" transform="translate(782.666016 0)"/>
      <use xlink:href="#DejaVuSansMono-72" transform="translate(842.871094 0)"/>
      <use xlink:href="#DejaVuSansMono-65" transform="translate(903.076172 0)"/>
      <use xlink:href="#DejaVuSansMono-6e" transform="translate(963.28125 0)"/>
      <use xlink:href="#DejaVuSansMono-63" transform="translate(1023.486328 0)"/>
      <use xlink:href="#DejaVuSansMono-65" transform="translate(1083.691406 0)"/>
      <use xlink:href="#DejaVuSansMono-20" transform="translate(1143.896484 0)"/>
      <use xlink:href="#DejaVuSansMono-28" transform="translate(1204.101562 0)"/>
      <use xlink:href="#DejaVuSansMono-25" transform="translate(1264.306641 0)"/>
      <use xlink:href="#DejaVuSansMono-29" transform="translate(1324.511719 0)"/>
     </g>
    </g>
   </g>
   <g id="patch_35">
    <path d="M 58.24375 1785.677 
L 58.24375 1120.397 
" style="fill: none; stroke: #cccccc; stroke-linejoin: miter; stroke-linecap: square"/>
   </g>
   <g id="patch_36">
    <path d="M 951.04375 1785.677 
L 951.04375 1120.397 
" style="fill: none; stroke: #cccccc; stroke-linejoin: miter; stroke-linecap: square"/>
   </g>
   <g id="patch_37">
    <path d="M 58.24375 1785.677 
L 951.04375 1785.677 
" style="fill: none; stroke: #cccccc; stroke-linejoin: miter; stroke-linecap: square"/>
   </g>
   <g id="patch_38">
    <path d="M 58.24375 1120.397 
L 951.04375 1120.397 
" style="fill: none; stroke: #cccccc; stroke-linejoin: miter; stroke-linecap: square"/>
   </g>
   <g id="line2d_58">
    <path d="M 58.24375 1652.621 
L 951.04375 1652.621 
" clip-path="url(#p17d8b736b2)" style="fill: none; stroke-dasharray: 3.7,1.6; stroke-dashoffset: 0; stroke: #808080; stroke-opacity: 0.7"/>
   </g>
   <g id="line2d_59">
    <path d="M 122.697226 55.949 
L 186.35498 380.762176 
L 250.012734 932.585444 
L 313.670488 979.550836 
L 377.328242 1201.007569 
L 440.985996 1251.253727 
L 504.64375 1238.184279 
L 568.301504 1168.250474 
L 631.959258 1297.12787 
L 695.617012 1317.479947 
L 759.274766 1302.473632 
L 822.93252 1305.086672 
L 886.590274 1297.471526 
" clip-path="url(#p17d8b736b2)" style="fill: none; stroke: #555555; stroke-width: 4; stroke-linecap: round"/>
   </g>
   <g id="line2d_60">
    <defs>
     <path id="mb61d0610ab" d="M 0 7 
C 1.856422 7 3.637059 6.262436 4.949747 4.949747 
C 6.262436 3.637059 7 1.856422 7 0 
C 7 -1.856422 6.262436 -3.637059 4.949747 -4.949747 
C 3.637059 -6.262436 1.856422 -7 0 -7 
C -1.856422 -7 -3.637059 -6.262436 -4.949747 -4.949747 
C -6.262436 -3.637059 -7 -1.856422 -7 0 
C -7 1.856422 -6.262436 3.637059 -4.949747 4.949747 
C -3.637059 6.262436 -1.856422 7 0 7 
z
" style="stroke: #555555"/>
    </defs>
    <g clip-path="url(#p17d8b736b2)">
     <use xlink:href="#mb61d0610ab" x="122.697226" y="55.949" style="fill: #555555; stroke: #555555"/>
    </g>
   </g>
   <g id="line2d_61">
    <g clip-path="url(#p17d8b736b2)">
     <use xlink:href="#mb61d0610ab" x="186.35498" y="380.762176" style="fill: #555555; stroke: #555555"/>
    </g>
   </g>
   <g id="line2d_62">
    <g clip-path="url(#p17d8b736b2)">
     <use xlink:href="#mb61d0610ab" x="250.012734" y="932.585444" style="fill: #555555; stroke: #555555"/>
    </g>
   </g>
   <g id="line2d_63">
    <g clip-path="url(#p17d8b736b2)">
     <use xlink:href="#mb61d0610ab" x="313.670488" y="979.550836" style="fill: #555555; stroke: #555555"/>
    </g>
   </g>
   <g id="line2d_64">
    <g clip-path="url(#p17d8b736b2)">
     <use xlink:href="#mb61d0610ab" x="377.328242" y="1201.007569" style="fill: #555555; stroke: #555555"/>
    </g>
   </g>
   <g id="line2d_65">
    <g clip-path="url(#p17d8b736b2)">
     <use xlink:href="#mb61d0610ab" x="440.985996" y="1251.253727" style="fill: #555555; stroke: #555555"/>
    </g>
   </g>
   <g id="line2d_66">
    <g clip-path="url(#p17d8b736b2)">
     <use xlink:href="#mb61d0610ab" x="504.64375" y="1238.184279" style="fill: #555555; stroke: #555555"/>
    </g>
   </g>
   <g id="line2d_67">
    <g clip-path="url(#p17d8b736b2)">
     <use xlink:href="#mb61d0610ab" x="568.301504" y="1168.250474" style="fill: #555555; stroke: #555555"/>
    </g>
   </g>
   <g id="line2d_68">
    <g clip-path="url(#p17d8b736b2)">
     <use xlink:href="#mb61d0610ab" x="631.959258" y="1297.12787" style="fill: #555555; stroke: #555555"/>
    </g>
   </g>
   <g id="line2d_69">
    <g clip-path="url(#p17d8b736b2)">
     <use xlink:href="#mb61d0610ab" x="695.617012" y="1317.479947" style="fill: #555555; stroke: #555555"/>
    </g>
   </g>
   <g id="line2d_70">
    <g clip-path="url(#p17d8b736b2)">
     <use xlink:href="#mb61d0610ab" x="759.274766" y="1302.473632" style="fill: #555555; stroke: #555555"/>
    </g>
   </g>
   <g id="line2d_71">
    <g clip-path="url(#p17d8b736b2)">
     <use xlink:href="#mb61d0610ab" x="822.93252" y="1305.086672" style="fill: #555555; stroke: #555555"/>
    </g>
   </g>
   <g id="line2d_72">
    <g clip-path="url(#p17d8b736b2)">
     <use xlink:href="#mb61d0610ab" x="886.590274" y="1297.471526" style="fill: #555555; stroke: #555555"/>
    </g>
   </g>
   <g id="text_36">
    <g id="patch_39">
     <path d="M 93.799726 25.885 
L 151.594726 25.885 
Q 154.794726 25.885 154.794726 22.685 
L 154.794726 7.2 
Q 154.794726 4 151.594726 4 
L 93.799726 4 
Q 90.599726 4 90.599726 7.2 
L 90.599726 22.685 
Q 90.599726 25.885 93.799726 25.885 
z
" style="fill: #d3d3d3; opacity: 0.7; stroke: #808080; stroke-width: 0.5; stroke-linejoin: miter"/>
    </g>
    <!-- 240.0% -->
    <g style="fill: #555555" transform="translate(93.799726 19.3575) scale(0.16 -0.16)">
     <defs>
      <path id="DejaVuSansMono-Bold-32" d="M 1356 813 
L 3322 813 
L 3322 0 
L 359 0 
L 359 788 
L 859 1319 
Q 1750 2266 1941 2484 
Q 2175 2753 2278 2961 
Q 2381 3169 2381 3372 
Q 2381 3684 2192 3854 
Q 2003 4025 1656 4025 
Q 1409 4025 1101 3926 
Q 794 3828 459 3641 
L 459 4500 
Q 794 4622 1114 4686 
Q 1434 4750 1728 4750 
Q 2469 4750 2892 4404 
Q 3316 4059 3316 3463 
Q 3316 3188 3223 2947 
Q 3131 2706 2906 2413 
Q 2741 2200 1997 1456 
Q 1594 1053 1356 813 
z
" transform="scale(0.015625)"/>
      <path id="DejaVuSansMono-Bold-34" d="M 2169 3641 
L 991 1797 
L 2169 1797 
L 2169 3641 
z
M 2088 4666 
L 3053 4666 
L 3053 1797 
L 3566 1797 
L 3566 1006 
L 3053 1006 
L 3053 0 
L 2169 0 
L 2169 1006 
L 319 1006 
L 319 1900 
L 2088 4666 
z
" transform="scale(0.015625)"/>
      <path id="DejaVuSansMono-Bold-30" d="M 1538 2328 
Q 1538 2494 1650 2606 
Q 1763 2719 1925 2719 
Q 2091 2719 2203 2606 
Q 2316 2494 2316 2328 
Q 2316 2166 2203 2053 
Q 2091 1941 1925 1941 
Q 1763 1941 1650 2052 
Q 1538 2163 1538 2328 
z
M 1925 3969 
Q 1606 3969 1459 3578 
Q 1313 3188 1313 2328 
Q 1313 1472 1459 1081 
Q 1606 691 1925 691 
Q 2247 691 2394 1081 
Q 2541 1472 2541 2328 
Q 2541 3188 2394 3578 
Q 2247 3969 1925 3969 
z
M 384 2328 
Q 384 3541 768 4145 
Q 1153 4750 1925 4750 
Q 2700 4750 3084 4147 
Q 3469 3544 3469 2328 
Q 3469 1116 3084 512 
Q 2700 -91 1925 -91 
Q 1153 -91 768 514 
Q 384 1119 384 2328 
z
" transform="scale(0.015625)"/>
      <path id="DejaVuSansMono-Bold-2e" d="M 1403 1147 
L 2444 1147 
L 2444 0 
L 1403 0 
L 1403 1147 
z
" transform="scale(0.015625)"/>
      <path id="DejaVuSansMono-Bold-25" d="M 103 3475 
Q 103 3894 393 4184 
Q 684 4475 1100 4475 
Q 1516 4475 1808 4183 
Q 2100 3891 2100 3475 
Q 2100 3059 1808 2768 
Q 1516 2478 1100 2478 
Q 684 2478 393 2767 
Q 103 3056 103 3475 
z
M 1100 3903 
Q 922 3903 797 3779 
Q 672 3656 672 3475 
Q 672 3294 797 3170 
Q 922 3047 1100 3047 
Q 1281 3047 1404 3170 
Q 1528 3294 1528 3475 
Q 1528 3653 1403 3778 
Q 1278 3903 1100 3903 
z
M 269 1753 
L 3525 3059 
L 3653 2759 
L 378 1453 
L 269 1753 
z
M 1813 997 
Q 1813 1416 2102 1706 
Q 2391 1997 2809 1997 
Q 3222 1997 3515 1705 
Q 3809 1413 3809 997 
Q 3809 584 3515 292 
Q 3222 0 2809 0 
Q 2391 0 2102 289 
Q 1813 578 1813 997 
z
M 2803 1428 
Q 2628 1428 2504 1303 
Q 2381 1178 2381 997 
Q 2381 816 2503 692 
Q 2625 569 2803 569 
Q 2984 569 3111 694 
Q 3238 819 3238 997 
Q 3238 1175 3109 1301 
Q 2981 1428 2803 1428 
z
" transform="scale(0.015625)"/>
     </defs>
     <use xlink:href="#DejaVuSansMono-Bold-32"/>
     <use xlink:href="#DejaVuSansMono-Bold-34" transform="translate(60.205078 0)"/>
     <use xlink:href="#DejaVuSansMono-Bold-30" transform="translate(120.410156 0)"/>
     <use xlink:href="#DejaVuSansMono-Bold-2e" transform="translate(180.615234 0)"/>
     <use xlink:href="#DejaVuSansMono-Bold-30" transform="translate(240.820312 0)"/>
     <use xlink:href="#DejaVuSansMono-Bold-25" transform="translate(301.025391 0)"/>
    </g>
   </g>
   <g id="text_37">
    <g id="patch_40">
     <path d="M 157.45748 350.698176 
L 215.25248 350.698176 
Q 218.45248 350.698176 218.45248 347.498176 
L 218.45248 332.013176 
Q 218.45248 328.813176 215.25248 328.813176 
L 157.45748 328.813176 
Q 154.25748 328.813176 154.25748 332.013176 
L 154.25748 347.498176 
Q 154.25748 350.698176 157.45748 350.698176 
z
" style="fill: #d3d3d3; opacity: 0.7; stroke: #808080; stroke-width: 0.5; stroke-linejoin: miter"/>
    </g>
    <!-- 191.2% -->
    <g style="fill: #555555" transform="translate(157.45748 344.170676) scale(0.16 -0.16)">
     <defs>
      <path id="DejaVuSansMono-Bold-31" d="M 588 813 
L 1619 813 
L 1619 3841 
L 659 3603 
L 659 4434 
L 1625 4666 
L 2516 4666 
L 2516 813 
L 3547 813 
L 3547 0 
L 588 0 
L 588 813 
z
" transform="scale(0.015625)"/>
      <path id="DejaVuSansMono-Bold-39" d="M 634 63 
L 634 903 
Q 881 759 1107 690 
Q 1334 622 1544 622 
Q 2041 622 2302 955 
Q 2563 1288 2578 1950 
Q 2431 1747 2203 1645 
Q 1975 1544 1663 1544 
Q 1034 1544 690 1942 
Q 347 2341 347 3072 
Q 347 3853 731 4281 
Q 1116 4709 1819 4709 
Q 2672 4709 3058 4139 
Q 3444 3569 3444 2297 
Q 3444 1088 2972 483 
Q 2500 -122 1556 -122 
Q 1338 -122 1105 -75 
Q 872 -28 634 63 
z
M 1844 2316 
Q 2141 2316 2298 2533 
Q 2456 2750 2456 3163 
Q 2456 3572 2298 3789 
Q 2141 4006 1844 4006 
Q 1544 4006 1383 3789 
Q 1222 3572 1222 3163 
Q 1222 2753 1383 2534 
Q 1544 2316 1844 2316 
z
" transform="scale(0.015625)"/>
     </defs>
     <use xlink:href="#DejaVuSansMono-Bold-31"/>
     <use xlink:href="#DejaVuSansMono-Bold-39" transform="translate(60.205078 0)"/>
     <use xlink:href="#DejaVuSansMono-Bold-31" transform="translate(120.410156 0)"/>
     <use xlink:href="#DejaVuSansMono-Bold-2e" transform="translate(180.615234 0)"/>
     <use xlink:href="#DejaVuSansMono-Bold-32" transform="translate(240.820312 0)"/>
     <use xlink:href="#DejaVuSansMono-Bold-25" transform="translate(301.025391 0)"/>
    </g>
   </g>
   <g id="text_38">
    <g id="patch_41">
     <path d="M 221.115234 902.521444 
L 278.910234 902.521444 
Q 282.110234 902.521444 282.110234 899.321444 
L 282.110234 883.836444 
Q 282.110234 880.636444 278.910234 880.636444 
L 221.115234 880.636444 
Q 217.915234 880.636444 217.915234 883.836444 
L 217.915234 899.321444 
Q 217.915234 902.521444 221.115234 902.521444 
z
" style="fill: #d3d3d3; opacity: 0.7; stroke: #808080; stroke-width: 0.5; stroke-linejoin: miter"/>
    </g>
    <!-- 108.2% -->
    <g style="fill: #555555" transform="translate(221.115234 895.993944) scale(0.16 -0.16)">
     <defs>
      <path id="DejaVuSansMono-Bold-38" d="M 1925 2081 
Q 1616 2081 1425 1886 
Q 1234 1691 1234 1369 
Q 1234 1047 1425 850 
Q 1616 653 1925 653 
Q 2234 653 2426 853 
Q 2619 1053 2619 1369 
Q 2619 1691 2428 1886 
Q 2238 2081 1925 2081 
z
M 1241 2472 
Q 888 2594 703 2855 
Q 519 3116 519 3494 
Q 519 4075 897 4412 
Q 1275 4750 1925 4750 
Q 2578 4750 2956 4412 
Q 3334 4075 3334 3494 
Q 3334 3119 3153 2858 
Q 2972 2597 2625 2472 
Q 3013 2353 3231 2047 
Q 3450 1741 3450 1313 
Q 3450 641 3053 275 
Q 2656 -91 1925 -91 
Q 1197 -91 800 275 
Q 403 641 403 1313 
Q 403 1744 625 2050 
Q 847 2356 1241 2472 
z
M 1338 3419 
Q 1338 3144 1495 2983 
Q 1653 2822 1925 2822 
Q 2200 2822 2358 2983 
Q 2516 3144 2516 3419 
Q 2516 3691 2358 3848 
Q 2200 4006 1925 4006 
Q 1656 4006 1497 3847 
Q 1338 3688 1338 3419 
z
" transform="scale(0.015625)"/>
     </defs>
     <use xlink:href="#DejaVuSansMono-Bold-31"/>
     <use xlink:href="#DejaVuSansMono-Bold-30" transform="translate(60.205078 0)"/>
     <use xlink:href="#DejaVuSansMono-Bold-38" transform="translate(120.410156 0)"/>
     <use xlink:href="#DejaVuSansMono-Bold-2e" transform="translate(180.615234 0)"/>
     <use xlink:href="#DejaVuSansMono-Bold-32" transform="translate(240.820312 0)"/>
     <use xlink:href="#DejaVuSansMono-Bold-25" transform="translate(301.025391 0)"/>
    </g>
   </g>
   <g id="text_39">
    <g id="patch_42">
     <path d="M 284.772988 949.486836 
L 342.567988 949.486836 
Q 345.767988 949.486836 345.767988 946.286836 
L 345.767988 930.801836 
Q 345.767988 927.601836 342.567988 927.601836 
L 284.772988 927.601836 
Q 281.572988 927.601836 281.572988 930.801836 
L 281.572988 946.286836 
Q 281.572988 949.486836 284.772988 949.486836 
z
" style="fill: #d3d3d3; opacity: 0.7; stroke: #808080; stroke-width: 0.5; stroke-linejoin: miter"/>
    </g>
    <!-- 101.2% -->
    <g style="fill: #555555" transform="translate(284.772988 942.959336) scale(0.16 -0.16)">
     <use xlink:href="#DejaVuSansMono-Bold-31"/>
     <use xlink:href="#DejaVuSansMono-Bold-30" transform="translate(60.205078 0)"/>
     <use xlink:href="#DejaVuSansMono-Bold-31" transform="translate(120.410156 0)"/>
     <use xlink:href="#DejaVuSansMono-Bold-2e" transform="translate(180.615234 0)"/>
     <use xlink:href="#DejaVuSansMono-Bold-32" transform="translate(240.820312 0)"/>
     <use xlink:href="#DejaVuSansMono-Bold-25" transform="translate(301.025391 0)"/>
    </g>
   </g>
   <g id="text_40">
    <g id="patch_43">
     <path d="M 353.246992 1170.943569 
L 401.409492 1170.943569 
Q 404.609492 1170.943569 404.609492 1167.743569 
L 404.609492 1152.258569 
Q 404.609492 1149.058569 401.409492 1149.058569 
L 353.246992 1149.058569 
Q 350.046992 1149.058569 350.046992 1152.258569 
L 350.046992 1167.743569 
Q 350.046992 1170.943569 353.246992 1170.943569 
z
" style="fill: #d3d3d3; opacity: 0.7; stroke: #808080; stroke-width: 0.5; stroke-linejoin: miter"/>
    </g>
    <!-- 67.9% -->
    <g style="fill: #555555" transform="translate(353.246992 1164.416069) scale(0.16 -0.16)">
     <defs>
      <path id="DejaVuSansMono-Bold-36" d="M 2009 2338 
Q 1709 2338 1551 2120 
Q 1394 1903 1394 1491 
Q 1394 1081 1551 864 
Q 1709 647 2009 647 
Q 2309 647 2470 864 
Q 2631 1081 2631 1491 
Q 2631 1900 2470 2119 
Q 2309 2338 2009 2338 
z
M 3219 4556 
L 3219 3719 
Q 2972 3859 2745 3929 
Q 2519 4000 2309 4000 
Q 1809 4000 1548 3664 
Q 1288 3328 1275 2672 
Q 1422 2875 1650 2976 
Q 1878 3078 2188 3078 
Q 2819 3078 3162 2679 
Q 3506 2281 3506 1550 
Q 3506 766 3120 334 
Q 2734 -97 2034 -97 
Q 1181 -97 795 475 
Q 409 1047 409 2322 
Q 409 3534 881 4139 
Q 1353 4744 2297 4744 
Q 2516 4744 2748 4697 
Q 2981 4650 3219 4556 
z
" transform="scale(0.015625)"/>
      <path id="DejaVuSansMono-Bold-37" d="M 422 4666 
L 3372 4666 
L 3372 4013 
L 1791 0 
L 850 0 
L 2369 3853 
L 422 3853 
L 422 4666 
z
" transform="scale(0.015625)"/>
     </defs>
     <use xlink:href="#DejaVuSansMono-Bold-36"/>
     <use xlink:href="#DejaVuSansMono-Bold-37" transform="translate(60.205078 0)"/>
     <use xlink:href="#DejaVuSansMono-Bold-2e" transform="translate(120.410156 0)"/>
     <use xlink:href="#DejaVuSansMono-Bold-39" transform="translate(180.615234 0)"/>
     <use xlink:href="#DejaVuSansMono-Bold-25" transform="translate(240.820312 0)"/>
    </g>
   </g>
   <g id="text_41">
    <g id="patch_44">
     <path d="M 416.904746 1221.189727 
L 465.067246 1221.189727 
Q 468.267246 1221.189727 468.267246 1217.989727 
L 468.267246 1202.504727 
Q 468.267246 1199.304727 465.067246 1199.304727 
L 416.904746 1199.304727 
Q 413.704746 1199.304727 413.704746 1202.504727 
L 413.704746 1217.989727 
Q 413.704746 1221.189727 416.904746 1221.189727 
z
" style="fill: #d3d3d3; opacity: 0.7; stroke: #808080; stroke-width: 0.5; stroke-linejoin: miter"/>
    </g>
    <!-- 60.3% -->
    <g style="fill: #555555" transform="translate(416.904746 1214.662227) scale(0.16 -0.16)">
     <defs>
      <path id="DejaVuSansMono-Bold-33" d="M 1716 2088 
L 1222 2088 
L 1222 2900 
L 1716 2900 
Q 2059 2900 2248 3036 
Q 2438 3172 2438 3419 
Q 2438 3678 2248 3823 
Q 2059 3969 1716 3969 
Q 1453 3969 1153 3903 
Q 853 3838 531 3713 
L 531 4550 
Q 853 4647 1165 4698 
Q 1478 4750 1766 4750 
Q 2503 4750 2915 4428 
Q 3328 4106 3328 3541 
Q 3328 3125 3090 2861 
Q 2853 2597 2413 2516 
Q 2913 2428 3175 2117 
Q 3438 1806 3438 1300 
Q 3438 622 3003 265 
Q 2569 -91 1741 -91 
Q 1388 -91 1045 -31 
Q 703 28 391 141 
L 391 997 
Q 684 850 1025 773 
Q 1366 697 1741 697 
Q 2116 697 2334 870 
Q 2553 1044 2553 1338 
Q 2553 1697 2334 1892 
Q 2116 2088 1716 2088 
z
" transform="scale(0.015625)"/>
     </defs>
     <use xlink:href="#DejaVuSansMono-Bold-36"/>
     <use xlink:href="#DejaVuSansMono-Bold-30" transform="translate(60.205078 0)"/>
     <use xlink:href="#DejaVuSansMono-Bold-2e" transform="translate(120.410156 0)"/>
     <use xlink:href="#DejaVuSansMono-Bold-33" transform="translate(180.615234 0)"/>
     <use xlink:href="#DejaVuSansMono-Bold-25" transform="translate(240.820312 0)"/>
    </g>
   </g>
   <g id="text_42">
    <g id="patch_45">
     <path d="M 480.5625 1208.120279 
L 528.725 1208.120279 
Q 531.925 1208.120279 531.925 1204.920279 
L 531.925 1189.435279 
Q 531.925 1186.235279 528.725 1186.235279 
L 480.5625 1186.235279 
Q 477.3625 1186.235279 477.3625 1189.435279 
L 477.3625 1204.920279 
Q 477.3625 1208.120279 480.5625 1208.120279 
z
" style="fill: #d3d3d3; opacity: 0.7; stroke: #808080; stroke-width: 0.5; stroke-linejoin: miter"/>
    </g>
    <!-- 62.3% -->
    <g style="fill: #555555" transform="translate(480.5625 1201.592779) scale(0.16 -0.16)">
     <use xlink:href="#DejaVuSansMono-Bold-36"/>
     <use xlink:href="#DejaVuSansMono-Bold-32" transform="translate(60.205078 0)"/>
     <use xlink:href="#DejaVuSansMono-Bold-2e" transform="translate(120.410156 0)"/>
     <use xlink:href="#DejaVuSansMono-Bold-33" transform="translate(180.615234 0)"/>
     <use xlink:href="#DejaVuSansMono-Bold-25" transform="translate(240.820312 0)"/>
    </g>
   </g>
   <g id="text_43">
    <g id="patch_46">
     <path d="M 544.220254 1138.186474 
L 592.382754 1138.186474 
Q 595.582754 1138.186474 595.582754 1134.986474 
L 595.582754 1119.501474 
Q 595.582754 1116.301474 592.382754 1116.301474 
L 544.220254 1116.301474 
Q 541.020254 1116.301474 541.020254 1119.501474 
L 541.020254 1134.986474 
Q 541.020254 1138.186474 544.220254 1138.186474 
z
" style="fill: #d3d3d3; opacity: 0.7; stroke: #808080; stroke-width: 0.5; stroke-linejoin: miter"/>
    </g>
    <!-- 72.8% -->
    <g style="fill: #555555" transform="translate(544.220254 1131.658974) scale(0.16 -0.16)">
     <use xlink:href="#DejaVuSansMono-Bold-37"/>
     <use xlink:href="#DejaVuSansMono-Bold-32" transform="translate(60.205078 0)"/>
     <use xlink:href="#DejaVuSansMono-Bold-2e" transform="translate(120.410156 0)"/>
     <use xlink:href="#DejaVuSansMono-Bold-38" transform="translate(180.615234 0)"/>
     <use xlink:href="#DejaVuSansMono-Bold-25" transform="translate(240.820312 0)"/>
    </g>
   </g>
   <g id="text_44">
    <g id="patch_47">
     <path d="M 607.878008 1267.06387 
L 656.040508 1267.06387 
Q 659.240508 1267.06387 659.240508 1263.86387 
L 659.240508 1248.37887 
Q 659.240508 1245.17887 656.040508 1245.17887 
L 607.878008 1245.17887 
Q 604.678008 1245.17887 604.678008 1248.37887 
L 604.678008 1263.86387 
Q 604.678008 1267.06387 607.878008 1267.06387 
z
" style="fill: #d3d3d3; opacity: 0.7; stroke: #808080; stroke-width: 0.5; stroke-linejoin: miter"/>
    </g>
    <!-- 53.4% -->
    <g style="fill: #555555" transform="translate(607.878008 1260.53637) scale(0.16 -0.16)">
     <defs>
      <path id="DejaVuSansMono-Bold-35" d="M 603 4666 
L 3138 4666 
L 3138 3853 
L 1350 3853 
L 1350 2988 
Q 1463 3031 1591 3051 
Q 1719 3072 1863 3072 
Q 2556 3072 2987 2634 
Q 3419 2197 3419 1497 
Q 3419 763 2951 336 
Q 2484 -91 1678 -91 
Q 1378 -91 1072 -41 
Q 766 9 447 109 
L 447 941 
Q 706 813 979 748 
Q 1253 684 1528 684 
Q 2016 684 2269 892 
Q 2522 1100 2522 1497 
Q 2522 1863 2270 2083 
Q 2019 2303 1600 2303 
Q 1353 2303 1104 2242 
Q 856 2181 603 2059 
L 603 4666 
z
" transform="scale(0.015625)"/>
     </defs>
     <use xlink:href="#DejaVuSansMono-Bold-35"/>
     <use xlink:href="#DejaVuSansMono-Bold-33" transform="translate(60.205078 0)"/>
     <use xlink:href="#DejaVuSansMono-Bold-2e" transform="translate(120.410156 0)"/>
     <use xlink:href="#DejaVuSansMono-Bold-34" transform="translate(180.615234 0)"/>
     <use xlink:href="#DejaVuSansMono-Bold-25" transform="translate(240.820312 0)"/>
    </g>
   </g>
   <g id="text_45">
    <g id="patch_48">
     <path d="M 671.535762 1287.415947 
L 719.698262 1287.415947 
Q 722.898262 1287.415947 722.898262 1284.215947 
L 722.898262 1268.730947 
Q 722.898262 1265.530947 719.698262 1265.530947 
L 671.535762 1265.530947 
Q 668.335762 1265.530947 668.335762 1268.730947 
L 668.335762 1284.215947 
Q 668.335762 1287.415947 671.535762 1287.415947 
z
" style="fill: #d3d3d3; opacity: 0.7; stroke: #808080; stroke-width: 0.5; stroke-linejoin: miter"/>
    </g>
    <!-- 50.4% -->
    <g style="fill: #555555" transform="translate(671.535762 1280.888447) scale(0.16 -0.16)">
     <use xlink:href="#DejaVuSansMono-Bold-35"/>
     <use xlink:href="#DejaVuSansMono-Bold-30" transform="translate(60.205078 0)"/>
     <use xlink:href="#DejaVuSansMono-Bold-2e" transform="translate(120.410156 0)"/>
     <use xlink:href="#DejaVuSansMono-Bold-34" transform="translate(180.615234 0)"/>
     <use xlink:href="#DejaVuSansMono-Bold-25" transform="translate(240.820312 0)"/>
    </g>
   </g>
   <g id="text_46">
    <g id="patch_49">
     <path d="M 735.193516 1272.409632 
L 783.356016 1272.409632 
Q 786.556016 1272.409632 786.556016 1269.209632 
L 786.556016 1253.724632 
Q 786.556016 1250.524632 783.356016 1250.524632 
L 735.193516 1250.524632 
Q 731.993516 1250.524632 731.993516 1253.724632 
L 731.993516 1269.209632 
Q 731.993516 1272.409632 735.193516 1272.409632 
z
" style="fill: #d3d3d3; opacity: 0.7; stroke: #808080; stroke-width: 0.5; stroke-linejoin: miter"/>
    </g>
    <!-- 52.6% -->
    <g style="fill: #555555" transform="translate(735.193516 1265.882132) scale(0.16 -0.16)">
     <use xlink:href="#DejaVuSansMono-Bold-35"/>
     <use xlink:href="#DejaVuSansMono-Bold-32" transform="translate(60.205078 0)"/>
     <use xlink:href="#DejaVuSansMono-Bold-2e" transform="translate(120.410156 0)"/>
     <use xlink:href="#DejaVuSansMono-Bold-36" transform="translate(180.615234 0)"/>
     <use xlink:href="#DejaVuSansMono-Bold-25" transform="translate(240.820312 0)"/>
    </g>
   </g>
   <g id="text_47">
    <g id="patch_50">
     <path d="M 798.85127 1275.022672 
L 847.01377 1275.022672 
Q 850.21377 1275.022672 850.21377 1271.822672 
L 850.21377 1256.337672 
Q 850.21377 1253.137672 847.01377 1253.137672 
L 798.85127 1253.137672 
Q 795.65127 1253.137672 795.65127 1256.337672 
L 795.65127 1271.822672 
Q 795.65127 1275.022672 798.85127 1275.022672 
z
" style="fill: #d3d3d3; opacity: 0.7; stroke: #808080; stroke-width: 0.5; stroke-linejoin: miter"/>
    </g>
    <!-- 52.2% -->
    <g style="fill: #555555" transform="translate(798.85127 1268.495172) scale(0.16 -0.16)">
     <use xlink:href="#DejaVuSansMono-Bold-35"/>
     <use xlink:href="#DejaVuSansMono-Bold-32" transform="translate(60.205078 0)"/>
     <use xlink:href="#DejaVuSansMono-Bold-2e" transform="translate(120.410156 0)"/>
     <use xlink:href="#DejaVuSansMono-Bold-32" transform="translate(180.615234 0)"/>
     <use xlink:href="#DejaVuSansMono-Bold-25" transform="translate(240.820312 0)"/>
    </g>
   </g>
   <g id="text_48">
    <g id="patch_51">
     <path d="M 862.509024 1267.407526 
L 910.671524 1267.407526 
Q 913.871524 1267.407526 913.871524 1264.207526 
L 913.871524 1248.722526 
Q 913.871524 1245.522526 910.671524 1245.522526 
L 862.509024 1245.522526 
Q 859.309024 1245.522526 859.309024 1248.722526 
L 859.309024 1264.207526 
Q 859.309024 1267.407526 862.509024 1267.407526 
z
" style="fill: #d3d3d3; opacity: 0.7; stroke: #808080; stroke-width: 0.5; stroke-linejoin: miter"/>
    </g>
    <!-- 53.4% -->
    <g style="fill: #555555" transform="translate(862.509024 1260.880026) scale(0.16 -0.16)">
     <use xlink:href="#DejaVuSansMono-Bold-35"/>
     <use xlink:href="#DejaVuSansMono-Bold-33" transform="translate(60.205078 0)"/>
     <use xlink:href="#DejaVuSansMono-Bold-2e" transform="translate(120.410156 0)"/>
     <use xlink:href="#DejaVuSansMono-Bold-34" transform="translate(180.615234 0)"/>
     <use xlink:href="#DejaVuSansMono-Bold-25" transform="translate(240.820312 0)"/>
    </g>
   </g>
  </g>
 </g>
 <defs>
  <clipPath id="p17d8b736b2">
   <rect x="58.24375" y="1120.397" width="892.8" height="665.28"/>
  </clipPath>
 </defs>
</svg>
